<svg width="511" height="294" viewBox="0 0 511 294" fill="none" xmlns="http://www.w3.org/2000/svg">
<path fill-rule="evenodd" clip-rule="evenodd" d="M189.008 13.2049C188.871 12.6436 188.62 12.3479 188.256 12.3177C187.892 12.2875 187.642 11.9917 187.505 11.4304C186.631 12.2379 186.009 13.1029 185.639 14.0255C185.269 14.9481 184.872 15.7585 184.447 16.4565C183.056 19.5309 182.043 22.4535 181.41 25.2241C180.889 27.9674 180.438 30.7531 180.057 33.5813C179.517 34.7831 179.062 35.8454 178.692 36.768L177.919 39.4537C177.662 40.3489 177.418 41.3003 177.187 42.3078C176.957 43.3153 176.768 44.4912 176.62 45.8355C176.239 48.6637 175.968 51.7028 175.809 54.9526C175.734 58.0629 175.731 60.9774 175.798 63.6962C175.696 66.6942 175.668 69.0201 175.715 70.6738C175.846 72.1879 176.047 73.7445 176.317 75.3435C176.701 76.9152 177.096 78.7811 177.503 80.9414C177.911 83.1018 178.369 86.2012 178.877 90.2398C179.091 92.0907 179.58 94.5878 180.346 97.7311C181.252 100.959 182.212 104.412 183.228 108.089C184.382 111.851 185.495 115.683 186.565 119.585C187.774 123.572 188.845 127.236 189.778 130.576C190.712 133.916 191.353 136.793 191.703 139.205C192.193 141.702 192.295 143.342 192.01 144.125C191.673 144.207 191.35 144.345 191.041 144.54C190.422 144.928 190.153 145.291 190.235 145.628C189.811 146.326 189.346 146.617 188.842 146.502C188.339 146.387 187.874 146.679 187.45 147.377C186.439 147.623 185.64 147.758 185.051 147.783C184.489 147.92 183.86 147.776 183.161 147.351C182.6 147.488 182.054 147.443 181.522 147.215C180.991 146.988 180.445 146.943 179.883 147.079C178.736 146.764 177.967 146.535 177.575 146.393C177.183 146.251 176.359 145.797 175.102 145.033C174.686 144.302 174.175 143.178 173.567 141.661C173.072 140.117 172.605 138.446 172.167 136.65C171.73 134.854 171.375 133.157 171.105 131.557C170.946 129.931 170.883 128.698 170.916 127.857L169.685 122.805C169.33 121.346 169 120.237 168.696 119.479L168.163 117.289C168.026 116.728 167.792 116.012 167.461 115.141L166.517 111.268L164.547 103.186C164.58 102.345 164.528 101.644 164.391 101.083C164.394 100.606 164.341 100.144 164.231 99.6947C164.149 99.3579 163.984 98.9225 163.734 98.3886L163.283 96.5363C163.352 94.3788 163.042 92.3732 162.352 90.5195C161.662 88.6657 161.407 86.8847 161.585 85.1762C160.277 78.8349 159.216 73.5039 158.401 69.1833C157.698 64.8353 157.117 61.2307 156.658 58.3694C156.171 55.3959 155.751 52.9413 155.398 51.0055C155.018 48.9574 154.609 47.0353 154.171 45.2391L152.94 40.1874C153.255 39.0402 153.249 37.7931 152.92 36.446C152.677 34.9592 152.364 33.43 151.981 31.8584L151.592 26.6015C150.893 26.1769 150.492 25.2637 150.389 23.8619C150.285 22.4601 150.152 21.1842 149.991 20.0342C149.283 25.9151 148.547 31.9219 147.781 38.0547C147.016 44.1875 145.748 49.967 143.978 55.3932C143.663 56.5403 143.447 57.3658 143.332 57.8695C143.302 58.2337 142.85 58.8195 141.976 59.627C140.829 59.3119 140.062 58.6067 139.676 57.5114C139.291 56.4161 139.31 55.5195 139.735 54.8214C139.938 53.7016 140.142 52.3437 140.348 50.7475C140.553 49.1513 140.703 47.5688 140.796 46C140.975 44.2916 141.111 42.653 141.204 41.0842C141.41 39.488 141.67 38.1164 141.986 36.9692C142.101 36.4655 142.275 35.4717 142.508 33.9877C142.741 32.5038 142.96 30.9638 143.166 29.3676C143.457 27.6319 143.732 26.0781 143.993 24.7065C144.226 23.2226 144.386 22.1726 144.474 21.5566C144.789 20.4095 144.898 18.6586 144.8 16.304C144.814 13.922 144.979 12.1574 145.294 11.0103C144.911 9.43864 145.104 7.54814 145.874 5.3388C146.729 2.98985 147.594 1.41162 148.467 0.604129C151.611 -0.16179 154.695 -0.19943 157.718 0.491205C160.741 1.18184 162.555 2.52383 163.16 4.51717C162.899 5.88882 162.753 6.99491 162.72 7.83544L162.875 9.93821C163.039 10.6118 163.161 11.3552 163.24 12.1683C163.404 12.8419 163.525 13.8235 163.601 15.1131C163.847 16.1234 164.092 17.372 164.336 18.8587C164.664 20.2058 164.739 21.7336 164.56 23.442L164.95 28.699C165.13 31.3904 165.577 33.9573 166.291 36.3997C167.005 38.8421 167.451 41.6472 167.628 44.815C167.705 46.1046 167.824 47.3244 167.985 48.4743C168.119 49.512 168.309 50.5361 168.555 51.5464C168.8 48.1569 168.944 45.0891 168.988 42.343C169.006 39.4846 169.417 36.2922 170.223 32.766C170.495 29.4887 171.005 26.2129 171.753 22.9385C172.614 19.6367 173.74 16.4487 175.132 13.3743C176.006 12.5668 176.684 11.6881 177.166 10.7381C177.648 9.78818 178.326 8.90945 179.2 8.10196C180.838 6.03793 182.795 4.5503 185.071 3.63907C187.319 2.61559 189.577 2.36284 191.844 2.88081L193.101 3.64497C194.358 4.40913 195.909 5.16104 197.755 5.90069C199.573 6.52808 200.954 7.55922 201.899 8.99411L202.391 11.0148C202.695 11.7733 203.196 12.3648 203.894 12.7893L204.387 14.81C205.441 16.694 206.045 18.6873 206.201 20.7901C206.469 22.8655 206.849 24.9135 207.342 26.9342L207.537 36.5198L208.768 41.5715C208.343 42.2696 208.143 42.913 208.168 43.5016L208.742 45.8591C209.537 44.2384 210.12 42.7286 210.493 41.3296C210.866 39.9306 211.182 38.5453 211.443 37.1736C211.703 35.802 212.006 34.3605 212.352 32.8493C212.67 31.2258 213.171 29.3791 213.856 27.3094C214.527 27.6217 215.227 27.808 215.955 27.8684C216.769 27.7892 217.244 28.0302 217.38 28.5915C217.517 29.1529 217.539 30.2179 217.445 31.7867C217.352 33.3555 217.093 34.489 216.668 35.1871C214.692 42.2094 212.981 47.1455 211.534 49.9954C210.173 52.7056 209.195 54.5494 208.6 55.5267C208.597 56.0031 208.622 56.5918 208.674 57.2927C208.698 57.8813 208.708 58.6521 208.702 59.6049C208.633 61.7623 208.535 64.0458 208.409 66.4551C208.255 68.7522 207.864 70.8097 207.237 72.6275C206.719 74.8944 206.358 76.5877 206.155 77.7075C205.953 78.8273 205.762 80.2414 205.583 81.9498C205.065 84.2167 204.438 86.0345 203.701 87.4033C202.991 88.8844 202.042 90.6022 200.853 92.5568C200.683 92.8361 200.316 93.2823 199.752 93.8954C199.3 94.4813 198.722 95.0383 198.018 95.5666C197.426 96.0675 196.695 96.4835 195.824 96.8146C195.066 97.1183 194.225 97.0853 193.302 96.7154C192.741 96.8522 192.222 96.9192 191.745 96.9163C191.296 97.0258 190.723 96.8682 190.024 96.4437C189.014 96.6898 188.174 96.4186 187.506 95.6299C186.866 94.9535 185.972 94.4578 184.824 94.1426C184.545 93.9728 184.267 93.5648 183.991 92.9186L183.498 90.8979L183.343 88.7951C183.291 88.0942 183.238 87.6315 183.183 87.407C183.194 85.5014 183.216 84.1283 183.25 83.2878C183.395 82.4199 183.511 81.6779 183.599 81.0619C183.799 80.4185 184.042 79.7054 184.327 78.9224C184.724 78.112 185.236 76.798 185.864 74.9801C186.294 73.3292 187.204 71.2048 188.593 68.6068C190.067 65.8692 191.51 63.4958 192.924 61.4864C193.712 51.5424 193.654 42.5182 192.749 34.4137C191.845 26.3093 190.597 19.2397 189.008 13.2049ZM188.697 79.2848C188.525 80.0404 188.281 80.9918 187.965 82.1389C187.763 83.2587 187.801 83.9035 188.08 84.0733C188.162 84.4101 188.596 84.4827 189.382 84.2912C189.979 82.8375 190.38 81.5508 190.582 80.431C190.813 79.4235 191.031 78.1217 191.236 76.5255L191.763 72.8294C191.939 71.5974 192.058 70.379 192.121 69.1743C191.269 71.0469 190.473 72.9058 189.733 74.751C188.994 76.5962 188.648 78.1074 188.697 79.2848ZM125.318 76.1724C125.154 75.4989 124.964 74.4748 124.748 73.1003C124.644 71.6985 124.457 70.1981 124.186 68.5991C124.028 66.9727 123.784 65.486 123.456 64.1388C123.213 62.6521 122.897 61.5993 122.508 60.9804C121.744 62.2369 121.033 63.9562 120.375 66.1382C119.69 68.2079 118.865 70.1927 117.901 72.0926C116.936 73.9925 115.721 75.5967 114.256 76.9051C112.763 78.1012 110.883 78.4403 108.616 77.9223C108.03 77.4705 107.499 77.2431 107.022 77.2402C106.518 77.1251 105.931 76.9115 105.26 76.5992C105.178 76.2624 104.843 76.1063 104.254 76.1308C103.777 76.1279 103.471 75.8458 103.334 75.2845C102.472 74.1864 101.581 73.2143 100.661 72.3681C99.8256 71.3822 99.2576 70.2719 98.9566 69.037C98.6009 67.5776 98.1193 66.0894 97.5117 64.5725C97.0164 63.0282 96.4786 61.5537 95.8983 60.149C94.8952 63.8422 93.8195 67.9694 92.671 72.5305C91.4952 76.9794 90.377 81.1764 89.3163 85.1215C88.3406 88.927 87.4526 92.1165 86.6524 94.69C85.9371 97.1239 85.4959 98.2422 85.3289 98.045C85.0987 99.0525 84.8958 100.172 84.7203 101.404C84.5447 102.636 84.0625 103.586 83.2737 104.254C82.5122 105.034 81.8781 105.605 81.3714 105.966C80.8921 106.44 80.1486 106.562 79.1409 106.331C78.5549 105.879 78.177 105.793 78.0072 106.072C77.977 106.437 77.5689 106.714 76.7829 106.906L75.6039 107.193C75.0425 107.33 74.6646 107.243 74.4703 106.934C74.2759 106.625 74.0103 106.511 73.6734 106.593C72.5563 105.914 71.4146 104.646 70.2485 102.789C69.1672 100.793 68.7568 99.1091 69.0173 97.7375C68.7955 97.3158 68.6984 97.1611 68.7257 97.2733L68.5616 96.5998C68.1871 93.5989 67.8659 91.0608 67.5979 88.9854C67.33 86.91 67.1442 85.1713 67.0405 83.7695C66.9367 82.3677 66.8316 81.204 66.725 80.2786C66.6184 79.3531 66.4556 78.4414 66.2367 77.5433C66.3576 76.0867 66.2949 74.8533 66.0486 73.8429C65.8873 72.693 65.9369 71.4322 66.1973 70.0605L65.2945 66.3559C64.3905 67.5275 63.9206 68.7718 63.8847 70.0887C63.8214 71.2934 63.6747 72.3995 63.4444 73.407C63.5812 73.9683 63.5071 74.6405 63.2222 75.4234C63.0495 76.1791 62.7933 76.8361 62.4536 77.3946L62.5767 77.8998L62.7408 78.5733C62.8805 78.6582 62.964 78.7568 62.9913 78.8691C63.5773 79.321 63.7853 79.6865 63.6155 79.9658C63.4183 80.1327 63.3881 80.4969 63.5249 81.0582C63.2701 81.477 63.1413 81.9246 63.1384 82.401C63.1356 82.8774 62.9643 83.3949 62.6246 83.9533C62.367 84.8486 62.108 85.982 61.8475 87.3537C61.6993 88.698 61.3417 89.9149 60.7746 91.0045C60.4047 91.9271 60.132 93.0044 59.9564 94.2364C59.8932 95.4411 59.4534 96.3212 58.6373 96.8768L57.6635 98.006C57.6851 99.0711 57.3577 99.9239 56.6812 100.564C55.9773 101.093 55.1762 101.466 54.2779 101.685L50.9094 102.506C50.0111 102.724 49.3101 102.776 48.8062 102.661C48.3023 102.546 47.7697 102.557 47.2083 102.694C46.5374 102.381 45.7543 102.097 44.8589 101.839C44.0484 101.442 43.3638 101.073 42.8053 100.734C42.1618 100.534 41.6032 100.194 41.1295 99.7149C40.6559 99.2357 40.0289 98.6154 39.2486 97.8541C38.4957 97.205 37.9263 96.3328 37.5404 95.2376C37.1545 94.1423 36.5441 93.1018 35.709 92.1159C35.4024 91.8339 35.1109 91.3697 34.8344 90.7235C34.558 90.0773 34.3513 89.4735 34.2145 88.9122C33.8475 89.3584 33.4517 89.9306 33.027 90.6286C32.8572 90.9079 32.6737 91.131 32.4765 91.2979C32.4189 91.5498 32.2203 91.955 31.8806 92.5135C31.7107 92.7927 31.5272 93.0158 31.33 93.1828C31.1544 94.4148 30.8393 95.5619 30.3844 96.6241C29.9023 97.5741 29.4899 98.5665 29.1473 99.6013C28.5802 100.691 27.8721 101.934 27.0228 103.33C26.1736 104.726 25.4791 106.025 24.9393 107.227C23.8957 108.314 22.9781 109.429 22.1864 110.573C21.3948 111.718 20.3814 112.44 19.1462 112.741C15.0795 113.137 11.8455 112.557 9.44419 111.002C7.04289 109.446 5.20444 107.515 3.92882 105.21C2.54092 102.932 1.62951 100.656 1.1946 98.3836C0.620048 96.0261 0.294574 94.2026 0.218185 92.913C0.642804 92.2149 0.829178 91.5154 0.777303 90.8145C0.698068 90.0013 0.758479 89.273 0.958531 88.6297C0.654729 87.8712 0.435852 86.9731 0.301898 85.9354C0.0556604 84.925 0.144851 84.0708 0.569471 83.3727C-0.117367 81.0426 -0.118247 78.8427 0.566834 76.773C0.375316 75.9871 0.296084 75.174 0.329133 74.3334L0.683051 71.393C1.02559 70.3581 1.15724 69.4341 1.07801 68.6209C0.971416 67.6954 1.01957 66.6728 1.22246 65.5531C1.45557 64.0692 1.64478 62.8933 1.79012 62.0254C2.04773 61.1301 2.26289 60.3047 2.43558 59.5491C2.60827 58.7934 2.76729 57.9817 2.91262 57.1138C3.05795 56.2459 3.19103 55.0837 3.31184 53.6271C3.42982 52.647 3.50675 51.4984 3.54265 50.1815C3.57854 48.8646 3.71304 47.4641 3.94614 45.9802C4.42548 45.5067 4.65147 45.2138 4.62411 45.1015C4.70903 44.9619 4.62695 44.6251 4.37787 44.0912C4.26843 43.6421 4.24392 43.0534 4.30433 42.3252C4.36474 41.5969 4.10197 41.0068 3.51604 40.5549L2.50549 40.8011L1.87709 40.419C1.65252 40.4737 1.47042 40.4586 1.33078 40.3737C0.966565 40.3435 0.716058 40.0478 0.57926 39.4865C0.0178414 39.6232 -0.135482 39.4822 0.11929 39.0634L0.801526 37.47C1.6998 37.2512 3.08824 37.0913 4.96686 36.9905C6.84548 36.8896 8.35846 36.9967 9.50581 37.3118C10.4286 37.6816 11.2254 38.0227 11.8963 38.335C12.5398 38.535 13.4201 38.9746 14.5372 39.6539C15.2355 40.0784 15.7365 40.6699 16.0403 41.4284C16.3167 42.0746 16.496 42.5661 16.5781 42.9029C16.9064 44.25 17.388 45.7382 18.023 47.3674C18.7429 48.857 19.0424 50.3301 18.9216 51.7866L20.01 52.5918C19.9741 53.9087 19.9367 55.4639 19.898 57.2572C19.9442 58.9109 20.0192 60.4387 20.1229 61.8405C19.8898 63.3245 19.6718 64.6263 19.4689 65.7461C19.2386 66.7536 19.1193 67.9719 19.1107 69.4011L19.3159 70.2431C19.9018 70.695 20.1646 71.285 20.1042 72.0133C20.0438 72.7416 20.0683 73.3303 20.1777 73.7793C19.939 76.216 19.7714 78.457 19.6751 80.5022C19.6637 82.4078 19.5386 84.5789 19.2998 87.0156C19.1517 88.3599 19.0733 89.7467 19.0648 91.1759C19.0562 92.6051 19.2723 93.9795 19.7129 95.2993C19.4581 95.7182 19.343 96.2219 19.3675 96.8106C19.392 97.3992 19.2891 98.1973 19.0589 99.2048L19.5103 101.057L20.3524 100.852C20.5525 100.209 20.8073 99.7898 21.1168 99.5954C21.5385 99.3738 21.6947 99.0384 21.5853 98.5894C22.3826 96.4923 23.1649 94.5773 23.9321 92.8444C24.8115 91.0841 25.4952 89.2525 25.983 87.3498C27.0078 84.7216 27.8642 82.1344 28.5521 79.5883C29.2127 76.9299 29.6774 74.2003 29.9464 71.3995C30.2861 70.841 30.5286 70.1279 30.674 69.26C30.8193 68.3921 30.7825 67.5091 30.5637 66.611C30.9062 65.5761 31.053 64.47 31.0039 63.2927C31.0398 61.9758 31.1743 60.5754 31.4074 59.0914C31.3037 57.6896 31.2561 56.2741 31.2646 54.8449C31.358 53.2761 31.4242 51.595 31.4629 49.8017C31.2167 48.7913 31.1374 47.9781 31.2252 47.3621C31.4252 46.7187 31.4158 45.948 31.1969 45.0499C31.3178 43.5934 31.6207 42.1519 32.1057 40.7256C32.5907 39.2992 33.3414 37.9865 34.3576 36.7876C34.2482 36.3385 34.3209 35.9046 34.5756 35.4857C34.9427 35.0395 35.4192 35.0424 36.0051 35.4943C36.0325 35.6065 36.1297 35.7612 36.2967 35.9584C36.4637 36.1556 36.5745 36.3664 36.6292 36.5909C36.7962 36.7881 37.0194 36.9716 37.2987 37.1414C37.9422 37.3414 38.472 37.807 38.8881 38.5381C39.2768 39.157 40.0311 39.5678 41.1511 39.7707C41.4851 40.165 41.8602 40.7278 42.2763 41.4589C42.665 42.0777 43.1948 42.5433 43.8656 42.8556L44.8916 47.0654C45.3408 46.9559 45.5078 47.1531 45.3926 47.6569C45.3898 48.1333 45.4431 48.596 45.5525 49.045C45.3194 50.5289 45.3109 51.9581 45.5269 53.3326C45.7156 54.5948 45.8481 55.8708 45.9245 57.1603C46.0613 57.7216 46.016 58.2678 45.7886 58.799C45.6735 59.3027 45.9377 59.6546 46.5812 59.8546C46.6359 60.0791 46.6208 60.2612 46.5358 60.4008C46.366 60.68 46.1126 60.8607 45.7758 60.9428C45.5757 61.5861 45.6139 62.2309 45.8904 62.8771C46.2791 63.496 46.3173 64.1408 46.005 64.8115C46.2238 65.7096 46.3153 66.8171 46.2794 68.134C46.3558 69.4236 46.5445 70.6859 46.8455 71.9207C46.7275 72.9009 46.7355 73.9098 46.8694 74.9475C47.0883 75.8456 47.1373 77.0229 47.0165 78.4795L47.4269 80.1634L47.7963 81.6789C47.8784 82.0157 48.0029 82.2827 48.1699 82.4798C47.8821 83.7392 47.7367 84.6071 47.7339 85.0835L48.1033 86.599C48.5467 87.4424 48.767 88.1023 48.7642 88.5787C48.8736 89.0278 48.7721 89.5876 48.4598 90.2584C48.5966 90.8197 48.8594 91.4098 49.2481 92.0286C49.7217 92.5079 50.027 93.0281 50.1638 93.5894L51.0059 93.3843C51.6853 92.2673 52.2675 90.9957 52.7525 89.5694C53.2102 88.0308 53.5131 86.5893 53.6613 85.245C54.0945 83.1177 54.4016 80.9617 54.5829 78.7768C54.7367 76.4798 54.9892 74.0992 55.3403 71.6351C55.5734 70.1512 55.8202 68.7235 56.0806 67.3518C56.3137 65.8679 56.2237 64.5222 55.8104 63.3147C56.153 62.2798 56.3969 61.3284 56.5422 60.4605C56.7725 59.453 56.8768 58.4167 56.8551 57.3517C57.2421 53.5707 57.6838 50.0142 58.1802 46.6823C58.7615 43.2107 59.2169 39.7104 59.5463 36.1813C59.9983 35.5954 60.2394 35.1205 60.2696 34.7563C60.3847 34.2526 60.8367 33.6667 61.6255 32.9989C61.4887 32.4376 61.2108 32.0296 60.7919 31.7748C60.4853 31.4928 60.4881 31.0164 60.8004 30.3456C60.691 29.8966 60.6377 29.4339 60.6405 28.9575C60.6434 28.4811 60.8845 28.0061 61.3638 27.5325C62.5989 27.2316 63.6793 27.0279 64.6049 26.9213C65.6429 26.7874 66.945 27.0054 68.5112 27.5752C70.1898 28.1177 71.4603 28.938 72.3227 30.0361C73.185 31.1342 74.0611 32.2884 74.9508 33.4988L75.9443 36.111C76.3604 36.8421 76.5231 37.7539 76.4325 38.8463C76.7637 39.717 77.151 40.5741 77.5944 41.4175C78.1228 42.1212 78.4964 42.9222 78.7153 43.8202C79.0163 45.0551 79.1776 46.2051 79.1992 47.2701C79.1935 48.2229 79.3822 49.4852 79.7653 51.0568C79.3954 51.9794 79.3335 52.9459 79.5798 53.9562C79.9109 54.827 80.2407 55.9359 80.569 57.2831C80.6784 57.7321 80.7029 58.3208 80.6425 59.049C80.5821 59.7773 80.6203 60.4221 80.7571 60.9834C80.7155 63.2532 80.7999 65.5516 81.0103 67.8789C81.1932 70.094 81.3625 72.2529 81.5182 74.3556C81.3426 75.5877 81.3355 76.7787 81.4968 77.9286C81.7704 79.0512 82.0591 79.9918 82.3629 80.7503C82.4091 82.404 82.5402 83.9181 82.7562 85.2926C82.9723 86.667 83.0062 88.0264 82.858 89.3707C83.6007 87.0491 84.5009 84.154 85.5587 80.6853C86.5892 77.1043 87.5786 73.3549 88.527 69.4371C89.5603 65.3798 90.5512 61.3922 91.4996 57.4744C92.448 53.5566 93.2114 50.1002 93.7899 47.105C93.5277 44.0768 93.1791 41.4264 92.7442 39.1538C92.4216 36.8539 92.2688 34.2747 92.2859 31.4163C92.4369 29.5956 92.3497 27.7735 92.0242 25.95C91.6714 24.0142 91.4459 21.869 91.3478 19.5144C91.129 18.6163 91.2469 17.6361 91.7018 16.5739C92.2689 15.4843 92.6675 14.4358 92.8978 13.4283C92.8704 13.316 93.054 13.0929 93.4484 12.759L94.8864 11.3383C95.478 10.8374 96.0272 10.4063 96.5339 10.045C97.1255 9.54411 97.4926 9.09791 97.6351 8.70641C98.3144 7.58949 99.1566 7.38433 100.161 8.09094C101.728 8.66078 103.252 9.30043 104.733 10.0099C106.299 10.5797 107.02 11.8311 106.897 13.7641C107.335 15.5602 107.703 17.314 108.001 19.0252C108.411 20.7092 108.513 22.3492 108.308 23.9454C108.609 25.1802 108.629 26.4835 108.368 27.8551C108.081 29.1145 107.639 30.2329 107.045 31.2102C106.73 32.3573 106.598 33.2813 106.65 33.9822C106.702 34.6832 106.824 35.4265 107.015 36.2124C107.004 38.118 107.007 39.8415 107.026 41.383C107.157 42.8971 107.442 44.5522 107.88 46.3484L108.947 50.7266C109.195 56.1368 110.316 60.7395 112.312 64.5347L112.845 66.7238C113.895 64.6843 114.792 62.2655 115.537 59.4675C116.395 56.6422 117.127 53.788 117.733 50.9051C118.339 48.0222 118.79 45.2365 119.086 42.5479C119.495 39.832 119.845 37.6061 120.135 35.8703C120.174 34.077 120.225 32.578 120.288 31.3733C120.324 30.0564 120.123 28.4998 119.685 26.7036C119.248 24.9075 118.978 23.0702 118.877 21.192C118.889 19.2864 118.858 17.4506 118.784 15.6846C119.209 14.9866 119.507 14.2597 119.68 13.5041C119.853 12.7484 120.165 12.0777 120.617 11.4919C121.466 10.0958 122.172 9.32929 122.733 9.19252C123.604 8.86142 124.642 8.72749 125.847 8.79074C127.024 8.74172 128.117 8.83231 129.125 9.06252C130.132 9.29273 130.929 9.63378 131.515 10.0857C132.213 10.5102 132.379 10.9456 132.012 11.3918C132.34 12.7389 132.348 13.7478 132.036 14.4186C131.724 15.0893 131.398 15.7039 131.058 16.2623C130.773 17.0453 130.682 18.1377 130.786 19.5396C130.862 20.8292 131.102 23.0305 131.503 26.1436C131.99 29.1171 132.681 33.1708 133.575 38.3046C134.469 43.4384 135.578 50.1849 136.902 58.5441C137.121 59.4422 137.296 60.6483 137.427 62.1624C137.643 63.5369 137.873 64.9675 138.116 66.4543C138.359 67.941 138.575 69.3155 138.764 70.5777C138.925 71.7277 139.061 72.5272 139.17 72.9762C139.674 73.0914 140.346 73.1654 141.187 73.1985C142.14 73.2042 142.981 73.2372 143.709 73.2976C144.55 73.3306 145.292 73.4472 145.936 73.6472C146.552 73.7349 146.901 73.9472 146.983 74.284C147.936 74.2897 148.045 74.7387 147.311 75.6311C146.802 76.4688 146.195 77.1518 145.491 77.68C144.872 78.0687 144.239 78.4012 143.593 78.6776C142.947 78.954 142.287 79.1742 141.613 79.3384C141.052 79.4751 140.587 79.7666 140.22 80.2128L140.795 82.5703C140.904 83.0194 140.944 83.4259 140.914 83.7901C140.883 84.1542 140.881 84.6306 140.905 85.2193C140.902 85.6957 140.982 86.5089 141.143 87.6588C141.334 88.4447 141.259 89.355 140.916 90.3899C140.574 91.4247 140.861 92.6035 141.778 93.9261C141.271 94.2874 141.058 94.8746 141.137 95.6878C141.243 96.6133 141.057 97.3127 140.578 97.7863C140.797 98.6844 140.944 99.7782 141.021 101.068C141.097 102.357 141.245 103.451 141.464 104.349L141.628 105.023C141.052 107.542 141.065 110.036 141.667 112.506C141.516 114.326 141.212 116.006 140.754 117.545C140.324 119.195 139.837 120.86 139.295 122.538C139.04 122.957 138.77 123.558 138.485 124.341C138.228 125.236 137.929 125.963 137.589 126.522C136.8 127.189 136.18 127.816 135.728 128.402C135.303 129.1 134.669 129.671 133.826 130.114C133.963 130.676 133.806 131.011 133.357 131.12C133.048 131.315 132.612 131.48 132.051 131.617C130.479 132 128.908 132.145 127.339 132.051C125.77 131.958 124.034 131.667 122.131 131.179C121.569 131.316 120.967 131.285 120.323 131.085C119.82 130.969 119.399 130.953 119.062 131.035C117.156 131.024 115.393 130.621 113.772 129.826C112.263 129.005 110.938 127.96 109.796 126.692C109.043 126.043 108.501 125.283 108.17 124.412C107.866 123.654 107.324 122.894 106.544 122.133C105.961 121.204 105.504 120.305 105.173 119.434L104.516 116.74L104.393 116.235C103.615 114.997 103.216 113.846 103.194 112.78C103.2 111.828 103.093 110.902 102.874 110.004C102.992 109.024 102.969 108.197 102.805 107.524C102.781 106.935 102.659 106.191 102.44 105.293C102.372 102.575 102.851 99.9011 103.875 97.273C104.928 94.757 106.358 92.3274 108.166 89.9842C108.872 88.9795 109.916 87.8928 111.296 86.724C112.762 85.4156 114.254 84.2195 115.775 83.1356C117.407 82.0244 118.997 80.9829 120.544 80.0113C122.204 79.0123 123.61 78.194 124.763 77.5563C124.654 77.1073 124.684 76.7431 124.854 76.4639C124.939 76.3243 125.094 76.2271 125.318 76.1724ZM126.405 84.292C124.239 85.6523 122.42 87.463 120.949 89.7242C119.59 91.9581 117.968 93.6018 116.084 94.6555C114.813 96.2733 113.834 98.3553 113.146 100.901C112.485 103.56 111.925 105.896 111.464 107.912C111.792 109.259 111.925 110.535 111.862 111.739C111.938 113.029 112.072 114.067 112.264 114.852C112.17 116.421 112.442 117.782 113.08 118.935C113.745 120.2 114.678 121.34 115.877 122.356C116.991 123.512 118.219 124.402 119.561 125.027C120.93 125.764 123.397 125.638 126.963 124.651C127.163 124.007 127.377 123.42 127.604 122.889C127.832 122.358 127.891 121.868 127.781 121.419C128.26 120.945 128.529 120.582 128.586 120.33C128.671 120.191 128.645 119.84 128.509 119.279C128.514 118.326 128.745 117.319 129.199 116.257C129.767 115.167 129.9 114.005 129.599 112.77C129.95 110.306 129.867 107.769 129.35 105.16C128.945 102.523 128.653 99.859 128.473 97.1676C128.487 94.7856 128.33 92.921 128.001 91.5739C127.785 90.1994 127.404 88.3895 126.857 86.1443L126.651 85.3023C126.709 85.0505 126.627 84.7137 126.405 84.292ZM74.7026 4.66011C74.3902 5.33083 73.967 5.79071 73.433 6.03975L71.4119 6.53213C69.2483 7.41599 67.1271 8.23005 65.0485 8.97431C62.9424 9.6063 60.835 10.4765 58.7261 11.5849C56.4804 12.132 54.4306 12.7503 52.5765 13.4398C50.8346 14.102 49.1777 14.6246 47.6058 15.0076L8.86788 24.4448C7.63845 23.7929 6.71851 22.9466 6.10806 21.9061C5.58254 20.7259 5.32262 19.6595 5.32831 18.7067L4.71272 16.1808L5.72327 15.9346L10.6076 14.7447C12.0399 14.2768 13.5435 13.6132 15.1183 12.7538C15.6797 12.6171 16.1699 12.676 16.5889 12.9308C17.0927 13.0459 17.5692 13.0487 18.0183 12.9393C19.8149 12.5016 21.569 12.1338 23.2806 11.8357C25.0771 11.398 26.9147 11.1288 28.7933 11.0279L36.5409 9.14044C38.2251 8.73012 39.9943 8.1802 41.8484 7.49065C43.7025 6.80111 45.7524 6.1828 47.9981 5.63572L48.6718 5.47159C49.7889 6.15084 50.7693 6.26879 51.6128 5.82544C52.4564 5.38208 53.3273 5.05098 54.2256 4.83214C55.573 4.50389 56.893 4.06338 58.1857 3.51061C59.4784 2.95784 60.7423 2.53101 61.9774 2.23011C62.4294 1.64429 62.9922 1.26932 63.6659 1.10519C64.3396 0.941069 64.8996 1.0425 65.3459 1.40948C66.4386 1.50007 67.4326 1.67415 68.328 1.93172C69.3357 2.16193 70.2887 2.16762 71.187 1.94878C71.5238 1.86672 71.9305 1.82711 72.407 1.82995C72.8561 1.72053 73.3888 1.7097 74.0049 1.79746C74.7031 2.22199 74.9947 2.68614 74.8795 3.18989C74.8493 3.55403 74.7903 4.0441 74.7026 4.66011ZM290.382 23.1636C290.899 23.8425 291.24 24.5016 291.405 25.1409C291.57 25.7801 291.891 26.2768 292.369 26.6308C292.458 27.3617 292.613 27.9198 292.833 28.305C293.14 28.6799 293.104 29.0963 292.724 29.5544C293.242 30.2333 293.611 30.7653 293.832 31.1506C294.138 31.5254 294.316 31.9159 294.365 32.3219C294.454 33.0528 294.657 33.6463 294.973 34.1023C295.29 34.5584 295.492 35.1519 295.581 35.8828L295.729 37.1009C295.864 37.4966 296.19 38.0338 296.708 38.7127C297.314 40.1225 297.94 41.6947 298.586 43.4293C299.307 45.0723 299.996 46.8017 300.652 48.6175C301.69 50.7165 302.432 52.8926 302.88 55.1457C303.404 57.3072 304.209 59.6405 305.296 62.1456L305.444 63.3637C305.579 63.7594 305.906 64.2967 306.423 64.9755L307.133 70.8228L308.021 78.1318L308.213 79.7154C308.378 80.3547 308.719 81.0138 309.236 81.6926L309.325 82.4235C308.819 84.7099 308.485 86.9755 308.323 89.2203L307.835 95.9545C307.456 96.4126 307.339 96.8801 307.483 97.357C307.638 97.9151 307.33 98.2409 306.558 98.3346C306.129 98.3866 305.773 98.6771 305.489 99.206C305.301 99.8057 305.231 100.309 305.281 100.715C305.369 101.446 305.267 102.035 304.973 102.483C304.765 102.92 304.472 103.368 304.092 103.826C303.713 104.284 303.356 104.574 303.023 104.697C302.776 104.81 302.677 105.069 302.726 105.475C302.386 106.258 302.084 106.995 301.82 107.686C301.556 108.378 301.234 108.952 300.854 109.41C299.743 110.287 298.812 111.224 298.063 112.221C297.4 113.208 296.707 113.952 295.984 114.452C294.873 115.328 293.898 115.9 293.06 116.166C292.308 116.422 291.571 116.8 290.848 117.3C289.647 117.446 288.346 117.48 286.945 117.403C285.543 117.326 284.242 117.36 283.041 117.506C282.22 117.194 281.533 116.906 280.979 116.644C280.425 116.381 279.737 116.094 278.916 115.782C278.867 115.376 278.651 115.031 278.269 114.748C277.982 114.535 277.624 114.455 277.195 114.507C276.717 114.153 276.272 113.713 275.86 113.186C275.534 112.649 275.346 112.177 275.296 111.771L274.941 108.847C274.764 107.385 274.715 105.908 274.795 104.415C274.96 102.912 275.169 101.403 275.42 99.889C275.622 97.9691 275.829 96.0898 276.041 94.2511C276.338 92.402 276.974 90.4707 277.948 88.4571C278.238 87.2681 278.663 86.104 279.221 84.965C279.788 83.9072 280.414 82.966 281.097 82.1414C281.78 81.3169 282.354 80.6703 282.819 80.2018C283.284 79.7333 283.878 79.2492 284.601 78.7494C285.372 78.6558 286.149 78.6027 286.931 78.5902C287.703 78.4965 288.499 78.6059 289.32 78.9183C289.749 78.8662 290.031 79.038 290.166 79.4337C290.291 79.7481 290.612 80.2448 291.13 80.9236C290.701 80.9757 290.459 81.1287 290.403 81.3828C290.346 81.6368 290.104 81.7898 289.675 81.8419L288.651 83.0788C288.433 83.4348 288.349 83.8159 288.398 84.222C285.801 87.9159 283.934 91.8921 282.798 96.1504C281.671 100.49 280.883 104.747 280.433 108.922C280.093 109.705 280.091 110.406 280.427 111.025C280.763 111.643 281.17 112.129 281.648 112.483C281.698 112.889 281.856 113.117 282.123 113.167C282.476 113.207 282.891 113.404 283.369 113.758C285.342 113.518 286.984 113.072 288.297 112.418C289.61 111.764 290.95 110.613 292.316 108.963C292.999 108.139 293.505 107.294 293.836 106.43C294.176 105.647 294.491 104.661 294.782 103.472C295.376 101.917 295.87 100.25 296.263 98.4717C296.742 96.683 297.107 95.0317 297.358 93.5178C297.181 92.056 297.132 90.5786 297.212 89.0856C297.291 87.5925 297.243 86.1151 297.065 84.6533C297.356 83.4643 297.432 82.3013 297.294 81.1644C297.242 80.017 297.127 78.7124 296.949 77.2506C296.993 76.174 296.985 75.3921 296.926 74.9048C296.866 74.4176 296.769 73.9761 296.634 73.5804C296.499 73.1848 296.354 72.7079 296.199 72.1499C296.045 71.5918 295.888 70.6631 295.731 69.3637L295.198 64.9782C295.06 63.8413 294.615 62.3295 293.864 60.4429C293.113 58.5562 292.649 56.882 292.471 55.4202C291.904 54.3353 291.542 53.1431 291.384 51.8438C291.302 50.4527 290.94 49.2606 290.297 48.2673C289.72 49.2439 289.462 50.3465 289.524 51.5751C289.577 52.7224 289.461 53.5606 289.177 54.0895C289.226 54.4955 289 55.1411 288.498 56.026C287.987 56.8298 287.775 57.5971 287.864 58.328C287.544 59.2734 287.313 59.8783 287.171 60.1428C287.029 60.4072 286.877 60.5905 286.715 60.6925C286.64 60.7841 286.531 60.9621 286.389 61.2266C286.247 61.4911 286.059 62.0908 285.824 63.0257C285.484 63.8087 285.182 64.5458 284.918 65.2371C284.654 65.9285 284.332 66.5032 283.952 66.9613C282.929 68.5688 281.934 70.0493 280.968 71.4028C280.001 72.7563 279.006 74.2368 277.983 75.8443C277.554 75.8964 277.183 76.065 276.869 76.3503C276.556 76.6356 276.185 76.8042 275.756 76.8563C275.033 77.356 274.263 77.8204 273.445 78.2493C272.713 78.6678 271.771 79.153 270.62 79.7047L269.076 79.8921C268.466 79.8837 267.922 79.7026 267.444 79.3485C266.623 79.0362 265.849 78.7592 265.124 78.5176C264.398 78.276 263.797 77.9782 263.319 77.6242C262.458 76.987 261.769 76.329 261.251 75.6501L259.699 73.6135C259.561 72.4765 259.294 71.3552 258.899 70.2495C258.503 69.1437 258.217 67.86 258.04 66.3981C257.971 65.8297 257.92 65.0529 257.887 64.068C257.845 63.0018 257.84 61.8899 257.874 60.7321C257.811 59.5035 257.802 58.3509 257.845 57.2744C257.965 56.1062 258.066 55.1462 258.148 54.3945C258.532 52.535 258.826 51.0159 259.031 49.8373C259.236 48.6587 259.456 47.602 259.69 46.667C260 45.6404 260.349 44.568 260.735 43.4498C261.207 42.3212 261.816 40.8875 262.562 39.1488C263.536 37.1352 264.515 35.1622 265.498 33.2299C266.568 31.2871 267.761 29.2881 269.078 27.2328C269.21 26.8872 269.503 26.4395 269.959 25.8898C270.404 25.2588 270.893 24.6227 271.424 23.9813C271.955 23.34 272.491 22.7393 273.033 22.1791C273.574 21.619 274.034 21.1099 274.413 20.6518C274.793 20.1937 275.659 19.8002 277.011 19.4712C278.439 19.0506 279.343 18.6113 279.723 18.1532C280.923 18.0074 281.805 18.1064 282.369 18.45C282.923 18.7124 283.586 18.7967 284.358 18.7031C284.836 19.0571 285.152 19.5131 285.307 20.0712C285.462 20.6293 285.778 21.0853 286.257 21.4393C286.395 22.5763 286.307 23.2874 285.993 23.5727L285.083 24.6721C283.793 24.0869 282.992 23.937 282.679 24.2222C282.451 24.4971 282.02 25.2499 281.387 26.4805C280.703 27.3051 280.083 28.2869 279.525 29.4259C278.957 30.4837 278.528 31.6071 278.238 32.7961C278.066 32.8169 277.942 32.8732 277.866 32.9648C277.629 33.1584 277.525 33.3771 277.555 33.6207C276.921 34.8514 276.388 36.1934 275.955 37.6469C275.522 39.1003 275.009 40.6048 274.415 42.1603C274.075 42.9432 273.711 43.8938 273.325 45.012C272.929 46.049 272.585 47.162 272.295 48.351C272.314 48.5134 272.291 48.6811 272.225 48.8539L272.027 49.3724C271.961 49.5452 271.852 49.7232 271.7 49.9065C271.41 51.0955 271.147 52.1575 270.912 53.0924C270.668 53.9462 270.434 54.8812 270.209 55.8973C269.974 56.8323 269.707 57.8537 269.406 58.9615C269.191 60.0588 269.001 61.3593 268.836 62.8627C268.716 64.0309 268.531 65.3719 268.28 66.8858C268.105 68.308 268.086 69.5876 268.224 70.7246C268.273 71.1306 268.232 71.5065 268.1 71.8521C268.044 72.1062 268.401 72.1864 269.173 72.0927L269.945 71.999C270.668 71.4993 271.223 71.061 271.613 70.6841C272.002 70.3072 272.387 69.8897 272.766 69.4316C274.815 66.9578 276.468 64.4497 277.726 61.9072C279.069 59.3543 280.355 56.6848 281.583 53.8987C282.557 51.8851 283.478 49.7955 284.346 47.6299C285.214 45.4643 286.135 43.3747 287.109 41.3611C287.361 39.8472 287.526 38.3438 287.606 36.8508C287.771 35.3473 287.98 33.8387 288.231 32.3248C288.571 31.5419 288.711 30.9068 288.652 30.4195C288.593 29.9322 288.305 29.3492 287.787 28.6703C287.738 28.2642 287.822 27.8832 288.04 27.5271C288.344 27.1606 288.471 26.7744 288.421 26.3683C288.372 25.9622 288.361 25.5104 288.387 25.0127C288.49 24.4234 288.927 24.0819 289.699 23.9882C289.784 23.9778 289.908 23.9216 290.07 23.8196C290.297 23.5447 290.401 23.3261 290.382 23.1636ZM309.456 60.4046C308.626 57.8683 308.155 55.7828 308.043 54.1482C307.932 52.5135 308.023 51.4724 308.317 51.0247C307.741 47.7158 307.956 44.4757 308.964 41.3043C310.057 38.1225 311.321 34.9199 312.757 31.6965C313.295 30.3951 313.729 29.3123 314.06 28.4481C314.475 27.5736 315.191 26.6626 316.208 25.7151C316.881 24.8093 317.45 24.1222 317.915 23.6537C318.371 23.104 318.917 22.5844 319.553 22.0951C320.276 21.5954 321.266 21.1456 322.522 20.7459C323.769 20.2649 324.793 20.0994 325.595 20.2493C327.9 19.8871 329.945 19.8861 331.729 20.2464C333.599 20.5963 335.584 21.1794 337.685 21.9958C338.143 22.1874 338.564 22.4248 338.946 22.708C339.414 22.9808 339.887 23.2942 340.365 23.6482C340.415 24.0543 340.588 24.4041 340.884 24.6977C341.181 24.9914 341.14 25.3672 340.76 25.8253C340.81 26.2314 340.897 26.5916 341.022 26.9061C341.147 27.2205 341.235 27.5807 341.284 27.9868C341.458 28.7073 341.524 29.6058 341.481 30.6824C341.513 31.6673 341.255 32.7699 340.708 33.9902C339.915 36.0642 338.946 38.1183 337.801 40.1528C336.646 42.1059 335.224 44.0092 333.534 45.8624C331.835 47.6344 330.002 49.3814 328.036 51.1034C326.145 52.7338 323.981 53.903 321.544 54.6109C321.557 55.4334 321.584 56.3778 321.627 57.4439C321.755 58.4997 322.098 59.5294 322.655 60.5331C322.79 60.9288 322.811 61.4619 322.718 62.1324C322.711 62.7925 323.181 63.4359 324.127 64.0628C324.734 65.4725 325.553 66.4856 326.585 67.102C327.703 67.708 329.048 68.0391 330.621 68.0954C331.393 68.0018 332.031 67.8831 332.536 67.7394C333.031 67.5145 333.864 67.2074 335.035 66.8181C335.872 66.5516 336.534 66.2653 337.019 65.9592C337.58 65.5615 338.055 65.1742 338.444 64.7973C338.824 64.3392 339.208 63.9217 339.597 63.5448C340.062 63.0763 340.618 62.638 341.265 62.2299C341.987 61.7301 342.614 61.1596 343.146 60.5182C343.677 59.8769 344.127 59.2866 344.497 58.7472C344.876 58.2891 345.401 57.2365 346.071 55.5894L348.31 50.3732C348.792 49.3258 349.15 48.3347 349.384 47.3997C349.619 46.4647 349.911 45.6464 350.261 44.9447C350.574 44.6594 350.85 44.4199 351.087 44.2263C351.325 44.0326 351.683 44.1128 352.161 44.4668C352.448 44.6792 352.626 45.0697 352.695 45.6382C352.823 46.6939 352.567 48.1672 351.926 50.0579C351.361 51.857 350.597 53.804 349.633 55.8988C348.669 57.9936 347.572 60.0634 346.341 62.1082C345.195 64.1426 344.101 65.8824 343.059 67.3275C342.043 68.2749 341.007 69.0599 339.951 69.6825C338.895 70.3051 337.835 70.8871 336.769 71.4284C336.007 71.6033 335.028 72.1343 333.83 73.0213C332.718 73.8979 331.776 74.3831 331.005 74.4768C330.843 74.5788 330.467 74.7069 329.876 74.8609L327.947 75.0951C327.337 75.0868 326.77 75.0732 326.245 75.0545C325.721 75.0357 325.449 74.9451 325.429 74.7827C321.415 74.693 318.385 73.7423 316.337 71.9306C314.28 70.0377 312.373 67.5909 310.616 64.5901C310.567 64.1841 310.398 63.5042 310.108 62.5505C309.808 61.5156 309.591 60.8003 309.456 60.4046ZM320.849 48.8855C322 48.3337 322.894 47.8132 323.531 47.3238C324.243 46.7429 324.893 46.0047 325.481 45.1093C326.203 44.6096 326.759 44.1713 327.148 43.7944C327.528 43.3363 327.822 42.8886 328.03 42.4513L328.911 41.1082C329.204 40.6605 329.627 40.1972 330.178 39.7183C330.765 38.8229 331.043 37.8828 331.01 36.8978C331.053 35.8212 331.369 34.8353 331.956 33.9399C332.336 33.4818 332.491 32.9685 332.422 32.4L332.244 30.9382C331.935 29.8221 331.955 28.9131 332.305 28.2114C332.74 27.4992 332.719 26.9662 332.241 26.6121L331.469 26.7058C331.383 26.7162 331.131 26.7881 330.712 26.9213C330.283 26.9734 329.789 27.1982 329.228 27.5959C328.667 27.9937 328.197 28.4216 327.817 28.8797C327.609 29.3169 327.321 29.8052 326.951 30.3446C326.581 30.8839 326.098 31.5606 325.501 32.3748C324.524 33.6471 323.753 35.1828 323.189 36.9819C322.71 38.7706 322.259 40.4323 321.836 41.967C321.202 43.1976 320.906 44.346 320.949 45.4122C321.077 46.4679 321.014 47.3821 320.76 48.1546L320.849 48.8855ZM468.842 112.662C468.62 109.819 468.946 107.383 469.82 105.354C469.929 105.856 470.281 106.568 470.875 107.49C471.595 108.386 472.121 108.994 472.454 109.316C472.486 111.281 472.608 113.357 472.819 115.545C473.031 117.734 473.202 119.734 473.332 121.545C472.96 123.466 472.749 125.22 472.699 126.808C472.649 128.396 472.702 130.158 472.86 132.096C472.362 134.043 471.941 136.04 471.596 138.086C471.349 139.98 471.04 141.887 470.668 143.807C470.519 145.548 470.456 147.073 470.477 148.382L470.54 152.311C470.687 153.594 470.771 154.89 470.792 156.199C470.939 157.482 471.064 158.966 471.166 160.652C471.405 162.966 471.541 165.105 471.572 167.069C471.73 169.007 471.873 170.881 472.003 172.693C471.631 174.613 471.6 176.591 471.91 178.627C472.193 180.537 472.265 182.689 472.128 185.085C472.258 186.896 472.568 188.932 473.058 191.191C473.646 193.298 474.311 195.454 475.052 197.658C476.055 200.464 477.702 202.604 479.993 204.078C481.925 205.105 483.133 205.829 483.619 206.249C484.132 206.795 485.174 207.358 486.745 207.937C487.831 208.096 488.904 208.192 489.962 208.225C491.048 208.384 492.228 208.062 493.5 207.261C494.564 206.11 495.539 204.847 496.424 203.473C497.462 202.197 498.167 200.598 498.539 198.678C498.932 198.067 499.498 196.433 500.236 193.776C500.974 191.119 501.672 188.273 502.328 185.24C503.083 182.053 503.78 179.208 504.42 176.704C505.158 174.047 505.738 172.476 506.158 171.99C506.317 170.905 506.342 170.111 506.233 169.609C506.25 169.079 506.468 168.572 506.889 168.086C507.201 167.099 507.458 165.86 507.66 164.371C507.836 162.756 508.025 161.203 508.228 159.714C508.403 158.099 508.53 156.56 508.607 155.098C508.81 153.608 509.129 152.356 509.567 151.341C511.358 149.902 511.47 148.3 509.905 146.537L509.496 144.654C508.618 144.845 508.066 145.03 507.842 145.21C507.744 145.363 507.553 145.996 507.268 147.109C506.831 148.123 506.449 149.389 506.12 150.906C505.792 152.423 505.415 154.016 504.988 155.685C504.534 157.229 504.031 158.85 503.479 160.546C503.025 162.09 502.454 163.397 501.766 164.466C501.329 165.481 500.96 166.809 500.659 168.452C500.33 169.968 499.967 171.624 499.567 173.419C499.168 175.214 498.692 176.96 498.14 178.657C497.686 180.201 497.115 181.507 496.427 182.577C495.678 184.579 494.867 186.595 493.992 188.624C493.244 190.626 492.391 192.454 491.435 194.107C491.697 194.707 491.514 195.075 490.886 195.211C490.625 194.611 490.426 193.997 490.29 193.369L489.922 191.675C489.759 190.922 489.748 190.267 489.89 189.71C490.459 187.484 490.818 185.501 490.966 183.761L491.281 175.216C491.61 173.699 491.916 172.384 492.2 171.271C492.458 170.032 492.625 168.682 492.702 167.22C492.151 165.893 491.906 164.764 491.967 163.831C492.126 162.745 492.298 161.722 492.484 160.761C492.622 158.366 492.612 156.2 492.455 154.263L492.36 148.369C492.481 146.503 492.454 144.866 492.281 143.458C492.205 141.898 492.017 140.427 491.718 139.046C491.544 137.638 491.294 136.181 490.967 134.675C490.641 133.169 490.371 131.322 490.16 129.133C489.337 126.552 488.599 123.755 487.945 120.743C487.418 117.703 486.98 114.775 486.632 111.96C486.502 110.148 486.08 108.202 485.366 106.123C484.778 104.016 483.979 102.153 482.97 100.531C482.627 99.5544 482.248 98.7166 481.834 98.018C481.518 97.1665 480.749 96.3477 479.526 95.5613C478.79 95.1953 478.102 94.7529 477.464 94.2342C476.799 93.59 475.909 93.1257 474.796 92.8413C473.666 93.0863 472.84 92.6084 472.316 91.4077C471.814 91.5165 471.285 91.4999 470.728 91.3577C470.27 91.0628 469.79 90.9698 469.287 91.0787C468.884 91.0348 467.699 91.0287 465.734 91.0604C463.77 91.0921 461.693 91.2138 459.504 91.4255C457.288 91.5116 455.212 91.6333 453.274 91.7905C451.336 91.9477 450.179 92.0672 449.803 92.1488C449.049 92.3121 448.23 93.0811 447.345 94.4557C447.383 95.236 447.407 95.9536 447.418 96.6084C447.439 97.918 447.253 98.8783 446.86 99.4892C446.914 99.7403 447.659 99.8416 449.095 99.7932C450.53 99.7449 452.042 99.7457 453.63 99.7956C455.316 99.6928 456.828 99.6936 458.165 99.798C459.475 99.7769 460.095 99.9054 460.023 100.184C459.248 102.06 458.919 103.577 459.039 104.734C459.131 105.765 458.95 107.053 458.496 108.597C458.25 110.49 457.766 112.501 457.044 114.629C456.448 116.729 455.964 118.74 455.592 120.66C454.951 126.187 453.995 131.783 452.726 137.446C451.555 142.957 450.505 148.113 449.574 152.914C449.191 154.18 448.588 155.033 447.764 155.475C447.031 155.867 446.189 156.232 445.237 156.568C445.194 156.457 445.143 156.352 445.084 156.253C444.768 155.402 444.471 154.94 444.193 154.869C443.565 155.005 442.776 155.308 441.826 155.777C440.849 156.12 440.429 156.605 440.565 157.233C440.46 157.52 440.357 157.808 440.255 158.094C439.703 158.377 439.19 158.749 438.715 159.211C438.617 159.364 438.398 159.871 438.06 160.733C437.694 161.469 437.368 162.394 437.084 163.507C436.772 164.495 436.537 165.531 436.378 166.617C436.067 167.604 435.952 168.286 436.033 168.663L436.409 170.395C436.282 170.87 436.159 171.344 436.038 171.816C434.955 176.519 433.525 180.837 431.75 184.771C431.383 185.507 431.045 186.369 430.733 187.357C430.547 188.317 430.083 189.206 429.34 190.024L428.36 185.506C427.652 182.242 427.078 178.687 426.638 174.84C426.171 170.867 425.57 167.186 424.835 163.797L424.1 160.408L423.814 142.728C423.433 140.971 423.128 139.263 422.9 137.604C422.797 135.918 421.99 134.319 420.479 132.806C420.862 131.541 420.609 130.676 419.719 130.211C418.83 129.747 418.003 129.269 417.24 128.778L415.545 129.145C415.015 129.129 414.369 128.874 413.605 128.383C411.711 128.136 410.15 128.212 408.922 128.61C407.694 129.007 406.323 129.962 404.811 131.472C405.192 133.23 405.371 134.965 405.348 136.678C405.326 138.392 405.505 140.127 405.886 141.884C406.131 143.014 406.313 144.157 406.433 145.314C406.678 146.444 406.609 147.641 406.226 148.907C405.979 150.8 405.714 152.304 405.43 153.417C405.271 154.502 405.436 156.175 405.926 158.434C405.981 158.685 405.972 158.95 405.901 159.228L405.688 160.063C405.617 160.341 405.483 160.633 405.286 160.938C405.531 162.068 405.593 163.566 405.472 165.432C405.477 167.271 405.233 168.572 404.742 169.336C403.353 173.842 402.232 177.765 401.379 181.104C400.499 184.318 399.242 187.613 397.608 190.99C397.116 191.753 396.611 192.454 396.092 193.092C395.574 193.731 394.817 194.486 393.823 195.358C393.627 195.664 393.215 195.885 392.587 196.021C391.959 196.157 391.318 196.23 390.663 196.241C389.981 196.126 389.348 195.935 388.764 195.667C388.18 195.399 387.82 194.952 387.684 194.324C387.188 193.249 386.809 192.411 386.547 191.811L386.098 189.74C386.088 189.085 386.064 188.367 386.026 187.587C385.961 186.681 385.778 185.538 385.479 184.157C386.473 183.285 386.923 182.333 386.831 181.301C386.865 180.243 386.759 179.148 386.514 178.019C386.76 176.126 387.064 173.891 387.426 171.316C387.788 168.74 388.092 166.506 388.338 164.613C388.83 163.849 389.21 163.175 389.477 162.592C389.871 161.981 389.999 161.362 389.863 160.734C390.612 158.732 391.063 156.268 391.218 153.344C391.498 150.392 392.326 147.847 393.702 145.708C393.773 145.43 393.943 144.999 394.21 144.415C394.549 143.553 394.965 142.741 395.456 141.977C395.075 140.22 395.39 138.64 396.4 137.238C397.411 135.836 398.358 134.448 399.243 133.074C399.189 132.823 399.358 132.392 399.751 131.781C400.145 131.17 400.601 130.545 401.119 129.907C401.764 129.242 402.359 128.653 402.905 128.14C403.577 127.6 404.038 127.303 404.289 127.249C404.917 127.112 405.656 126.886 406.508 126.57C407.458 126.102 408.247 125.799 408.874 125.663C407.757 123.54 406.183 122.041 404.153 121.167C402.249 120.266 400.099 119.746 397.703 119.608C397.075 119.745 396.497 119.804 395.967 119.788C395.536 119.618 394.917 119.49 394.109 119.402C393.831 119.331 393.266 119.453 392.414 119.769C391.563 120.085 390.662 120.478 389.712 120.947C388.888 121.388 388.077 121.892 387.28 122.46C386.608 122.999 386.174 123.422 385.977 123.728C385.486 124.491 384.497 125.691 383.012 127.327C381.625 128.811 380.686 129.934 380.194 130.698C378.56 134.075 377.284 136.98 376.366 139.413C375.421 141.721 374.382 144.509 373.251 147.777C372.557 150.03 371.969 151.866 371.488 153.284L370.421 157.458C370.164 158.696 369.948 160.123 369.772 161.738C369.695 163.201 369.651 165.116 369.638 167.484C369.256 168.75 369.067 170.302 369.071 172.141C368.95 174.007 368.968 175.909 369.125 177.846C369.157 179.81 369.377 181.734 369.786 183.617L369.815 183.751C369.489 185.034 369.134 186.575 368.752 188.375C368.292 191.103 367.734 193.984 367.077 197.017C366.519 199.898 365.871 202.667 365.133 205.324C364.367 207.855 363.515 209.683 362.575 210.807C361.904 211.346 361.123 211.384 360.234 210.92C359.443 210.303 358.611 209.498 357.738 208.504C356.866 207.511 355.966 206.391 355.039 205.147L352.863 201.479C351.341 199.312 349.787 196.692 348.201 193.619C346.712 190.393 345.207 187.697 343.686 185.53C343.271 184.831 342.974 184.37 342.794 184.146C342.587 183.797 342.393 183.51 342.213 183.286C342.159 183.035 342.042 182.798 341.862 182.574C341.655 182.225 341.407 181.687 341.118 180.961C340.534 180.693 340.076 180.398 339.743 180.076C339.508 179.602 339.176 179.279 338.745 179.11C338.646 179.263 338.521 179.29 338.368 179.192C338.117 179.246 337.937 179.022 337.828 178.52C338.02 176.376 338.379 174.393 338.903 172.57C339.554 170.721 340.281 168.92 341.084 167.169C341.799 166.226 342.362 165.184 342.772 164.044C343.155 162.778 343.376 161.678 343.437 160.745C344.186 158.743 344.765 157.172 345.175 156.032C345.683 154.739 346.156 153.585 346.593 152.57C347.03 151.555 347.481 150.604 347.945 149.714C348.508 148.672 349.205 147.339 350.035 145.713C350.723 144.644 350.999 143.796 350.863 143.168C351.257 142.557 351.573 141.897 351.814 141.188C352.054 140.478 352.551 140.042 353.305 139.879L353.509 140.82C353.662 140.919 354.093 141.088 354.802 141.328C355.108 141.525 355.274 141.686 355.301 141.812C355.427 141.784 355.629 141.806 355.907 141.877C356.06 141.976 356.262 141.998 356.513 141.943C356.889 141.861 357.113 141.682 357.184 141.403C357.228 140.999 357.501 140.743 358.003 140.634C357.775 138.975 357.386 137.483 356.835 136.157C356.41 134.803 355.739 133.831 354.823 133.242C352.793 132.367 350.684 132.036 348.495 132.248C346.432 132.432 344.707 133.266 343.32 134.75C342.566 134.913 342.007 135.363 341.641 136.099C341.4 136.809 340.944 137.433 340.272 137.973C339.388 139.348 338.691 140.681 338.183 141.974C337.675 143.267 337.095 144.839 336.445 146.688C335.669 148.565 335.089 150.136 334.707 151.402C334.422 152.515 334.152 153.69 333.894 154.929C333.763 156.14 333.519 157.442 333.164 158.833C332.934 160.197 332.534 161.992 331.966 164.218C331.796 164.649 331.758 165.38 331.85 166.411C331.915 167.317 331.535 167.991 330.711 168.433C330.328 169.698 330.049 171.139 329.874 172.754C329.824 174.342 329.662 176.019 329.388 177.787C328.901 180.39 328.351 183.006 327.738 185.636C327.224 188.113 326.647 190.604 326.007 193.108C326.116 193.61 326.072 194.014 325.875 194.319C325.651 194.499 325.446 195.069 325.26 196.029C324.804 192.712 324.366 189.784 323.947 187.246C323.528 184.709 323.145 182.032 322.797 179.216C322.64 177.279 322.42 175.355 322.137 173.445C321.827 171.41 321.58 169.361 321.395 167.298C320.857 163.604 320.373 160.16 319.943 156.968C319.514 153.776 319.043 150.395 318.532 146.826C318.555 145.113 318.43 143.628 318.158 142.373C317.886 141.118 317.524 139.751 317.071 138.272C316.755 137.42 316.453 136.632 316.164 135.906C316.001 135.153 315.51 134.405 314.692 133.662C314.365 132.156 313.699 131.512 312.695 131.73C311.565 131.975 310.574 132.255 309.723 132.571C308.844 132.762 308.069 133.127 307.397 133.667C307.146 133.721 306.407 133.947 305.178 134.345C304.076 134.715 302.798 135.19 301.346 135.767C299.992 136.192 298.792 136.715 297.743 137.337C296.668 137.833 296.108 138.283 296.064 138.686C295.562 138.795 295.289 139.052 295.245 139.455C295.201 139.859 295.073 140.478 294.859 141.313C294.881 142.623 294.763 143.897 294.505 145.135C294.248 146.374 294.305 147.544 294.676 148.647C294.689 154.164 294.334 159.497 293.611 164.648C293.013 169.771 292.282 175.187 291.417 180.894C291.045 182.815 290.73 184.394 290.473 185.633C290.341 186.844 290.16 188.132 289.93 189.496C289.673 190.734 289.296 192.327 288.798 194.275C288.426 196.196 287.8 198.763 286.919 201.976C286.804 202.658 286.534 203.834 286.107 205.503L286.264 205.951C286.127 206.436 285.988 206.831 285.848 207.137C285.509 207.999 284.993 209.556 284.298 211.809C283.604 214.063 282.825 216.531 281.961 219.216C281.223 221.873 280.408 224.48 279.518 227.039C278.752 229.571 278.115 231.483 277.607 232.776C277.722 232.094 277.63 231.062 277.33 229.682C276.662 224.176 276.067 219.311 275.545 215.087C274.996 210.738 274.496 206.312 274.046 201.81C273.693 197.155 273.259 192.124 272.744 186.716C272.327 181.156 271.839 174.362 271.281 166.335C270.927 164.703 270.65 163.121 270.448 161.587C270.247 160.054 270.011 158.659 269.738 157.404C269.565 155.996 269.18 154.831 268.586 153.909C268.09 152.833 267.321 152.015 266.279 151.452C265.515 150.961 264.505 150.851 263.25 151.123C261.967 151.27 260.944 151.097 260.18 150.606C259.874 150.409 259.269 150.343 258.363 150.408C257.457 150.473 256.515 150.677 255.538 151.021C254.686 151.337 253.876 151.841 253.106 152.534C252.434 153.074 252.068 153.81 252.008 154.743C252.623 156.975 252.84 159.491 252.659 162.29C252.45 164.964 252.694 167.605 253.391 170.213C253.881 172.473 254.295 174.683 254.632 176.844C254.942 178.879 254.854 181.198 254.366 183.801C253.984 185.067 253.754 186.431 253.677 187.893C253.725 189.328 253.438 191.033 252.814 193.008C252.568 194.902 252.422 197.562 252.376 200.988C252.304 204.29 251.893 206.941 251.144 208.944C250.63 211.421 250.124 213.633 249.626 215.581C249.101 217.403 248.5 219.176 247.822 220.9C247.243 222.471 246.538 224.07 245.707 225.695C245.003 227.294 244.213 229.108 243.339 231.137C242.59 233.139 241.822 234.751 241.036 235.973C240.249 237.195 239.193 238.081 237.866 238.632C237.266 238.893 236.663 238.236 236.058 236.658C235.578 235.054 235.129 232.983 234.71 230.445C234.264 227.782 233.903 224.903 233.626 221.809C233.448 218.563 233.31 215.504 233.213 212.634C233.117 209.764 233.088 207.207 233.127 204.964C233.139 202.596 233.252 200.995 233.465 200.16C233.848 198.894 233.939 197.495 233.738 195.961C233.537 194.428 233.565 193.042 233.822 191.803L233.414 189.921C233.403 189.266 233.589 188.305 233.972 187.04C234.649 185.316 235.174 183.493 235.547 181.573C235.891 179.527 236.111 177.508 236.205 175.516C236.298 173.525 236.28 171.623 236.15 169.811C235.993 167.874 235.765 166.215 235.465 164.835C235.193 163.579 234.634 162.518 233.789 161.65C233.069 160.755 232.188 160.026 231.146 159.463C230.202 158.748 229.146 158.122 227.978 157.587C226.811 157.052 225.706 156.503 224.664 155.94C224.609 155.689 224.304 155.492 223.747 155.35C223.163 155.083 222.481 154.968 221.701 155.005C221.018 154.89 220.287 154.852 219.507 154.89C218.852 154.9 218.399 154.933 218.148 154.987L215.888 155.477C215.691 155.783 215.571 156.137 215.527 156.541C215.286 157.25 215.221 157.856 215.33 158.358C215.198 159.569 214.963 160.606 214.624 161.468C214.285 162.33 213.924 163.394 213.542 164.659C213.26 170.634 212.678 176.74 211.796 182.976C210.887 189.087 210.794 195.022 211.517 200.779C211.63 203.12 211.798 205.712 212.02 208.555C212.049 208.956 212.083 209.359 212.121 209.764C210.81 213.621 209.682 217.398 208.737 221.094C207.654 225.797 206.225 230.115 204.449 234.049C204.083 234.785 203.744 235.647 203.432 236.635C203.246 237.595 202.782 238.484 202.039 239.302L201.059 234.784C200.351 231.52 199.777 227.965 199.337 224.118C198.87 220.145 198.269 216.464 197.534 213.075L196.799 209.686L196.513 192.007C196.132 190.249 195.828 188.541 195.599 186.882C195.496 185.196 194.689 183.597 193.178 182.085C193.561 180.819 193.308 179.954 192.418 179.49C191.529 179.025 190.702 178.547 189.939 178.056L188.244 178.423C187.714 178.407 187.068 178.153 186.304 177.661C184.41 177.414 182.849 177.49 181.621 177.888C180.393 178.285 179.023 179.24 177.51 180.75C177.891 182.508 178.07 184.243 178.048 185.956C178.025 187.67 178.204 189.405 178.585 191.162C178.83 192.292 179.012 193.435 179.132 194.592C179.377 195.722 179.308 196.919 178.925 198.185C178.679 200.078 178.413 201.582 178.129 202.695C177.97 203.78 178.136 205.453 178.626 207.712C178.68 207.963 178.672 208.228 178.601 208.506L178.387 209.341C178.316 209.619 178.182 209.911 177.986 210.217C178.231 211.346 178.293 212.844 178.172 214.71C178.176 216.549 177.933 217.85 177.441 218.614C176.052 223.121 174.931 227.043 174.078 230.382C173.198 233.596 171.941 236.891 170.307 240.268C169.816 241.031 169.31 241.732 168.791 242.371C168.273 243.009 167.516 243.764 166.523 244.637C166.326 244.942 165.914 245.163 165.286 245.299C164.658 245.435 164.017 245.508 163.362 245.519C162.68 245.404 162.047 245.213 161.463 244.945C160.879 244.677 160.519 244.23 160.383 243.602C159.887 242.527 159.508 241.689 159.247 241.089L158.797 239.018C158.787 238.363 158.763 237.645 158.725 236.865C158.66 235.959 158.478 234.816 158.178 233.435C159.172 232.563 159.623 231.611 159.53 230.579C159.564 229.521 159.458 228.427 159.213 227.297C159.459 225.404 159.764 223.169 160.125 220.594C160.487 218.019 160.791 215.784 161.037 213.891C161.529 213.127 161.909 212.453 162.176 211.87C162.57 211.259 162.698 210.64 162.562 210.012C163.311 208.01 163.762 205.546 163.917 202.622C164.197 199.67 165.025 197.125 166.401 194.986C166.472 194.708 166.642 194.277 166.91 193.693C167.248 192.831 167.664 192.019 168.155 191.255C167.774 189.498 168.089 187.918 169.099 186.516C170.11 185.115 171.057 183.726 171.942 182.352C171.888 182.101 172.057 181.67 172.45 181.059C172.844 180.448 173.3 179.823 173.819 179.185C174.463 178.52 175.058 177.931 175.604 177.418C176.276 176.878 176.737 176.581 176.988 176.527C177.616 176.391 178.356 176.164 179.207 175.848C180.157 175.38 180.946 175.077 181.574 174.941C180.456 172.818 178.882 171.319 176.852 170.445C174.948 169.544 172.798 169.024 170.402 168.887C169.774 169.023 169.196 169.082 168.666 169.066C168.235 168.896 167.616 168.768 166.808 168.68C166.53 168.609 165.965 168.731 165.113 169.047C164.262 169.363 163.361 169.756 162.411 170.225C161.587 170.666 160.776 171.171 159.979 171.738C159.307 172.277 158.873 172.7 158.677 173.006C158.185 173.769 157.197 174.969 155.711 176.605C154.324 178.089 153.385 179.213 152.893 179.976C151.26 183.353 149.984 186.258 149.065 188.691C148.12 190.999 147.082 193.787 145.95 197.055C145.256 199.308 144.668 201.144 144.187 202.562L143.121 206.736C142.863 207.974 142.647 209.401 142.472 211.016C142.394 212.479 142.35 214.394 142.338 216.762C141.955 218.028 141.766 219.58 141.77 221.419C141.649 223.285 141.667 225.187 141.825 227.124C141.856 229.088 142.076 231.012 142.485 232.895C142.893 234.778 143.372 236.382 143.923 237.708C144.168 238.838 144.642 240.115 145.345 241.54C146.021 242.839 146.837 244.173 147.791 245.543C148.746 246.914 149.749 248.207 150.802 249.425C151.827 250.517 152.875 251.407 153.944 252.095C157.567 254.858 161.266 256.158 165.043 255.997C168.793 255.709 172.117 254.069 175.017 251.074C176.011 250.202 176.726 249.258 177.163 248.244C177.6 247.229 178.065 246.34 178.556 245.576C179.048 244.812 179.414 244.076 179.655 243.367C180.021 242.63 180.081 241.697 179.836 240.567C180.328 239.804 180.757 239.054 181.123 238.317C181.489 237.581 181.863 236.58 182.246 235.314L183.131 233.939L183.621 236.199C184.111 238.458 184.552 240.794 184.943 243.206C185.433 245.465 185.677 248.106 185.676 251.129L186.166 253.388C186.302 254.016 186.654 254.728 187.221 255.525C187.886 256.17 188.533 256.424 189.161 256.288C190.427 256.67 191.428 257.044 192.165 257.41C192.901 257.776 193.651 258.205 194.415 258.697C194.524 259.199 194.781 259.472 195.184 259.516C195.337 259.614 195.539 259.636 195.79 259.581C196.456 260.226 197.263 260.313 198.213 259.845C199.316 259.474 200.225 258.817 200.94 257.873C201.809 257.028 202.511 256.022 203.046 254.854C203.581 253.687 203.768 252.727 203.604 251.973C203.468 251.346 203.534 250.74 203.802 250.156L205.129 248.095L206.409 243.086C206.9 242.322 207.28 241.649 207.548 241.065C207.941 240.454 208.07 239.835 207.933 239.207C208.13 238.902 208.411 238.381 208.777 237.644C209.242 236.755 209.643 235.88 209.982 235.018C210.447 234.128 210.786 233.266 210.999 232.432C211.212 231.597 211.251 230.866 211.115 230.238C211.863 228.236 212.541 226.512 213.148 225.066C213.35 224.584 213.532 224.077 213.694 223.546L214.842 228.839C215.458 231.071 216.141 233.617 216.893 236.476L217.383 238.736C217.699 239.587 218.226 240.196 218.962 240.562C219.224 241.162 219.638 241.861 220.205 242.658C220.898 243.427 221.604 244.26 222.324 245.155C223.143 245.898 223.947 246.577 224.738 247.195C225.529 247.812 226.266 248.178 226.948 248.292L229.01 249.619C229.72 249.86 230.456 250.226 231.22 250.717C232.595 251.602 234.077 252.069 235.665 252.119C237.28 252.295 238.571 251.884 239.538 250.886L242.519 248.268C243.513 247.395 244.439 246.209 245.296 244.709C247.049 242.489 248.762 240.081 250.433 237.484C252.077 234.762 253.408 232.108 254.424 229.522C254.288 228.895 254.368 228.352 254.662 227.894C254.734 227.615 254.867 227.324 255.064 227.018C256.167 226.648 256.789 226.184 256.931 225.628C257.046 224.946 257.232 223.985 257.49 222.747L259.749 222.257C259.628 224.123 259.641 225.697 259.788 226.98C259.934 228.262 259.885 229.85 259.638 231.743C259.686 233.178 259.743 234.349 259.808 235.255C259.999 236.133 260.113 236.963 260.151 237.743L260.722 240.379C261.066 241.356 261.414 242.66 261.768 244.292C262.149 246.049 262.803 247.55 263.73 248.795C264.81 250.138 266.297 250.932 268.191 251.179C269.457 251.562 270.647 251.895 271.76 252.179C272.9 252.589 273.907 253.291 274.78 254.284L275.909 254.04C276.292 252.774 276.631 251.912 276.926 251.454C277.346 250.968 277.434 250.161 277.189 249.031C277.053 248.403 277.083 247.937 277.28 247.631C277.629 247.424 277.911 246.903 278.124 246.069L280.107 242.485C281.517 239.288 282.957 235.624 284.427 231.494C285.87 227.239 287.152 223.15 288.273 219.227C289.367 215.179 290.291 211.562 291.046 208.375C291.191 207.717 291.325 207.097 291.45 206.516L291.747 206.055C291.818 205.777 291.903 205.561 292.001 205.408C292.072 205.13 292.13 204.789 292.174 204.385C292.218 203.982 292.445 203.21 292.855 202.069C293.024 201.638 293.286 200.727 293.642 199.336C294.096 197.792 294.282 196.832 294.2 196.455C294.261 195.522 294.438 194.826 294.733 194.368C295.028 193.91 295.31 193.389 295.577 192.805C296.573 188.91 297.29 184.943 297.729 180.905C298.167 176.868 298.871 172.838 299.839 168.817C300.051 171.006 300.271 172.929 300.499 174.588C300.673 175.996 300.833 177.341 300.98 178.624C301.252 179.879 301.541 180.605 301.846 180.801C301.868 182.111 302.104 183.505 302.557 184.984C302.982 186.338 303.128 187.62 302.997 188.831C302.99 190.015 303.025 191.388 303.101 192.948C303.149 194.384 303.372 195.715 303.77 196.943C303.905 200.594 304.2 204.078 304.657 207.396C305.086 210.588 305.445 214.059 305.732 217.808C305.889 219.745 305.97 221.633 305.975 223.472C306.077 225.158 306.27 226.956 306.553 228.866C307.223 231.349 307.677 233.748 307.916 236.061C308.155 238.375 308.353 240.501 308.511 242.438C309.869 243.852 311.017 245.508 311.955 247.408C313.045 249.406 314.256 251.049 315.587 252.337C316.717 252.092 317.394 251.88 317.618 251.7C317.994 251.618 318.518 251.307 319.19 250.767C319.692 250.659 320.06 250.842 320.295 251.316C320.556 251.917 320.813 252.19 321.064 252.135L321.638 250.237C322.086 249.877 322.282 249.571 322.228 249.32C322.326 249.168 322.626 249.037 323.129 248.928C323.309 249.152 323.901 249.155 324.905 248.937C325.909 248.719 326.9 248.439 327.877 248.096C328.98 247.725 329.943 247.319 330.768 246.878C331.592 246.436 331.964 246.027 331.882 245.65C331.484 244.422 331.122 243.055 330.795 241.549C330.496 240.168 330.412 238.872 330.543 237.661C330.277 235.222 329.88 232.482 329.353 229.443C328.977 226.501 328.671 223.874 328.432 221.56C328.329 219.874 328.267 218.376 328.246 217.066C328.35 215.73 328.531 214.442 328.788 213.203C329.171 211.938 329.54 210.609 329.895 209.218C330.251 207.827 330.628 206.234 331.028 204.438C331.214 203.478 331.329 202.796 331.372 202.392C331.542 201.961 331.962 201.476 332.634 200.936L332.92 202.254C333.613 203.024 334.027 203.723 334.163 204.35C334.398 204.825 334.659 205.425 334.948 206.151C335.859 207.925 336.72 209.775 337.532 211.702C338.443 213.476 339.492 215.285 340.681 217.13C342.644 220.122 344.66 222.444 346.727 224.099C348.768 225.628 350.888 226.614 353.087 227.057C355.008 227.429 356.484 227.569 357.516 227.477C358.574 227.51 359.762 226.924 361.078 225.719C362.208 225.474 363.269 224.915 364.263 224.043C365.257 223.17 366.223 222.172 367.163 221.048L367.04 220.484C367.8 219.136 368.352 217.439 368.697 215.393C369.14 213.195 369.867 211.394 370.877 209.992C371.396 209.354 371.686 208.569 371.746 207.636C371.905 206.55 371.987 205.415 371.994 204.231L371.667 202.725C371.962 202.266 372.26 201.216 372.561 199.574C372.862 197.932 373.136 196.164 373.382 194.27C373.415 194.1 373.448 193.93 373.479 193.761C373.963 194.582 374.501 195.417 375.092 196.265C376.046 197.635 377.05 198.929 378.103 200.147C379.128 201.239 380.176 202.128 381.245 202.817C384.867 205.58 388.567 206.88 392.344 206.718C396.094 206.431 399.418 204.791 402.318 201.796C403.312 200.924 404.027 199.98 404.464 198.965C404.901 197.951 405.366 197.062 405.857 196.298C406.349 195.534 406.715 194.798 406.955 194.089C407.322 193.352 407.382 192.419 407.137 191.289C407.629 190.526 408.057 189.776 408.424 189.039C408.79 188.303 409.164 187.302 409.547 186.036L410.432 184.661L410.922 186.921C411.412 189.18 411.852 191.516 412.244 193.928C412.734 196.187 412.978 198.828 412.977 201.851L413.467 204.11C413.603 204.738 413.955 205.45 414.522 206.247C415.187 206.891 415.834 207.146 416.462 207.009C417.728 207.392 418.729 207.766 419.465 208.132C420.202 208.498 420.952 208.927 421.716 209.419C421.825 209.921 422.081 210.194 422.485 210.238C422.638 210.336 422.84 210.358 423.091 210.303C423.757 210.948 424.564 211.035 425.514 210.566C426.617 210.196 427.526 209.539 428.241 208.595C429.109 207.75 429.811 206.744 430.347 205.576C430.882 204.409 431.068 203.448 430.905 202.695C430.769 202.068 430.835 201.462 431.102 200.878L432.43 198.816L433.71 193.808C434.201 193.044 434.581 192.371 434.849 191.787C435.242 191.176 435.37 190.557 435.234 189.929C435.431 189.624 435.712 189.103 436.078 188.366C436.543 187.477 436.944 186.601 437.283 185.739C437.748 184.85 438.086 183.988 438.3 183.154C438.513 182.319 438.552 181.588 438.415 180.96C438.767 180.02 439.103 179.142 439.423 178.324C439.49 178.396 439.559 178.466 439.629 178.537C439.68 178.589 439.733 178.64 439.786 178.692C440.298 179.238 440.708 179.609 441.013 179.805C441.608 180.728 442.112 181.538 442.526 182.237C442.941 182.936 443.705 183.427 444.818 183.712C446.417 184.416 448.27 184.475 450.377 183.886C452.609 183.271 454.203 182.137 455.159 180.484C456 179.513 456.312 178.526 456.094 177.522C456.843 175.519 457.493 173.67 458.045 171.973C458.57 170.151 459.019 168.28 459.391 166.359C459.681 164.062 459.896 161.716 460.033 159.32C460.144 156.799 460.429 154.175 460.889 151.447C461.282 150.836 461.411 150.217 461.275 149.589C461.111 148.836 461.226 148.154 461.62 147.543C461.778 146.457 461.902 145.51 461.989 144.703C462.05 143.77 461.909 142.815 461.565 141.838C461.822 140.599 462.071 139.625 462.312 138.916C462.678 138.18 462.932 137.533 463.074 136.977C463.315 136.268 463.492 135.572 463.607 134.89C463.821 134.055 463.993 133.032 464.125 131.821C464.765 129.317 465.513 127.314 466.371 125.814C467.201 124.189 467.686 122.178 467.823 119.783C468.698 117.753 469.037 115.38 468.842 112.662ZM250.62 115.618C251.204 115.886 252.017 116.301 253.059 116.863C254.074 117.301 255.053 117.877 255.997 118.592C257.066 119.28 257.961 120.072 258.681 120.967C259.374 121.737 259.627 122.602 259.441 123.562L259.448 126.32C259.415 127.379 259.408 128.563 259.43 129.873C259.451 131.182 259.041 132.323 258.2 133.293C257.43 133.986 256.835 134.575 256.414 135.06C256.119 135.519 255.761 135.99 255.341 136.476C255.019 136.809 254.647 137.218 254.227 137.703C253.905 138.036 253.345 138.486 252.548 139.053C251.958 139.969 250.923 140.653 249.444 141.105C247.965 141.558 246.805 142.269 245.964 143.24C244.838 145.324 243.206 145.678 241.068 144.301C240.314 144.465 239.493 144.314 238.604 143.85C237.714 143.386 236.686 142.886 235.518 142.35C233.597 141.978 231.769 141.126 230.034 139.794C228.299 138.462 226.767 137.151 225.436 135.863C224.464 135.022 223.835 134.238 223.546 133.513C223.257 132.787 223.031 132.047 222.867 131.294C221.57 128.947 221.265 127.239 221.953 126.17C222.641 125.101 224.618 124.212 227.882 123.505C228.208 125.011 228.718 126.149 229.411 126.919C230.103 127.688 230.559 128.575 230.777 129.579C232.325 131.872 234.186 133.177 236.358 133.495C238.53 133.812 240.413 133.404 242.007 132.27C243.547 130.885 244.898 129.54 246.062 128.237C247.225 126.933 247.911 124.945 248.12 122.271C247.956 121.518 247.744 120.841 247.482 120.241C247.319 119.488 247.245 118.847 247.262 118.317C247.377 117.635 247.658 117.114 248.106 116.754C248.527 116.269 249.365 115.89 250.62 115.618ZM75.4518 290.401C74.5564 291.121 74.0784 291.948 74.0179 292.881C74.3506 293.203 74.8089 293.498 75.3927 293.765C75.9766 294.033 76.7079 294.072 77.5867 293.881C77.8544 293.297 78.2038 293.09 78.6349 293.26C79.066 293.429 79.5326 293.459 80.0348 293.35C80.4114 293.269 80.7744 293.124 81.1238 292.917C81.626 292.808 81.8226 292.503 81.7137 292.001C82.0904 291.919 82.3687 291.99 82.5487 292.214C82.7559 292.563 83.1106 292.684 83.6127 292.575L85.1192 292.248L87.5673 291.717C88.3478 291.68 89.2047 291.691 90.1379 291.752C91.1256 292.063 92.1352 292.173 93.1668 292.081C94.3511 292.087 95.478 292.434 96.5473 293.122L97.1123 292.999C97.9911 292.809 98.6407 292.471 99.0612 291.985C99.6345 291.598 100.298 291.323 101.051 291.16C101.16 291.662 101.313 291.76 101.509 291.455C101.608 291.302 101.769 291.136 101.993 290.956C103.183 289.778 104.428 288.851 105.727 288.175C107.179 287.597 108.41 286.607 109.421 285.205L110.174 285.042C111.07 284.322 111.839 283.63 112.484 282.964C113.155 282.425 113.849 281.683 114.564 280.739C114.75 279.779 115.215 278.89 115.958 278.072C116.853 277.352 117.394 276.512 117.58 275.551L119.202 273.031C119.595 272.42 120.191 271.831 120.988 271.264C121.785 270.697 122.492 270.018 123.109 269.227C123.699 268.311 124.204 267.61 124.625 267.125C125.34 266.181 125.895 265.404 126.288 264.793C126.681 264.182 127.2 263.544 127.844 262.878C128.156 261.891 128.585 261.141 129.131 260.628C129.775 259.963 130.19 259.15 130.376 258.19C130.502 258.162 130.663 257.996 130.86 257.691C130.833 257.565 130.854 257.363 130.926 257.085C131.264 256.223 131.54 255.375 131.754 254.54C132.065 253.552 132.503 252.538 133.065 251.496C133.862 250.929 134.556 250.187 135.146 249.271C135.834 248.201 136.208 247.2 136.269 246.267L137.047 245.31C136.775 244.055 136.732 242.947 136.918 241.987C137.077 240.901 137.46 239.635 138.066 238.19C138.863 237.623 139.404 236.782 139.688 235.669C139.973 234.556 140.208 233.52 140.394 232.56C140.919 230.737 141.13 228.983 141.027 227.297C140.924 225.611 140.306 223.971 139.171 222.377L138.845 220.871C138.545 219.49 138.058 218.15 137.381 216.851C136.678 215.426 136.002 214.127 135.353 212.954C132.392 208.996 129.228 206.528 125.861 205.55C125.25 205.156 124.742 204.938 124.338 204.894C124.06 204.823 123.866 204.536 123.757 204.034C121.962 203.635 120.292 203.209 118.748 202.755C117.329 202.274 115.7 202.036 113.861 202.04C111.367 202.055 108.711 202.237 105.895 202.584C103.079 202.932 100.456 203.566 98.0266 204.487C91.5907 206.934 85.3536 209.995 79.3154 213.669C78.0433 214.471 77.0223 215.218 76.2524 215.91C75.4825 216.603 74.5023 217.538 73.3119 218.716C72.9353 218.798 72.4603 219.032 71.8871 219.419C71.3138 219.806 70.7761 220.054 70.2739 220.163C69.7339 219.492 69.3467 218.919 69.1123 218.444L68.7856 216.938C66.8557 212.888 66.0254 209.06 66.2948 205.453L65.3964 201.311C64.622 200.164 64.2651 199.125 64.3256 198.192C64.3589 197.133 64.2258 195.913 63.9264 194.533L61.6397 183.989L60.9455 180.789C60.8533 179.757 60.8593 178.573 60.9637 177.236C61.8425 177.046 62.443 176.784 62.7652 176.452C63.1857 175.966 63.5435 175.494 63.8384 175.036C64.6083 174.344 65.2035 173.755 65.624 173.269C66.1701 172.756 66.7517 172.105 67.3688 171.314C69.258 169.721 71.1745 168.255 73.1181 166.913C75.0618 165.572 77.1938 164.19 79.5141 162.767C79.809 162.309 80.0193 162.066 80.1448 162.039C80.2431 161.886 80.5434 161.755 81.0456 161.646C81.3466 160.004 82.4962 158.638 84.4943 157.547C86.0008 157.221 87.4423 155.988 88.8188 153.85C89.4904 153.31 90.1892 152.896 90.9152 152.607C91.7396 152.166 92.4331 151.424 92.9958 150.382C93.4163 149.896 93.6893 149.64 93.8149 149.613C93.9132 149.46 94.1507 149.343 94.5273 149.261C95.0294 149.152 95.3161 148.959 95.3872 148.681C95.4311 148.277 95.6413 148.034 96.0179 147.953C97.3172 147.277 98.5129 146.426 99.605 145.401C100.697 144.375 102.217 144.112 104.165 144.609L104.919 144.446C105.044 144.419 105.331 144.225 105.779 143.865C105.877 143.712 106.038 143.546 106.262 143.366C106.873 143.759 107.304 143.929 107.555 143.874C107.833 143.945 108.022 143.905 108.12 143.752C108.432 142.764 108.47 142.033 108.236 141.558C108.127 141.056 107.524 140.398 106.428 139.585C106.346 139.208 106.201 138.845 105.994 138.496C105.913 138.119 105.566 137.735 104.955 137.341C104.356 134.58 102.425 133.553 99.1606 134.261C97.5286 134.615 96.0357 135.004 94.6819 135.429C93.301 135.728 91.7861 136.319 90.1374 137.203C88.9636 137.851 87.9154 138.473 86.9928 139.067C86.1684 139.509 85.1913 139.852 84.0614 140.097C82.6199 141.329 81.1376 142.373 79.6144 143.229C78.2168 144.058 76.9311 144.797 75.7573 145.445C72.6671 147.561 69.5278 149.753 66.3393 152.021C63.2763 154.262 60.4916 156.574 57.9852 158.958C57.1881 159.525 56.5029 160.002 55.9296 160.389C55.4819 160.749 54.8406 160.822 54.0057 160.609C53.1919 161.705 52.5528 162.698 52.0884 163.587C51.7496 164.449 50.9797 165.142 49.7787 165.665L48.8371 165.869C48.5694 166.453 48.2881 166.974 47.9931 167.432C47.6981 167.89 47.6051 168.37 47.714 168.873C48.4884 170.019 49.0609 171.143 49.4314 172.246C49.802 173.348 50.2572 174.235 50.7972 174.906C51.4355 175.425 51.7954 175.873 51.8771 176.249C52.0843 176.599 52.2424 177.024 52.3513 177.526C52.4752 180.522 52.6347 183.379 52.8298 186.096C52.9976 188.688 53.1435 191.482 53.2674 194.478C53.3702 196.164 53.4511 198.052 53.51 200.142C53.5418 202.107 53.789 204.156 54.2518 206.29C54.7146 208.423 54.9754 210.535 55.0344 212.625C55.2188 214.688 55.2778 216.778 55.2112 218.895C55.674 221.029 56.0384 223.315 56.3046 225.755C56.5435 228.068 56.8944 230.292 57.3571 232.426L59.7255 243.346C60.22 247.444 61.0011 251.349 62.0689 255.06C63.1367 258.771 64.2672 262.468 65.4605 266.152C66.5071 268.554 67.5182 271.094 68.4937 273.774C69.5676 276.301 70.7534 278.738 72.0511 281.085C72.2144 281.838 72.5388 282.425 73.0244 282.845C73.5099 283.266 73.9818 283.623 74.4401 283.918C74.6306 284.797 74.9687 285.447 75.4542 285.867C75.9669 286.413 76.5069 287.084 77.0741 287.881C76.888 288.842 76.3473 289.682 75.4518 290.401ZM88.6318 275.716C87.6653 276.714 86.5951 277.538 85.4214 278.186C85.3397 277.81 85.3208 277.42 85.3647 277.016C85.3813 276.487 85.7882 275.939 86.5854 275.371L86.3812 274.43C86.2178 273.677 86.1173 272.91 86.0795 272.13C86.0417 271.35 86.4078 270.613 87.1777 269.921C87.391 269.086 87.5279 268.202 87.5884 267.269C87.6489 266.336 87.3684 265.345 86.7467 264.297C86.529 263.293 86.4148 262.464 86.4042 261.809C86.492 261.001 86.2931 260.387 85.8075 259.967C85.6987 259.465 85.4506 258.927 85.0634 258.354C84.7745 257.628 84.7776 257.036 85.0725 256.578C84.9909 256.201 84.8464 255.838 84.6392 255.489C84.5303 254.987 84.1923 254.338 83.6251 253.541C83.1229 253.649 82.7682 253.529 82.561 253.18L82.316 252.05C81.5583 250.375 80.9533 248.797 80.5011 247.318C80.0216 245.714 79.3539 244.15 78.4978 242.627C77.7673 241.077 77.1623 239.5 76.6829 237.895C76.1762 236.165 75.5576 234.525 74.8271 232.975L74.4596 231.281C74.7546 230.823 75.0904 230.553 75.467 230.471C75.8164 230.264 76.2422 230.106 76.7444 229.997L79.9457 229.303C81.2178 228.501 82.5307 227.888 83.8844 227.463C85.3637 227.011 86.6902 226.461 87.864 225.812C88.7428 225.622 89.5944 225.305 90.4187 224.864C91.2159 224.297 91.9911 223.932 92.7443 223.768C95.3868 222.013 98.0073 220.459 100.606 219.107C103.303 217.602 106.054 216.349 108.86 215.346C109.63 214.654 110.392 214.226 111.145 214.062C111.871 213.774 112.485 213.575 112.987 213.466L116.188 212.772C117.067 212.581 117.897 212.467 118.677 212.429C119.556 212.239 120.427 212.313 121.289 212.652C121.873 212.919 122.268 213.228 122.475 213.577C122.683 213.927 123.029 214.312 123.514 214.732C123.977 216.866 123.57 218.925 122.291 220.911C121.52 224.627 119.739 228.232 116.948 231.729C116.298 233.578 115.208 235.523 113.678 237.563L107.927 246.498C106.862 247.649 105.985 248.759 105.297 249.828C104.734 250.87 104.073 252.064 103.314 253.412C102.375 254.535 101.512 255.708 100.725 256.93L98.218 260.825L95.3342 264.801C94.3783 266.454 93.5562 267.815 92.8679 268.884C92.1797 269.953 91.6087 271.26 91.1548 272.804C90.4394 273.747 89.5984 274.718 88.6318 275.716Z" fill="white"/>
</svg>
