<?xml version="1.0" standalone="no"?>
<!DOCTYPE svg PUBLIC "-//W3C//DTD SVG 1.1//EN" "http://www.w3.org/Graphics/SVG/1.1/DTD/svg11.dtd" >
<svg xmlns="http://www.w3.org/2000/svg" xmlns:xlink="http://www.w3.org/1999/xlink" version="1.1">
<metadata>
Created by FontForge 20170731 at Fri Mar  3 18:10:21 2017
 By Aleksey,,,
Copyright (c) 2014 by Fontfabric LLC. All rights reserved.
</metadata>
<defs>
<font id="GloberMRegular" horiz-adv-x="678" >
  <font-face 
    font-family="GloberM Regular"
    font-weight="400"
    font-stretch="normal"
    units-per-em="1000"
    panose-1="0 0 0 0 0 0 0 0 0 0"
    ascent="750"
    descent="-250"
    x-height="526"
    cap-height="720"
    bbox="-159 -261 1032 1089.43"
    underline-thickness="50"
    underline-position="-150"
    unicode-range="U+0020-FB02"
  />
<missing-glyph horiz-adv-x="618" 
d="M37 0v720h538v-720h-538zM417 598q-41 35 -114 35q-77 0 -124 -27q-3 -27 18 -42q37 20 99 20q102 0 102 -87q0 -58 -66 -119q-67 -60 -67 -155q8 -6 23 -6q16 0 23 6q0 71 74 134q73 62 73 143q0 62 -41 98zM321 143q-11 4 -33 4t-32 -4v-58q10 -4 32 -4t33 4v58z" />
    <glyph glyph-name="uniFB01" unicode="fi" horiz-adv-x="567" 
d="M104 586q0 164 184 164q108 0 190 -30q0 -33 -19 -53q-71 24 -165 24q-65 0 -92 -24q-26 -24 -26 -76v-65h269q19 0 39 -4v-517q-12 -5 -36 -5q-26 0 -36 5v464h-236v-464q-12 -5 -36 -5q-25 0 -36 5v464h-64q-4 11 -4 29t4 28h64v60z" />
    <glyph glyph-name="uniFB02" unicode="fl" horiz-adv-x="569" 
d="M104 586q0 164 178 164q108 0 202 -34v-711q-12 -5 -36 -5q-26 0 -36 5v670q-64 16 -124 16q-112 0 -112 -100v-65h112q4 -12 4 -28q0 -15 -4 -29h-112v-464q-12 -5 -36 -5q-25 0 -36 5v464h-64l-4 29q0 16 4 28h64v60z" />
    <glyph glyph-name=".notdef" horiz-adv-x="618" 
d="M37 0v720h538v-720h-538zM417 598q-41 35 -114 35q-77 0 -124 -27q-3 -27 18 -42q37 20 99 20q102 0 102 -87q0 -58 -66 -119q-67 -60 -67 -155q8 -6 23 -6q16 0 23 6q0 71 74 134q73 62 73 143q0 62 -41 98zM321 143q-11 4 -33 4t-32 -4v-58q10 -4 32 -4t33 4v58z" />
    <glyph glyph-name=".null" horiz-adv-x="0" 
 />
    <glyph glyph-name="nonmarkingreturn" horiz-adv-x="333" 
 />
    <glyph glyph-name="space" unicode=" " horiz-adv-x="237" 
 />
    <glyph glyph-name="exclam" unicode="!" horiz-adv-x="258" 
d="M90 715q8 5 39 5q30 0 39 -5l-12 -539q-9 -6 -27 -6t-27 6zM168 5q-12 -5 -39 -5q-28 0 -39 5v73q11 5 39 5q27 0 39 -5v-73z" />
    <glyph glyph-name="quotedbl" unicode="&#x22;" horiz-adv-x="332" 
d="M65 715q11 5 36 5t36 -5l-13 -197q-7 -4 -23 -4q-15 0 -23 4zM195 715q10 5 36 5q24 0 36 -5l-13 -197q-8 -4 -23 -4q-16 0 -23 4z" />
    <glyph glyph-name="numbersign" unicode="#" horiz-adv-x="657" 
d="M494 617q15 6 32 6q19 0 32 -6l-39 -136h90q5 -13 5 -28q0 -16 -5 -31h-106l-65 -230h87q5 -10 5 -29q0 -15 -5 -30h-104l-35 -127q-21 -6 -33 -6q-8 0 -32 6l36 127h-154l-36 -127q-21 -6 -33 -6q-10 0 -31 6l35 127h-93q-5 10 -5 29q0 20 5 30h110l65 230h-91
q-5 11 -5 30t5 29h107l39 136q15 6 32 6q19 0 32 -6l-38 -136h154zM220 192h154l64 230h-154z" />
    <glyph glyph-name="dollar" unicode="$" horiz-adv-x="562" 
d="M246 784q12 5 33 5q22 0 34 -5l-8 -116q102 -3 166 -24q0 -18 -4 -30q-6 -18 -17 -25q-64 20 -150 20q-169 0 -169 -113q0 -57 59 -87q26 -13 130 -42q90 -25 130 -55q59 -46 59 -128q0 -166 -204 -181l8 -127q-10 -5 -33 -5q-22 0 -34 5l7 126q-117 2 -194 36q0 21 2 29
q7 22 15 26q91 -27 185 -27q172 0 172 114q0 61 -59 93q-29 16 -129 42q-91 24 -129 52q-59 43 -59 122q0 77 50 123q51 47 146 54z" />
    <glyph glyph-name="percent" unicode="%" horiz-adv-x="753" 
d="M217 -5q-11 -5 -32 -5q-20 0 -31 5l388 702q9 5 31 5q21 0 31 -5zM47 518q0 173 133 173t133 -173t-133 -173t-133 173zM105 518q0 -70 20 -100q17 -25 55 -25q74 0 74 125q0 126 -74 126q-75 0 -75 -126zM441 163q0 173 133 173t133 -173t-133 -173t-133 173zM499 163
q0 -125 75 -125q74 0 74 125q0 126 -74 126q-75 0 -75 -126z" />
    <glyph glyph-name="ampersand" unicode="&#x26;" horiz-adv-x="638" 
d="M427 655q38 -34 38 -87q0 -71 -54 -126q-40 -41 -134 -93q58 -106 169 -192q40 51 63 128q39 3 58 -24q-22 -70 -77 -137q56 -38 121 -65q3 -40 -31 -60q-75 31 -138 74q-79 -83 -205 -83q-80 0 -131 41q-59 45 -59 130q0 127 149 204q-36 81 -36 156q0 78 40 122
q42 47 121 47q67 0 106 -35zM225 525q0 -62 29 -129q142 79 142 165q0 77 -80 77q-91 0 -91 -113zM399 106q-113 90 -180 212q-101 -60 -101 -148q0 -55 35 -88q36 -32 95 -32q79 0 151 56z" />
    <glyph glyph-name="quotesingle" unicode="'" horiz-adv-x="202" 
d="M65 715q10 5 36 5q24 0 36 -5l-13 -197q-7 -4 -23 -4q-15 0 -23 4z" />
    <glyph glyph-name="parenleft" unicode="(" horiz-adv-x="290" 
d="M256 781q-126 -181 -126 -461t126 -461q-6 -13 -23 -22t-31 -8q-144 209 -144 491q0 283 144 491q13 1 30 -8q18 -10 24 -22z" />
    <glyph glyph-name="parenright" unicode=")" horiz-adv-x="290" 
d="M35 781q6 12 23 22q17 9 31 8q143 -208 143 -491q0 -282 -143 -491q-14 -1 -31 8t-23 22q126 181 126 461t-126 461z" />
    <glyph glyph-name="asterisk" unicode="*" horiz-adv-x="344" 
d="M151 705q20 8 42 0v-84l81 27q12 -13 12 -40l-81 -26l52 -71q-18 -18 -35 -24l-51 69l-49 -69q-20 6 -35 23l50 71l-80 27q0 26 13 40l81 -27v84z" />
    <glyph glyph-name="plus" unicode="+" horiz-adv-x="468" 
d="M61 262q-5 10 -5 28t5 28h145v146q10 4 28 4t28 -4v-146h146q4 -10 4 -28t-4 -28h-146v-145q-10 -5 -28 -5t-28 5v145h-145z" />
    <glyph glyph-name="comma" unicode="," horiz-adv-x="225" 
d="M63 -93q31 33 35 93q-18 1 -26 5v73q14 5 40 5q27 0 41 -5v-50q0 -93 -62 -140z" />
    <glyph glyph-name="hyphen" unicode="-" horiz-adv-x="356" 
d="M80 262q-5 10 -5 28t5 28h196q5 -10 5 -28t-5 -28h-196z" />
    <glyph glyph-name="period" unicode="." horiz-adv-x="226" 
d="M154 5q-14 -5 -41 -5q-28 0 -41 5v73q13 5 41 5q27 0 41 -5v-73z" />
    <glyph glyph-name="slash" unicode="/" horiz-adv-x="455" 
d="M359 744q13 6 36 6q25 0 37 -6l-336 -785q-13 -6 -37 -6t-36 6z" />
    <glyph glyph-name="zero" unicode="0" horiz-adv-x="619" 
d="M66 340q0 350 242 350q245 0 245 -350t-245 -350q-242 0 -242 350zM185 564q-42 -68 -42 -224q0 -155 42 -223q39 -65 123 -65q86 0 125 65q41 67 41 223q0 157 -41 224q-39 64 -125 64q-84 0 -123 -64z" />
    <glyph glyph-name="one" unicode="1" horiz-adv-x="403" 
d="M238 674q11 6 35 6t36 -6v-668q-11 -6 -37 -6q-24 0 -37 6v438q0 81 5 134q-67 -80 -182 -109q-25 25 -17 61q125 33 197 144z" />
    <glyph glyph-name="two" unicode="2" horiz-adv-x="530" 
d="M79 654q75 36 184 36q93 0 147 -40q61 -46 61 -137q0 -82 -51 -136q-33 -35 -140 -100q-88 -54 -103 -67q-54 -48 -54 -114q0 -10 1 -20l1 -10h330q6 -12 6 -33q0 -19 -6 -33h-396q-6 32 -6 67q0 102 62 168q27 28 131 95q85 56 109 80q40 42 40 101q0 118 -144 118
q-80 0 -151 -28q-25 19 -21 53z" />
    <glyph glyph-name="three" unicode="3" horiz-adv-x="519" 
d="M221 -10q-105 0 -169 34q-2 33 19 54q68 -24 145 -24q168 0 168 133q0 139 -162 139h-62q-13 30 0 60h62q142 0 142 123q0 120 -144 120q-78 0 -135 -24q-28 18 -24 52q66 33 166 33q101 0 156 -46q54 -45 54 -125q0 -125 -99 -162q120 -38 120 -180q0 -187 -237 -187z
" />
    <glyph glyph-name="four" unicode="4" horiz-adv-x="576" 
d="M363 674q12 6 38 6q24 0 35 -6v-438h96q6 -10 6 -30t-6 -29h-96v-171q-13 -6 -35 -6q-23 0 -35 6v171h-326q-6 9 -6 29t6 30zM116 236h250v340z" />
    <glyph glyph-name="five" unicode="5" horiz-adv-x="520" 
d="M164 389q25 5 69 5q231 0 231 -203q0 -201 -251 -201q-111 0 -160 30q-3 33 19 54q56 -21 133 -21q183 0 183 138q0 71 -38 104q-42 37 -142 37q13 0 -115 -8v356h342q11 -34 0 -65h-271v-226z" />
    <glyph glyph-name="six" unicode="6" horiz-adv-x="551" 
d="M430 621q-238 -25 -280 -241q77 36 146 36q92 0 145 -49q60 -55 60 -164q0 -104 -60 -160q-58 -53 -159 -53t-157 63q-61 69 -61 204q0 400 366 423q13 -28 0 -59zM286 357q-66 0 -145 -43q-3 -28 -3 -61q0 -205 144 -205q65 0 103 38q40 41 40 117q0 154 -139 154z" />
    <glyph glyph-name="seven" unicode="7" horiz-adv-x="494" 
d="M451 680q5 -17 5 -41q-2 -110 -128 -284q-124 -172 -124 -351q-28 -4 -34 -4q-5 0 -37 4q0 194 115 359q125 178 134 251h-341q-6 12 -6 33q0 22 6 33h410z" />
    <glyph glyph-name="eight" unicode="8" horiz-adv-x="582" 
d="M121 38q-59 46 -59 126q0 121 135 197q-113 61 -113 164q0 76 55 120q55 45 150 45q94 0 148 -43q55 -43 55 -118q0 -110 -108 -176q137 -67 137 -183q0 -84 -60 -132q-62 -48 -174 -48q-106 0 -166 48zM191 605q-36 -28 -36 -75q0 -57 56 -96q27 -18 122 -58
q91 62 91 147q0 52 -36 81t-99 29q-62 0 -98 -28zM406 82q41 32 41 85q0 64 -64 106q-22 14 -136 63q-114 -68 -114 -168q0 -54 39 -85q42 -34 119 -34q73 0 115 33z" />
    <glyph glyph-name="nine" unicode="9" horiz-adv-x="551" 
d="M120 59q236 24 279 241q-74 -36 -145 -36q-92 0 -145 49q-59 55 -59 164q0 104 60 160q58 53 158 53q102 0 158 -63q61 -69 61 -204q0 -400 -367 -423q-12 31 0 59zM264 323q71 0 145 43q3 29 3 61q0 205 -144 205q-65 0 -103 -38q-40 -41 -40 -117q0 -154 139 -154z" />
    <glyph glyph-name="colon" unicode=":" horiz-adv-x="232" 
d="M157 400q-14 -5 -41 -5q-28 0 -41 5v73q13 5 41 5q27 0 41 -5v-73zM157 5q-14 -5 -41 -5q-28 0 -41 5v73q13 5 41 5q27 0 41 -5v-73z" />
    <glyph glyph-name="semicolon" unicode=";" horiz-adv-x="243" 
d="M164 400q-14 -5 -41 -5q-28 0 -41 5v73q13 5 41 5q27 0 41 -5v-73zM74 -93q31 33 35 93q-18 1 -27 5v73q13 5 41 5q27 0 41 -5v-50q0 -93 -62 -140z" />
    <glyph glyph-name="less" unicode="&#x3c;" horiz-adv-x="459" 
d="M58 257q-5 14 -5 33q0 20 5 32l320 145q5 -8 5 -28t-5 -30l-261 -120l261 -118q5 -10 5 -30q0 -19 -5 -29z" />
    <glyph glyph-name="equal" unicode="=" horiz-adv-x="512" 
d="M87 349q-8 30 0 56h346q8 -27 0 -56h-346zM87 174q-8 31 0 57h346q8 -28 0 -57h-346z" />
    <glyph glyph-name="greater" unicode="&#x3e;" horiz-adv-x="458" 
d="M81 112q-5 10 -5 29q0 20 5 30l261 118l-261 120q-5 10 -5 30t5 28l320 -145q5 -12 5 -32q0 -19 -5 -33z" />
    <glyph glyph-name="question" unicode="?" horiz-adv-x="433" 
d="M297 345q-92 -79 -92 -167q-8 -8 -28 -8q-18 0 -29 8q0 118 83 193q45 41 57 58q26 38 26 91q0 108 -127 108q-77 0 -124 -24q-26 19 -23 53q60 33 157 33q91 0 142 -44q50 -44 50 -122q0 -101 -92 -179zM218 5q-14 -5 -41 -5q-28 0 -41 5v73q13 5 41 5q27 0 41 -5v-73z
" />
    <glyph glyph-name="at" unicode="@" horiz-adv-x="914" 
d="M805 143q-46 -58 -128 -58q-90 0 -113 67q-37 -67 -129 -67q-158 0 -158 193q0 194 158 194q80 0 119 -52v48q10 6 31 6t31 -6v-248q0 -85 63 -85q48 0 78 40q33 44 33 128q0 150 -86 238q-87 90 -240 90q-152 0 -244 -94q-94 -96 -94 -258q0 -171 100 -262
q90 -81 232 -81q144 0 271 80q23 -10 25 -38q-133 -94 -306 -94q-164 0 -270 97q-117 108 -117 298q0 183 115 294q111 107 288 107q181 0 285 -104q101 -102 101 -273q0 -103 -45 -160zM455 133q44 0 71 29q26 27 28 67v97q-1 40 -27 68q-27 30 -72 30q-52 0 -78 -28
q-32 -34 -32 -118q0 -145 110 -145z" />
    <glyph glyph-name="A" unicode="A" horiz-adv-x="648" 
d="M283 714q16 6 41 6q26 0 41 -6l265 -708q-13 -6 -41 -6q-24 0 -36 6l-72 191h-319l-73 -191q-12 -6 -36 -6t-35 6zM320 634q-6 -30 -20 -69l-116 -306h275l-116 306q-14 40 -20 69h-3z" />
    <glyph glyph-name="B" unicode="B" horiz-adv-x="627" 
d="M350 720q98 0 148 -57q46 -51 46 -136q0 -107 -86 -159q109 -52 109 -170q0 -92 -53 -144q-55 -54 -160 -54h-258v720h254zM334 393q134 0 134 134q0 133 -135 133h-163v-267h164zM341 60q149 0 149 137q0 138 -149 138h-171v-275h171z" />
    <glyph glyph-name="C" unicode="C" horiz-adv-x="560" 
d="M345 730q109 0 168 -33q1 -32 -23 -56q-57 25 -137 25q-102 0 -152 -64q-58 -74 -58 -243t58 -241q50 -62 152 -62q88 0 148 25q21 -21 23 -57q-62 -34 -179 -34q-280 0 -280 370t280 370z" />
    <glyph glyph-name="D" unicode="D" horiz-adv-x="661" 
d="M305 720q147 0 216 -78q75 -86 75 -282t-75 -281q-69 -79 -216 -79h-209v720h209zM299 63q111 0 160 59q58 68 58 238q0 171 -58 239q-49 58 -160 58h-129v-594h129z" />
    <glyph glyph-name="E" unicode="E" horiz-adv-x="555" 
d="M493 720q6 -13 6 -30q0 -18 -6 -32h-323v-263h273q6 -13 6 -29q0 -17 -6 -32h-273v-272h333q6 -13 6 -30t-6 -32h-407v720h397z" />
    <glyph glyph-name="F" unicode="F" horiz-adv-x="532" 
d="M170 6q-12 -6 -37 -6t-37 6v714h393q6 -21 6 -31q0 -17 -6 -31h-319v-273h279q6 -12 6 -30t-6 -32h-279v-317z" />
    <glyph glyph-name="G" unicode="G" horiz-adv-x="624" 
d="M140 637q74 93 217 93q117 0 185 -33q-2 -35 -23 -55q-69 24 -153 24q-224 0 -224 -307q0 -304 224 -304q61 0 116 13v259h-164q-6 12 -6 31q0 21 6 31h235v-366q-74 -33 -196 -33q-293 0 -293 370q0 182 76 277z" />
    <glyph glyph-name="H" unicode="H" 
d="M508 714q13 6 37 6t37 -6v-708q-12 -6 -37 -6q-27 0 -37 6v330h-338v-330q-13 -6 -37 -6q-27 0 -37 6v708q13 6 37 6t37 -6v-312h338v312z" />
    <glyph glyph-name="I" unicode="I" horiz-adv-x="266" 
d="M96 714q12 6 37 6t37 -6v-708q-13 -6 -37 -6q-26 0 -37 6v708z" />
    <glyph glyph-name="J" unicode="J" horiz-adv-x="432" 
d="M269 714q10 6 37 6q25 0 37 -6v-538q0 -186 -176 -186q-78 0 -141 30q-2 35 20 57q51 -21 108 -21q115 0 115 118v540z" />
    <glyph glyph-name="K" unicode="K" horiz-adv-x="613" 
d="M488 714q16 6 38 6q24 0 40 -6l-232 -332l261 -376q-14 -6 -43 -6q-27 0 -44 6l-235 337h-103v-337q-11 -6 -37 -6q-24 0 -37 6v708q13 6 38 6q24 0 36 -6v-309h102z" />
    <glyph glyph-name="L" unicode="L" horiz-adv-x="512" 
d="M96 714q13 6 37 6q25 0 37 -6v-649h313q5 -17 5 -32q0 -13 -5 -33h-387v714z" />
    <glyph glyph-name="M" unicode="M" horiz-adv-x="837" 
d="M693 720q30 0 49 -6v-708q-13 -6 -37 -6t-37 6v424q0 156 5 200h-3q-13 -42 -68 -147l-167 -296q-10 -4 -25 -4q-14 0 -23 4l-160 294q-57 106 -69 149h-3q8 -39 8 -195v-429q-11 -6 -34 -6q-22 0 -34 6v708q17 6 45 6q24 0 45 -6l174 -318q41 -79 52 -113h4q6 23 34 74
l196 357q22 6 48 6z" />
    <glyph glyph-name="N" unicode="N" horiz-adv-x="696" 
d="M217 515q-36 60 -54 110h-3q5 -54 5 -152v-467q-11 -6 -35 -6q-23 0 -34 6v708q16 6 44 6q30 0 44 -6l293 -503q34 -58 57 -116h3q-6 64 -6 149v470q11 6 36 6q24 0 33 -6v-708q-13 -6 -42 -6q-30 0 -45 6z" />
    <glyph glyph-name="O" unicode="O" 
d="M339 730q275 0 275 -370t-275 -370t-275 370t275 370zM339 668q-197 0 -197 -308t197 -308t197 308t-197 308z" />
    <glyph glyph-name="P" unicode="P" horiz-adv-x="602" 
d="M170 6q-12 -6 -36 -6q-27 0 -38 6v714h253q95 0 152 -59q55 -58 55 -155q0 -96 -55 -155q-57 -59 -152 -59h-179v-286zM342 356q65 0 101 40q35 39 35 109q0 72 -35 112q-36 40 -101 40h-172v-301h172z" />
    <glyph glyph-name="Q" unicode="Q" 
d="M339 730q275 0 275 -370q0 -222 -101 -311q56 -52 131 -67q-5 -45 -42 -63q-85 26 -139 98q-51 -27 -124 -27q-275 0 -275 370t275 370zM339 668q-197 0 -197 -308t197 -308t197 308t-197 308z" />
    <glyph glyph-name="R" unicode="R" horiz-adv-x="621" 
d="M344 720q95 0 152 -56q55 -56 55 -149q0 -76 -38 -128q-38 -53 -106 -69l173 -312q-15 -6 -43 -6t-43 6l-168 304h-156v-304q-12 -6 -36 -6q-27 0 -38 6v714h248zM170 373h167q64 0 100 37q36 38 36 105t-36 104q-36 38 -100 38h-167v-284z" />
    <glyph glyph-name="S" unicode="S" horiz-adv-x="564" 
d="M120 676q62 54 177 54t189 -27q0 -35 -20 -58q-72 21 -159 21q-173 0 -173 -131q0 -61 55 -93q29 -18 129 -47q94 -29 134 -62q61 -50 61 -141q0 -96 -63 -149q-64 -53 -181 -53q-127 0 -209 40q0 34 19 59q91 -31 185 -31q173 0 173 133q0 59 -44 92q-31 23 -104 44
q-119 37 -154 60q-75 49 -75 144q0 92 60 145z" />
    <glyph glyph-name="T" unicode="T" horiz-adv-x="539" 
d="M504 720q6 -12 6 -32q0 -19 -6 -33h-195v-649q-13 -6 -37 -6q-26 0 -37 6v649h-200q-6 13 -6 33q0 19 6 32h469z" />
    <glyph glyph-name="U" unicode="U" horiz-adv-x="668" 
d="M578 235q0 -116 -67 -181q-66 -64 -177 -64t-177 64q-66 66 -66 181v479q13 6 37 6q25 0 37 -6v-490q0 -81 45 -126t126 -45q80 0 125 45q44 45 44 126v490q12 6 36 6t37 -6v-479z" />
    <glyph glyph-name="V" unicode="V" horiz-adv-x="627" 
d="M288 181q18 -53 25 -93h3q7 40 26 93l189 533q10 6 35 6t38 -6l-250 -709q-16 -5 -40 -5q-25 0 -41 5l-249 708q12 7 40 7q24 0 35 -6z" />
    <glyph glyph-name="W" unicode="W" horiz-adv-x="957" 
d="M505 512q-20 79 -22 121h-3q-3 -42 -22 -121l-140 -506q-18 -6 -44 -6q-25 0 -41 6l-205 708q12 6 37 6q26 0 38 -6l149 -511q17 -61 26 -116h3q6 54 22 115l143 512q11 6 37 6q27 0 38 -6l142 -511q16 -64 21 -116h3q6 50 25 115l145 512q12 6 34 6t35 -6l-200 -708
q-15 -6 -40 -6q-24 0 -42 6z" />
    <glyph glyph-name="X" unicode="X" horiz-adv-x="611" 
d="M492 714q16 6 40 6q25 0 41 -6l-220 -339l233 -368q-15 -7 -43 -7t-43 6l-198 312l-197 -313q-17 -5 -39 -5q-20 0 -43 5l232 367l-216 342q15 6 44 6q26 0 42 -6l182 -286z" />
    <glyph glyph-name="Y" unicode="Y" horiz-adv-x="628" 
d="M528 714q12 6 39 6q26 0 42 -6l-259 -411v-297q-12 -6 -36 -6q-26 0 -38 6v295l-252 413q15 6 45 6q28 0 42 -6l206 -335z" />
    <glyph glyph-name="Z" unicode="Z" horiz-adv-x="585" 
d="M523 720q6 -12 6 -32t-6 -34l-396 -588h409q5 -15 5 -32q0 -21 -5 -34h-492q-5 20 -5 34q0 15 5 32l394 588h-366q-5 20 -5 35q0 16 5 31h451z" />
    <glyph glyph-name="bracketleft" unicode="[" horiz-adv-x="324" 
d="M282 810q4 -10 4 -30t-4 -29h-116v-862h116q4 -10 4 -29q0 -21 -4 -30h-185v980h185z" />
    <glyph glyph-name="backslash" unicode="\" horiz-adv-x="457" 
d="M434 -41q-12 -6 -38 -6q-24 0 -37 6l-336 785q13 6 38 6t38 -6z" />
    <glyph glyph-name="bracketright" unicode="]" horiz-adv-x="324" 
d="M43 -170q-5 9 -5 30q0 19 5 29h115v862h-115q-5 9 -5 29t5 30h184v-980h-184z" />
    <glyph glyph-name="asciicircum" unicode="^" horiz-adv-x="518" 
d="M465 457q-9 -5 -30 -5t-34 5l-143 212l-142 -212q-12 -5 -33 -5t-30 5l174 258q10 5 32 5t32 -5z" />
    <glyph glyph-name="underscore" unicode="_" horiz-adv-x="549" 
d="M66 -71q-5 7 -5 26q0 18 5 25h417q4 -7 4 -25q0 -19 -4 -26h-417z" />
    <glyph glyph-name="grave" unicode="`" horiz-adv-x="238" 
d="M38 779q21 33 64 29l104 -144q-13 -21 -43 -24z" />
    <glyph glyph-name="a" unicode="a" horiz-adv-x="515" 
d="M257 536q103 0 144 -51q37 -46 37 -151v-329q-9 -5 -29 -5q-18 0 -29 5l-11 75q-43 -90 -168 -90q-71 0 -112 41q-43 42 -43 119q0 156 189 156q64 0 131 -8v54q0 122 -118 122q-75 0 -140 -25q-10 5 -17 22q-5 13 -5 31q76 34 171 34zM366 246q-92 8 -121 8
q-124 0 -124 -104q0 -102 103 -102q65 0 104 45q38 44 38 113v40z" />
    <glyph glyph-name="b" unicode="b" horiz-adv-x="555" 
d="M152 458q46 78 154 78q192 0 192 -273t-192 -273q-108 0 -154 78v-63q-11 -5 -36 -5t-36 5v740q11 5 36 5t36 -5v-287zM389 428q-32 47 -107 47q-60 0 -96 -45q-33 -41 -34 -101v-129q0 -60 33 -102q37 -47 97 -47q75 0 107 47q34 49 34 165t-34 165z" />
    <glyph glyph-name="c" unicode="c" horiz-adv-x="446" 
d="M131 263q0 -209 157 -209q58 0 97 19q21 -17 23 -53q-46 -30 -137 -30q-215 0 -215 273t215 273q87 0 126 -24q0 -35 -22 -54q-35 17 -91 17q-153 0 -153 -212z" />
    <glyph glyph-name="d" unicode="d" horiz-adv-x="555" 
d="M403 745q11 5 36 5t36 -5v-740q-12 -5 -30 -5q-19 0 -32 5l-7 67q-48 -82 -157 -82q-192 0 -192 273t192 273q106 0 154 -78v287zM403 328q-1 59 -34 101q-36 46 -96 46q-74 0 -107 -47q-34 -49 -34 -165t34 -165q33 -47 107 -47q60 0 97 47q33 42 33 102v128z" />
    <glyph glyph-name="e" unicode="e" horiz-adv-x="512" 
d="M131 240q5 -100 44 -144q36 -42 111 -42q76 0 122 33q24 -19 26 -53q-55 -44 -162 -44q-216 0 -216 276q0 137 60 206q55 64 155 64q90 0 139 -51t49 -142q0 -62 -11 -103h-317zM271 477q-132 0 -140 -183h254q3 21 3 57q0 126 -117 126z" />
    <glyph glyph-name="f" unicode="f" horiz-adv-x="346" 
d="M104 586q0 164 158 164q60 0 102 -17q0 -33 -19 -53q-31 11 -77 11q-53 0 -74 -26q-18 -22 -18 -74v-65h141q5 -17 5 -29q0 -10 -5 -28h-141v-464q-11 -5 -36 -5t-36 5v464h-68q-4 14 -4 29q0 16 4 28h68v60z" />
    <glyph glyph-name="g" unicode="g" horiz-adv-x="525" 
d="M492 535q12 -30 0 -61l-90 -2q35 -43 35 -112q0 -83 -48 -128q-50 -47 -141 -47q-34 0 -53 5q-28 -37 -27 -74q2 -33 53 -46l111 -16q74 -11 110 -35q49 -34 49 -102q0 -73 -64 -118q-68 -49 -186 -49q-103 0 -156 41q-49 37 -49 101q0 88 88 144q-23 23 -23 58
q0 52 47 110q-89 41 -89 156q0 82 49 129q50 47 140 47q62 0 108 -24zM248 483q-118 0 -118 -122q0 -123 118 -123t118 123q0 122 -118 122zM329 -12q-14 3 -83 11q-51 6 -78 15q-60 -42 -60 -108q0 -102 135 -102q82 0 131 29q47 29 47 76q0 62 -92 79z" />
    <glyph glyph-name="h" unicode="h" horiz-adv-x="549" 
d="M472 5q-13 -5 -36 -5q-25 0 -36 5v367q0 104 -108 104q-92 0 -140 -91v-380q-12 -5 -36 -5q-25 0 -36 5v740q11 5 36 5q24 0 36 -5v-287q62 78 166 78q73 0 114 -41q40 -40 40 -109v-381z" />
    <glyph glyph-name="i" unicode="i" horiz-adv-x="238" 
d="M160 640q-14 -5 -41 -5q-28 0 -41 5v73q13 5 41 5q27 0 41 -5v-73zM155 5q-12 -5 -36 -5q-26 0 -36 5v516q10 5 36 5q24 0 36 -5v-516z" />
    <glyph glyph-name="j" unicode="j" horiz-adv-x="238" 
d="M159 642q-14 -6 -40 -6q-28 0 -41 6v73q13 5 41 5q26 0 40 -5v-73zM83 521q10 5 36 5q24 0 36 -5v-609q0 -162 -140 -162q-42 0 -62 9q-3 7 -3 17q0 25 8 37q16 -4 40 -4q85 0 85 99v613z" />
    <glyph glyph-name="k" unicode="k" horiz-adv-x="498" 
d="M384 521q14 5 39 5q22 0 35 -5l-162 -241l186 -274q-16 -6 -41 -6q-26 0 -41 6l-164 240h-84v-241q-13 -5 -35 -5q-24 0 -37 5v741q14 4 37 4q21 0 35 -4v-443h85z" />
    <glyph glyph-name="l" unicode="l" horiz-adv-x="242" 
d="M157 5q-12 -5 -36 -5q-26 0 -36 5v740q10 5 36 5q24 0 36 -5v-740z" />
    <glyph glyph-name="m" unicode="m" horiz-adv-x="834" 
d="M612 536q69 0 107 -41q38 -40 38 -109v-381q-12 -5 -36 -5q-25 0 -36 5v367q0 104 -99 104q-88 0 -132 -92v-379q-12 -5 -36 -5q-25 0 -36 5v367q0 104 -99 104q-86 0 -131 -91v-380q-12 -5 -36 -5q-25 0 -36 5v516q11 5 36 5q24 0 36 -5v-62q58 77 157 77q101 0 132 -87
q62 87 171 87z" />
    <glyph glyph-name="n" unicode="n" horiz-adv-x="549" 
d="M472 5q-13 -5 -36 -5q-25 0 -36 5v367q0 104 -108 104q-92 0 -140 -91v-380q-12 -5 -36 -5q-25 0 -36 5v516q11 5 36 5q24 0 36 -5v-63q62 78 166 78q73 0 114 -41q40 -40 40 -109v-381z" />
    <glyph glyph-name="o" unicode="o" horiz-adv-x="542" 
d="M271 536q214 0 214 -273t-214 -273t-214 273t214 273zM373 434q-33 45 -102 45t-102 -45q-38 -52 -38 -171t38 -171q33 -45 102 -45t102 45q38 52 38 171t-38 171z" />
    <glyph glyph-name="p" unicode="p" horiz-adv-x="556" 
d="M152 458q46 78 154 78q192 0 192 -273t-192 -273q-108 0 -154 78v-302q-11 -5 -36 -5t-36 5v755q11 5 36 5t36 -5v-63zM389 428q-32 47 -107 47q-60 0 -96 -45q-33 -41 -34 -101v-129q0 -60 33 -102q37 -47 97 -47q75 0 107 47q34 49 34 165t-34 165z" />
    <glyph glyph-name="q" unicode="q" horiz-adv-x="556" 
d="M404 68q-48 -78 -154 -78q-192 0 -192 273t192 273q106 0 154 -78v63q10 5 35 5t37 -5v-755q-11 -5 -36 -5t-36 5v302zM167 98q33 -47 107 -47q58 0 95 45q33 40 35 98v135q-2 60 -35 101q-36 45 -95 45q-74 0 -107 -47q-34 -49 -34 -165t34 -165z" />
    <glyph glyph-name="r" unicode="r" horiz-adv-x="391" 
d="M152 439q52 96 135 96q49 0 86 -24q-4 -38 -33 -61q-31 20 -68 20q-70 0 -120 -100v-365q-11 -5 -36 -5t-36 5v516q11 5 36 5t36 -5v-82z" />
    <glyph glyph-name="s" unicode="s" horiz-adv-x="444" 
d="M101 494q48 42 137 42t135 -25q1 -34 -20 -53q-48 17 -107 17q-119 0 -119 -88q0 -38 39 -60q20 -12 86 -32q71 -22 100 -45q47 -37 47 -106q0 -154 -183 -154q-100 0 -160 34q-2 35 20 54q65 -25 136 -25q115 0 115 89q0 44 -39 67q-21 12 -86 31q-68 19 -99 44
q-46 36 -46 100q0 70 44 110z" />
    <glyph glyph-name="t" unicode="t" horiz-adv-x="368" 
d="M183 182q0 -72 23 -102q24 -30 83 -30q25 0 49 5q6 -12 6 -30q0 -17 -4 -27q-27 -8 -70 -8q-86 0 -124 49q-35 45 -35 140v290h-78q-5 10 -5 28q0 20 5 29h78v95q28 19 72 16v-111h143q5 -10 5 -28t-5 -29h-143v-287z" />
    <glyph glyph-name="u" unicode="u" horiz-adv-x="548" 
d="M76 521q13 5 36 5q25 0 36 -5v-367q0 -104 109 -104q90 0 139 91v380q12 5 36 5q25 0 36 -5v-516q-11 -5 -36 -5q-24 0 -36 5v63q-62 -78 -166 -78q-72 0 -114 41q-40 41 -40 109v381z" />
    <glyph glyph-name="v" unicode="v" horiz-adv-x="510" 
d="M226 179q20 -55 30 -103h3q11 46 31 102l125 343q11 5 33 5q23 0 35 -5l-186 -516q-17 -5 -41 -5q-26 0 -41 5l-190 516q13 5 38 5q26 0 38 -5z" />
    <glyph glyph-name="w" unicode="w" horiz-adv-x="794" 
d="M430 312q-28 93 -30 133h-3q-5 -49 -33 -133l-97 -307q-22 -5 -38 -5q-15 0 -40 5l-160 516q12 5 36 5q25 0 33 -5l110 -350q12 -42 20 -91h3q7 45 22 91l110 350q16 5 38 5q24 0 36 -5l108 -348q11 -36 20 -93h3q5 34 23 92l109 349q12 5 33 5q23 0 32 -5l-160 -516
q-27 -5 -39 -5q-11 0 -39 5z" />
    <glyph glyph-name="x" unicode="x" horiz-adv-x="494" 
d="M31 521q14 5 40 5q27 0 41 -5l139 -200l137 200q11 5 36 5t39 -5l-174 -251l182 -265q-13 -5 -40 -5t-41 5l-147 212l-145 -212q-12 -5 -38 -5q-24 0 -37 5l181 263z" />
    <glyph glyph-name="y" unicode="y" horiz-adv-x="523" 
d="M285 -97q-27 -80 -56 -112q-36 -41 -99 -41q-30 0 -51 8q-6 12 -6 28q0 23 7 30q19 -5 43 -5q34 0 53 20q22 23 43 86l30 84q-11 0 -24 5l-200 515q13 5 38 5t38 -5l135 -343q24 -62 36 -107h3q11 44 32 107l118 343q11 5 36 5q23 0 36 -5z" />
    <glyph glyph-name="z" unicode="z" horiz-adv-x="461" 
d="M407 61q6 -10 6 -31q0 -19 -6 -30h-361q-5 12 -5 32q0 19 5 29l283 404h-263q-5 11 -5 31t5 30h340q5 -15 5 -29t-5 -32l-283 -404h284z" />
    <glyph glyph-name="braceleft" unicode="{" horiz-adv-x="344" 
d="M302 810q4 -12 4 -29q0 -5 -4 -29h-44q-78 0 -78 -77v-245q0 -69 -36 -95q36 -26 36 -95v-246q0 -77 78 -77h44q4 -12 4 -29t-4 -29h-58q-64 0 -99 37q-33 34 -33 96v266q0 47 -42 47h-31q-5 15 -5 29q0 15 5 30h31q42 0 42 48v265q0 133 132 133h58z" />
    <glyph glyph-name="bar" unicode="|" horiz-adv-x="264" 
d="M96 785q10 5 36 5q24 0 36 -5v-977q-12 -5 -36 -5q-26 0 -36 5v977z" />
    <glyph glyph-name="braceright" unicode="}" horiz-adv-x="345" 
d="M100 810q133 0 133 -133v-265q0 -48 42 -48h30q5 -15 5 -29q0 -20 -5 -30h-30q-42 0 -42 -47v-266q0 -133 -133 -133h-57q-5 15 -5 28q0 15 5 30h43q78 0 78 77v246q0 68 35 94q-35 27 -35 96v245q0 77 -78 77h-43q-5 15 -5 29t5 29h57z" />
    <glyph glyph-name="asciitilde" unicode="~" horiz-adv-x="533" 
d="M112 253q-30 7 -35 38q32 57 112 57q33 0 80 -25q46 -26 77 -26q48 0 74 36q30 -8 36 -37q-31 -58 -113 -58q-33 0 -80 26q-46 25 -77 25q-48 0 -74 -36z" />
    <glyph glyph-name="exclamdown" unicode="&#xa1;" horiz-adv-x="248" 
d="M83 513q14 5 41 5q28 0 41 -5v-73q-13 -5 -41 -5q-27 0 -41 5v73zM97 342q9 5 27 5q17 0 27 -5l12 -539q-8 -5 -39 -5q-30 0 -39 5z" />
    <glyph glyph-name="cent" unicode="&#xa2;" horiz-adv-x="465" 
d="M242 627q18 6 32 6q19 0 31 -6l-6 -92q70 -3 103 -23q0 -32 -22 -52q-35 17 -91 17q-153 0 -153 -214q0 -212 157 -212q58 0 97 20q21 -18 23 -51q-39 -25 -114 -29l6 -92q-10 -7 -32 -7q-24 0 -31 7l5 93q-186 17 -186 271q0 253 186 271z" />
    <glyph glyph-name="sterling" unicode="&#xa3;" horiz-adv-x="523" 
d="M220 309q37 -144 -65 -243h306q6 -6 6 -33t-6 -33h-389v66q112 103 72 243h-82q-5 10 -5 28q0 23 5 28h66q-31 87 -31 145q0 181 207 181q90 0 160 -30q3 -35 -23 -54q-62 22 -127 22q-141 0 -141 -122q0 -40 32 -142h190q5 -10 5 -27q0 -21 -5 -29h-175z" />
    <glyph glyph-name="currency" unicode="&#xa4;" horiz-adv-x="589" 
d="M414 113q-53 -40 -119 -40q-67 0 -120 40l-73 -74q-12 1 -25 15q-13 13 -14 24l75 74q-41 52 -41 119q0 65 41 119l-75 74q2 12 14 25q14 13 25 13l74 -73q53 40 119 40t118 -41l74 74q10 0 24 -13q13 -13 14 -25l-73 -74q41 -54 41 -119q0 -66 -41 -120l74 -73
q0 -12 -13 -25q-13 -14 -25 -14zM193 373q-42 -41 -42 -102t42 -102q42 -42 102 -42q61 0 102 42q42 41 42 102t-42 102q-41 42 -102 42q-60 0 -102 -42z" />
    <glyph glyph-name="yen" unicode="&#xa5;" horiz-adv-x="611" 
d="M505 679q13 5 38 5q23 0 37 -5l-221 -355h143q4 -10 4 -24q0 -13 -4 -25h-167v-76h167q4 -8 4 -24q0 -13 -4 -25h-167v-144q-10 -6 -34 -6q-23 0 -34 6v144h-168q-4 12 -4 26q0 13 4 23h168v76h-168q-4 12 -4 25q0 14 4 24h144l-209 354q13 6 40 6q26 0 39 -6l191 -326z
" />
    <glyph glyph-name="brokenbar" unicode="&#xa6;" horiz-adv-x="252" 
d="M89 561q11 5 37 5q24 0 37 -5v-519q-13 -5 -37 -5q-26 0 -37 5v519z" />
    <glyph glyph-name="section" unicode="&#xa7;" horiz-adv-x="482" 
d="M309 183q-18 8 -98 31q-67 19 -98 41q-44 32 -44 86q0 65 69 116q-59 35 -59 102q0 131 173 131q77 0 137 -22q6 -32 -16 -49q-48 16 -108 16q-120 0 -120 -75q0 -36 42 -58q19 -9 94 -32q65 -19 94 -41q43 -31 43 -85q0 -63 -64 -111q70 -38 70 -108q0 -135 -194 -135
q-91 0 -158 25q-6 34 16 51q63 -19 131 -19q135 0 135 79q0 35 -45 57zM133 350q0 -42 54 -63q19 -8 54 -17q47 -12 60 -16q52 41 52 81t-54 62q-18 8 -53 18q-42 12 -57 17q-56 -38 -56 -82z" />
    <glyph glyph-name="dieresis" unicode="&#xa8;" horiz-adv-x="455" 
d="M181 616q-12 -5 -36 -5q-25 0 -37 5v65q12 5 37 5q24 0 36 -5v-65zM339 616q-12 -5 -36 -5q-25 0 -37 5v65q12 5 37 5q24 0 36 -5v-65z" />
    <glyph glyph-name="copyright" unicode="&#xa9;" horiz-adv-x="534" 
d="M116 362q-62 61 -62 149q0 87 62 148q61 62 149 62q87 0 148 -62q62 -61 62 -148q0 -88 -62 -149q-61 -62 -148 -62q-88 0 -149 62zM138 637q-53 -52 -53 -126q0 -75 53 -127q52 -53 127 -53q74 0 126 53q53 52 53 127q0 74 -53 126q-52 53 -126 53q-75 0 -127 -53z
M160 515q0 123 106 123q40 0 63 -14q0 -16 -11 -25q-23 10 -48 10q-75 0 -75 -94q0 -93 75 -93q27 0 51 8q11 -7 11 -24q-24 -15 -66 -15q-106 0 -106 124z" />
    <glyph glyph-name="ordfeminine" unicode="&#xaa;" horiz-adv-x="361" 
d="M186 630q112 0 112 -108v-216q-7 -4 -21 -4q-12 0 -20 4l-6 37q-30 -47 -99 -47q-95 0 -95 99q0 96 116 96q39 0 75 -4v32q0 67 -68 67q-44 0 -84 -15q-15 15 -15 37q48 22 105 22zM248 450l-26 2q-25 1 -43 1q-72 0 -72 -58t59 -58q37 0 60 25q21 23 22 63v25zM295 244
q7 -21 0 -43h-233q-6 23 0 43h233z" />
    <glyph glyph-name="guillemotleft" unicode="&#xab;" horiz-adv-x="507" 
d="M259 509q20 -14 25 -45l-172 -194l172 -195q-5 -31 -25 -45l-204 208q-6 11 -6 30q0 20 6 32zM423 491q20 -14 23 -43l-156 -178l156 -179q-3 -29 -23 -43l-189 192q-5 10 -5 28q0 19 5 30z" />
    <glyph glyph-name="logicalnot" unicode="&#xac;" horiz-adv-x="602" 
d="M521 181q-12 -7 -32 -7t-31 7v196h-394q-7 12 -7 30q0 20 7 32h457v-258z" />
    <glyph glyph-name="uni00AD" unicode="&#xad;" horiz-adv-x="262" 
 />
    <glyph glyph-name="registered" unicode="&#xae;" horiz-adv-x="534" 
d="M118 361q-62 62 -62 149t62 149t149 62t149 -62t62 -149t-62 -149t-149 -62t-149 62zM141 636q-52 -52 -52 -126t52 -126t126 -52t126 52t52 126t-52 126t-126 52t-126 -52zM283 628q74 0 74 -68q0 -48 -44 -62l58 -93q-8 -5 -20 -5q-11 0 -18 3l-57 92h-49v-92
q-8 -3 -17 -3q-10 0 -16 3v225h89zM281 523q42 0 42 37q0 40 -42 40h-54v-77h54z" />
    <glyph glyph-name="macron" unicode="&#xaf;" horiz-adv-x="407" 
d="M52 630q-11 25 0 49h300q9 -21 0 -49h-300z" />
    <glyph glyph-name="degree" unicode="&#xb0;" horiz-adv-x="358" 
d="M87 702q36 39 94 39q57 0 91 -38q31 -34 31 -83t-31 -83q-34 -38 -91 -38q-60 0 -95 37q-31 32 -31 81t32 85zM241 676q-22 25 -61 25t-62 -26q-20 -23 -20 -57q0 -33 20 -55q22 -25 62 -25q39 0 61 25q19 22 19 56t-19 57z" />
    <glyph glyph-name="plusminus" unicode="&#xb1;" horiz-adv-x="512" 
d="M83 374q-5 10 -5 28t5 28h145v116q10 4 28 4t28 -4v-116h146q4 -10 4 -28t-4 -28h-146v-115q-10 -5 -28 -5t-28 5v115h-145zM83 136q-5 10 -5 28t5 28h347q4 -10 4 -28t-4 -28h-347z" />
    <glyph glyph-name="uni00B2" unicode="&#xb2;" horiz-adv-x="299" 
d="M122 509q50 27 61 36q28 21 28 51q0 56 -77 56q-43 0 -68 -10q-15 18 -12 38q37 14 90 14q117 0 117 -95q0 -63 -85 -109q-89 -48 -94 -100h171q5 -12 5 -22t-5 -22h-217q-4 18 -4 41q0 74 90 122z" />
    <glyph glyph-name="uni00B3" unicode="&#xb3;" horiz-adv-x="300" 
d="M125 341q-55 0 -91 17q0 24 14 35q33 -10 75 -10q87 0 87 61t-72 61h-45q-8 21 0 41h45q61 0 61 52q0 54 -69 54q-42 0 -75 -9q-14 14 -12 36q36 15 90 15q117 0 117 -90q0 -54 -45 -77q56 -23 56 -87q0 -99 -136 -99z" />
    <glyph glyph-name="acute" unicode="&#xb4;" horiz-adv-x="224" 
d="M69 640q-31 3 -43 24l104 144q45 4 64 -29z" />
    <glyph glyph-name="uni00B5" unicode="&#xb5;" horiz-adv-x="579" 
d="M412 521q11 5 36 5t36 -5v-516q-11 -5 -36 -5t-36 5v59q-57 -74 -150 -74q-70 0 -108 42q8 -195 35 -265q-32 -28 -78 -13q-19 65 -19 232v535q12 5 36 5q26 0 36 -5v-368q0 -103 109 -103q91 0 139 91v380z" />
    <glyph glyph-name="paragraph" unicode="&#xb6;" horiz-adv-x="518" 
d="M172 406q-67 1 -106 47q-35 40 -35 99q2 60 38 101q40 46 108 46h54v-922q-10 -4 -29 -4q-22 0 -30 4v629zM418 -223q-10 -4 -30 -4t-29 4v918q9 4 29 4t30 -4v-918z" />
    <glyph glyph-name="periodcentered" unicode="&#xb7;" horiz-adv-x="224" 
d="M149 252q-13 -6 -37 -6q-25 0 -37 6v65q12 5 37 5q24 0 37 -5v-65z" />
    <glyph glyph-name="cedilla" unicode="&#xb8;" horiz-adv-x="296" 
d="M157 36l-11 -62q108 0 108 -92q0 -99 -117 -99q-55 0 -90 23q0 23 17 35q32 -16 70 -16q69 0 69 58q0 52 -62 52h-35l-10 12l18 98z" />
    <glyph glyph-name="uni00B9" unicode="&#xb9;" horiz-adv-x="242" 
d="M137 685q10 4 25 4q11 0 23 -4v-336q-9 -3 -23 -3q-17 0 -26 3v236q0 28 1 40q-42 -35 -97 -46q-15 15 -12 41q67 17 109 65z" />
    <glyph glyph-name="ordmasculine" unicode="&#xba;" horiz-adv-x="377" 
d="M188 630q133 0 133 -167q0 -168 -133 -168q-131 0 -131 168q0 167 131 167zM249 560q-19 28 -61 28q-43 0 -60 -28q-19 -28 -19 -97t19 -98q17 -27 60 -27q42 0 61 27q19 29 19 98q0 68 -19 97zM306 244q4 -10 4 -21q0 -12 -4 -22h-236q-3 8 -3 22t3 21h236z" />
    <glyph glyph-name="guillemotright" unicode="&#xbb;" horiz-adv-x="506" 
d="M452 300q5 -12 5 -32q0 -19 -5 -30l-205 -208q-20 15 -25 45l172 195l-172 194q5 30 25 45zM272 298q5 -11 5 -30q0 -18 -5 -28l-189 -192q-18 12 -23 43l156 179l-156 178q5 31 23 43z" />
    <glyph glyph-name="onequarter" unicode="&#xbc;" horiz-adv-x="657" 
d="M499 697q8 5 27 5t27 -5l-387 -703q-10 -4 -28 -4q-16 0 -27 4zM148 685q9 4 25 4q9 0 23 -4v-336q-11 -3 -23 -3q-18 0 -27 3v236q0 28 1 40q-41 -34 -96 -46q-16 14 -12 41q66 17 109 65zM615 128q3 -15 3 -20q0 -7 -3 -19h-41v-86q-18 -3 -21 -3q-5 0 -23 3v86h-175
q-3 9 -3 15q0 11 3 17l171 218q12 4 24 4q14 0 24 -4v-211h41zM410 128h120v152z" />
    <glyph glyph-name="onehalf" unicode="&#xbd;" horiz-adv-x="712" 
d="M499 697q8 5 27 5t27 -5l-387 -703q-10 -4 -28 -4q-16 0 -27 4zM173 689q9 0 23 -4v-336q-11 -3 -23 -3q-18 0 -27 3v236q0 28 1 40q-41 -34 -96 -46q-16 14 -12 41q66 17 109 65q9 4 25 4zM549 348q118 0 118 -95q0 -63 -86 -109q-89 -48 -94 -100h171q5 -9 5 -22
t-5 -22h-217q-4 18 -4 41q0 74 89 122q51 27 62 36q28 21 28 51q0 56 -75 56q-45 0 -70 -10q-14 17 -12 38q37 14 90 14z" />
    <glyph glyph-name="threequarters" unicode="&#xbe;" horiz-adv-x="708" 
d="M549 697q8 5 27 5t27 -5l-387 -703q-10 -4 -28 -4q-16 0 -27 4zM151 694q116 0 116 -90q0 -55 -45 -77q56 -22 56 -87q0 -99 -135 -99q-55 0 -91 17q-2 22 13 35q34 -10 76 -10q87 0 87 61t-72 61h-45q-10 21 0 41h45q61 0 61 52q0 54 -69 54q-42 0 -76 -9q-13 13 -11 36
q36 15 90 15zM576 339q12 4 24 4q14 0 24 -4v-211h41q3 -15 3 -20q0 -7 -3 -19h-41v-86q-18 -3 -21 -3q-5 0 -23 3v86h-175q-3 12 -3 16q0 10 3 16zM580 128v152l-120 -152h120z" />
    <glyph glyph-name="questiondown" unicode="&#xbf;" horiz-adv-x="424" 
d="M215 515q14 5 40 5q28 0 41 -5v-73q-13 -5 -41 -5q-26 0 -40 5v73zM135 175q92 79 92 167q9 6 28 6t30 -6q0 -118 -83 -193q-46 -41 -58 -58q-26 -38 -26 -91q0 -108 127 -108q78 0 124 24q26 -19 23 -53q-60 -33 -157 -33q-90 0 -141 44t-51 122q0 101 92 179z" />
    <glyph glyph-name="Agrave" unicode="&#xc0;" horiz-adv-x="648" 
d="M381 778q-13 -21 -43 -24l-125 139q21 33 64 29zM283 714q16 6 41 6q26 0 41 -6l265 -708q-13 -6 -41 -6q-24 0 -36 6l-72 191h-319l-73 -191q-12 -6 -36 -6t-35 6zM320 634q-6 -30 -20 -69l-116 -306h275l-116 306q-14 40 -20 69h-3z" />
    <glyph glyph-name="Aacute" unicode="&#xc1;" horiz-adv-x="647" 
d="M377 923q45 4 64 -29l-125 -139q-31 3 -43 24zM282 714q16 6 41 6q26 0 41 -6l265 -708q-13 -6 -41 -6q-24 0 -36 6l-72 191h-319l-73 -191q-12 -6 -36 -6t-34 6zM319 634q-6 -30 -20 -69l-116 -306h275l-116 306q-14 40 -20 69h-3z" />
    <glyph glyph-name="Acircumflex" unicode="&#xc2;" horiz-adv-x="647" 
d="M466 798q-12 -28 -34 -35l-112 79l-110 -79q-25 9 -34 35l132 108h26zM282 714q16 6 41 6q26 0 41 -6l265 -708q-13 -6 -41 -6q-24 0 -36 6l-72 191h-319l-73 -191q-12 -6 -36 -6t-34 6zM319 634q-6 -30 -20 -69l-116 -306h275l-116 306q-14 40 -20 69h-3z" />
    <glyph glyph-name="Atilde" unicode="&#xc3;" horiz-adv-x="647" 
d="M266 847q29 1 62 -17t51 -17q28 0 40 27q27 -4 39 -25q-25 -50 -81 -51q-29 -1 -61 17q-33 17 -50 17q-30 -1 -41 -28q-30 3 -37 24q22 51 78 53zM282 714q16 6 41 6q26 0 41 -6l265 -708q-13 -6 -41 -6q-24 0 -36 6l-72 191h-319l-73 -191q-12 -6 -36 -6t-34 6zM319 634
q-6 -30 -20 -69l-116 -306h275l-116 306q-14 40 -20 69h-3z" />
    <glyph glyph-name="Adieresis" unicode="&#xc4;" horiz-adv-x="648" 
d="M206 832q12 4 37 4q24 0 37 -4v-66q-13 -4 -37 -4q-25 0 -37 4v66zM364 832q12 4 37 4q24 0 37 -4v-66q-13 -4 -37 -4q-25 0 -37 4v66zM283 714q16 6 41 6q26 0 41 -6l265 -708q-13 -6 -41 -6q-24 0 -36 6l-72 191h-319l-73 -191q-12 -6 -36 -6t-35 6zM320 634
q-6 -30 -20 -69l-116 -306h275l-116 306q-14 40 -20 69h-3z" />
    <glyph glyph-name="Aring" unicode="&#xc5;" horiz-adv-x="648" 
d="M629 6q-12 -6 -40 -6q-24 0 -36 6l-72 191h-319l-73 -191q-12 -6 -36 -6t-35 6l257 687q-69 20 -69 98q0 50 36 80q33 27 81 27q47 0 80 -27q37 -30 37 -80q0 -73 -67 -96zM375 836q-19 20 -53 20q-33 0 -52 -20q-17 -18 -17 -45q0 -28 17 -46q19 -21 52 -21t53 21
q18 19 18 46t-18 45zM343 565q-14 40 -20 69h-3q-6 -30 -20 -69l-116 -306h275z" />
    <glyph glyph-name="AE" unicode="&#xc6;" horiz-adv-x="858" 
d="M796 720q14 -29 0 -62h-278v-263h228q11 -32 0 -62h-228v-271h288q13 -34 0 -62h-358v190h-250l-110 -184q-16 -6 -40 -6q-25 0 -39 6l433 714h354zM448 252v355l-213 -355h213z" />
    <glyph glyph-name="Ccedilla" unicode="&#xc7;" horiz-adv-x="559" 
d="M522 24q-61 -33 -176 -34l-7 -36q108 0 108 -92q0 -99 -117 -99q-55 0 -90 23q0 23 17 35q32 -16 70 -16q69 0 69 58q0 52 -62 52h-35l-10 12l12 66q-238 26 -238 367q0 370 279 370q110 0 169 -33q3 -13 -4 -30q-8 -18 -19 -26q-57 25 -137 25q-102 0 -152 -64
q-58 -74 -58 -243t58 -242q50 -62 152 -62q88 0 148 25q10 -7 18 -24q7 -17 5 -32z" />
    <glyph glyph-name="Egrave" unicode="&#xc8;" horiz-adv-x="555" 
d="M178 893q21 33 64 29l104 -144q-13 -21 -43 -24zM493 720q6 -13 6 -30q0 -18 -6 -32h-323v-263h273q6 -13 6 -29q0 -17 -6 -32h-273v-272h333q6 -13 6 -30t-6 -32h-407v720h397z" />
    <glyph glyph-name="Eacute" unicode="&#xc9;" horiz-adv-x="555" 
d="M260 756q-31 3 -43 24l104 144q45 4 64 -29zM493 720q6 -13 6 -30q0 -18 -6 -32h-323v-263h273q6 -13 6 -29q0 -17 -6 -32h-273v-272h333q6 -13 6 -30t-6 -32h-407v720h397z" />
    <glyph glyph-name="Ecircumflex" unicode="&#xca;" horiz-adv-x="555" 
d="M437 798q-10 -28 -34 -35l-111 79l-110 -79q-24 9 -35 35l132 108h26zM493 720q6 -13 6 -30q0 -18 -6 -32h-323v-263h273q6 -13 6 -29q0 -17 -6 -32h-273v-272h333q6 -13 6 -30t-6 -32h-407v720h397z" />
    <glyph glyph-name="Edieresis" unicode="&#xcb;" horiz-adv-x="555" 
d="M254 766q-12 -4 -36 -4q-25 0 -37 4v66q12 4 37 4q24 0 36 -4v-66zM412 766q-12 -4 -36 -4q-25 0 -37 4v66q12 4 37 4q24 0 36 -4v-66zM493 720q6 -13 6 -30q0 -18 -6 -32h-323v-263h273q6 -13 6 -29q0 -17 -6 -32h-273v-272h333q6 -13 6 -30t-6 -32h-407v720h397z" />
    <glyph glyph-name="Igrave" unicode="&#xcc;" horiz-adv-x="266" 
d="M28 893q21 33 64 29l104 -144q-13 -21 -43 -24zM96 714q12 6 37 6t37 -6v-708q-13 -6 -37 -6q-26 0 -37 6v708z" />
    <glyph glyph-name="Iacute" unicode="&#xcd;" horiz-adv-x="266" 
d="M100 756q-31 3 -43 24l104 144q45 4 64 -29zM96 714q12 6 37 6t37 -6v-708q-13 -6 -37 -6q-26 0 -37 6v708z" />
    <glyph glyph-name="Icircumflex" unicode="&#xce;" horiz-adv-x="266" 
d="M278 798q-12 -28 -34 -35l-112 79l-110 -79q-23 9 -34 35l132 108h26zM96 714q12 6 37 6t37 -6v-708q-13 -6 -37 -6q-26 0 -37 6v708z" />
    <glyph glyph-name="Idieresis" unicode="&#xcf;" horiz-adv-x="266" 
d="M91 766q-12 -4 -36 -4q-25 0 -37 4v66q12 4 37 4q24 0 36 -4v-66zM249 766q-12 -4 -36 -4q-25 0 -37 4v66q12 4 37 4q24 0 36 -4v-66zM96 714q12 6 37 6t37 -6v-708q-13 -6 -37 -6q-26 0 -37 6v708z" />
    <glyph glyph-name="Eth" unicode="&#xd0;" horiz-adv-x="670" 
d="M318 720q148 0 216 -78q75 -86 75 -282t-75 -281q-69 -79 -216 -79h-209v330h-82q-8 28 0 53h82v337h209zM183 383h156q7 -26 0 -53h-156v-267h129q111 0 161 59q57 68 57 238q0 171 -57 239q-50 58 -161 58h-129v-274z" />
    <glyph glyph-name="Ntilde" unicode="&#xd1;" horiz-adv-x="696" 
d="M461 839q25 -7 30 -34q-21 -43 -81 -43q-28 0 -59 17q-32 17 -50 17q-29 0 -45 -27q-26 11 -30 34q24 45 80 45q29 0 60 -17q32 -18 50 -18q30 0 45 26zM217 515q-36 60 -54 110h-3q5 -54 5 -152v-467q-11 -6 -35 -6t-34 6v708q15 6 44 6t43 -6l294 -503q34 -58 57 -116
h3q-6 64 -6 149v470q11 6 35 6q25 0 34 -6v-708q-13 -6 -43 -6q-29 0 -44 6z" />
    <glyph glyph-name="Ograve" unicode="&#xd2;" 
d="M412 783q-12 -21 -43 -24l-120 134q21 33 64 29zM339 730q275 0 275 -370t-275 -370t-275 370t275 370zM339 668q-197 0 -197 -308t197 -308t197 308t-197 308z" />
    <glyph glyph-name="Oacute" unicode="&#xd3;" 
d="M422 935q45 4 64 -29l-121 -134q-31 5 -43 24zM339 730q275 0 275 -370t-275 -370t-275 370t275 370zM339 668q-197 0 -197 -308t197 -308t197 308t-197 308z" />
    <glyph glyph-name="Ocircumflex" unicode="&#xd4;" 
d="M486 798q-12 -28 -34 -35l-112 79l-110 -79q-25 9 -34 35l132 108h26zM339 730q275 0 275 -370t-275 -370t-275 370t275 370zM339 668q-197 0 -197 -308t197 -308t197 308t-197 308z" />
    <glyph glyph-name="Otilde" unicode="&#xd5;" 
d="M443 856q23 -8 30 -33q-21 -46 -78 -48q-26 -1 -59 15t-52 16q-30 -1 -45 -29q-22 11 -29 33q21 45 78 47q29 1 61 -15q32 -15 50 -15q30 1 44 29zM64 360q0 370 275 370t275 -370t-275 -370t-275 370zM142 360q0 -308 197 -308t197 308t-197 308t-197 -308z" />
    <glyph glyph-name="Odieresis" unicode="&#xd6;" 
d="M223 842q12 4 37 4q24 0 37 -4v-66q-13 -4 -37 -4q-25 0 -37 4v66zM381 842q12 4 37 4q24 0 37 -4v-66q-13 -4 -37 -4q-25 0 -37 4v66zM339 730q275 0 275 -370t-275 -370t-275 370t275 370zM339 668q-197 0 -197 -308t197 -308t197 308t-197 308z" />
    <glyph glyph-name="multiply" unicode="&#xd7;" horiz-adv-x="462" 
d="M115 131q-12 4 -24 18q-14 12 -18 24l116 116l-116 116q4 12 18 24q12 14 24 18l116 -116l116 116q12 -4 24 -18q14 -12 18 -24l-116 -116l116 -116q-4 -12 -18 -24q-12 -14 -24 -18l-116 116z" />
    <glyph glyph-name="Oslash" unicode="&#xd8;" horiz-adv-x="677" 
d="M529 765q31 -3 54 -26l-52 -88q82 -91 82 -291q0 -370 -275 -370q-98 0 -160 49l-49 -85q-33 3 -54 26l59 101q-71 93 -71 279q0 370 275 370q87 0 148 -40zM452 633q-45 35 -114 35q-197 0 -197 -308q0 -133 38 -204zM213 99q47 -47 125 -47q197 0 197 308
q0 148 -47 218z" />
    <glyph glyph-name="Ugrave" unicode="&#xd9;" horiz-adv-x="668" 
d="M220 893q21 33 64 29l98 -138q-12 -19 -43 -24zM578 235q0 -116 -67 -181q-66 -64 -177 -64t-177 64q-66 66 -66 181v479q13 6 37 6q25 0 37 -6v-490q0 -81 45 -126t126 -45q80 0 125 45q44 45 44 126v490q12 6 36 6t37 -6v-479z" />
    <glyph glyph-name="Uacute" unicode="&#xda;" horiz-adv-x="668" 
d="M312 756q-31 3 -43 24l104 144q45 4 64 -29zM578 235q0 -116 -67 -181q-66 -64 -177 -64t-177 64q-66 66 -66 181v479q13 6 37 6q25 0 37 -6v-490q0 -81 45 -126t126 -45q80 0 125 45q44 45 44 126v490q12 6 36 6t37 -6v-479z" />
    <glyph glyph-name="Ucircumflex" unicode="&#xdb;" horiz-adv-x="668" 
d="M485 798q-12 -28 -34 -35l-112 79l-110 -79q-25 9 -34 35l132 108h26zM578 235q0 -116 -67 -181q-66 -64 -177 -64t-177 64q-66 66 -66 181v479q13 6 37 6q25 0 37 -6v-490q0 -81 45 -126t126 -45q80 0 125 45q44 45 44 126v490q12 6 36 6t37 -6v-479z" />
    <glyph glyph-name="Udieresis" unicode="&#xdc;" horiz-adv-x="668" 
d="M292 778q-12 -5 -36 -5q-25 0 -37 5v65q12 5 37 5q24 0 36 -5v-65zM450 778q-12 -5 -36 -5q-25 0 -37 5v65q12 5 37 5q24 0 36 -5v-65zM578 235q0 -116 -67 -181q-66 -64 -177 -64t-177 64q-66 66 -66 181v479q13 6 37 6q25 0 37 -6v-490q0 -81 45 -126t126 -45
q80 0 125 45q44 45 44 126v490q12 6 36 6t37 -6v-479z" />
    <glyph glyph-name="Yacute" unicode="&#xdd;" horiz-adv-x="628" 
d="M361 924q45 4 64 -29l-125 -139q-31 3 -43 24zM528 714q12 6 39 6q26 0 42 -6l-259 -411v-297q-12 -6 -36 -6q-26 0 -38 6v295l-252 413q15 6 45 6q28 0 42 -6l206 -335z" />
    <glyph glyph-name="Thorn" unicode="&#xde;" horiz-adv-x="604" 
d="M96 714q11 6 37 6t37 -6v-135h179q95 0 152 -57q55 -57 55 -151t-55 -150q-57 -57 -152 -57h-179v-158q-12 -6 -37 -6q-27 0 -37 6v708zM170 227h172q65 0 101 38q35 38 35 105q0 69 -35 108q-36 38 -101 38h-172v-289z" />
    <glyph glyph-name="germandbls" unicode="&#xdf;" horiz-adv-x="571" 
d="M80 556q0 194 206 194q93 0 144 -53q45 -47 44 -120q0 -48 -21 -94q-27 -1 -54 -13q-54 -25 -54 -79q0 -35 29 -62q11 -10 64 -44q92 -61 92 -149q0 -69 -44 -108q-43 -38 -120 -38q-69 0 -107 18q-3 32 17 51q33 -11 78 -11q106 0 106 85q0 58 -93 118q-93 61 -93 133
q0 71 59 108q29 19 58 23q10 35 10 61q-1 50 -28 80q-30 35 -88 35q-133 0 -133 -135v-551q-11 -5 -36 -5t-36 5v551z" />
    <glyph glyph-name="agrave" unicode="&#xe0;" horiz-adv-x="515" 
d="M296 631q-13 -21 -43 -24l-125 139q21 33 64 29zM257 536q103 0 144 -51q37 -46 37 -151v-329q-9 -5 -29 -5q-18 0 -29 5l-11 75q-43 -90 -168 -90q-71 0 -112 41q-43 42 -43 119q0 156 189 156q64 0 131 -8v57q0 119 -118 119q-75 0 -140 -25q-10 5 -17 22q-5 13 -5 31
q76 34 171 34zM366 246q-92 8 -121 8q-124 0 -124 -104q0 -102 103 -102q65 0 104 45q38 44 38 113v40z" />
    <glyph glyph-name="aacute" unicode="&#xe1;" horiz-adv-x="515" 
d="M292 775q44 4 65 -29l-125 -139q-31 3 -43 24zM257 536q103 0 144 -51q37 -46 37 -151v-329q-9 -5 -29 -5q-18 0 -29 5l-11 75q-43 -90 -168 -90q-71 0 -112 41q-43 42 -43 119q0 156 189 156q64 0 131 -8v56q0 120 -118 120q-75 0 -140 -25q-10 5 -17 22q-5 13 -5 31
q76 34 171 34zM366 246q-92 8 -121 8q-124 0 -124 -104q0 -102 103 -102q65 0 104 45q38 44 38 113v40z" />
    <glyph glyph-name="acircumflex" unicode="&#xe2;" horiz-adv-x="515" 
d="M400 636q-13 -28 -34 -33l-108 76l-109 -77q-22 8 -33 34l129 106h25zM257 536q103 0 144 -51q37 -46 37 -151v-329q-9 -5 -29 -5q-18 0 -29 5l-11 75q-43 -90 -168 -90q-71 0 -112 41q-43 42 -43 119q0 156 189 156q64 0 131 -8v58q0 118 -118 118q-75 0 -140 -25
q-10 5 -17 22q-5 13 -5 31q76 34 171 34zM366 246q-92 8 -121 8q-124 0 -124 -104q0 -102 103 -102q65 0 104 45q38 44 38 113v40z" />
    <glyph glyph-name="atilde" unicode="&#xe3;" horiz-adv-x="514" 
d="M208 711q28 0 59 -17q32 -17 50 -17q34 0 45 26q24 -10 29 -34q-2 -9 -21 -23q-26 -21 -58 -21q-29 0 -60 18q-32 17 -50 17q-30 0 -46 -28q-23 13 -29 34q34 45 81 45zM257 536q103 0 144 -51q37 -46 37 -151v-329q-9 -5 -29 -5q-18 0 -29 5l-11 75q-43 -90 -168 -90
q-71 0 -112 41q-43 42 -43 119q0 156 189 156q64 0 131 -8v59q0 62 -29 90q-28 27 -89 27q-75 0 -140 -25q-10 5 -17 22q-5 12 -5 31q76 34 171 34zM366 246q-92 8 -121 8q-124 0 -124 -104q0 -102 103 -102q65 0 104 45q38 44 38 113v40z" />
    <glyph glyph-name="adieresis" unicode="&#xe4;" horiz-adv-x="515" 
d="M142 704q12 5 37 5q24 0 36 -5v-65q-12 -5 -36 -5q-25 0 -37 5v65zM300 704q12 5 37 5q24 0 36 -5v-65q-12 -5 -36 -5q-25 0 -37 5v65zM257 536q103 0 144 -51q37 -46 37 -151v-329q-9 -5 -29 -5q-18 0 -29 5l-11 75q-43 -90 -168 -90q-71 0 -112 41q-43 42 -43 119
q0 156 189 156q64 0 131 -8v57q0 119 -118 119q-75 0 -140 -25q-10 5 -17 22q-5 13 -5 31q76 34 171 34zM366 246q-92 8 -121 8q-124 0 -124 -104q0 -102 103 -102q65 0 104 45q38 44 38 113v40z" />
    <glyph glyph-name="aring" unicode="&#xe5;" horiz-adv-x="515" 
d="M179 772q32 26 79 26q46 0 79 -25q36 -29 36 -77q0 -49 -34 -78q-33 -27 -82 -27q-50 0 -80 27q-33 28 -33 78q0 48 35 76zM307 738q-18 18 -50 18q-30 0 -48 -19q-16 -17 -16 -41q0 -26 16 -43q17 -19 48 -19q32 0 50 19q17 18 17 43t-17 42zM257 536q103 0 144 -51
q37 -46 37 -151v-329q-9 -5 -29 -5q-18 0 -29 5l-11 75q-43 -90 -168 -90q-71 0 -112 41q-43 42 -43 119q0 156 189 156q64 0 131 -8v56q0 120 -118 120q-75 0 -140 -25q-10 5 -17 22q-5 13 -5 31q76 34 171 34zM366 246q-92 8 -121 8q-124 0 -124 -104q0 -102 103 -102
q65 0 104 45q38 44 38 113v40z" />
    <glyph glyph-name="ae" unicode="&#xe6;" horiz-adv-x="775" 
d="M546 536q86 0 133 -52q46 -50 46 -142q0 -55 -11 -94h-295q10 -197 140 -197q72 0 114 32q22 -15 25 -49q-48 -44 -149 -44q-132 0 -169 119q-35 -119 -180 -119q-73 0 -113 41q-41 42 -41 119q0 152 182 152h120v55q0 63 -26 90t-84 27q-70 0 -131 -25q-21 19 -21 53
q71 34 161 34q116 0 148 -92q47 92 151 92zM546 477q-119 0 -127 -175h229q4 17 4 49q0 126 -106 126zM238 248q-118 0 -118 -99q0 -101 93 -101q62 0 99 42q36 42 36 113v45h-110z" />
    <glyph glyph-name="ccedilla" unicode="&#xe7;" horiz-adv-x="445" 
d="M259 -58q108 0 108 -89q0 -95 -117 -95q-55 0 -90 23q0 23 17 35q32 -16 70 -16q69 0 69 54q0 51 -62 51h-35l-10 11l13 78q-166 31 -166 269q0 273 215 273q87 0 126 -24q0 -32 -22 -52q-35 17 -91 17q-153 0 -153 -214q0 -212 157 -212q58 0 97 20q21 -18 23 -51
q-44 -29 -141 -30z" />
    <glyph glyph-name="egrave" unicode="&#xe8;" horiz-adv-x="512" 
d="M159 746q21 33 64 29l104 -144q-13 -21 -43 -24zM131 240q5 -100 44 -144q36 -42 111 -42q76 0 122 33q24 -19 26 -53q-55 -44 -162 -44q-216 0 -216 276q0 137 60 206q55 64 155 64q90 0 140 -52q50 -51 50 -142q0 -62 -11 -102h-319zM271 477q-132 0 -140 -183h253
q4 20 4 57q0 126 -117 126z" />
    <glyph glyph-name="eacute" unicode="&#xe9;" horiz-adv-x="512" 
d="M232 607q-31 3 -43 24l104 144q45 4 64 -29zM131 240q5 -100 44 -144q36 -42 111 -42q76 0 122 33q24 -19 26 -53q-55 -44 -162 -44q-216 0 -216 276q0 137 60 206q55 64 155 64q90 0 140 -52q50 -51 50 -142q0 -62 -11 -102h-319zM271 477q-132 0 -140 -183h253
q4 20 4 57q0 126 -117 126z" />
    <glyph glyph-name="ecircumflex" unicode="&#xea;" horiz-adv-x="512" 
d="M411 636q-13 -28 -34 -33l-108 76l-108 -77q-23 8 -34 34l129 106h25zM131 240q5 -100 44 -144q36 -42 111 -42q76 0 122 33q24 -19 26 -53q-55 -44 -162 -44q-216 0 -216 276q0 137 60 206q55 64 155 64q90 0 140 -52q50 -51 50 -142q0 -62 -11 -102h-319zM271 477
q-132 0 -140 -183h253q4 20 4 57q0 126 -117 126z" />
    <glyph glyph-name="edieresis" unicode="&#xeb;" horiz-adv-x="512" 
d="M227 630q-13 -5 -37 -5q-25 0 -36 5v65q11 5 36 5q24 0 37 -5v-65zM385 630q-13 -5 -37 -5q-25 0 -36 5v65q11 5 36 5q24 0 37 -5v-65zM131 240q5 -100 44 -144q36 -42 111 -42q76 0 122 33q24 -19 26 -53q-55 -44 -162 -44q-216 0 -216 276q0 137 60 206q55 64 155 64
q90 0 140 -52q50 -51 50 -142q0 -62 -11 -102h-319zM271 477q-132 0 -140 -183h253q4 20 4 57q0 126 -117 126z" />
    <glyph glyph-name="igrave" unicode="&#xec;" horiz-adv-x="238" 
d="M8 748q21 33 64 29l104 -144q-13 -21 -43 -24zM155 5q-12 -5 -36 -5q-26 0 -36 5v516q10 5 36 5q24 0 36 -5v-516z" />
    <glyph glyph-name="iacute" unicode="&#xed;" horiz-adv-x="238" 
d="M96 607q-31 3 -43 24l104 144q45 4 64 -29zM155 5q-12 -5 -36 -5q-26 0 -36 5v516q10 5 36 5q24 0 36 -5v-516z" />
    <glyph glyph-name="icircumflex" unicode="&#xee;" horiz-adv-x="238" 
d="M262 636q-13 -28 -33 -33l-109 76l-108 -77q-23 9 -34 34l130 106h25zM155 5q-12 -5 -36 -5q-26 0 -36 5v516q10 5 36 5q24 0 36 -5v-516z" />
    <glyph glyph-name="idieresis" unicode="&#xef;" horiz-adv-x="238" 
d="M74 634q-12 -4 -37 -4q-24 0 -36 4v66q12 4 36 4q25 0 37 -4v-66zM232 634q-12 -4 -36 -4q-25 0 -37 4v66q12 4 37 4q24 0 36 -4v-66zM155 5q-12 -5 -36 -5q-26 0 -36 5v516q10 5 36 5q24 0 36 -5v-516z" />
    <glyph glyph-name="eth" unicode="&#xf0;" horiz-adv-x="556" 
d="M355 658q141 -122 141 -351q0 -174 -59 -250q-53 -67 -164 -67q-216 0 -216 262t207 262q101 0 149 -71q-25 113 -109 182l-124 -78q-22 16 -27 42l105 66q-55 33 -120 46q-3 31 15 49q86 -15 158 -60l78 49q21 -15 27 -43zM415 252q0 114 -41 163q-35 41 -106 41
q-68 0 -99 -42q-37 -49 -37 -162q0 -205 141 -205q142 0 142 205z" />
    <glyph glyph-name="ntilde" unicode="&#xf1;" horiz-adv-x="549" 
d="M221 716q29 0 61 -17q31 -17 49 -17q30 0 45 30q27 -11 32 -35q-26 -47 -82 -47q-29 0 -61 17q-31 17 -49 17q-30 0 -45 -30q-26 12 -31 35q25 47 81 47zM152 458q62 78 166 78q73 0 114 -41q40 -40 40 -109v-381q-13 -5 -36 -5q-25 0 -36 5v367q0 104 -108 104
q-92 0 -140 -91v-380q-12 -5 -36 -5q-25 0 -36 5v516q11 5 36 5q24 0 36 -5v-63z" />
    <glyph glyph-name="ograve" unicode="&#xf2;" horiz-adv-x="542" 
d="M312 631q-13 -21 -44 -24l-125 139q21 33 65 29zM271 536q214 0 214 -273t-214 -273t-214 273t214 273zM373 434q-33 45 -102 45t-102 -45q-38 -52 -38 -171t38 -171q33 -45 102 -45t102 45q38 52 38 171t-38 171z" />
    <glyph glyph-name="oacute" unicode="&#xf3;" horiz-adv-x="542" 
d="M291 775q45 4 64 -29l-125 -139q-31 3 -43 24zM271 536q214 0 214 -273t-214 -273t-214 273t214 273zM373 434q-33 45 -102 45t-102 -45q-38 -52 -38 -171t38 -171q33 -45 102 -45t102 45q38 52 38 171t-38 171z" />
    <glyph glyph-name="ocircumflex" unicode="&#xf4;" horiz-adv-x="542" 
d="M410 636q-13 -28 -33 -33l-109 76l-108 -77q-23 8 -34 34l129 106h25zM271 536q214 0 214 -273t-214 -273t-214 273t214 273zM373 434q-33 45 -102 45t-102 -45q-38 -52 -38 -171t38 -171q33 -45 102 -45t102 45q38 52 38 171t-38 171z" />
    <glyph glyph-name="otilde" unicode="&#xf5;" horiz-adv-x="542" 
d="M216 710q29 0 61 -17q31 -17 49 -17q30 0 45 29q26 -8 31 -34q-25 -47 -81 -47q-29 0 -61 18q-31 17 -49 17q-30 0 -46 -30q-25 11 -30 34q25 47 81 47zM271 536q214 0 214 -273t-214 -273t-214 273t214 273zM373 434q-33 45 -102 45t-102 -45q-38 -52 -38 -171t38 -171
q33 -45 102 -45t102 45q38 52 38 171t-38 171z" />
    <glyph glyph-name="odieresis" unicode="&#xf6;" horiz-adv-x="542" 
d="M153 704q12 4 37 4q24 0 36 -4v-66q-12 -4 -36 -4q-25 0 -37 4v66zM311 704q12 4 37 4q24 0 36 -4v-66q-12 -4 -36 -4q-25 0 -37 4v66zM271 536q214 0 214 -273t-214 -273t-214 273t214 273zM373 434q-33 45 -102 45t-102 -45q-38 -52 -38 -171t38 -171q33 -45 102 -45
t102 45q38 52 38 171t-38 171z" />
    <glyph glyph-name="divide" unicode="&#xf7;" horiz-adv-x="545" 
d="M314 415q-14 -5 -41 -5q-28 0 -41 5v73q13 5 41 5q27 0 41 -5v-73zM74 262q-5 10 -5 28t5 28h398q4 -10 4 -28t-4 -28h-398zM314 92q-14 -5 -41 -5q-28 0 -41 5v73q13 5 41 5q27 0 41 -5v-73z" />
    <glyph glyph-name="oslash" unicode="&#xf8;" horiz-adv-x="542" 
d="M424 571q26 -3 46 -23l-43 -72q59 -68 59 -213q0 -273 -215 -273q-65 0 -111 25l-35 -60q-27 1 -45 23l39 68q-62 67 -62 217q0 273 214 273q70 0 116 -29zM355 453q-33 26 -84 26q-69 0 -102 -45q-38 -52 -38 -171q0 -99 31 -146zM193 69q31 -22 78 -22q69 0 102 45
q38 52 38 171q0 91 -26 141z" />
    <glyph glyph-name="ugrave" unicode="&#xf9;" horiz-adv-x="548" 
d="M328 631q-13 -21 -43 -24l-125 139q21 33 64 29zM396 521q12 5 36 5q25 0 36 -5v-516q-11 -5 -36 -5q-24 0 -36 5v63q-62 -78 -166 -78q-72 0 -114 41q-40 41 -40 109v381q13 5 36 5q25 0 36 -5v-367q0 -104 109 -104q90 0 139 91v380z" />
    <glyph glyph-name="uacute" unicode="&#xfa;" horiz-adv-x="548" 
d="M241 607q-31 3 -43 24l104 144q45 4 64 -29zM76 521q13 5 36 5q25 0 36 -5v-367q0 -104 109 -104q90 0 139 91v380q12 5 36 5q25 0 36 -5v-516q-11 -5 -36 -5q-24 0 -36 5v63q-62 -78 -166 -78q-72 0 -114 41q-40 41 -40 109v381z" />
    <glyph glyph-name="ucircumflex" unicode="&#xfb;" horiz-adv-x="548" 
d="M415 636q-11 -27 -33 -33l-109 76l-108 -77q-24 9 -33 34l129 106h25zM76 521q13 5 36 5q25 0 36 -5v-367q0 -104 109 -104q90 0 139 91v380q12 5 36 5q25 0 36 -5v-516q-11 -5 -36 -5q-24 0 -36 5v63q-62 -78 -166 -78q-72 0 -114 41q-40 41 -40 109v381z" />
    <glyph glyph-name="udieresis" unicode="&#xfc;" horiz-adv-x="548" 
d="M155 705q12 5 37 5q24 0 37 -5v-65q-13 -5 -37 -5q-25 0 -37 5v65zM313 705q12 5 37 5q24 0 37 -5v-65q-13 -5 -37 -5q-25 0 -37 5v65zM396 521q12 5 36 5q25 0 36 -5v-516q-11 -5 -36 -5q-24 0 -36 5v63q-62 -78 -166 -78q-72 0 -114 41q-40 41 -40 109v381q13 5 36 5
q25 0 36 -5v-367q0 -104 109 -104q90 0 139 91v380z" />
    <glyph glyph-name="yacute" unicode="&#xfd;" horiz-adv-x="524" 
d="M235 607q-31 3 -43 24l104 144q45 4 64 -29zM285 -97q-27 -80 -56 -112q-36 -41 -99 -41q-30 0 -51 8q-6 12 -6 28q0 23 7 30q19 -5 43 -5q34 0 53 20q22 23 43 86l30 84q-11 0 -24 5l-200 515q13 5 38 5t38 -5l135 -343q24 -62 36 -107h3q11 44 32 107l118 343
q11 5 36 5q23 0 36 -5z" />
    <glyph glyph-name="thorn" unicode="&#xfe;" horiz-adv-x="556" 
d="M80 745q11 5 36 5t36 -5v-287q46 78 154 78q192 0 192 -273t-192 -273q-108 0 -154 78v-302q-11 -5 -36 -5t-36 5v979zM389 428q-32 47 -107 47q-60 0 -96 -45q-33 -41 -34 -101v-129q0 -60 33 -102q37 -47 97 -47q75 0 107 47q34 49 34 165t-34 165z" />
    <glyph glyph-name="ydieresis" unicode="&#xff;" horiz-adv-x="524" 
d="M221 641q-13 -5 -37 -5q-25 0 -37 5v65q12 5 37 5q24 0 37 -5v-65zM379 641q-13 -5 -37 -5q-25 0 -37 5v65q12 5 37 5q24 0 37 -5v-65zM285 -97q-27 -80 -56 -112q-36 -41 -99 -41q-30 0 -51 8q-6 12 -6 28q0 23 7 30q19 -5 43 -5q34 0 53 20q22 23 43 86l30 84
q-11 0 -24 5l-200 515q13 5 38 5t38 -5l135 -343q24 -62 36 -107h3q11 44 32 107l118 343q11 5 36 5q23 0 36 -5z" />
    <glyph glyph-name="Amacron" unicode="&#x100;" horiz-adv-x="647" 
d="M460 837q11 -23 0 -49h-283q-10 25 0 49h283zM282 714q16 6 41 6q26 0 41 -6l265 -708q-13 -6 -41 -6q-24 0 -36 6l-72 191h-319l-73 -191q-12 -6 -36 -6t-34 6zM319 634q-6 -30 -20 -69l-116 -306h275l-116 306q-14 40 -20 69h-3z" />
    <glyph glyph-name="amacron" unicode="&#x101;" horiz-adv-x="514" 
d="M394 694q9 -22 0 -47h-269q-8 26 0 47h269zM257 536q103 0 144 -51q37 -46 37 -151v-329q-9 -5 -29 -5q-18 0 -29 5l-11 75q-43 -90 -168 -90q-71 0 -112 41q-43 42 -43 119q0 156 189 156q64 0 131 -8v56q0 120 -118 120q-75 0 -140 -25q-10 5 -17 22q-5 13 -5 31
q76 34 171 34zM366 246q-92 8 -121 8q-124 0 -124 -104q0 -102 103 -102q65 0 104 45q38 44 38 113v40z" />
    <glyph glyph-name="Abreve" unicode="&#x102;" horiz-adv-x="648" 
d="M432 872q26 -7 34 -35q-49 -56 -146 -56q-98 0 -146 56q8 26 33 35q44 -36 113 -36t112 36zM283 714q16 6 41 6q26 0 41 -6l265 -708q-13 -6 -41 -6q-24 0 -36 6l-72 191h-319l-73 -191q-12 -6 -36 -6t-35 6zM320 634q-6 -30 -20 -69l-116 -306h275l-116 306
q-14 40 -20 69h-3z" />
    <glyph glyph-name="abreve" unicode="&#x103;" horiz-adv-x="515" 
d="M365 716q25 -9 33 -36q-47 -60 -142 -60q-94 0 -142 60q9 27 33 36q42 -37 109 -37t109 37zM257 536q103 0 144 -51q37 -46 37 -151v-329q-9 -5 -29 -5q-18 0 -29 5l-11 75q-43 -90 -168 -90q-71 0 -112 41q-43 42 -43 119q0 156 189 156q64 0 131 -8v59q0 117 -118 117
q-75 0 -140 -25q-10 5 -17 22q-5 13 -5 31q76 34 171 34zM366 246q-92 8 -121 8q-124 0 -124 -104q0 -102 103 -102q65 0 104 45q38 44 38 113v40z" />
    <glyph glyph-name="Aogonek" unicode="&#x104;" horiz-adv-x="648" 
d="M612 -131q13 -10 13 -32q-26 -17 -63 -17q-42 0 -67 23t-25 62q0 74 81 105l-70 187h-319l-73 -191q-12 -6 -36 -6t-35 6l265 708q16 6 41 6q26 0 41 -6l265 -708l-9 -3q-99 -20 -99 -91q0 -51 54 -51q21 0 36 8zM343 565q-14 40 -20 69h-3q-6 -30 -20 -69l-116 -306h275
z" />
    <glyph glyph-name="aogonek" unicode="&#x105;" horiz-adv-x="515" 
d="M257 536q103 0 144 -51q37 -46 37 -151v-330q-102 -27 -102 -99q0 -43 53 -43q21 0 38 7q13 -10 13 -35q-26 -17 -64 -17q-95 0 -95 79q0 75 99 117l-11 67q-43 -90 -168 -90q-71 0 -112 41q-43 42 -43 119q0 156 189 156q64 0 131 -8v55q0 64 -28 93q-28 28 -90 28
q-75 0 -140 -25q-10 5 -17 22q-5 13 -5 31q76 34 171 34zM366 246q-92 8 -121 8q-124 0 -124 -104q0 -102 103 -102q64 0 104 48q38 45 38 113v37z" />
    <glyph glyph-name="Cacute" unicode="&#x106;" horiz-adv-x="560" 
d="M321 756q-31 3 -43 24l104 144q45 4 64 -29zM65 360q0 370 279 370q110 0 169 -33q1 -32 -23 -56q-57 25 -137 25q-102 0 -152 -64q-58 -74 -58 -243t58 -241q50 -62 152 -62q88 0 148 25q21 -21 23 -57q-62 -34 -180 -34q-279 0 -279 370z" />
    <glyph glyph-name="cacute" unicode="&#x107;" horiz-adv-x="446" 
d="M226 607q-31 3 -43 24l104 144q45 4 64 -29zM131 263q0 -209 157 -209q58 0 97 19q21 -17 23 -53q-46 -30 -137 -30q-215 0 -215 273t215 273q87 0 126 -24q0 -35 -22 -54q-35 17 -91 17q-153 0 -153 -212z" />
    <glyph glyph-name="Ccircumflex" unicode="&#x108;" horiz-adv-x="560" 
d="M496 786q-13 -29 -34 -34l-112 78l-110 -79q-24 9 -34 35l132 108h26zM65 360q0 370 279 370q110 0 169 -33q1 -30 -23 -56q-57 25 -137 25q-102 0 -152 -64q-58 -74 -58 -243t58 -241q50 -62 152 -62q88 0 148 25q21 -20 23 -57q-62 -34 -180 -34q-279 0 -279 370z" />
    <glyph glyph-name="ccircumflex" unicode="&#x109;" horiz-adv-x="446" 
d="M402 638q-12 -27 -34 -34l-108 77l-108 -77q-23 8 -34 34l129 106h25zM131 263q0 -209 157 -209q58 0 97 19q21 -17 23 -53q-46 -30 -137 -30q-215 0 -215 273t215 273q87 0 126 -24q0 -35 -22 -54q-35 17 -91 17q-153 0 -153 -212z" />
    <glyph glyph-name="Cdotaccent" unicode="&#x10a;" horiz-adv-x="560" 
d="M385 785q-13 -5 -38 -5q-27 0 -38 5v68q11 4 38 4q25 0 38 -4v-68zM65 360q0 370 279 370q110 0 169 -33q1 -33 -23 -56q-57 25 -137 25q-102 0 -152 -64q-58 -74 -58 -243t58 -241q50 -62 152 -62q88 0 148 25q21 -21 23 -57q-62 -34 -180 -34q-279 0 -279 370z" />
    <glyph glyph-name="cdotaccent" unicode="&#x10b;" horiz-adv-x="446" 
d="M299 641q-13 -5 -38 -5q-26 0 -38 5v68q12 4 38 4q25 0 38 -4v-68zM131 263q0 -209 157 -209q58 0 97 19q21 -17 23 -53q-46 -30 -137 -30q-215 0 -215 273t215 273q87 0 126 -24q0 -35 -22 -54q-35 17 -91 17q-153 0 -153 -212z" />
    <glyph glyph-name="Ccaron" unicode="&#x10c;" horiz-adv-x="560" 
d="M199 871q12 27 34 35l112 -79l110 78q22 -7 34 -34l-131 -108h-26zM65 360q0 370 279 370q110 0 169 -33q1 -32 -23 -56q-57 25 -137 25q-102 0 -152 -64q-58 -74 -58 -243t58 -241q50 -62 152 -62q88 0 148 25q21 -21 23 -57q-62 -34 -180 -34q-279 0 -279 370z" />
    <glyph glyph-name="ccaron" unicode="&#x10d;" horiz-adv-x="446" 
d="M136 702q10 24 32 33l102 -73l101 72q19 -7 31 -32l-121 -100h-23zM131 263q0 -209 157 -209q58 0 97 19q21 -17 23 -53q-46 -30 -137 -30q-215 0 -215 273t215 273q87 0 126 -24q0 -35 -22 -54q-35 17 -91 17q-153 0 -153 -212z" />
    <glyph glyph-name="Dcaron" unicode="&#x10e;" horiz-adv-x="661" 
d="M145 871q10 26 34 35l112 -79l110 78q22 -7 34 -34l-132 -108h-26zM305 720q147 0 216 -78q75 -86 75 -282t-75 -281q-69 -79 -216 -79h-209v720h209zM299 63q111 0 160 59q58 68 58 238q0 171 -58 239q-49 58 -160 58h-129v-594h129z" />
    <glyph glyph-name="dcaron" unicode="&#x10f;" horiz-adv-x="568" 
d="M573 748q40 10 64 -7q-4 -112 -79 -159q-24 3 -34 19q55 58 49 147zM403 745q11 5 36 5t36 -5v-740q-12 -5 -30 -5q-19 0 -32 5l-7 67q-48 -82 -157 -82q-192 0 -192 273t192 273q106 0 154 -78v287zM403 328q-1 59 -34 101q-36 46 -96 46q-74 0 -107 -47
q-34 -49 -34 -165t34 -165q33 -47 107 -47q60 0 97 47q33 42 33 102v128z" />
    <glyph glyph-name="Dcroat" unicode="&#x110;" horiz-adv-x="670" 
d="M319 720q147 0 216 -78q75 -86 75 -282t-75 -281q-69 -79 -216 -79h-209v330h-82q-9 27 0 53h82v337h209zM184 383h156q7 -25 0 -53h-156v-267h129q111 0 160 59q58 68 58 238q0 171 -58 239q-49 58 -160 58h-129v-274z" />
    <glyph glyph-name="dcroat" unicode="&#x111;" horiz-adv-x="555" 
d="M545 668q3 -8 3 -24t-3 -24h-70v-615q-12 -5 -30 -5q-19 0 -32 5l-7 67q-48 -82 -157 -82q-192 0 -192 273t192 273q106 0 154 -78v162h-135q-4 8 -4 24t4 24h135v77q11 5 36 5t36 -5v-77h70zM403 328q-1 59 -34 101q-36 46 -96 46q-74 0 -107 -47q-34 -49 -34 -165
t34 -165q33 -47 107 -47q60 0 97 47q33 42 33 102v128z" />
    <glyph glyph-name="Emacron" unicode="&#x112;" horiz-adv-x="555" 
d="M151 788q-8 25 0 49h284q8 -22 0 -49h-284zM493 720q6 -13 6 -30q0 -18 -6 -32h-323v-263h273q6 -13 6 -29q0 -17 -6 -32h-273v-272h333q6 -13 6 -30t-6 -32h-407v720h397z" />
    <glyph glyph-name="emacron" unicode="&#x113;" horiz-adv-x="512" 
d="M149 639q-8 25 0 49h249q10 -28 0 -49h-249zM131 240q5 -100 44 -144q36 -42 111 -42q76 0 122 33q24 -19 26 -53q-55 -44 -162 -44q-216 0 -216 276q0 137 60 206q55 64 155 64q90 0 140 -52q50 -51 50 -142q0 -62 -11 -102h-319zM271 477q-132 0 -140 -183h253
q4 20 4 57q0 126 -117 126z" />
    <glyph glyph-name="Ebreve" unicode="&#x114;" horiz-adv-x="555" 
d="M292 787q-98 0 -147 56q8 26 34 35q43 -36 113 -36q69 0 112 36q27 -8 33 -35q-49 -56 -145 -56zM493 720q6 -13 6 -30q0 -18 -6 -32h-323v-263h273q6 -13 6 -29q0 -17 -6 -32h-273v-272h333q6 -13 6 -30t-6 -32h-407v720h397z" />
    <glyph glyph-name="ebreve" unicode="&#x115;" horiz-adv-x="512" 
d="M269 620q-94 0 -142 60q9 27 33 36q42 -37 109 -37t109 37q25 -9 33 -36q-47 -60 -142 -60zM131 240q5 -100 44 -144q36 -42 111 -42q76 0 122 33q24 -19 26 -53q-55 -44 -162 -44q-216 0 -216 276q0 137 60 206q55 64 155 64q90 0 140 -52q50 -51 50 -142
q0 -62 -11 -102h-319zM271 477q-132 0 -140 -183h253q4 20 4 57q0 126 -117 126z" />
    <glyph glyph-name="Edotaccent" unicode="&#x116;" horiz-adv-x="555" 
d="M335 785q-14 -5 -38 -5q-27 0 -39 5v68q12 4 39 4q24 0 38 -4v-68zM493 720q6 -13 6 -30q0 -18 -6 -32h-323v-263h273q6 -13 6 -29q0 -17 -6 -32h-273v-272h333q6 -13 6 -30t-6 -32h-407v720h397z" />
    <glyph glyph-name="edotaccent" unicode="&#x117;" horiz-adv-x="512" 
d="M308 636q-13 -5 -38 -5q-26 0 -38 5v68q12 5 38 5q25 0 38 -5v-68zM131 240q5 -100 44 -144q36 -42 111 -42q76 0 122 33q24 -19 26 -53q-55 -44 -162 -44q-216 0 -216 276q0 137 60 206q55 64 155 64q90 0 140 -52q50 -51 50 -142q0 -62 -11 -102h-319zM271 477
q-132 0 -140 -183h253q4 20 4 57q0 126 -117 126z" />
    <glyph glyph-name="Eogonek" unicode="&#x118;" horiz-adv-x="555" 
d="M493 720q6 -13 6 -30q0 -18 -6 -32h-323v-263h273q6 -13 6 -29q0 -17 -6 -32h-273v-272h333q6 -13 6 -30t-6 -32q-116 -15 -116 -92q0 -51 54 -51q21 0 36 8q13 -10 13 -32q-27 -18 -64 -18q-41 0 -66 23t-25 62q0 70 67 100h-306v720h397z" />
    <glyph glyph-name="eogonek" unicode="&#x119;" horiz-adv-x="512" 
d="M116 472q55 64 155 64q90 0 140 -52q50 -51 50 -142q0 -62 -11 -102h-319q5 -100 44 -144q36 -42 111 -42q76 0 122 33q24 -19 26 -53q-28 -23 -82 -35q-89 -24 -89 -99q0 -39 54 -39q21 0 36 8q13 -10 13 -34q-27 -17 -64 -17q-92 0 -92 74q0 63 51 98q-205 8 -205 276
q0 137 60 206zM271 477q-132 0 -140 -183h253q4 20 4 57q0 126 -117 126z" />
    <glyph glyph-name="Ecaron" unicode="&#x11a;" horiz-adv-x="555" 
d="M136 871q12 27 34 35l112 -79l110 78q22 -7 34 -34l-131 -108h-26zM493 720q6 -13 6 -30q0 -18 -6 -32h-323v-263h273q6 -13 6 -29q0 -17 -6 -32h-273v-272h333q6 -13 6 -30t-6 -32h-407v720h397z" />
    <glyph glyph-name="ecaron" unicode="&#x11b;" horiz-adv-x="512" 
d="M130 705q10 26 33 33l106 -76l105 75q21 -6 32 -32l-125 -103h-25zM131 240q5 -100 44 -144q36 -42 111 -42q76 0 122 33q24 -19 26 -53q-55 -44 -162 -44q-216 0 -216 276q0 137 60 206q55 64 155 64q90 0 140 -52q50 -51 50 -142q0 -62 -11 -102h-319zM271 477
q-132 0 -140 -183h253q4 20 4 57q0 126 -117 126z" />
    <glyph glyph-name="Gcircumflex" unicode="&#x11c;" horiz-adv-x="624" 
d="M518 798q-12 -28 -34 -35l-112 79l-110 -79q-25 9 -34 35l132 108h26zM64 360q0 182 76 277q74 93 217 93q117 0 185 -33q-2 -35 -23 -55q-69 24 -153 24q-224 0 -224 -307q0 -168 64 -242q54 -62 160 -62q61 0 116 13v259h-164q-6 12 -6 31q0 21 6 31h235v-366
q-74 -33 -196 -33q-293 0 -293 370z" />
    <glyph glyph-name="gcircumflex" unicode="&#x11d;" horiz-adv-x="525" 
d="M388 636q-13 -28 -33 -33l-109 76l-108 -77q-24 9 -33 34l129 106h25zM59 360q0 82 49 129q50 47 140 47q62 0 108 -24l136 23q12 -30 0 -61l-90 -2q35 -43 35 -112q0 -83 -48 -128q-50 -47 -141 -47q-34 0 -53 5q-28 -37 -27 -74q2 -33 53 -46l111 -16q74 -11 110 -35
q49 -34 49 -102q0 -73 -64 -118q-68 -49 -186 -49q-103 0 -156 41q-49 37 -49 101q0 88 88 144q-23 23 -23 58q0 52 47 110q-89 41 -89 156zM130 361q0 -123 118 -123t118 123q0 122 -118 122t-118 -122zM374 -167q47 29 47 76q0 62 -92 79q-14 3 -83 11q-51 6 -78 15
q-60 -42 -60 -108q0 -102 135 -102q82 0 131 29z" />
    <glyph glyph-name="Gbreve" unicode="&#x11e;" horiz-adv-x="624" 
d="M362 781q-98 0 -147 56q8 26 34 35q44 -36 113 -36t112 36q27 -8 33 -35q-49 -56 -145 -56zM64 360q0 182 76 277q74 93 217 93q117 0 185 -33q-2 -35 -23 -55q-69 24 -153 24q-224 0 -224 -307q0 -168 64 -242q54 -62 160 -62q61 0 116 13v259h-164q-6 12 -6 31
q0 21 6 31h235v-366q-74 -33 -196 -33q-293 0 -293 370z" />
    <glyph glyph-name="gbreve" unicode="&#x11f;" horiz-adv-x="525" 
d="M251 620q-94 0 -142 60q9 27 33 36q42 -37 109 -37t109 37q25 -9 33 -36q-47 -60 -142 -60zM59 360q0 82 49 129q50 47 140 47q62 0 108 -24l136 23q12 -30 0 -60l-90 -3q35 -43 35 -112q0 -83 -48 -128q-50 -47 -141 -47q-34 0 -53 5q-28 -37 -27 -74q2 -33 53 -46
l111 -16q74 -11 110 -35q49 -34 49 -102q0 -73 -64 -118q-68 -49 -186 -49q-103 0 -156 41q-49 37 -49 101q0 88 88 144q-23 23 -23 58q0 52 47 110q-89 41 -89 156zM130 361q0 -123 118 -123t118 123q0 122 -118 122t-118 -122zM374 -167q47 29 47 76q0 62 -92 79
q-14 3 -83 11q-51 6 -78 15q-60 -42 -60 -108q0 -102 135 -102q82 0 131 29z" />
    <glyph glyph-name="Gdotaccent" unicode="&#x120;" horiz-adv-x="624" 
d="M397 785q-13 -5 -38 -5q-26 0 -38 5v68q12 4 38 4q25 0 38 -4v-68zM64 360q0 182 76 277q74 93 217 93q117 0 185 -33q-2 -35 -23 -55q-69 24 -153 24q-224 0 -224 -307q0 -168 64 -242q54 -62 160 -62q61 0 116 13v259h-164q-6 12 -6 31q0 21 6 31h235v-366
q-74 -33 -196 -33q-293 0 -293 370z" />
    <glyph glyph-name="gdotaccent" unicode="&#x121;" horiz-adv-x="525" 
d="M290 635q-13 -5 -38 -5q-26 0 -38 5v68q12 5 38 5q25 0 38 -5v-68zM59 360q0 82 49 129q50 47 140 47q62 0 108 -24l136 23q12 -30 0 -61l-90 -2q35 -43 35 -112q0 -83 -48 -128q-50 -47 -141 -47q-34 0 -53 5q-28 -37 -27 -74q2 -33 53 -46l111 -16q74 -11 110 -35
q49 -34 49 -102q0 -73 -64 -118q-68 -49 -186 -49q-103 0 -156 41q-49 37 -49 101q0 88 88 144q-23 23 -23 58q0 52 47 110q-89 41 -89 156zM130 361q0 -123 118 -123t118 123q0 122 -118 122t-118 -122zM374 -167q47 29 47 76q0 62 -92 79q-14 3 -83 11q-51 6 -78 15
q-60 -42 -60 -108q0 -102 135 -102q82 0 131 29z" />
    <glyph glyph-name="Gcommaaccent" unicode="&#x122;" horiz-adv-x="624" 
d="M64 360q0 182 76 277q74 93 217 93q117 0 185 -33q-2 -34 -23 -55q-69 24 -153 24q-224 0 -224 -307q0 -168 64 -242q54 -62 160 -62q61 0 116 13v259h-164q-6 12 -6 31q0 21 6 31h235v-366q-74 -33 -196 -33q-293 0 -293 370zM308 -206q33 30 38 87q-20 1 -29 5v68
q15 5 44 5q28 0 43 -5v-47q0 -86 -66 -131z" />
    <glyph glyph-name="gcommaaccent" unicode="&#x123;" horiz-adv-x="525" 
d="M299 759q-31 -29 -36 -82q19 -1 28 -5v-65q-14 -4 -41 -4t-42 4v45q0 81 62 124zM59 360q0 82 49 129q50 47 140 47q62 0 108 -24l136 23q12 -30 0 -61l-90 -2q35 -43 35 -112q0 -83 -48 -128q-50 -47 -141 -47q-34 0 -53 5q-28 -37 -27 -74q2 -33 53 -46l111 -16
q74 -11 110 -35q49 -34 49 -102q0 -73 -64 -118q-68 -49 -186 -49q-103 0 -156 41q-49 37 -49 101q0 88 88 144q-23 23 -23 58q0 52 47 110q-89 41 -89 156zM130 361q0 -123 118 -123t118 123q0 122 -118 122t-118 -122zM374 -167q47 29 47 76q0 62 -92 79q-14 3 -83 11
q-51 6 -78 15q-60 -42 -60 -108q0 -102 135 -102q82 0 131 29z" />
    <glyph glyph-name="Hcircumflex" unicode="&#x124;" 
d="M491 798q-12 -28 -34 -35l-112 79l-110 -79q-25 9 -34 35l132 108h26zM508 714q13 6 37 6t37 -6v-708q-12 -6 -37 -6q-27 0 -37 6v330h-338v-330q-13 -6 -37 -6q-27 0 -37 6v708q13 6 37 6t37 -6v-312h338v312z" />
    <glyph glyph-name="hcircumflex" unicode="&#x125;" horiz-adv-x="549" 
d="M260 798q-10 -26 -33 -33l-107 76l-105 -76q-24 9 -33 33l127 105h25zM472 5q-13 -5 -36 -5q-25 0 -36 5v367q0 104 -108 104q-92 0 -140 -91v-380q-12 -5 -36 -5q-25 0 -36 5v740q11 5 36 5q24 0 36 -5v-287q62 78 166 78q73 0 114 -41q40 -40 40 -109v-381z" />
    <glyph glyph-name="Hbar" unicode="&#x126;" horiz-adv-x="692" 
d="M669 598q8 -24 0 -49h-75v-543q-12 -6 -37 -6q-27 0 -37 6v330h-338v-330q-13 -6 -37 -6q-27 0 -37 6v543h-65q-8 26 0 49h65v116q13 6 37 6t37 -6v-116h338v116q13 6 37 6t37 -6v-116h75zM182 402h338v147h-338v-147z" />
    <glyph glyph-name="hbar" unicode="&#x127;" horiz-adv-x="549" 
d="M156 458q62 78 166 78q72 0 114 -41q40 -40 40 -109v-381q-13 -5 -36 -5q-25 0 -36 5v367q0 104 -108 104q-92 0 -140 -91v-380q-12 -5 -36 -5q-25 0 -36 5v614h-69q-9 27 0 49h69v77q11 5 36 5q24 0 36 -5v-77h178q10 -23 0 -49h-178v-161z" />
    <glyph glyph-name="Itilde" unicode="&#x128;" horiz-adv-x="266" 
d="M239 838q22 -9 27 -31q-2 -9 -20 -24q-26 -21 -57 -21q-28 0 -59 17q-31 16 -48 16q-29 0 -44 -25q-23 11 -27 31q22 44 77 44q28 0 58 -16q31 -17 49 -17q28 0 44 26zM96 714q12 6 37 6t37 -6v-708q-13 -6 -37 -6q-26 0 -37 6v708z" />
    <glyph glyph-name="itilde" unicode="&#x129;" horiz-adv-x="238" 
d="M203 702q22 -9 25 -33q-19 -45 -67 -45q-23 0 -48 17q-26 16 -41 16q-24 0 -36 -27q-24 13 -25 33q3 11 18 24q21 19 48 19q23 0 49 -16q25 -16 40 -16q24 0 37 28zM155 5q-12 -5 -36 -5q-26 0 -36 5v516q10 5 36 5q24 0 36 -5v-516z" />
    <glyph glyph-name="Imacron" unicode="&#x12a;" horiz-adv-x="266" 
d="M-2 763q-11 25 0 49h283q12 -23 0 -49h-283zM101 714q12 6 37 6t37 -6v-708q-13 -6 -37 -6q-26 0 -37 6v708z" />
    <glyph glyph-name="imacron" unicode="&#x12b;" horiz-adv-x="238" 
d="M30 648q-7 25 0 47h186q7 -25 0 -47h-186zM158 5q-12 -5 -36 -5q-26 0 -36 5v516q10 5 36 5q24 0 36 -5v-516z" />
    <glyph glyph-name="Ibreve" unicode="&#x12c;" horiz-adv-x="266" 
d="M131 781q-97 0 -146 56q8 26 33 35q44 -36 113 -36t112 36q26 -7 34 -35q-49 -56 -146 -56zM96 714q12 6 37 6t37 -6v-708q-13 -6 -37 -6q-26 0 -37 6v708z" />
    <glyph glyph-name="ibreve" unicode="&#x12d;" horiz-adv-x="238" 
d="M118 622q-94 0 -142 60q9 28 33 35q42 -36 109 -36t109 36q25 -7 33 -35q-47 -60 -142 -60zM155 5q-12 -5 -36 -5q-26 0 -36 5v516q10 5 36 5q24 0 36 -5v-516z" />
    <glyph glyph-name="Iogonek" unicode="&#x12e;" horiz-adv-x="266" 
d="M170 5q-105 -27 -105 -92q0 -51 54 -51q21 0 36 8q13 -10 13 -32q-26 -18 -64 -18q-41 0 -66 23t-25 62q0 75 83 106v703q12 6 37 6t37 -6v-709z" />
    <glyph glyph-name="iogonek" unicode="&#x12f;" horiz-adv-x="238" 
d="M78 684q13 5 41 5q27 0 41 -5v-73q-14 -5 -41 -5q-28 0 -41 5v73zM83 521q10 5 36 5q24 0 36 -5v-516q-84 -29 -84 -102q0 -43 54 -43q21 0 36 8q14 -11 12 -36q-26 -17 -63 -17q-43 0 -69 20q-28 22 -28 60q0 74 70 111v515z" />
    <glyph glyph-name="Idotaccent" unicode="&#x130;" horiz-adv-x="266" 
d="M93 848q13 5 40 5t41 -5v-73q-14 -5 -41 -5t-40 5v73zM96 714q12 6 37 6t37 -6v-708q-13 -6 -37 -6q-26 0 -37 6v708z" />
    <glyph glyph-name="dotlessi" unicode="&#x131;" horiz-adv-x="238" 
d="M155 5q-12 -5 -36 -5q-26 0 -36 5v516q10 5 36 5q24 0 36 -5v-516z" />
    <glyph glyph-name="IJ" unicode="&#x132;" horiz-adv-x="655" 
d="M96 714q12 6 37 6t37 -6v-708q-13 -6 -37 -6q-26 0 -37 6v708zM490 714q10 6 37 6q24 0 37 -6v-540q0 -184 -177 -184q-77 0 -141 30q-2 36 21 57q51 -21 108 -21q115 0 115 118v540z" />
    <glyph glyph-name="ij" unicode="&#x133;" horiz-adv-x="461" 
d="M160 640q-14 -5 -41 -5q-28 0 -41 5v73q13 5 41 5q27 0 41 -5v-73zM155 5q-12 -5 -36 -5q-26 0 -36 5v516q10 5 36 5q24 0 36 -5v-516zM382 642q-14 -6 -40 -6q-28 0 -41 6v73q13 5 41 5q26 0 40 -5v-73zM306 521q10 5 36 5q24 0 36 -5v-609q0 -162 -140 -162
q-42 0 -62 9q-3 7 -3 17q0 25 8 37q16 -4 40 -4q85 0 85 99v613z" />
    <glyph glyph-name="Jcircumflex" unicode="&#x134;" horiz-adv-x="432" 
d="M451 798q-13 -28 -34 -35l-112 79l-110 -79q-25 9 -34 35l132 108h26zM269 714q10 6 37 6q25 0 37 -6v-538q0 -186 -176 -186q-78 0 -141 30q-2 35 20 57q51 -21 108 -21q115 0 115 118v540z" />
    <glyph glyph-name="jcircumflex" unicode="&#x135;" horiz-adv-x="238" 
d="M261 618q-13 -29 -34 -34l-109 77l-108 -78q-24 9 -33 35l129 105h26zM83 521q10 5 36 5q24 0 36 -5v-609q0 -162 -140 -162q-42 0 -62 9q-3 7 -3 17q0 25 8 37q16 -4 40 -4q85 0 85 99v613z" />
    <glyph glyph-name="Kcommaaccent" unicode="&#x136;" horiz-adv-x="613" 
d="M488 714q16 6 38 6q24 0 40 -6l-232 -332l261 -376q-14 -6 -43 -6q-27 0 -44 6l-235 337h-103v-337q-11 -6 -37 -6q-24 0 -37 6v708q13 6 38 6q24 0 36 -6v-309h102zM271 -216q31 32 35 93q-18 1 -26 5v73q14 5 40 5q27 0 41 -5v-50q0 -93 -62 -141z" />
    <glyph glyph-name="kcommaaccent" unicode="&#x137;" horiz-adv-x="498" 
d="M384 521q14 5 39 5q22 0 35 -5l-162 -241l186 -274q-16 -6 -41 -6q-26 0 -41 6l-164 240h-84v-241q-13 -5 -35 -5q-24 0 -37 5v741q14 4 37 4q21 0 35 -4v-443h85zM223 -216q30 32 35 92q-19 1 -27 5v73q14 5 40 5q27 0 41 -5v-50q0 -93 -61 -140z" />
    <glyph glyph-name="kgreenlandic" unicode="&#x138;" horiz-adv-x="507" 
d="M491 8q-14 -8 -42 -8q-29 0 -43 6l-173 242l-81 -94v-148q-15 -6 -35 -6q-22 0 -37 6v516q13 4 37 4t35 -4v-276l238 276q16 4 39 4q25 0 40 -5l-186 -215z" />
    <glyph glyph-name="Lacute" unicode="&#x139;" horiz-adv-x="513" 
d="M120 756q-31 3 -43 24l104 144q45 4 64 -29zM96 714q13 6 37 6q25 0 37 -6v-649h313q5 -17 5 -32q0 -13 -5 -33h-387v714z" />
    <glyph glyph-name="lacute" unicode="&#x13a;" horiz-adv-x="242" 
d="M97 777q-31 3 -43 24l104 144q45 4 64 -29zM157 5q-12 -5 -36 -5q-26 0 -36 5v740q10 5 36 5q24 0 36 -5v-740z" />
    <glyph glyph-name="Lcommaaccent" unicode="&#x13b;" horiz-adv-x="513" 
d="M96 714q13 6 37 6q25 0 37 -6v-649h313q5 -17 5 -32q0 -13 -5 -33h-387v714zM247 -216q31 32 35 93q-18 1 -27 5v73q14 5 41 5t40 -5v-50q0 -93 -61 -141z" />
    <glyph glyph-name="lcommaaccent" unicode="&#x13c;" horiz-adv-x="242" 
d="M157 5q-12 -5 -36 -5q-26 0 -36 5v740q10 5 36 5q24 0 36 -5v-740zM73 -216q30 32 35 93q-19 1 -27 5v73q14 5 40 5q27 0 41 -5v-50q0 -93 -61 -141z" />
    <glyph glyph-name="Lcaron" unicode="&#x13d;" horiz-adv-x="512" 
d="M258 607q61 53 64 142q42 3 63 -14q-14 -110 -95 -150q-22 4 -32 22zM96 714q13 6 37 6q25 0 37 -6v-649h313q5 -17 5 -32q0 -13 -5 -33h-387v714z" />
    <glyph glyph-name="lcaron" unicode="&#x13e;" horiz-adv-x="250" 
d="M206 601q56 59 49 147q40 9 64 -7q-4 -113 -79 -159q-24 3 -34 19zM157 5q-12 -5 -36 -5q-26 0 -36 5v740q10 5 36 5q24 0 36 -5v-740z" />
    <glyph glyph-name="Ldot" unicode="&#x13f;" horiz-adv-x="521" 
d="M96 714q13 6 37 6q25 0 37 -6v-649h313q5 -17 5 -32q0 -13 -5 -33h-387v714zM424 302q-13 -6 -37 -6q-25 0 -37 6v65q12 5 37 5q24 0 37 -5v-65z" />
    <glyph glyph-name="ldot" unicode="&#x140;" horiz-adv-x="337" 
d="M157 5q-12 -5 -36 -5q-26 0 -36 5v740q10 5 36 5q24 0 36 -5v-740zM336 302q-13 -6 -37 -6q-26 0 -37 6v65q11 5 37 5q24 0 37 -5v-65z" />
    <glyph glyph-name="Lslash" unicode="&#x141;" horiz-adv-x="536" 
d="M120 714q13 6 37 6q25 0 37 -6v-291l150 87q20 -16 25 -43l-175 -101v-301h313q5 -17 5 -32q0 -13 -5 -33h-387v323l-82 -47q-20 15 -25 42l107 62v334z" />
    <glyph glyph-name="lslash" unicode="&#x142;" horiz-adv-x="336" 
d="M131 745q10 5 36 5q24 0 36 -5v-293l81 46q8 -4 16 -18q8 -15 8 -25l-105 -61v-389q-12 -5 -36 -5q-26 0 -36 5v347l-76 -43q-7 2 -16 18q-9 15 -9 24l101 59v335z" />
    <glyph glyph-name="Nacute" unicode="&#x143;" horiz-adv-x="696" 
d="M355 756q-31 3 -43 24l104 144q45 4 64 -29zM217 515q-36 60 -54 110h-3q5 -54 5 -152v-467q-11 -6 -35 -6t-34 6v708q15 6 44 6t43 -6l294 -503q34 -58 57 -116h3q-6 64 -6 149v470q11 6 35 6q25 0 34 -6v-708q-13 -6 -43 -6q-29 0 -44 6z" />
    <glyph glyph-name="nacute" unicode="&#x144;" horiz-adv-x="549" 
d="M235 607q-31 3 -43 24l104 144q45 4 64 -29zM472 5q-13 -5 -36 -5q-25 0 -36 5v367q0 104 -108 104q-92 0 -140 -91v-380q-12 -5 -36 -5q-25 0 -36 5v516q11 5 36 5q24 0 36 -5v-63q62 78 166 78q73 0 114 -41q40 -40 40 -109v-381z" />
    <glyph glyph-name="Ncommaaccent" unicode="&#x145;" horiz-adv-x="696" 
d="M217 515q-36 60 -54 110h-3q5 -54 5 -152v-467q-11 -6 -35 -6t-34 6v708q15 6 44 6t43 -6l294 -503q34 -58 57 -116h3q-6 64 -6 149v470q11 6 35 6q25 0 34 -6v-708q-13 -6 -43 -6q-29 0 -44 6zM306 -216q31 32 35 93q-18 1 -26 5v73q14 5 40 5q27 0 41 -5v-50
q0 -93 -62 -141z" />
    <glyph glyph-name="ncommaaccent" unicode="&#x146;" horiz-adv-x="549" 
d="M472 5q-13 -5 -36 -5q-25 0 -36 5v367q0 104 -108 104q-92 0 -140 -91v-380q-12 -5 -36 -5q-25 0 -36 5v516q11 5 36 5q24 0 36 -5v-63q62 78 166 78q73 0 114 -41q40 -40 40 -109v-381zM232 -218q30 32 35 92q-18 1 -27 5v74q14 5 41 5q26 0 40 -5v-51q0 -92 -61 -140z
" />
    <glyph glyph-name="Ncaron" unicode="&#x147;" horiz-adv-x="696" 
d="M210 871q10 26 34 35l112 -79l110 78q22 -7 34 -34l-132 -108h-26zM217 515q-36 60 -54 110h-3q5 -54 5 -152v-467q-11 -6 -35 -6t-34 6v708q15 6 44 6t43 -6l294 -503q34 -58 57 -116h3q-6 64 -6 149v470q11 6 35 6q25 0 34 -6v-708q-13 -6 -43 -6q-29 0 -44 6z" />
    <glyph glyph-name="ncaron" unicode="&#x148;" horiz-adv-x="549" 
d="M382 738q20 -5 32 -32l-121 -99h-23l-122 99q10 26 31 33l102 -73zM80 521q11 5 36 5q24 0 36 -5v-63q62 78 166 78q73 0 114 -41q40 -40 40 -109v-381q-13 -5 -36 -5q-25 0 -36 5v367q0 104 -108 104q-92 0 -140 -91v-380q-12 -5 -36 -5q-25 0 -36 5v516z" />
    <glyph glyph-name="napostrophe" unicode="&#x149;" horiz-adv-x="549" 
d="M75 607q61 53 64 142q42 3 63 -14q-14 -110 -95 -150q-22 4 -32 22zM472 5q-13 -5 -36 -5q-25 0 -36 5v367q0 104 -108 104q-92 0 -140 -91v-380q-12 -5 -36 -5q-25 0 -36 5v516q11 5 36 5q24 0 36 -5v-63q62 78 166 78q73 0 114 -41q40 -40 40 -109v-381z" />
    <glyph glyph-name="Eng" unicode="&#x14a;" horiz-adv-x="696" 
d="M531 714q11 6 35 6q25 0 34 -6v-762q0 -74 -25 -115q-27 -44 -92 -65q-26 17 -23 54q68 25 68 125v51q-10 2 -15 4l-296 509q-36 60 -54 110h-3q5 -54 5 -152v-467q-11 -6 -35 -6t-34 6v708q15 6 44 6t43 -6l294 -503q34 -58 57 -116h3q-6 64 -6 149v470z" />
    <glyph glyph-name="eng" unicode="&#x14b;" horiz-adv-x="549" 
d="M152 458q62 78 166 78q73 0 114 -41q40 -40 40 -109v-434q0 -74 -25 -115q-27 -44 -92 -65q-26 18 -24 53q69 24 69 126v421q0 104 -108 104q-92 0 -140 -91v-380q-12 -5 -36 -5q-25 0 -36 5v516q11 5 36 5q24 0 36 -5v-63z" />
    <glyph glyph-name="Omacron" unicode="&#x14c;" 
d="M480 840q8 -22 0 -49h-275q-8 25 0 49h275zM339 730q275 0 275 -370t-275 -370t-275 370t275 370zM339 668q-197 0 -197 -308t197 -308t197 308t-197 308z" />
    <glyph glyph-name="omacron" unicode="&#x14d;" horiz-adv-x="542" 
d="M391 694q8 -24 0 -49h-242q-7 26 0 49h242zM271 536q214 0 214 -273t-214 -273t-214 273t214 273zM373 434q-33 45 -102 45t-102 -45q-38 -52 -38 -171t38 -171q33 -45 102 -45t102 45q38 52 38 171t-38 171z" />
    <glyph glyph-name="Obreve" unicode="&#x14e;" 
d="M453 872q26 -7 34 -35q-49 -56 -146 -56q-98 0 -146 56q8 26 33 35q44 -36 113 -36t112 36zM339 730q275 0 275 -370t-275 -370t-275 370t275 370zM339 668q-197 0 -197 -308t197 -308t197 308t-197 308z" />
    <glyph glyph-name="obreve" unicode="&#x14f;" horiz-adv-x="542" 
d="M379 721q25 -7 33 -36q-47 -59 -142 -59q-94 0 -142 59q9 27 33 36q42 -37 109 -37t109 37zM271 536q214 0 214 -273t-214 -273t-214 273t214 273zM373 434q-33 45 -102 45t-102 -45q-38 -52 -38 -171t38 -171q33 -45 102 -45t102 45q38 52 38 171t-38 171z" />
    <glyph glyph-name="Ohungarumlaut" unicode="&#x150;" 
d="M310 917q43 3 66 -28l-113 -128q-31 5 -42 23zM462 917q44 3 65 -28l-113 -128q-29 5 -42 23zM339 730q275 0 275 -370t-275 -370t-275 370t275 370zM339 668q-197 0 -197 -308t197 -308t197 308t-197 308z" />
    <glyph glyph-name="ohungarumlaut" unicode="&#x151;" horiz-adv-x="542" 
d="M261 746q40 3 62 -24l-115 -117q-29 5 -40 21zM406 746q41 3 63 -24l-115 -117q-29 5 -40 21zM271 536q214 0 214 -273t-214 -273t-214 273t214 273zM373 434q-33 45 -102 45t-102 -45q-38 -52 -38 -171t38 -171q33 -45 102 -45t102 45q38 52 38 171t-38 171z" />
    <glyph glyph-name="OE" unicode="&#x152;" horiz-adv-x="853" 
d="M347 730q42 0 86 -10h358q6 -13 6 -31q0 -17 -6 -31h-281v-263h231q6 -13 6 -30q0 -16 -6 -31h-231v-272h291q6 -15 6 -31t-6 -31h-369q-44 -10 -85 -10q-283 0 -283 370t283 370zM436 652q-38 16 -89 16q-205 0 -205 -308t205 -308q51 0 89 16v584z" />
    <glyph glyph-name="oe" unicode="&#x153;" horiz-adv-x="823" 
d="M463 240q5 -102 38 -146q33 -43 101 -43q71 0 118 32q22 -14 25 -49q-51 -44 -156 -44q-116 0 -160 108q-44 -108 -161 -108q-211 0 -211 273t211 273q120 0 162 -109q45 109 158 109q88 0 136 -52q48 -51 48 -142q0 -62 -11 -102h-298zM169 434q-37 -52 -37 -171
t37 -171q32 -45 99 -45q66 0 95 46q32 50 32 171t-32 170q-28 45 -95 45t-99 -45zM588 477q-115 0 -125 -183h232l2 19q2 19 2 38q0 126 -111 126z" />
    <glyph glyph-name="Racute" unicode="&#x154;" horiz-adv-x="621" 
d="M321 924q45 4 64 -29l-125 -139q-31 3 -43 24zM344 720q95 0 152 -56q55 -56 55 -149q0 -76 -38 -128q-38 -53 -106 -69l173 -312q-15 -6 -43 -6t-43 6l-168 304h-156v-304q-12 -6 -36 -6q-27 0 -38 6v714h248zM170 373h167q64 0 100 37q36 38 36 105t-36 104
q-36 38 -100 38h-167v-284z" />
    <glyph glyph-name="racute" unicode="&#x155;" horiz-adv-x="391" 
d="M246 775q45 4 64 -29l-125 -139q-31 3 -43 24zM152 439q53 96 135 96q49 0 86 -24q-4 -38 -33 -61q-31 20 -68 20q-71 0 -120 -100v-365q-11 -5 -36 -5t-36 5v516q11 5 36 5t36 -5v-82z" />
    <glyph glyph-name="Rcommaaccent" unicode="&#x156;" horiz-adv-x="621" 
d="M344 720q95 0 152 -56q55 -56 55 -149q0 -76 -38 -128q-38 -53 -106 -69l173 -312q-15 -6 -43 -6t-43 6l-168 304h-156v-304q-12 -6 -36 -6q-27 0 -38 6v714h248zM170 373h167q64 0 100 37q36 38 36 105t-36 104q-36 38 -100 38h-167v-284zM280 -45q14 5 40 5q27 0 41 -5
v-50q0 -93 -62 -141l-28 20q31 32 35 93q-18 1 -26 5v73z" />
    <glyph glyph-name="rcommaaccent" unicode="&#x157;" horiz-adv-x="391" 
d="M152 439q59 96 135 96q49 0 86 -24q-4 -38 -33 -61q-31 20 -68 20q-62 0 -120 -100v-365q-11 -5 -36 -5t-36 5v516q11 5 36 5t36 -5v-82zM76 -45q14 5 41 5q26 0 40 -5v-50q0 -93 -61 -141l-28 20q31 32 35 93q-18 1 -27 5v73z" />
    <glyph glyph-name="Rcaron" unicode="&#x158;" horiz-adv-x="621" 
d="M401 905q22 -7 34 -34l-132 -108h-26l-132 108q10 26 34 35l112 -79zM344 720q95 0 152 -56q55 -56 55 -149q0 -76 -38 -128q-38 -53 -106 -69l173 -312q-15 -6 -43 -6t-43 6l-168 304h-156v-304q-12 -6 -36 -6q-27 0 -38 6v714h248zM170 373h167q64 0 100 37
q36 38 36 105t-36 104q-36 38 -100 38h-167v-284z" />
    <glyph glyph-name="rcaron" unicode="&#x159;" horiz-adv-x="391" 
d="M304 734q19 -7 31 -32l-121 -100h-23l-122 100q10 24 32 33l102 -73zM152 439q59 96 135 96q49 0 86 -24q-4 -38 -33 -61q-31 20 -68 20q-62 0 -120 -100v-365q-11 -5 -36 -5t-36 5v516q11 5 36 5t36 -5v-82z" />
    <glyph glyph-name="Sacute" unicode="&#x15a;" horiz-adv-x="565" 
d="M282 768q-32 5 -42 26l102 135q44 2 63 -32zM136 535q0 -61 56 -94q28 -16 133 -48q90 -27 131 -62q59 -50 59 -139q0 -96 -63 -149q-64 -53 -181 -53q-127 0 -209 40q-2 38 19 59q91 -31 185 -31q173 0 173 133q0 61 -48 95q-32 22 -111 45q-109 32 -149 60
q-69 48 -69 140t60 145q62 54 177 54t189 -27q0 -38 -20 -58q-72 21 -159 21q-173 0 -173 -131z" />
    <glyph glyph-name="sacute" unicode="&#x15b;" horiz-adv-x="444" 
d="M196 607q-31 3 -43 24l104 144q45 4 64 -29zM101 494q48 42 137 42t135 -25q1 -34 -20 -53q-48 17 -107 17q-119 0 -119 -88q0 -37 36 -59q24 -15 84 -31q73 -23 103 -45q49 -38 49 -108q0 -154 -183 -154q-100 0 -160 34q-2 35 20 54q65 -25 136 -25q115 0 115 89
q0 44 -39 68q-20 11 -88 31q-67 19 -98 43q-45 36 -45 100q0 70 44 110z" />
    <glyph glyph-name="Scircumflex" unicode="&#x15c;" horiz-adv-x="564" 
d="M440 804q-11 -27 -33 -35l-112 79l-110 -79q-25 9 -35 35l133 108h26zM136 535q0 -62 57 -95q27 -15 134 -48q89 -27 129 -62q59 -50 59 -138q0 -96 -63 -149q-64 -53 -181 -53q-127 0 -209 40q-2 38 19 59q91 -31 185 -31q173 0 173 133q0 63 -52 98q-32 21 -119 46
q-101 29 -141 59q-65 48 -65 137q0 92 60 145q62 54 177 54t189 -27q0 -37 -20 -58q-72 21 -159 21q-173 0 -173 -131z" />
    <glyph glyph-name="scircumflex" unicode="&#x15d;" horiz-adv-x="444" 
d="M373 630q-12 -27 -33 -34l-109 77l-108 -77q-24 9 -33 34l129 105h25zM101 494q48 42 137 42t135 -25q1 -34 -20 -53q-48 17 -107 17q-119 0 -119 -88q0 -38 39 -60q21 -12 87 -32q70 -22 99 -45q47 -38 47 -106q0 -154 -183 -154q-100 0 -160 34q-2 35 20 54
q65 -25 136 -25q115 0 115 89q0 44 -39 67q-21 13 -86 31q-68 20 -99 44q-46 36 -46 100q0 70 44 110z" />
    <glyph glyph-name="Scedilla" unicode="&#x15e;" horiz-adv-x="565" 
d="M456 331q59 -50 59 -139q0 -90 -57 -143q-56 -52 -161 -59l-9 -48q108 0 108 -92q0 -99 -117 -99q-55 0 -90 23q0 23 17 35q32 -16 70 -16q69 0 69 58q0 52 -62 52h-35l-10 12l14 75q-116 4 -190 40q-2 38 19 59q91 -31 185 -31q173 0 173 133q0 62 -50 96
q-32 22 -114 45q-106 32 -145 60q-68 48 -68 139q0 92 60 145q62 54 177 54t189 -27q0 -38 -20 -58q-72 21 -159 21q-173 0 -173 -131q0 -61 57 -94q26 -15 133 -49q90 -27 130 -61z" />
    <glyph glyph-name="scedilla" unicode="&#x15f;" horiz-adv-x="444" 
d="M101 494q48 42 137 42t135 -25q1 -34 -20 -53q-48 17 -107 17q-119 0 -119 -88q0 -37 37 -59q23 -14 83 -32q72 -21 103 -44q49 -38 49 -108q0 -142 -160 -154l-9 -47q105 0 105 -88q0 -96 -114 -96q-54 0 -88 23q0 21 17 33q32 -16 68 -16q68 0 68 57q0 50 -61 50h-34
l-10 11l14 73q-88 5 -139 34q-2 35 20 54q65 -25 136 -25q115 0 115 89q0 44 -39 67q-21 12 -86 31q-68 19 -99 44q-46 36 -46 100q0 70 44 110z" />
    <glyph glyph-name="Scaron" unicode="&#x160;" horiz-adv-x="565" 
d="M154 879q12 28 35 35l111 -79l110 78q23 -6 34 -34l-131 -105h-26zM134 535q0 -61 55 -93q29 -18 129 -47q94 -29 134 -62q61 -50 61 -141q0 -96 -63 -149q-64 -53 -181 -53q-127 0 -209 40q0 35 19 59q91 -31 185 -31q173 0 173 133q0 62 -50 96q-32 22 -115 46
q-105 31 -145 59q-67 48 -67 139q0 92 60 145q62 54 177 54t189 -27q0 -37 -20 -58q-72 21 -159 21q-173 0 -173 -131z" />
    <glyph glyph-name="scaron" unicode="&#x161;" horiz-adv-x="444" 
d="M102 704q9 24 32 31l100 -71l100 71q19 -7 30 -31l-118 -98h-24zM101 494q48 42 137 42t135 -25q1 -34 -20 -53q-48 17 -107 17q-119 0 -119 -88q0 -37 36 -59q23 -15 81 -31q74 -21 105 -44q50 -38 50 -109q0 -154 -183 -154q-100 0 -160 34q-2 35 20 54q65 -25 136 -25
q115 0 115 89q0 44 -39 67q-20 12 -85 31q-69 20 -100 44q-46 36 -46 100q0 70 44 110z" />
    <glyph glyph-name="Tcommaaccent" unicode="&#x162;" horiz-adv-x="539" 
d="M504 720q6 -12 6 -32q0 -19 -6 -33h-195v-649q-13 -6 -37 -6q-26 0 -37 6v649h-200q-6 13 -6 33q0 19 6 32h469zM228 -227q31 32 35 92q-18 1 -27 5v73q14 5 41 5t40 -5v-50q0 -92 -61 -140z" />
    <glyph glyph-name="Tcommaaccent" unicode="&#x21a;" horiz-adv-x="539" 
d="M504 720q6 -12 6 -32q0 -19 -6 -33h-195v-649q-13 -6 -37 -6q-26 0 -37 6v649h-200q-6 13 -6 33q0 19 6 32h469zM228 -227q31 32 35 92q-18 1 -27 5v73q14 5 41 5t40 -5v-50q0 -92 -61 -140z" />
    <glyph glyph-name="tcommaaccent" unicode="&#x163;" horiz-adv-x="368" 
d="M183 182q0 -72 23 -102q24 -30 83 -30q25 0 49 5q6 -12 6 -30q0 -17 -4 -27q-27 -8 -70 -8q-86 0 -124 49q-35 45 -35 140v290h-78q-5 10 -5 28q0 20 5 29h78v95q28 19 72 16v-111h143q5 -10 5 -28t-5 -29h-143v-287zM192 -242q31 32 35 93q-18 1 -27 5v73q14 5 41 5
t40 -5v-50q0 -93 -61 -140z" />
    <glyph glyph-name="tcommaaccent" unicode="&#x21b;" horiz-adv-x="368" 
d="M183 182q0 -72 23 -102q24 -30 83 -30q25 0 49 5q6 -12 6 -30q0 -17 -4 -27q-27 -8 -70 -8q-86 0 -124 49q-35 45 -35 140v290h-78q-5 10 -5 28q0 20 5 29h78v95q28 19 72 16v-111h143q5 -10 5 -28t-5 -29h-143v-287zM192 -242q31 32 35 93q-18 1 -27 5v73q14 5 41 5
t40 -5v-50q0 -93 -61 -140z" />
    <glyph glyph-name="Tcaron" unicode="&#x164;" horiz-adv-x="539" 
d="M128 871q10 26 34 35l112 -79l110 78q22 -7 34 -34l-132 -108h-26zM504 720q6 -12 6 -32q0 -19 -6 -33h-195v-649q-13 -6 -37 -6q-26 0 -37 6v649h-200q-6 13 -6 33q0 19 6 32h469z" />
    <glyph glyph-name="tcaron" unicode="&#x165;" horiz-adv-x="368" 
d="M268 607q61 53 64 142q42 3 63 -14q-14 -110 -95 -150q-22 4 -32 22zM183 182q0 -72 23 -102q24 -30 83 -30q25 0 49 5q6 -12 6 -30q0 -17 -4 -27q-27 -8 -70 -8q-86 0 -124 49q-35 45 -35 140v290h-78q-5 10 -5 28q0 20 5 29h78v95q28 19 72 16v-111h143q5 -10 5 -28
t-5 -29h-143v-287z" />
    <glyph glyph-name="Tbar" unicode="&#x166;" horiz-adv-x="554" 
d="M447 368q7 -21 0 -49h-131v-313q-13 -6 -37 -6q-26 0 -37 6v313h-134q-6 26 0 49h134v287h-200q-6 13 -6 33q0 19 6 32h469q6 -12 6 -32q0 -19 -6 -33h-195v-287h131z" />
    <glyph glyph-name="tbar" unicode="&#x167;" horiz-adv-x="371" 
d="M340 55q6 -12 6 -30q0 -17 -4 -27q-27 -8 -70 -8q-86 0 -124 49q-35 45 -35 140v81h-67q-6 25 0 48h67v161h-78q-5 10 -5 28q0 20 5 29h78v95q28 19 72 16v-111h143q5 -10 5 -28t-5 -29h-143v-161h135q7 -21 0 -48h-135v-78q0 -72 23 -102q24 -30 83 -30q25 0 49 5z" />
    <glyph glyph-name="Utilde" unicode="&#x168;" horiz-adv-x="668" 
d="M445 843q23 -9 30 -33q-23 -43 -80 -43q-27 0 -59 17q-31 17 -50 17q-30 0 -45 -28q-24 10 -30 32q24 45 81 45q28 0 60 -17q31 -17 49 -17q30 0 44 27zM578 235q0 -116 -67 -181q-66 -64 -177 -64t-177 64q-66 66 -66 181v479q13 6 37 6q25 0 37 -6v-490q0 -81 45 -126
t126 -45q80 0 125 45q44 45 44 126v490q12 6 36 6t37 -6v-479z" />
    <glyph glyph-name="utilde" unicode="&#x169;" horiz-adv-x="548" 
d="M223 715q28 0 60 -17t50 -17q30 0 45 29q24 -8 31 -34q-25 -46 -82 -46q-29 0 -60 17q-32 17 -50 17q-30 0 -46 -30q-26 12 -30 34q25 47 82 47zM396 521q12 5 36 5q25 0 36 -5v-516q-11 -5 -36 -5q-24 0 -36 5v63q-62 -78 -166 -78q-72 0 -114 41q-40 41 -40 109v381
q13 5 36 5q25 0 36 -5v-367q0 -104 109 -104q90 0 139 91v380z" />
    <glyph glyph-name="Umacron" unicode="&#x16a;" horiz-adv-x="668" 
d="M195 790q-9 25 0 49h283q8 -24 0 -49h-283zM578 235q0 -116 -67 -181q-66 -64 -177 -64t-177 64q-66 66 -66 181v479q13 6 37 6q25 0 37 -6v-490q0 -81 45 -126t126 -45q80 0 125 45q44 45 44 126v490q12 6 36 6t37 -6v-479z" />
    <glyph glyph-name="umacron" unicode="&#x16b;" horiz-adv-x="548" 
d="M390 699q9 -19 0 -46h-231q-8 25 0 46h231zM396 521q12 5 36 5q25 0 36 -5v-516q-11 -5 -36 -5q-24 0 -36 5v63q-62 -78 -166 -78q-72 0 -114 41q-40 41 -40 109v381q13 5 36 5q25 0 36 -5v-367q0 -104 109 -104q90 0 139 91v380z" />
    <glyph glyph-name="Ubreve" unicode="&#x16c;" horiz-adv-x="668" 
d="M335 781q-98 0 -147 56q8 26 34 35q44 -36 113 -36t112 36q27 -8 33 -35q-49 -56 -145 -56zM578 235q0 -116 -67 -181q-66 -64 -177 -64t-177 64q-66 66 -66 181v479q13 6 37 6q25 0 37 -6v-490q0 -81 45 -126t126 -45q80 0 125 45q44 45 44 126v490q12 6 36 6t37 -6
v-479z" />
    <glyph glyph-name="ubreve" unicode="&#x16d;" horiz-adv-x="548" 
d="M381 718q27 -8 33 -35q-47 -60 -142 -60q-94 0 -142 60q9 27 33 35q42 -36 109 -36t109 36zM396 521q12 5 36 5q25 0 36 -5v-516q-11 -5 -36 -5q-24 0 -36 5v63q-62 -78 -166 -78q-72 0 -114 41q-40 41 -40 109v381q13 5 36 5q25 0 36 -5v-367q0 -104 109 -104
q90 0 139 91v380z" />
    <glyph glyph-name="Uring" unicode="&#x16e;" horiz-adv-x="668" 
d="M253 794q-33 30 -33 81t36 80q33 27 81 27t81 -26q37 -30 37 -81t-35 -82q-33 -28 -84 -28t-83 29zM390 921q-20 20 -54 20q-33 0 -52 -21q-17 -18 -17 -45q0 -28 17 -46q19 -21 52 -21q34 0 54 21q17 19 17 46q0 28 -17 46zM578 235q0 -116 -67 -181q-66 -64 -177 -64
t-177 64q-66 66 -66 181v479q13 6 37 6q25 0 37 -6v-490q0 -81 45 -126t126 -45q80 0 125 45q44 45 44 126v490q12 6 36 6t37 -6v-479z" />
    <glyph glyph-name="uring" unicode="&#x16f;" horiz-adv-x="548" 
d="M192 781q33 27 81 27t81 -26q37 -30 37 -81t-35 -82q-33 -28 -84 -28t-83 29q-33 30 -33 81t36 80zM326 747q-20 20 -54 20q-33 0 -52 -21q-17 -18 -17 -45q0 -28 17 -46q19 -21 52 -21q34 0 54 21q17 19 17 46q0 28 -17 46zM396 521q12 5 36 5q25 0 36 -5v-516
q-11 -5 -36 -5q-24 0 -36 5v63q-62 -78 -166 -78q-72 0 -114 41q-40 41 -40 109v381q13 5 36 5q25 0 36 -5v-367q0 -104 109 -104q90 0 139 91v380z" />
    <glyph glyph-name="Uhungarumlaut" unicode="&#x170;" horiz-adv-x="668" 
d="M261 760q-30 3 -42 23l93 136q45 3 66 -28zM414 760q-30 3 -42 23l93 136q45 3 66 -28zM578 235q0 -116 -67 -181q-66 -64 -177 -64t-177 64q-66 66 -66 181v479q13 6 37 6q25 0 37 -6v-490q0 -81 45 -126t126 -45q80 0 125 45q44 45 44 126v490q12 6 36 6t37 -6v-479z
" />
    <glyph glyph-name="uhungarumlaut" unicode="&#x171;" horiz-adv-x="548" 
d="M197 606q-27 3 -40 22l93 132q42 3 63 -26zM344 606q-28 3 -41 22l93 132q41 3 63 -26zM76 521q13 5 36 5q25 0 36 -5v-367q0 -104 109 -104q90 0 139 91v380q12 5 36 5q25 0 36 -5v-516q-11 -5 -36 -5q-24 0 -36 5v63q-62 -78 -166 -78q-72 0 -114 41q-40 41 -40 109
v381z" />
    <glyph glyph-name="Uogonek" unicode="&#x172;" horiz-adv-x="667" 
d="M504 714q12 6 36 6t37 -6v-479q0 -198 -174 -237q-98 -28 -98 -91q0 -51 54 -51q21 0 36 8q13 -10 13 -32q-26 -18 -64 -18q-41 0 -66 23t-25 62q0 58 53 92q-100 8 -157 71q-59 65 -59 173v479q13 6 37 6q25 0 37 -6v-490q0 -81 45 -126t126 -45q80 0 125 45
q44 45 44 126v490z" />
    <glyph glyph-name="uogonek" unicode="&#x173;" horiz-adv-x="549" 
d="M397 521q12 5 36 5q25 0 36 -5v-516q-90 -27 -90 -104q0 -39 53 -39q21 0 36 7q13 -10 13 -35q-26 -17 -64 -17q-41 0 -66 20q-25 21 -25 56q0 76 72 113l-1 62q-62 -78 -166 -78q-72 0 -114 41q-40 41 -40 109v381q13 5 36 5q25 0 36 -5v-367q0 -104 109 -104
q90 0 139 91v380z" />
    <glyph glyph-name="Wcircumflex" unicode="&#x174;" horiz-adv-x="957" 
d="M630 798q-12 -28 -34 -35l-112 79l-110 -79q-25 9 -34 35l132 108h26zM505 512q-20 79 -22 121h-3q-3 -42 -22 -121l-140 -506q-18 -6 -44 -6q-25 0 -41 6l-205 708q12 6 37 6q26 0 38 -6l149 -511q17 -61 26 -116h3q6 54 22 115l143 512q11 6 37 6q27 0 38 -6l142 -511
q16 -64 21 -116h3q6 50 25 115l145 512q12 6 34 6t35 -6l-200 -708q-15 -6 -40 -6q-24 0 -42 6z" />
    <glyph glyph-name="wcircumflex" unicode="&#x175;" horiz-adv-x="794" 
d="M543 636q-11 -27 -33 -33l-109 76l-108 -77q-22 8 -33 34l129 106h25zM430 312q-28 93 -30 133h-3q-5 -49 -33 -133l-97 -307q-22 -5 -38 -5q-15 0 -40 5l-160 516q12 5 36 5q25 0 33 -5l110 -350q12 -42 20 -91h3q7 45 22 91l110 350q16 5 38 5q24 0 36 -5l108 -348
q11 -36 20 -93h3q5 34 23 92l109 349q12 5 33 5q23 0 32 -5l-160 -516q-27 -5 -39 -5q-11 0 -39 5z" />
    <glyph glyph-name="Ycircumflex" unicode="&#x176;" horiz-adv-x="628" 
d="M467 798q-10 -28 -34 -35l-111 79l-110 -79q-24 9 -35 35l132 108h26zM528 714q12 6 39 6q26 0 42 -6l-259 -411v-297q-12 -6 -36 -6q-26 0 -38 6v295l-252 413q15 6 45 6q28 0 42 -6l206 -335z" />
    <glyph glyph-name="ycircumflex" unicode="&#x177;" horiz-adv-x="524" 
d="M403 636q-11 -27 -33 -33l-109 76l-108 -77q-24 9 -33 34l129 106h25zM285 -97q-27 -80 -56 -112q-36 -41 -99 -41q-30 0 -51 8q-6 12 -6 28q0 23 7 30q19 -5 43 -5q34 0 53 20q22 23 43 86l30 84q-11 0 -24 5l-200 515q13 5 38 5t38 -5l135 -343q24 -62 36 -107h3
q11 44 32 107l118 343q11 5 36 5q23 0 36 -5z" />
    <glyph glyph-name="Ydieresis" unicode="&#x178;" horiz-adv-x="628" 
d="M201 844q12 5 37 5q24 0 37 -5v-65q-13 -5 -37 -5q-25 0 -37 5v65zM359 844q12 5 37 5q24 0 37 -5v-65q-13 -5 -37 -5q-25 0 -37 5v65zM528 714q12 6 39 6q26 0 42 -6l-259 -411v-297q-12 -6 -36 -6q-26 0 -38 6v295l-252 413q15 6 45 6q28 0 42 -6l206 -335z" />
    <glyph glyph-name="Zacute" unicode="&#x179;" horiz-adv-x="585" 
d="M338 924q45 4 64 -29l-119 -133q-31 5 -44 24zM523 720q6 -12 6 -32t-6 -34l-396 -588h409q5 -15 5 -32q0 -21 -5 -34h-492q-5 20 -5 34q0 15 5 32l394 588h-366q-5 20 -5 35q0 16 5 31h451z" />
    <glyph glyph-name="zacute" unicode="&#x17a;" horiz-adv-x="461" 
d="M224 607q-31 3 -43 24l103 144q44 4 65 -29zM407 61q6 -10 6 -31q0 -19 -6 -30h-361q-5 12 -5 32q0 19 5 29l283 404h-263q-5 11 -5 31t5 30h340q5 -15 5 -29t-5 -32l-283 -404h284z" />
    <glyph glyph-name="Zdotaccent" unicode="&#x17b;" horiz-adv-x="585" 
d="M256 853q12 4 38 4q25 0 38 -4v-68q-13 -5 -38 -5q-26 0 -38 5v68zM523 720q6 -12 6 -32t-6 -34l-396 -588h409q5 -15 5 -32q0 -21 -5 -34h-492q-5 20 -5 34q0 15 5 32l394 588h-366q-5 20 -5 35q0 16 5 31h451z" />
    <glyph glyph-name="zdotaccent" unicode="&#x17c;" horiz-adv-x="461" 
d="M279 642q-13 -5 -38 -5q-26 0 -38 5v68q12 4 38 4q25 0 38 -4v-68zM407 61q6 -10 6 -31q0 -19 -6 -30h-361q-5 12 -5 32q0 19 5 29l283 404h-263q-5 11 -5 31t5 30h340q5 -15 5 -29t-5 -32l-283 -404h284z" />
    <glyph glyph-name="Zcaron" unicode="&#x17d;" horiz-adv-x="585" 
d="M408 905q22 -7 34 -34l-132 -108h-26l-132 108q10 26 34 35l112 -79zM523 720q6 -12 6 -32t-6 -34l-396 -588h409q5 -15 5 -32q0 -21 -5 -34h-492q-5 20 -5 34q0 15 5 32l394 588h-366q-5 20 -5 35q0 16 5 31h451z" />
    <glyph glyph-name="zcaron" unicode="&#x17e;" horiz-adv-x="461" 
d="M108 700q11 23 31 32l101 -72l100 71q17 -5 30 -31l-119 -98h-23zM407 61q6 -10 6 -31q0 -19 -6 -30h-361q-5 18 -5 32t5 29l283 404h-263q-5 11 -5 31t5 30h340q5 -15 5 -29t-5 -32l-283 -404h284z" />
    <glyph glyph-name="longs" unicode="&#x17f;" horiz-adv-x="278" 
d="M181 5q-11 -5 -36 -5t-36 5v464h-71q-6 30 0 57h71v60q0 164 158 164q60 0 102 -17q0 -33 -19 -53q-31 11 -77 11q-53 0 -74 -26q-18 -22 -18 -74v-586z" />
    <glyph glyph-name="uni018F" unicode="&#x18f;" horiz-adv-x="628" 
d="M113 335q8 -283 197 -283t197 283h-394zM35 351q-1 7 -1 15q0 20 6 31h467q-12 269 -219 269q-85 0 -147 -24q-23 20 -23 55q64 33 179 33q289 0 289 -370v-25h-1q-9 -345 -275 -345q-272 0 -275 361z" />
    <glyph glyph-name="florin" unicode="&#x192;" horiz-adv-x="446" 
d="M208 13q-17 -154 -151 -154q-54 0 -94 21q0 30 19 48q32 -11 71 -11q76 0 85 93l39 397h-89q-5 10 -5 28q0 16 5 26h94l8 76q8 79 41 116q35 38 107 38q58 0 95 -18q0 -28 -18 -49q-33 11 -73 11q-74 0 -83 -96l-7 -78h93q5 -10 5 -27t-5 -27h-99z" />
    <glyph glyph-name="Ohorn" unicode="&#x1a0;" 
d="M339 730q275 0 275 -370t-275 -370t-275 370t275 370zM339 668q-197 0 -197 -308t197 -308t197 308t-197 308zM531 626q56 59 49 147q40 9 64 -7q-4 -113 -79 -159q-24 3 -34 19z" />
    <glyph glyph-name="ohorn" unicode="&#x1a1;" horiz-adv-x="542" 
d="M271 536q214 0 214 -273t-214 -273t-214 273t214 273zM373 434q-33 45 -102 45t-102 -45q-38 -52 -38 -171t38 -171q33 -45 102 -45t102 45q38 52 38 171t-38 171zM430 427q56 59 49 147q40 9 64 -7q-4 -113 -79 -159q-24 3 -34 19z" />
    <glyph glyph-name="Uhorn" unicode="&#x1af;" horiz-adv-x="668" 
d="M578 235q0 -116 -67 -181q-66 -64 -177 -64t-177 64q-66 66 -66 181v479q13 6 37 6q25 0 37 -6v-490q0 -81 45 -126t126 -45q80 0 125 45q44 45 44 126v490q12 6 36 6t37 -6v-479zM577 625q72 46 49 147q40 9 64 -7q17 -141 -117 -188q-8 23 4 48z" />
    <glyph glyph-name="uhorn" unicode="&#x1b0;" horiz-adv-x="548" 
d="M76 521q13 5 36 5q25 0 36 -5v-367q0 -104 109 -104q90 0 139 91v380q12 5 36 5q25 0 36 -5v-516q-11 -5 -36 -5q-24 0 -36 5v63q-62 -78 -166 -78q-72 0 -114 41q-40 41 -40 109v381zM467 428q72 46 49 147q40 9 64 -7q17 -141 -117 -188q-8 23 4 48z" />
    <glyph glyph-name="Aringacute" unicode="&#x1fa;" horiz-adv-x="648" 
d="M329 927q-30 5 -40 18l97 108q40 3 60 -22zM630 6q-13 -6 -41 -6q-24 0 -36 6l-72 191h-319l-73 -191q-12 -6 -36 -6t-35 6l257 687q-70 20 -70 98q0 50 36 80q33 27 81 27q47 0 81 -27q37 -30 37 -80q0 -73 -68 -96zM375 836q-20 20 -54 20q-33 0 -52 -20
q-17 -18 -17 -45q0 -28 17 -46q19 -21 52 -21q34 0 54 21q18 19 18 46t-18 45zM343 565q-14 40 -20 69h-3q-6 -30 -20 -69l-116 -306h275z" />
    <glyph glyph-name="aringacute" unicode="&#x1fb;" horiz-adv-x="515" 
d="M294 931q40 3 60 -22l-117 -104q-30 5 -40 18zM180 755q32 25 79 25q46 0 79 -25q36 -29 36 -76q0 -48 -34 -77q-33 -27 -82 -27q-50 0 -80 27q-33 28 -33 77q0 48 35 76zM308 720q-18 18 -50 18q-30 0 -48 -19q-16 -16 -16 -40q0 -25 16 -42q18 -19 48 -19q32 0 50 19
q17 17 17 42q0 24 -17 41zM257 536q103 0 144 -51q37 -46 37 -151v-329q-9 -5 -29 -5q-18 0 -29 5l-11 75q-43 -90 -168 -90q-71 0 -112 41q-43 42 -43 119q0 156 189 156q64 0 131 -8v56q0 64 -28 92t-90 28q-75 0 -140 -25q-10 5 -17 22q-5 12 -5 31q76 34 171 34z
M366 246q-92 8 -121 8q-124 0 -124 -104q0 -102 103 -102q65 0 104 45q38 44 38 113v40z" />
    <glyph glyph-name="AEacute" unicode="&#x1fc;" horiz-adv-x="858" 
d="M589 756q-31 3 -43 24l103 144q44 4 65 -29zM88 6q-15 -6 -39 -6q-26 0 -40 6l433 714h354q14 -32 0 -62h-277v-263h227q12 -33 0 -62h-227v-271h287q12 -31 0 -62h-357v190h-251zM236 252h213v355z" />
    <glyph glyph-name="aeacute" unicode="&#x1fd;" horiz-adv-x="775" 
d="M360 607q-31 3 -44 24l104 144q44 4 65 -29zM546 536q86 0 133 -52q46 -50 46 -142q0 -55 -11 -94h-295q10 -197 140 -197q72 0 114 32q22 -15 25 -49q-48 -44 -149 -44q-132 0 -169 119q-35 -119 -180 -119q-73 0 -113 41q-41 42 -41 119q0 152 182 152h120v55
q0 63 -26 90t-84 27q-70 0 -131 -25q-21 19 -21 53q71 34 161 34q116 0 148 -92q47 92 151 92zM546 477q-119 0 -127 -175h229q4 17 4 49q0 126 -106 126zM238 248q-118 0 -118 -99q0 -101 93 -101q62 0 99 42q36 42 36 113v45h-110z" />
    <glyph glyph-name="Oslashacute" unicode="&#x1fe;" 
d="M344 767q-31 3 -43 24l103 144q44 4 65 -29zM525 659q89 -92 89 -299q0 -370 -275 -370q-96 0 -160 49l-45 -81q-12 -5 -33 -5q-19 0 -32 5l68 121q-73 93 -73 281q0 370 275 370q84 0 140 -36l37 67q11 6 33 6q24 0 33 -6zM142 360q0 -134 38 -204l267 480
q-44 32 -108 32q-197 0 -197 -308zM213 99q47 -47 126 -47q197 0 197 308q0 156 -50 229z" />
    <glyph glyph-name="oslashacute" unicode="&#x1ff;" horiz-adv-x="542" 
d="M233 607q-31 3 -43 24l104 144q45 4 64 -29zM424 571q26 -3 46 -23l-43 -72q59 -68 59 -213q0 -273 -215 -273q-65 0 -111 25l-35 -60q-27 1 -45 23l39 68q-62 67 -62 217q0 273 214 273q70 0 116 -29zM355 453q-33 26 -84 26q-69 0 -102 -45q-38 -52 -38 -171
q0 -99 31 -146zM193 69q31 -22 78 -22q69 0 102 45q38 52 38 171q0 91 -26 141z" />
    <glyph glyph-name="Scommaaccent" unicode="&#x218;" horiz-adv-x="565" 
d="M136 535q0 -60 54 -93q28 -16 129 -47q93 -28 134 -62q62 -50 62 -141q0 -96 -63 -149q-64 -53 -181 -53q-127 0 -209 40q-2 38 19 59q91 -31 185 -31q173 0 173 133q0 62 -52 97q-32 22 -117 46q-103 30 -143 59q-65 48 -65 138q0 92 60 145q62 54 177 54t189 -27
q0 -38 -20 -58q-72 21 -159 21q-173 0 -173 -131zM237 -227q31 32 35 92q-18 1 -27 5v73q14 5 41 5t40 -5v-50q0 -92 -61 -140z" />
    <glyph glyph-name="scommaaccent" unicode="&#x219;" horiz-adv-x="444" 
d="M101 494q48 42 137 42t135 -25q1 -34 -20 -53q-48 17 -107 17q-119 0 -119 -88q0 -37 37 -60q22 -13 84 -31q72 -21 102 -44q49 -38 49 -108q0 -154 -183 -154q-100 0 -160 34q-2 35 20 54q65 -25 136 -25q115 0 115 89q0 44 -39 67q-20 12 -87 32q-67 18 -98 43
q-46 36 -46 100q0 70 44 110zM176 -242q31 32 35 93q-18 1 -27 5v73q14 5 41 5t40 -5v-50q0 -93 -61 -140z" />
    <glyph glyph-name="uni0237" unicode="&#x237;" horiz-adv-x="238" 
d="M83 521q10 5 36 5q24 0 36 -5v-609q0 -162 -140 -162q-42 0 -62 9q-3 7 -3 17q0 25 8 37q16 -4 40 -4q85 0 85 99v613z" />
    <glyph glyph-name="uni0259" unicode="&#x259;" horiz-adv-x="512" 
d="M384 286q-5 100 -44 144q-36 42 -111 42q-76 0 -122 -33q-24 19 -26 53q55 44 162 44q216 0 216 -276q0 -137 -60 -206q-55 -64 -155 -64q-90 0 -139 51t-49 142q0 62 11 103h317zM244 49q132 0 140 183h-254q-3 -21 -3 -57q0 -126 117 -126z" />
    <glyph glyph-name="circumflex" unicode="&#x2c6;" horiz-adv-x="396" 
d="M343 596q-12 -28 -34 -34l-112 78l-110 -79q-24 9 -34 35l132 108h26z" />
    <glyph glyph-name="caron" unicode="&#x2c7;" horiz-adv-x="404" 
d="M53 658q10 27 34 35l112 -79l110 78q22 -6 34 -34l-132 -108h-26z" />
    <glyph glyph-name="breve" unicode="&#x2d8;" horiz-adv-x="324" 
d="M160 614q-94 0 -142 60q9 27 33 36q42 -37 109 -37t109 37q25 -9 33 -36q-47 -60 -142 -60z" />
    <glyph glyph-name="dotaccent" unicode="&#x2d9;" horiz-adv-x="176" 
d="M125 608q-13 -5 -38 -5q-26 0 -38 5v68q12 5 38 5q25 0 38 -5v-68z" />
    <glyph glyph-name="ring" unicode="&#x2da;" horiz-adv-x="344" 
d="M87 534q-33 30 -33 81t36 80q33 27 81 27t81 -26q37 -30 37 -81t-35 -82q-33 -28 -84 -28t-83 29zM224 661q-20 20 -54 20q-33 0 -52 -21q-17 -18 -17 -45q0 -28 17 -46q19 -21 52 -21q34 0 54 21q17 19 17 46q0 28 -17 46z" />
    <glyph glyph-name="ogonek" unicode="&#x2db;" horiz-adv-x="283" 
d="M179 -199q-27 -18 -64 -18q-41 0 -66 23t-25 62q0 52 42 85q41 31 110 36l5 -21q-105 -27 -105 -92q0 -51 54 -51q21 0 36 8q13 -10 13 -32z" />
    <glyph glyph-name="tilde" unicode="&#x2dc;" horiz-adv-x="327" 
d="M274 698q25 -10 30 -34q-25 -47 -81 -47q-29 0 -61 18q-31 17 -49 17q-30 0 -46 -30q-26 12 -30 34q25 47 82 47q28 0 60 -17t50 -17q29 0 45 29z" />
    <glyph glyph-name="hungarumlaut" unicode="&#x2dd;" horiz-adv-x="386" 
d="M65 640q-31 3 -44 24l100 144q47 3 69 -29zM223 640q-31 3 -43 24l100 144q46 3 68 -29z" />
    <glyph glyph-name="Alphatonos" unicode="&#x386;" horiz-adv-x="648" 
d="M283 714q16 6 41 6q26 0 41 -6l265 -708q-13 -6 -41 -6q-24 0 -36 6l-72 191h-319l-73 -191q-12 -6 -36 -6t-35 6zM320 634q-6 -30 -20 -69l-116 -306h275l-116 306q-14 40 -20 69h-3zM154 732q45 4 64 -29l-125 -139q-31 3 -43 24z" />
    <glyph glyph-name="Epsilontonos" unicode="&#x388;" horiz-adv-x="629" 
d="M567 720q6 -13 6 -30q0 -18 -6 -32h-323v-262h273q6 -13 6 -30q0 -16 -6 -31h-273v-273h333q6 -13 6 -30t-6 -32h-407v720h397zM84 732q45 4 64 -29l-125 -139q-31 3 -43 24z" />
    <glyph glyph-name="Etatonos" unicode="&#x389;" horiz-adv-x="761" 
d="M591 714q13 6 37 6t37 -6v-708q-12 -6 -37 -6q-27 0 -37 6v330h-338v-330q-13 -6 -37 -6q-27 0 -37 6v708q13 6 37 6t37 -6v-312h338v312zM91 732q45 4 64 -29l-125 -139q-31 3 -43 24z" />
    <glyph glyph-name="Iotatonos" unicode="&#x38a;" horiz-adv-x="330" 
d="M160 714q12 6 37 6t37 -6v-708q-13 -6 -37 -6q-26 0 -37 6v708zM72 732q45 4 64 -29l-125 -139q-31 3 -43 24z" />
    <glyph glyph-name="Omicrontonos" unicode="&#x38c;" horiz-adv-x="730" 
d="M391 730q275 0 275 -370t-275 -370t-275 370t275 370zM391 668q-197 0 -197 -308t197 -308t197 308t-197 308zM111 732q45 4 64 -29l-125 -139q-31 3 -43 24z" />
    <glyph glyph-name="Upsilontonos" unicode="&#x38e;" horiz-adv-x="704" 
d="M604 714q12 6 39 6q26 0 42 -6l-259 -411v-297q-12 -6 -36 -6q-26 0 -38 6v295l-252 413q15 6 45 6q28 0 42 -6l206 -335zM19 732q45 4 64 -29l-125 -139q-31 3 -43 24z" />
    <glyph glyph-name="Omegatonos" unicode="&#x38f;" horiz-adv-x="700" 
d="M410 0q-16 34 0 67q144 121 144 313q0 288 -205 288t-205 -288q0 -192 144 -313q14 -32 0 -67h-235q-7 18 -7 32q0 19 7 33h147q-134 154 -134 315q0 178 78 267q72 83 205 83q283 0 283 -350q0 -160 -135 -315h148q7 -19 7 -32q0 -15 -7 -33h-235zM46 732q45 4 64 -29
l-125 -139q-31 3 -43 24z" />
    <glyph glyph-name="Alpha" unicode="&#x391;" horiz-adv-x="648" 
d="M283 714q16 6 41 6q26 0 41 -6l265 -708q-13 -6 -41 -6q-24 0 -36 6l-72 191h-319l-73 -191q-12 -6 -36 -6t-35 6zM320 634q-6 -30 -20 -69l-116 -306h275l-116 306q-14 40 -20 69h-3z" />
    <glyph glyph-name="Beta" unicode="&#x392;" horiz-adv-x="627" 
d="M350 720q98 0 148 -57q46 -51 46 -136q0 -107 -86 -159q109 -52 109 -170q0 -92 -53 -144q-55 -54 -160 -54h-258v720h254zM334 393q134 0 134 134q0 133 -135 133h-163v-267h164zM341 60q149 0 149 137q0 138 -149 138h-171v-275h171z" />
    <glyph glyph-name="Gamma" unicode="&#x393;" horiz-adv-x="500" 
d="M470 720q6 -12 6 -32q0 -18 -6 -33h-300v-649q-13 -6 -37 -6t-37 6v714h374z" />
    <glyph glyph-name="Delta" unicode="&#x394;" horiz-adv-x="646" 
d="M288 715q20 5 38 5t38 -5l253 -675q-6 -24 -25 -40h-538q-20 16 -25 39zM321 626q-7 -35 -31 -100l-179 -464h421l-177 465q-14 36 -31 99h-3z" />
    <glyph glyph-name="Epsilon" unicode="&#x395;" horiz-adv-x="555" 
d="M493 720q6 -13 6 -30q0 -18 -6 -32h-323v-262h273q6 -13 6 -30q0 -16 -6 -31h-273v-273h333q6 -13 6 -30t-6 -32h-407v720h397z" />
    <glyph glyph-name="Zeta" unicode="&#x396;" horiz-adv-x="585" 
d="M523 720q6 -12 6 -32t-6 -34l-396 -588h409q5 -15 5 -32q0 -21 -5 -34h-492q-5 20 -5 34q0 15 5 32l394 588h-366q-5 20 -5 35q0 16 5 31h451z" />
    <glyph glyph-name="Eta" unicode="&#x397;" 
d="M508 714q13 6 37 6t37 -6v-708q-12 -6 -37 -6q-27 0 -37 6v330h-338v-330q-13 -6 -37 -6q-27 0 -37 6v708q13 6 37 6t37 -6v-312h338v312z" />
    <glyph glyph-name="Theta" unicode="&#x398;" 
d="M339 730q275 0 275 -370t-275 -370t-275 370t275 370zM339 668q-197 0 -197 -308t197 -308t197 308t-197 308zM218 333q-3 8 -3 30q0 20 3 28h242q3 -8 3 -28q0 -22 -3 -30h-242z" />
    <glyph glyph-name="Iota" unicode="&#x399;" horiz-adv-x="266" 
d="M96 714q12 6 37 6t37 -6v-708q-13 -6 -37 -6q-26 0 -37 6v708z" />
    <glyph glyph-name="Kappa" unicode="&#x39a;" horiz-adv-x="613" 
d="M488 714q16 6 38 6q24 0 40 -6l-232 -332l261 -376q-14 -6 -43 -6q-27 0 -44 6l-235 337h-103v-337q-11 -6 -37 -6q-24 0 -37 6v708q13 6 38 6q24 0 36 -6v-309h102z" />
    <glyph glyph-name="Lambda" unicode="&#x39b;" horiz-adv-x="627" 
d="M99 6q-11 -6 -35 -6q-28 0 -40 7l249 708q16 5 41 5q24 0 40 -5l250 -709q-13 -6 -38 -6t-35 6l-189 533q-19 53 -26 93h-3q-7 -40 -25 -93z" />
    <glyph glyph-name="Mu" unicode="&#x39c;" horiz-adv-x="837" 
d="M693 720q30 0 49 -6v-708q-13 -6 -37 -6t-37 6v424q0 156 5 200h-3q-13 -42 -68 -147l-167 -296q-10 -4 -25 -4q-14 0 -23 4l-160 294q-57 106 -69 149h-3q8 -39 8 -195v-429q-11 -6 -34 -6q-22 0 -34 6v708q17 6 45 6q24 0 45 -6l174 -318q41 -79 52 -113h4q6 23 34 74
l196 357q22 6 48 6z" />
    <glyph glyph-name="Nu" unicode="&#x39d;" horiz-adv-x="696" 
d="M217 515q-36 60 -54 110h-3q5 -54 5 -152v-467q-11 -6 -35 -6q-23 0 -34 6v708q16 6 44 6q30 0 44 -6l293 -503q34 -58 57 -116h3q-6 64 -6 149v470q11 6 36 6q24 0 33 -6v-708q-13 -6 -42 -6q-30 0 -45 6z" />
    <glyph glyph-name="Xi" unicode="&#x39e;" horiz-adv-x="555" 
d="M137 336q-5 10 -5 29t5 29h297q4 -10 4 -29t-4 -29h-297zM77 1q-5 7 -5 26q0 18 5 25h417q4 -7 4 -25q0 -19 -4 -26h-417zM77 669q-5 7 -5 26q0 18 5 25h417q4 -7 4 -25q0 -19 -4 -26h-417z" />
    <glyph glyph-name="Omicron" unicode="&#x39f;" 
d="M339 730q275 0 275 -370t-275 -370t-275 370t275 370zM339 668q-197 0 -197 -308t197 -308t197 308t-197 308z" />
    <glyph glyph-name="Pi" unicode="&#x3a0;" horiz-adv-x="666" 
d="M570 6q-13 -6 -36 -6q-27 0 -38 6v649h-326v-649q-13 -6 -37 -6q-26 0 -37 6v714h474v-714z" />
    <glyph glyph-name="Rho" unicode="&#x3a1;" horiz-adv-x="602" 
d="M170 6q-12 -6 -36 -6q-27 0 -38 6v714h253q95 0 152 -59q55 -58 55 -155q0 -96 -55 -155q-57 -59 -152 -59h-179v-286zM342 356q65 0 101 40q35 39 35 109q0 72 -35 112q-36 40 -101 40h-172v-301h172z" />
    <glyph glyph-name="Sigma" unicode="&#x3a3;" horiz-adv-x="584" 
d="M263 366l-210 321v33h479q5 -11 5 -31q0 -19 -5 -31h-387l195 -293l-211 -301h409q5 -11 5 -32q0 -19 -5 -31h-502v38z" />
    <glyph glyph-name="Tau" unicode="&#x3a4;" horiz-adv-x="539" 
d="M504 720q6 -12 6 -32q0 -19 -6 -33h-195v-649q-13 -6 -37 -6q-26 0 -37 6v649h-200q-6 13 -6 33q0 19 6 32h469z" />
    <glyph glyph-name="Upsilon" unicode="&#x3a5;" horiz-adv-x="628" 
d="M528 714q12 6 39 6q26 0 42 -6l-259 -411v-297q-12 -6 -36 -6q-26 0 -38 6v295l-252 413q15 6 45 6q28 0 42 -6l206 -335z" />
    <glyph glyph-name="Phi" unicode="&#x3a6;" horiz-adv-x="797" 
d="M361 726q12 6 36 6q25 0 38 -6v-74q313 0 313 -276q0 -277 -313 -277v-93q-14 -6 -37 -6q-27 0 -37 6v93q-312 0 -312 277q0 276 312 276v74zM361 593q-114 0 -170 -43q-67 -52 -67 -174q0 -123 67 -175q56 -43 170 -43v435zM435 158q113 0 170 44q67 52 67 174t-67 174
q-56 43 -170 43v-435z" />
    <glyph glyph-name="Chi" unicode="&#x3a7;" horiz-adv-x="611" 
d="M492 714q16 6 40 6q25 0 41 -6l-220 -339l233 -368q-15 -7 -43 -7t-43 6l-198 312l-197 -313q-17 -5 -39 -5q-20 0 -43 5l232 367l-216 342q15 6 44 6q26 0 42 -6l182 -286z" />
    <glyph glyph-name="Psi" unicode="&#x3a8;" horiz-adv-x="797" 
d="M672 726q12 6 37 6t39 -6v-213q0 -277 -313 -277v-230q-14 -6 -37 -6q-27 0 -37 6v230q-312 0 -312 277v213q12 6 36 6q25 0 39 -6v-213q0 -123 67 -175q56 -43 170 -43v431q12 6 36 6q25 0 38 -6v-431q113 0 170 44q67 52 67 174v213z" />
    <glyph glyph-name="Omega" unicode="&#x3a9;" horiz-adv-x="700" 
d="M410 0q-16 34 0 67q144 121 144 313q0 288 -205 288t-205 -288q0 -192 144 -313q14 -32 0 -67h-235q-7 18 -7 32q0 19 7 33h147q-134 154 -134 315q0 178 78 267q72 83 205 83q283 0 283 -350q0 -160 -135 -315h148q7 -19 7 -32q0 -15 -7 -33h-235z" />
    <glyph glyph-name="Iotadieresis" unicode="&#x3aa;" horiz-adv-x="266" 
d="M91 766q-12 -4 -36 -4q-25 0 -37 4v66q12 4 37 4q24 0 36 -4v-66zM249 766q-12 -4 -36 -4q-25 0 -37 4v66q12 4 37 4q24 0 36 -4v-66zM96 714q12 6 37 6t37 -6v-708q-13 -6 -37 -6q-26 0 -37 6v708z" />
    <glyph glyph-name="alphatonos" unicode="&#x3ac;" horiz-adv-x="604" 
d="M385 434q-33 45 -102 45t-102 -45q-38 -52 -38 -171t38 -171q33 -45 102 -45t102 45q38 52 38 171t-38 171zM460 109q-48 -119 -189 -119q-214 0 -214 273t214 273q142 0 190 -120l21 105q11 5 37 5q24 0 35 -5l-53 -259l53 -259q-11 -6 -35 -6q-26 0 -37 6zM326 732
q45 4 64 -29l-125 -139q-31 3 -43 24z" />
    <glyph glyph-name="epsilontonos" unicode="&#x3ad;" horiz-adv-x="455" 
d="M33 146q0 98 86 134q-69 35 -69 117q0 138 179 138q82 0 137 -23q4 -34 -18 -55q-50 14 -115 14q-105 0 -105 -83q0 -79 93 -79h69q12 -31 0 -63h-69q-110 0 -110 -93q0 -94 133 -94q64 0 115 16q21 -17 21 -54q-55 -26 -139 -26q-208 0 -208 151zM259 732q45 4 64 -29
l-125 -139q-31 3 -43 24z" />
    <glyph glyph-name="etatonos" unicode="&#x3ae;" horiz-adv-x="549" 
d="M152 458q62 78 166 78q73 0 114 -41q40 -40 40 -109v-434q0 -74 -25 -115q-27 -44 -92 -65q-26 18 -24 53q69 24 69 126v421q0 104 -108 104q-92 0 -140 -91v-380q-12 -5 -36 -5q-25 0 -36 5v516q11 5 36 5q24 0 36 -5v-63zM326 732q45 4 64 -29l-125 -139q-31 3 -43 24z
" />
    <glyph glyph-name="iotatonos" unicode="&#x3af;" horiz-adv-x="238" 
d="M155 5q-12 -5 -36 -5q-26 0 -36 5v516q10 5 36 5q24 0 36 -5v-516zM187 732q45 4 64 -29l-125 -139q-31 3 -43 24z" />
    <glyph glyph-name="alpha" unicode="&#x3b1;" horiz-adv-x="597" 
d="M385 434q-33 45 -102 45t-102 -45q-38 -52 -38 -171t38 -171q33 -45 102 -45t102 45q38 52 38 171t-38 171zM460 109q-48 -119 -189 -119q-214 0 -214 273t214 273q142 0 190 -120l21 105q11 5 37 5q24 0 35 -5l-53 -259l53 -259q-11 -6 -35 -6q-26 0 -37 6z" />
    <glyph glyph-name="beta" unicode="&#x3b2;" horiz-adv-x="519" 
d="M245 690q83 0 138 -46q54 -45 54 -125q0 -125 -99 -162q120 -38 120 -180q0 -187 -216 -187q-61 6 -106 24v-258q-13 -6 -37 -6q-26 0 -37 6v767q13 162 183 167zM136 83q47 -21 101 -29q147 0 147 133q0 139 -130 139h-62q-13 30 0 60h62q110 0 110 123q0 120 -126 120
q-95 -4 -102 -76v-470z" />
    <glyph glyph-name="gamma" unicode="&#x3b3;" horiz-adv-x="510" 
d="M218 -1l-193 522q13 5 38 5q26 0 38 -5l125 -342q20 -55 30 -103h3q11 46 31 102l125 343q11 5 33 5q23 0 35 -5l-191 -530v-234q-13 -6 -37 -6q-25 0 -37 6v242z" />
    <glyph glyph-name="delta" unicode="&#x3b4;" horiz-adv-x="542" 
d="M373 434q-33 45 -102 45t-102 -45q-38 -52 -38 -171t38 -171q33 -45 102 -45t102 45q38 52 38 171t-38 171zM414 487q71 -67 71 -224q0 -273 -214 -273t-214 273q0 269 208 273l-164 121q-4 14 -5 25q-5 20 4 39h343q10 -21 0 -49h-276l246 -182q1 -2 1 -3z" />
    <glyph glyph-name="epsilon" unicode="&#x3b5;" horiz-adv-x="455" 
d="M33 146q0 98 86 134q-69 35 -69 117q0 138 179 138q82 0 137 -23q4 -34 -18 -55q-50 14 -115 14q-105 0 -105 -83q0 -79 93 -79h69q12 -31 0 -63h-69q-110 0 -110 -93q0 -94 133 -94q64 0 115 16q21 -17 21 -54q-55 -26 -139 -26q-208 0 -208 151z" />
    <glyph glyph-name="zeta" unicode="&#x3b6;" horiz-adv-x="500" 
d="M125 722h317q7 -1 7 -8v-50q-92 -66 -164 -138q-156 -186 -156 -312v-42q0 -85 119 -104q141 -6 179 -96l3 -34q0 -139 -160 -158h-33q-8 0 -8 8q12 69 27 69h14q93 0 93 84q0 52 -134 62q-76 -1 -134 69q-33 46 -33 108v31q0 217 279 446h-212q-5 0 -11 11v46q1 8 7 8z
" />
    <glyph glyph-name="eta" unicode="&#x3b7;" horiz-adv-x="549" 
d="M152 458q62 78 166 78q73 0 114 -41q40 -40 40 -109v-434q0 -74 -25 -115q-27 -44 -92 -65q-26 18 -24 53q69 24 69 126v421q0 104 -108 104q-92 0 -140 -91v-380q-12 -5 -36 -5q-25 0 -36 5v516q11 5 36 5q24 0 36 -5v-63z" />
    <glyph glyph-name="theta" unicode="&#x3b8;" horiz-adv-x="619" 
d="M474 369q-4 134 -41 195q-39 64 -125 64q-84 0 -123 -64q-38 -62 -42 -195h331zM143 311q4 -133 42 -194q39 -65 123 -65q86 0 125 65q37 61 41 194h-331zM66 340q0 350 242 350q245 0 245 -350t-245 -350q-242 0 -242 350z" />
    <glyph glyph-name="iota" unicode="&#x3b9;" horiz-adv-x="238" 
d="M155 5q-12 -5 -36 -5q-26 0 -36 5v516q10 5 36 5q24 0 36 -5v-516z" />
    <glyph glyph-name="kappa" unicode="&#x3ba;" horiz-adv-x="499" 
d="M383 521q15 5 39 5q22 0 36 -5l-162 -241l185 -274q-14 -6 -42 -6q-26 0 -40 6l-164 240h-83v-241q-13 -5 -35 -5q-24 0 -37 5v516q13 5 37 5q22 0 35 -5v-218h84z" />
    <glyph glyph-name="lambda" unicode="&#x3bb;" horiz-adv-x="523" 
d="M159 759q12 5 36 5q25 0 37 -5l265 -761q-13 -5 -36 -5q-25 0 -36 5l-118 343q-21 63 -32 107h-3q-12 -45 -36 -107l-135 -343q-13 -5 -38 -5t-38 5l200 515q13 5 24 5z" />
    <glyph glyph-name="mu" unicode="&#x3bc;" horiz-adv-x="579" 
d="M412 521q11 5 36 5t36 -5v-516q-11 -5 -36 -5t-36 5v59q-57 -74 -150 -74q-70 0 -108 42q8 -195 35 -265q-32 -28 -78 -13q-19 65 -19 232v535q12 5 36 5q26 0 36 -5v-368q0 -103 109 -103q91 0 139 91v380z" />
    <glyph glyph-name="nu" unicode="&#x3bd;" horiz-adv-x="510" 
d="M226 179q20 -55 30 -103h3q11 46 31 102l125 343q11 5 33 5q23 0 35 -5l-186 -516q-17 -5 -41 -5q-26 0 -41 5l-190 516q13 5 38 5q26 0 38 -5z" />
    <glyph glyph-name="xi" unicode="&#x3be;" horiz-adv-x="500" 
d="M376 658q-20 0 -27 1q-55 0 -83 -1q-52 -3 -79 -28t-26 -64q1 -26 20 -48q21 -24 51 -32q53 -13 144 -14h19q6 -12 6 -32q0 -18 -6 -33h-7q-115 -6 -186 -66q-64 -54 -64 -138q0 -65 34 -97q39 -38 134 -47q66 -6 98 -40q29 -31 31 -89v-7q-3 -63 -62 -105
q-55 -38 -127 -36h-1q-2 14 5 38q6 23 16 35l6 -1q36 2 68 27q29 22 30 45v2q-1 33 -14 47q-14 16 -56 19q-117 11 -173 65q-54 51 -54 144q0 114 87 188q23 19 50 34q-46 13 -78 50q-34 40 -36 89q-2 69 47 114q44 41 119 45q31 2 88 0h29h16q6 -12 6 -32q0 -18 -6 -33h-19
z" />
    <glyph glyph-name="omicron" unicode="&#x3bf;" horiz-adv-x="542" 
d="M271 536q214 0 214 -273t-214 -273t-214 273t214 273zM373 434q-33 45 -102 45t-102 -45q-38 -52 -38 -171t38 -171q33 -45 102 -45t102 45q38 52 38 171t-38 171z" />
    <glyph glyph-name="pi" unicode="&#x3c0;" horiz-adv-x="608" 
d="M569 526q5 -15 5 -30q0 -16 -5 -31h-72v-228q0 -162 32 -220q-15 -17 -50 -17q-17 0 -25 4q-30 55 -30 232v229h-245v-459q-11 -6 -36 -6q-24 0 -36 6v456q-43 -4 -69 -11q-5 15 -5 31q0 20 5 30q49 14 161 14h370z" />
    <glyph glyph-name="rho" unicode="&#x3c1;" horiz-adv-x="542" 
d="M373 434q-33 45 -102 45t-102 -45q-38 -52 -38 -171t38 -171q33 -45 102 -45t102 45q38 52 38 171t-38 171zM57 275q5 261 214 261q214 0 214 -273t-214 -273q-90 0 -142 48v-275q-12 -5 -36 -5q-26 0 -36 5v512z" />
    <glyph glyph-name="sigma1" unicode="&#x3c2;" horiz-adv-x="500" 
d="M194 -147h1q27 -5 49 -5q57 -1 90 23q25 19 30 48q1 8 1 12q1 53 -102 75h-2q-104 23 -163 83q-62 63 -65 154q-2 60 15 112q30 93 116 145q75 44 172 48q65 2 138 -20q3 -13 -3 -33q-5 -18 -16 -31q-63 19 -117 17q-80 -3 -139 -39q-65 -38 -88 -108q-13 -40 -11 -89
q2 -65 46 -109q45 -46 129 -64h2q68 -15 100 -35q56 -36 55 -107q0 -12 -2 -22q-11 -63 -52 -94q-58 -44 -131 -43q-38 1 -73 7v0q-3 15 4 39q6 24 16 36z" />
    <glyph glyph-name="sigma" unicode="&#x3c3;" horiz-adv-x="561" 
d="M373 434q-33 45 -102 45t-102 -45q-38 -52 -38 -171t38 -171q33 -45 102 -45t102 45q38 52 38 171t-38 171zM417 484q68 -67 68 -221q0 -273 -214 -273t-214 273t214 273q13 0 25 -1h291q4 -7 4 -25q0 -19 -4 -26h-170z" />
    <glyph glyph-name="tau" unicode="&#x3c4;" horiz-adv-x="445" 
d="M415 526q6 -11 6 -31t-6 -31h-156v-459q-12 -5 -36 -5q-26 0 -36 5v459h-156q-7 11 -7 31t7 31h384z" />
    <glyph glyph-name="upsilon" unicode="&#x3c5;" horiz-adv-x="542" 
d="M61 528q9 4 31 4q21 0 32 -4v-323q0 -65 38 -101q38 -35 105 -35q69 0 108 35q38 36 38 101v322q9 5 32 5q21 0 31 -5v-329q0 -95 -57 -152q-57 -55 -151 -55t-150 55q-57 57 -57 152v330z" />
    <glyph glyph-name="phi" unicode="&#x3c6;" horiz-adv-x="649" 
d="M371 58q70 10 115 60q59 66 58 172q0 78 -32 127q-30 46 -79 53q-28 5 -40 -4q-22 -16 -22 -82v-326zM163 410q-35 -54 -32 -137q5 -99 62 -158q45 -46 116 -53v324q0 99 50 134q32 22 84 15q76 -12 121 -81q42 -64 43 -161q1 -130 -75 -213q-63 -70 -160 -81v-196
q-11 -5 -32 -5q-20 0 -31 5v194q-97 8 -160 72q-75 77 -80 201q-4 104 42 176q43 80 153 86q3 -13 0 -32q-3 -18 -11 -31q-56 -7 -90 -59z" />
    <glyph glyph-name="chi" unicode="&#x3c7;" horiz-adv-x="494" 
d="M31 519q14 7 40 7q27 0 41 -7l139 -295l137 295q11 7 36 7t39 -7l-174 -370l182 -391q-13 -7 -40 -7t-41 7l-147 313l-145 -313q-12 -7 -38 -7q-24 0 -37 7l181 388z" />
    <glyph glyph-name="psi" unicode="&#x3c8;" horiz-adv-x="776" 
d="M394 69h52q68 1 106 35q38 36 38 101v322q9 5 32 5q21 0 31 -5v-329q0 -95 -57 -152q-56 -54 -148 -55h-54v-236q-13 -6 -37 -6q-26 0 -37 6v236h-52q-94 0 -150 55q-57 57 -57 152v330q9 4 31 4q21 0 32 -4v-323q0 -65 38 -101q38 -35 105 -35h53v449q12 6 37 6t37 -6
v-449z" />
    <glyph glyph-name="omega" unicode="&#x3c9;" horiz-adv-x="831" 
d="M112 517h11q38 -7 40 -19q-34 -170 -34 -237v-12q0 -169 124 -169q136 0 136 163v143q1 12 11 12h45q11 -1 11 -12v-143q0 -163 130 -163t130 169v12q0 61 -34 243h6q18 13 34 13h11q38 0 51 -256v-80q-37 -181 -164 -181h-39q-113 0 -153 112v6h-11q-43 -118 -130 -118
h-57q-113 0 -163 143l-6 38v80q12 256 51 256z" />
    <glyph glyph-name="iotadieresis" unicode="&#x3ca;" horiz-adv-x="238" 
d="M74 634q-12 -4 -37 -4q-24 0 -36 4v66q12 4 36 4q25 0 37 -4v-66zM232 634q-12 -4 -36 -4q-25 0 -37 4v66q12 4 37 4q24 0 36 -4v-66zM155 5q-12 -5 -36 -5q-26 0 -36 5v516q10 5 36 5q24 0 36 -5v-516z" />
    <glyph glyph-name="omicrontonos" unicode="&#x3cc;" horiz-adv-x="542" 
d="M271 536q214 0 214 -273t-214 -273t-214 273t214 273zM373 434q-33 45 -102 45t-102 -45q-38 -52 -38 -171t38 -171q33 -45 102 -45t102 45q38 52 38 171t-38 171zM326 732q45 4 64 -29l-125 -139q-31 3 -43 24z" />
    <glyph glyph-name="upsilontonos" unicode="&#x3cd;" horiz-adv-x="542" 
d="M61 528q9 4 31 4q21 0 32 -4v-323q0 -65 38 -101q38 -35 105 -35q69 0 108 35q38 36 38 101v322q9 5 32 5q21 0 31 -5v-329q0 -95 -57 -152q-57 -55 -151 -55t-150 55q-57 57 -57 152v330zM326 732q45 4 64 -29l-125 -139q-31 3 -43 24z" />
    <glyph glyph-name="omegatonos" unicode="&#x3ce;" horiz-adv-x="831" 
d="M112 517h11q38 -7 40 -19q-34 -170 -34 -237v-12q0 -169 124 -169q136 0 136 163v143q1 12 11 12h45q11 -1 11 -12v-143q0 -163 130 -163t130 169v12q0 61 -34 243h6q18 13 34 13h11q38 0 51 -256v-80q-37 -181 -164 -181h-39q-113 0 -153 112v6h-11q-43 -118 -130 -118
h-57q-113 0 -163 143l-6 38v80q12 256 51 256zM501 732q45 4 64 -29l-125 -139q-31 3 -43 24z" />
    <glyph glyph-name="afii10023" unicode="&#x401;" horiz-adv-x="555" 
d="M187 865q12 5 37 5q24 0 37 -5v-65q-13 -5 -37 -5q-25 0 -37 5v65zM345 865q12 5 37 5q24 0 37 -5v-65q-13 -5 -37 -5q-25 0 -37 5v65zM493 720q6 -18 6 -30q0 -18 -6 -32h-323v-263h273q6 -18 6 -29q0 -17 -6 -32h-273v-272h333q6 -18 6 -30q0 -17 -6 -32h-407v720h397z
" />
    <glyph glyph-name="afii10053" unicode="&#x404;" horiz-adv-x="582" 
d="M507 697q0 -35 -23 -55q-62 24 -147 24q-207 0 -219 -269h272q6 -11 6 -31q0 -19 -6 -31h-273q4 -155 65 -222q52 -58 155 -58q93 0 158 25q21 -20 23 -56q-68 -34 -190 -34q-289 0 -289 370t289 370q115 0 179 -33z" />
    <glyph glyph-name="afii10055" unicode="&#x406;" horiz-adv-x="266" 
d="M96 714q12 6 37 6t37 -6v-708q-13 -6 -37 -6q-26 0 -37 6v708z" />
    <glyph glyph-name="afii10056" unicode="&#x407;" horiz-adv-x="266" 
d="M91 766q-12 -4 -36 -4q-25 0 -37 4v66q12 4 37 4q24 0 36 -4v-66zM249 766q-12 -4 -36 -4q-25 0 -37 4v66q12 4 37 4q24 0 36 -4v-66zM96 714q12 6 37 6t37 -6v-708q-13 -6 -37 -6q-26 0 -37 6v708z" />
    <glyph glyph-name="afii10062" unicode="&#x40e;" horiz-adv-x="609" 
d="M512 714q12 6 37 6q22 0 37 -6l-202 -521q-45 -116 -100 -160q-42 -33 -105 -33q-34 0 -57 8q-5 15 -5 31q0 21 4 29q24 -3 44 -3q43 0 69 17q35 23 64 89h-17l-260 543q13 6 41 6q29 0 41 -6l195 -407q19 -41 27 -70h3l9 25q8 26 17 48zM432 872q26 -7 34 -35
q-49 -56 -146 -56q-98 0 -146 56q8 26 33 35q44 -36 113 -36t112 36z" />
    <glyph glyph-name="afii10017" unicode="&#x410;" horiz-adv-x="648" 
d="M283 714q16 6 41 6q26 0 41 -6l265 -708q-13 -6 -41 -6q-24 0 -36 6l-72 191h-319l-73 -191q-12 -6 -36 -6t-35 6zM320 634q-6 -30 -20 -69l-116 -306h275l-116 306q-14 40 -20 69h-3z" />
    <glyph glyph-name="afii10018" unicode="&#x411;" horiz-adv-x="615" 
d="M493 720q6 -12 6 -33q0 -19 -6 -32h-323v-242h190q94 0 151 -56q56 -56 56 -149q0 -94 -56 -151q-57 -57 -151 -57h-264v720h397zM170 59h177q69 0 107 41q36 39 36 107q0 69 -36 107q-38 40 -107 40h-177v-295z" />
    <glyph glyph-name="afii10019" unicode="&#x412;" horiz-adv-x="627" 
d="M350 720q98 0 148 -57q46 -51 46 -136q0 -107 -86 -159q109 -52 109 -170q0 -92 -53 -144q-55 -54 -160 -54h-258v720h254zM334 393q134 0 134 134q0 133 -135 133h-163v-267h164zM341 60q149 0 149 137q0 138 -149 138h-171v-275h171z" />
    <glyph glyph-name="afii10020" unicode="&#x413;" horiz-adv-x="500" 
d="M470 720q6 -12 6 -32q0 -18 -6 -33h-300v-649q-13 -6 -37 -6t-37 6v714h374z" />
    <glyph glyph-name="afii10021" unicode="&#x414;" horiz-adv-x="685" 
d="M641 62v-200q-14 -6 -33 -6t-35 6v138h-485v-138q-16 -6 -34 -6t-34 6v200h59q63 70 81 305l27 353h376v-658h78zM231 361q-16 -212 -68 -299h326v600h-236z" />
    <glyph glyph-name="afii10022" unicode="&#x415;" horiz-adv-x="555" 
d="M493 720q6 -13 6 -30q0 -18 -6 -32h-323v-262h273q6 -13 6 -30q0 -16 -6 -31h-273v-273h333q6 -13 6 -30t-6 -32h-407v720h397z" />
    <glyph glyph-name="afii10024" unicode="&#x416;" horiz-adv-x="937" 
d="M811 714q14 6 38 6q23 0 39 -6l-214 -331l245 -377q-15 -6 -44 -6q-28 0 -44 6l-219 337h-106v-337q-11 -6 -37 -6q-24 0 -37 6v337h-110l-218 -337q-15 -6 -42 -6q-29 0 -43 6l243 376l-213 332q16 6 39 6q24 0 38 -6l200 -310h106v310q13 6 37 6q25 0 37 -6v-310h105z
" />
    <glyph glyph-name="afii10025" unicode="&#x417;" horiz-adv-x="549" 
d="M238 730q112 0 172 -51q58 -49 58 -138q0 -128 -103 -170v-2q124 -41 124 -182q0 -197 -261 -197q-119 0 -185 32q-2 37 21 56q70 -22 154 -22q195 0 195 137q0 143 -186 143h-61q-14 33 0 63h61q166 0 166 136q0 131 -163 131q-88 0 -153 -25q-26 17 -24 55
q74 34 185 34z" />
    <glyph glyph-name="afii10026" unicode="&#x418;" horiz-adv-x="688" 
d="M506 714q13 6 43 6t43 -6v-708q-12 -6 -37 -6q-27 0 -37 6v415q0 142 6 197h-3q-15 -44 -73 -153l-264 -459q3 0 -12 -3t-33 -3q-31 0 -43 6v708q12 6 37 6t37 -6v-419q0 -118 -6 -199h3q14 48 78 164z" />
    <glyph glyph-name="afii10027" unicode="&#x419;" horiz-adv-x="688" 
d="M472 913q26 -8 35 -38q-55 -61 -155 -61q-99 0 -155 61q11 30 35 38q51 -37 120 -37q70 0 120 37zM506 714q13 6 43 6t43 -6v-708q-12 -6 -37 -6q-27 0 -37 6v415q0 142 6 197h-3q-15 -44 -73 -153l-264 -459q3 0 -12 -3t-33 -3q-31 0 -43 6v708q12 6 37 6t37 -6v-419
q0 -118 -6 -199h3q14 48 78 164z" />
    <glyph glyph-name="afii10028" unicode="&#x41a;" horiz-adv-x="613" 
d="M488 714q16 6 38 6q24 0 40 -6l-232 -332l261 -376q-14 -6 -43 -6q-27 0 -44 6l-235 337h-103v-337q-11 -6 -37 -6q-24 0 -37 6v708q13 6 38 6q24 0 36 -6v-309h102z" />
    <glyph glyph-name="afii10029" unicode="&#x41b;" horiz-adv-x="664" 
d="M25 1q-6 12 -6 27t6 29h28q95 5 121 340l25 323h369v-714q-13 -6 -37 -6q-16 0 -29 3q-12 3 -8 3v654h-229l-20 -265q-19 -243 -77 -338q-39 -63 -103 -63q-22 0 -40 7z" />
    <glyph glyph-name="afii10030" unicode="&#x41c;" horiz-adv-x="837" 
d="M693 720q30 0 49 -6v-708q-13 -6 -37 -6t-37 6v424q0 156 5 200h-3q-13 -42 -68 -147l-167 -296q-10 -4 -25 -4q-14 0 -23 4l-160 294q-57 106 -69 149h-3q8 -39 8 -195v-429q-11 -6 -34 -6q-22 0 -34 6v708q17 6 45 6q24 0 45 -6l174 -318q41 -79 52 -113h4q6 23 34 74
l196 357q22 6 48 6z" />
    <glyph glyph-name="afii10031" unicode="&#x41d;" 
d="M508 714q13 6 37 6t37 -6v-708q-12 -6 -37 -6q-27 0 -37 6v330h-338v-330q-13 -6 -37 -6q-27 0 -37 6v708q13 6 37 6t37 -6v-312h338v312z" />
    <glyph glyph-name="afii10032" unicode="&#x41e;" 
d="M339 730q275 0 275 -370t-275 -370t-275 370t275 370zM339 668q-197 0 -197 -308t197 -308t197 308t-197 308z" />
    <glyph glyph-name="afii10033" unicode="&#x41f;" horiz-adv-x="666" 
d="M570 6q-13 -6 -36 -6q-27 0 -38 6v649h-326v-649q-13 -6 -37 -6q-26 0 -37 6v714h474v-714z" />
    <glyph glyph-name="afii10034" unicode="&#x420;" horiz-adv-x="602" 
d="M170 6q-12 -6 -36 -6q-27 0 -38 6v714h253q95 0 152 -59q55 -58 55 -155q0 -96 -55 -155q-57 -59 -152 -59h-179v-286zM342 356q65 0 101 40q35 39 35 109q0 72 -35 112q-36 40 -101 40h-172v-301h172z" />
    <glyph glyph-name="afii10035" unicode="&#x421;" horiz-adv-x="560" 
d="M345 730q109 0 168 -33q1 -32 -23 -56q-57 25 -137 25q-102 0 -152 -64q-58 -74 -58 -243t58 -241q50 -62 152 -62q88 0 148 25q21 -20 23 -57q-62 -34 -179 -34q-280 0 -280 370t280 370z" />
    <glyph glyph-name="afii10036" unicode="&#x422;" horiz-adv-x="539" 
d="M504 720q6 -12 6 -32q0 -19 -6 -33h-195v-649q-13 -6 -37 -6q-26 0 -37 6v649h-200q-6 13 -6 33q0 19 6 32h469z" />
    <glyph glyph-name="afii10037" unicode="&#x423;" horiz-adv-x="609" 
d="M512 714q12 6 37 6q22 0 37 -6l-202 -521q-45 -116 -100 -160q-42 -33 -105 -33q-34 0 -57 8q-5 15 -5 31q0 21 4 29q24 -3 44 -3q43 0 69 17q35 23 64 89h-17l-260 543q13 6 41 6q29 0 41 -6l195 -407q19 -41 27 -70h3l9 25q8 26 17 48z" />
    <glyph glyph-name="afii10038" unicode="&#x424;" horiz-adv-x="797" 
d="M361 726q12 6 36 6q25 0 38 -6v-74q313 0 313 -276q0 -277 -313 -277v-93q-14 -6 -37 -6q-27 0 -37 6v93q-312 0 -312 277q0 276 312 276v74zM361 593q-114 0 -170 -43q-67 -52 -67 -174q0 -123 67 -175q56 -43 170 -43v435zM435 158q113 0 170 44q67 52 67 174t-67 174
q-56 43 -170 43v-435z" />
    <glyph glyph-name="afii10039" unicode="&#x425;" horiz-adv-x="611" 
d="M492 714q16 6 40 6q25 0 41 -6l-220 -339l233 -368q-15 -7 -43 -7t-43 6l-198 312l-197 -313q-17 -5 -39 -5q-20 0 -43 5l232 367l-216 342q15 6 44 6q26 0 42 -6l182 -286z" />
    <glyph glyph-name="afii10040" unicode="&#x426;" horiz-adv-x="699" 
d="M96 714q11 6 37 6q24 0 37 -6v-649h332v649q11 6 37 6q24 0 37 -6v-649h77v-203q-15 -6 -34 -6q-17 0 -34 6v138h-489v714z" />
    <glyph glyph-name="afii10041" unicode="&#x427;" horiz-adv-x="635" 
d="M465 714q13 6 37 6t37 -6v-708q-13 -6 -37 -6q-26 0 -37 6v318q-74 -34 -182 -34q-109 0 -163 49q-61 55 -61 181v194q13 6 37 6t37 -6v-194q0 -92 40 -130q37 -35 122 -35q100 0 170 35v324z" />
    <glyph glyph-name="afii10042" unicode="&#x428;" horiz-adv-x="954" 
d="M96 714q11 6 37 6q25 0 37 -6v-649h270v649q9 6 37 6q26 0 37 -6v-649h270v649q10 6 37 6q25 0 37 -6v-714h-762v714z" />
    <glyph glyph-name="afii10043" unicode="&#x429;" horiz-adv-x="981" 
d="M96 714q11 6 37 6q24 0 37 -6v-649h270v649q11 6 37 6q25 0 37 -6v-649h270v649q11 6 37 6q24 0 37 -6v-649h77v-203q-12 -6 -34 -6q-17 0 -34 6v138h-771v714z" />
    <glyph glyph-name="afii10044" unicode="&#x42a;" horiz-adv-x="704" 
d="M449 415q95 0 152 -56q57 -57 57 -150q0 -95 -57 -152t-152 -57h-263v655h-154q-6 12 -6 32t6 33h228v-305h189zM260 63h179q67 0 105 39q36 38 36 106q0 67 -36 105q-37 39 -105 39h-179v-289z" />
    <glyph glyph-name="afii10045" unicode="&#x42b;" horiz-adv-x="865" 
d="M96 714q11 6 38 6q24 0 36 -6v-299h189q95 0 152 -56q57 -57 57 -150q0 -95 -57 -152t-152 -57h-263v714zM695 714q12 6 37 6t37 -6v-708q-12 -6 -37 -6q-26 0 -37 6v708zM170 63h179q67 0 105 39q36 38 36 106q0 67 -36 105q-37 39 -105 39h-179v-289z" />
    <glyph glyph-name="afii10046" unicode="&#x42c;" horiz-adv-x="614" 
d="M359 415q95 0 152 -56q57 -57 57 -150q0 -95 -57 -152t-152 -57h-263v714q11 6 38 6q24 0 36 -6v-299h189zM349 63q67 0 105 39q36 38 36 106q0 67 -36 105q-37 39 -105 39h-179v-289h179z" />
    <glyph glyph-name="afii10047" unicode="&#x42d;" horiz-adv-x="582" 
d="M229 730q289 0 289 -370t-289 -370q-122 0 -190 34q2 36 23 56q65 -25 158 -25q103 0 155 58q61 67 65 222h-273q-6 12 -6 31q0 20 6 31h272q-12 269 -219 269q-85 0 -147 -24q-23 20 -23 55q64 33 179 33z" />
    <glyph glyph-name="afii10048" unicode="&#x42e;" horiz-adv-x="949" 
d="M96 714q12 6 36 6q25 0 38 -6v-323h165q12 339 274 339q275 0 275 -370t-275 -370q-263 0 -274 339h-165v-323q-14 -6 -37 -6q-26 0 -37 6v708zM465 601q-53 -75 -53 -241q0 -308 197 -308q97 0 144 67q53 75 53 241t-53 241q-47 67 -144 67q-96 0 -144 -67z" />
    <glyph glyph-name="afii10049" unicode="&#x42f;" horiz-adv-x="623" 
d="M527 6q-10 -6 -37 -6q-25 0 -37 6v295h-161l-161 -295q-16 -6 -43 -6t-42 6l167 303q-145 36 -145 202q0 95 56 151q56 58 151 58h252v-714zM281 657q-64 0 -100 -38q-36 -39 -36 -108t36 -108q36 -38 100 -38h172v292h-172z" />
    <glyph glyph-name="afii10065" unicode="&#x430;" horiz-adv-x="515" 
d="M257 536q103 0 144 -51q37 -46 37 -151v-329q-9 -5 -29 -5q-18 0 -29 5l-11 75q-43 -90 -168 -90q-71 0 -112 41q-43 42 -43 119q0 156 189 156q64 0 131 -8v56q0 120 -118 120q-75 0 -140 -25q-10 5 -17 22q-5 13 -5 31q76 34 171 34zM366 246q-92 8 -121 8
q-124 0 -124 -104q0 -102 103 -102q65 0 104 45q38 44 38 113v40z" />
    <glyph glyph-name="afii10066" unicode="&#x431;" horiz-adv-x="570" 
d="M145 633q55 56 237 89q44 8 61 35q35 -3 49 -26q-16 -60 -93 -73q-158 -30 -203 -64q-62 -48 -71 -182h4q43 102 175 102q209 0 209 -262t-217 -262q-110 0 -162 68q-64 84 -64 293q0 208 75 282zM195 416q-41 -49 -41 -164q0 -205 142 -205t142 205t-142 205
q-68 0 -101 -41z" />
    <glyph glyph-name="afii10067" unicode="&#x432;" horiz-adv-x="515" 
d="M296 526q67 0 106 -36t39 -101q0 -85 -65 -118q85 -31 85 -127q0 -69 -42 -106q-41 -38 -117 -38h-222v526h216zM279 293q91 0 91 90q0 88 -91 88h-127v-178h127zM288 55q98 0 98 90q0 94 -98 94h-136v-184h136z" />
    <glyph glyph-name="afii10068" unicode="&#x433;" horiz-adv-x="403" 
d="M373 526q6 -12 6 -31q0 -18 -6 -30h-221v-460q-11 -5 -36 -5t-36 5v521h293z" />
    <glyph glyph-name="afii10069" unicode="&#x434;" horiz-adv-x="574" 
d="M67 56q46 46 60 232l19 238h324v-470h63v-179q-15 -5 -31 -5t-36 5v123h-374v-123q-15 -5 -33 -5q-20 0 -33 5v179h41zM193 284q-12 -156 -47 -228h252v412h-191z" />
    <glyph glyph-name="afii10070" unicode="&#x435;" horiz-adv-x="512" 
d="M131 240q5 -100 44 -144q36 -42 111 -42q76 0 124 33q22 -18 24 -53q-55 -44 -162 -44q-216 0 -216 276q0 137 60 206q55 64 155 64q90 0 140 -52q50 -51 50 -142q0 -62 -11 -102h-319zM271 477q-132 0 -140 -183h253q4 20 4 57q0 126 -117 126z" />
    <glyph glyph-name="afii10072" unicode="&#x436;" horiz-adv-x="766" 
d="M648 521q14 5 39 5q23 0 36 -5l-148 -241l172 -274q-13 -6 -41 -6q-26 0 -41 6l-152 240h-93v-241q-13 -5 -36 -5q-24 0 -36 5v241h-94l-152 -240q-15 -6 -41 -6q-29 0 -41 6l173 274l-149 241q14 5 38 5q25 0 38 -5l134 -218h94v218q12 5 36 5q22 0 36 -5v-218h94z" />
    <glyph glyph-name="afii10073" unicode="&#x437;" horiz-adv-x="457" 
d="M204 536q183 0 183 -145q0 -93 -73 -122v-2q87 -28 87 -124q0 -153 -211 -153q-98 0 -153 29q0 32 21 51q49 -20 129 -20q140 0 140 97q0 92 -130 92h-63q-5 12 -5 29q0 16 5 27h63q116 0 116 91q0 92 -123 92q-71 0 -120 -17q-19 16 -19 51q49 24 153 24z" />
    <glyph glyph-name="afii10074" unicode="&#x438;" horiz-adv-x="577" 
d="M421 521q13 5 38 5t38 -5v-516q-13 -5 -36 -5q-22 0 -37 5v285q0 135 4 139h-3q5 -2 -67 -119l-202 -305q-14 -5 -39 -5q-24 0 -37 5v516q13 5 36 5q24 0 36 -5v-289q0 -131 -4 -135h2q17 37 45 80z" />
    <glyph glyph-name="afii10075" unicode="&#x439;" horiz-adv-x="577" 
d="M398 716q25 -9 33 -36q-47 -60 -142 -60q-94 0 -142 60q9 27 33 36q42 -37 109 -37t109 37zM421 521q13 5 38 5t38 -5v-516q-13 -5 -36 -5q-22 0 -37 5v285q0 131 4 139h-3q-18 -40 -46 -84l-223 -340q-14 -5 -39 -5q-24 0 -37 5v516q13 5 36 5q24 0 36 -5v-289
q0 -135 -4 -135h2q17 37 45 80z" />
    <glyph glyph-name="afii10076" unicode="&#x43a;" horiz-adv-x="499" 
d="M383 521q15 5 39 5q22 0 36 -5l-162 -241l185 -274q-14 -6 -42 -6q-26 0 -40 6l-164 240h-83v-241q-13 -5 -35 -5q-24 0 -37 5v516q13 5 37 5q22 0 35 -5v-218h84z" />
    <glyph glyph-name="afii10077" unicode="&#x43b;" horiz-adv-x="552" 
d="M204 290q-16 -179 -54 -245q-30 -51 -88 -51q-20 0 -37 6q-5 9 -5 25q0 15 5 27q14 -3 30 -1q64 5 83 243l18 232h316v-521q-15 -5 -35 -5q-24 0 -37 5v463h-182z" />
    <glyph glyph-name="afii10078" unicode="&#x43c;" horiz-adv-x="669" 
d="M509 521q16 5 41 5q22 0 39 -5v-516q-11 -5 -34 -5q-24 0 -36 5v305q0 59 6 119h-3q-22 -49 -38 -78l-135 -230q-7 -4 -19 -4t-19 4l-128 225q-24 44 -40 83h-3q7 -35 7 -120v-304q-13 -5 -34 -5q-20 0 -33 5v516q16 5 40 5q25 0 39 -5l140 -250q16 -30 31 -64h3
q19 42 31 64z" />
    <glyph glyph-name="afii10079" unicode="&#x43d;" horiz-adv-x="560" 
d="M152 5q-12 -5 -36 -5t-36 5v516q12 5 36 5t36 -5v-220h256v220q13 5 36 5q24 0 36 -5v-516q-12 -5 -37 -5q-23 0 -35 5v236h-256v-236z" />
    <glyph glyph-name="afii10080" unicode="&#x43e;" horiz-adv-x="542" 
d="M271 536q214 0 214 -273t-214 -273t-214 273t214 273zM373 434q-33 45 -102 45t-102 -45q-38 -52 -38 -171t38 -171q33 -45 102 -45t102 45q38 52 38 171t-38 171z" />
    <glyph glyph-name="afii10081" unicode="&#x43f;" horiz-adv-x="549" 
d="M152 5q-13 -5 -36 -5t-36 5v521h389v-521q-12 -5 -36 -5q-22 0 -36 5v460h-245v-460z" />
    <glyph glyph-name="afii10082" unicode="&#x440;" horiz-adv-x="555" 
d="M152 458q46 78 154 78q192 0 192 -273t-192 -273q-108 0 -154 78v-302q-11 -5 -36 -5t-36 5v755q11 5 36 5t36 -5v-63zM389 428q-32 47 -107 47q-60 0 -96 -45q-33 -41 -34 -101v-129q0 -60 33 -102q37 -47 97 -47q75 0 107 47q34 49 34 165t-34 165z" />
    <glyph glyph-name="afii10083" unicode="&#x441;" horiz-adv-x="446" 
d="M131 263q0 -209 157 -209q58 0 97 19q21 -17 23 -53q-46 -30 -137 -30q-215 0 -215 273t215 273q87 0 126 -24q0 -35 -22 -54q-35 17 -91 17q-153 0 -153 -212z" />
    <glyph glyph-name="afii10084" unicode="&#x442;" horiz-adv-x="445" 
d="M415 526q6 -11 6 -31t-6 -31h-156v-459q-12 -5 -36 -5q-26 0 -36 5v459h-156q-7 11 -7 31t7 31h384z" />
    <glyph glyph-name="afii10085" unicode="&#x443;" horiz-adv-x="523" 
d="M285 -97q-27 -80 -56 -112q-36 -41 -99 -41q-30 0 -51 8q-6 12 -6 28q0 23 7 30q19 -5 43 -5q34 0 53 20q22 23 43 86l30 84q-11 0 -24 5l-200 515q13 5 38 5t38 -5l135 -343q24 -62 36 -107h3q11 44 32 107l118 343q11 5 36 5q23 0 36 -5z" />
    <glyph glyph-name="afii10086" unicode="&#x444;" horiz-adv-x="777" 
d="M353 745q10 5 36 5q24 0 36 -5v-230q45 22 110 21q98 -1 142 -70q42 -66 42 -203q0 -138 -42 -203q-44 -70 -142 -70q-68 0 -110 24v-259q-12 -5 -36 -5q-26 0 -36 5v259q-43 -24 -111 -24q-97 0 -142 70q-42 66 -42 203t42 203q45 70 142 70q65 0 111 -21v230zM355 456
q1 1 -26 11q-35 11 -75 11q-66 0 -95 -52q-28 -50 -28 -163t28 -163q29 -51 95 -51q60 0 101 26v381zM619 426q-29 52 -95 52q-40 0 -75 -11q-28 -10 -27 -11v-381q42 -26 102 -26q66 0 95 51q28 50 28 163t-28 163z" />
    <glyph glyph-name="afii10087" unicode="&#x445;" horiz-adv-x="494" 
d="M31 521q14 5 40 5q27 0 41 -5l139 -200l137 200q11 5 36 5t39 -5l-174 -251l182 -265q-13 -5 -40 -5t-41 5l-147 212l-145 -212q-12 -5 -38 -5q-24 0 -37 5l181 263z" />
    <glyph glyph-name="afii10088" unicode="&#x446;" horiz-adv-x="574" 
d="M398 521q13 5 36 5t36 -5v-460h63v-184q-15 -5 -32 -5q-19 0 -34 5v123h-387v521q12 5 35 5q26 0 37 -5v-460h246v460z" />
    <glyph glyph-name="afii10089" unicode="&#x447;" horiz-adv-x="522" 
d="M442 5q-12 -5 -37 -5q-24 0 -35 5v220q-52 -28 -134 -28q-184 0 -184 164v160q12 5 36 5q23 0 36 -5v-161q0 -104 120 -104q74 0 126 31v234q11 5 35 5q25 0 37 -5v-516z" />
    <glyph glyph-name="afii10090" unicode="&#x448;" horiz-adv-x="776" 
d="M80 521q10 5 36 5q25 0 36 -5v-460h200v460q10 5 35 5t37 -5v-460h200v460q10 5 36 5q24 0 36 -5v-521h-616v521z" />
    <glyph glyph-name="afii10091" unicode="&#x449;" horiz-adv-x="800" 
d="M759 -123q-15 -5 -33 -5t-33 5v123h-613v521q10 5 36 5q25 0 36 -5v-460h200v460q10 5 35 5t37 -5v-460h200v460q10 5 36 5q24 0 36 -5v-460h63v-184z" />
    <glyph glyph-name="afii10092" unicode="&#x44a;" horiz-adv-x="573" 
d="M374 307q73 0 115 -42q41 -42 41 -112q0 -69 -41 -111q-42 -42 -115 -42h-225v464h-117q-7 12 -7 32t7 30h189v-219h153zM361 55q95 0 95 98q0 99 -95 99h-140v-197h140z" />
    <glyph glyph-name="afii10093" unicode="&#x44b;" horiz-adv-x="717" 
d="M80 521q20 5 36 5q19 0 36 -5v-214h153q73 0 115 -42q41 -42 41 -112q0 -69 -41 -111q-42 -42 -115 -42h-225v521zM565 521q20 5 36 5q19 0 36 -5v-516q-17 -5 -36 -5q-16 0 -36 5v516zM152 55h140q95 0 95 98q0 99 -95 99h-140v-197z" />
    <glyph glyph-name="afii10094" unicode="&#x44c;" horiz-adv-x="504" 
d="M305 307q73 0 115 -42q41 -42 41 -112q0 -69 -41 -111q-42 -42 -115 -42h-225v521q20 5 36 5q19 0 36 -5v-214h153zM292 55q95 0 95 98q0 99 -95 99h-140v-197h140z" />
    <glyph glyph-name="afii10095" unicode="&#x44d;" horiz-adv-x="455" 
d="M121 237q-5 15 -5 29q0 13 5 28h202q-9 184 -155 184q-58 0 -99 -16q-20 18 -20 50q45 24 133 24q217 0 217 -273q0 -133 -56 -203q-57 -70 -162 -70q-91 0 -143 30q2 33 22 50q45 -19 104 -19q153 0 160 186h-203z" />
    <glyph glyph-name="afii10096" unicode="&#x44e;" horiz-adv-x="779" 
d="M290 290q10 246 215 246q217 0 217 -273t-217 -273q-203 0 -215 238h-138v-223q-17 -5 -36 -5q-16 0 -36 5v516q20 5 36 5q19 0 36 -5v-231h138zM609 434q-34 45 -104 45q-69 0 -103 -45q-39 -52 -39 -171t39 -171q34 -45 103 -45q70 0 104 45q38 52 38 171t-38 171z" />
    <glyph glyph-name="afii10097" unicode="&#x44f;" horiz-adv-x="521" 
d="M123 5q-20 -5 -43 -5q-19 0 -39 5l122 217q-99 32 -99 146q0 72 43 114q45 44 123 44h211v-521q-20 -5 -36 -5q-18 0 -36 5v206h-133zM243 471q-105 0 -105 -103q0 -102 105 -102h126v205h-126z" />
    <glyph glyph-name="afii10071" unicode="&#x451;" horiz-adv-x="511" 
d="M153 701q12 5 37 5q24 0 37 -5v-66q-13 -4 -37 -4q-25 0 -37 4v66zM311 701q12 5 37 5q24 0 37 -5v-66q-13 -4 -37 -4q-25 0 -37 4v66zM116 472q55 64 155 64q90 0 140 -52q50 -51 50 -142q0 -62 -11 -102h-319q5 -101 44 -146q37 -43 111 -43q76 0 124 33q21 -16 24 -50
q-54 -44 -162 -44q-216 0 -216 276q0 137 60 206zM271 477q-132 0 -140 -183h253q4 20 4 57q0 126 -117 126z" />
    <glyph glyph-name="afii10101" unicode="&#x454;" horiz-adv-x="455" 
d="M113 237q7 -186 160 -186q59 0 104 19q20 -17 22 -50q-52 -30 -143 -30q-105 0 -162 70q-56 70 -56 203q0 273 217 273q88 0 133 -24q0 -32 -20 -50q-41 16 -99 16q-146 0 -155 -184h202q5 -15 5 -28q0 -14 -5 -29h-203z" />
    <glyph glyph-name="afii10103" unicode="&#x456;" horiz-adv-x="238" 
d="M160 640q-14 -5 -41 -5q-28 0 -41 5v73q13 5 41 5q27 0 41 -5v-73zM155 5q-12 -5 -36 -5q-26 0 -36 5v516q10 5 36 5q24 0 36 -5v-516z" />
    <glyph glyph-name="afii10104" unicode="&#x457;" horiz-adv-x="238" 
d="M74 634q-12 -4 -37 -4q-24 0 -36 4v66q12 4 36 4q25 0 37 -4v-66zM232 634q-12 -4 -36 -4q-25 0 -37 4v66q12 4 37 4q24 0 36 -4v-66zM155 5q-12 -5 -36 -5q-26 0 -36 5v516q10 5 36 5q24 0 36 -5v-516z" />
    <glyph glyph-name="afii10110" unicode="&#x45e;" horiz-adv-x="523" 
d="M285 -97q-27 -80 -56 -112q-36 -41 -99 -41q-30 0 -51 8q-6 12 -6 28q0 23 7 30q19 -5 43 -5q34 0 53 20q22 23 43 86l30 84q-11 0 -24 5l-200 515q13 5 38 5t38 -5l135 -343q24 -62 36 -107h3q11 44 32 107l118 343q11 5 36 5q23 0 36 -5zM377 646q26 -7 34 -35
q-49 -56 -146 -56q-98 0 -146 56q8 26 33 35q44 -36 113 -36t112 36z" />
    <glyph glyph-name="afii10147" unicode="&#x472;" 
d="M339 730q275 0 275 -370t-275 -370t-275 370t275 370zM339 668q-197 0 -197 -308t197 -308t197 308t-197 308zM145 302q-38 9 -44 50q41 75 142 75q42 0 101 -33q58 -34 98 -34q60 0 93 47q38 -10 46 -49q-39 -76 -143 -76q-42 0 -101 34q-59 33 -98 33q-61 0 -94 -47z
" />
    <glyph glyph-name="afii10195" unicode="&#x473;" horiz-adv-x="542" 
d="M411 286q-4 101 -38 148q-33 45 -102 45t-102 -45q-31 -43 -37 -130q25 10 59 10q33 0 80 -25q46 -26 77 -26q38 0 63 23zM131 237q4 -99 38 -145q33 -45 102 -45t102 45q30 41 36 124q-26 -12 -64 -12q-33 0 -80 26q-46 25 -77 25q-34 0 -57 -18zM271 536
q214 0 214 -273t-214 -273t-214 273t214 273z" />
    <glyph glyph-name="uni0492" unicode="&#x492;" horiz-adv-x="500" 
d="M470 720q6 -12 6 -32q0 -18 -6 -33h-300v-649q-13 -6 -37 -6t-37 6v714h374zM-31 338q-8 35 0 65h336q8 -31 0 -65h-336z" />
    <glyph glyph-name="uni0493" unicode="&#x493;" horiz-adv-x="403" 
d="M373 526q6 -12 6 -31q0 -18 -6 -30h-221v-460q-11 -5 -36 -5t-36 5v521h293zM-23 246q-8 30 0 56h269q8 -27 0 -56h-269z" />
    <glyph glyph-name="uni049A" unicode="&#x49a;" horiz-adv-x="613" 
d="M488 714q16 6 38 6q24 0 40 -6l-232 -332l261 -376q-14 -6 -43 -6q-27 0 -44 6l-235 337h-103v-337q-11 -6 -37 -6q-24 0 -37 6v708q13 6 38 6q24 0 36 -6v-309h102zM538 53q11 5 37 5q24 0 37 -5v-197q-13 -5 -37 -5q-26 0 -37 5v197z" />
    <glyph glyph-name="uni049B" unicode="&#x49b;" horiz-adv-x="499" 
d="M431 0q-20 1 -32 6l-164 240h-83v-241q-13 -5 -35 -5q-24 0 -37 5v516q13 5 37 5q22 0 35 -5v-218h84l147 218q15 5 39 5q22 0 36 -5l-162 -241l163 -242h8q24 0 36 -5v-152q-12 -5 -36 -5q-26 0 -36 5v119z" />
    <glyph glyph-name="uni04A2" unicode="&#x4a2;" 
d="M508 714q13 6 37 6t37 -6v-708q-12 -6 -37 -6q-27 0 -37 6v330h-338v-330q-13 -6 -37 -6q-27 0 -37 6v708q13 6 37 6t37 -6v-312h338v312zM640 -150q-12 -5 -36 -5q-26 0 -36 5v198q10 5 36 5q24 0 36 -5v-198z" />
    <glyph glyph-name="uni04A3" unicode="&#x4a3;" horiz-adv-x="560" 
d="M152 5q-12 -5 -36 -5t-36 5v516q12 5 36 5t36 -5v-220h256v220q13 5 36 5q24 0 36 -5v-516q-12 -5 -37 -5q-23 0 -35 5v236h-256v-236zM517 -124q-12 -5 -36 -5q-26 0 -36 5v169q10 5 36 5q24 0 36 -5v-169z" />
    <glyph glyph-name="uni04AE" unicode="&#x4ae;" horiz-adv-x="628" 
d="M528 714q12 6 39 6q26 0 42 -6l-259 -411v-297q-12 -6 -36 -6q-26 0 -38 6v295l-252 413q15 6 45 6q28 0 42 -6l206 -335z" />
    <glyph glyph-name="uni04AF" unicode="&#x4af;" horiz-adv-x="510" 
d="M218 -1l-193 522q13 5 38 5q26 0 38 -5l125 -342q20 -55 30 -103h3q11 46 31 102l125 343q11 5 33 5q23 0 35 -5l-191 -530v-234q-13 -6 -37 -6q-25 0 -37 6v242z" />
    <glyph glyph-name="uni04B0" unicode="&#x4b0;" horiz-adv-x="628" 
d="M528 714q12 6 39 6q26 0 42 -6l-259 -411v-297q-12 -6 -36 -6q-26 0 -38 6v295l-252 413q15 6 45 6q28 0 42 -6l206 -335zM57 275q-8 30 0 56h495q8 -27 0 -56h-495z" />
    <glyph glyph-name="uni04B1" unicode="&#x4b1;" horiz-adv-x="510" 
d="M218 -1l-193 522q13 5 38 5q26 0 38 -5l125 -342q20 -55 30 -103h3q11 46 31 102l125 343q11 5 33 5q23 0 35 -5l-191 -530v-234q-13 -6 -37 -6q-25 0 -37 6v242zM77 -39q-8 30 0 56h346q8 -27 0 -56h-346z" />
    <glyph glyph-name="uni04B2" unicode="&#x4b2;" horiz-adv-x="611" 
d="M492 714q16 6 40 6q25 0 41 -6l-220 -339l233 -368q-15 -7 -43 -7t-43 6l-198 312l-197 -313q-17 -5 -39 -5q-20 0 -43 5l232 367l-216 342q15 6 44 6q26 0 42 -6l182 -286zM624 -150q-12 -5 -36 -5q-26 0 -36 5v198q10 5 36 5q24 0 36 -5v-198z" />
    <glyph glyph-name="uni04B3" unicode="&#x4b3;" horiz-adv-x="494" 
d="M31 521q14 5 40 5q27 0 41 -5l139 -200l137 200q11 5 36 5t39 -5l-174 -251l182 -265q-13 -5 -40 -5t-41 5l-147 212l-145 -212q-12 -5 -38 -5q-24 0 -37 5l181 263zM495 -124q-12 -5 -36 -5q-26 0 -36 5v169q10 5 36 5q24 0 36 -5v-169z" />
    <glyph glyph-name="uni04B6" unicode="&#x4b6;" horiz-adv-x="635" 
d="M465 714q13 6 37 6t37 -6v-708q-13 -6 -37 -6q-26 0 -37 6v318q-74 -34 -182 -34q-109 0 -163 49q-61 55 -61 181v194q13 6 37 6t37 -6v-194q0 -92 40 -130q37 -35 122 -35q100 0 170 35v324zM585 -150q-12 -5 -36 -5q-26 0 -36 5v198q10 5 36 5q24 0 36 -5v-198z" />
    <glyph glyph-name="uni04B7" unicode="&#x4b7;" horiz-adv-x="522" 
d="M442 5q-12 -5 -37 -5q-24 0 -35 5v220q-52 -28 -134 -28q-184 0 -184 164v160q12 5 36 5q23 0 36 -5v-161q0 -104 120 -104q74 0 126 31v234q11 5 35 5q25 0 37 -5v-516zM493 -124q-12 -5 -36 -5q-26 0 -36 5v169q10 5 36 5q24 0 36 -5v-169z" />
    <glyph glyph-name="uni04BA" unicode="&#x4ba;" horiz-adv-x="635" 
d="M133 6q-13 -6 -37 -6t-37 6v708q13 6 37 6q26 0 37 -6v-318q74 34 182 34q109 0 163 -49q61 -55 61 -181v-194q-13 -6 -37 -6t-37 6v194q0 92 -40 130q-37 35 -122 35q-100 0 -170 -35v-324z" />
    <glyph glyph-name="uni04BB" unicode="&#x4bb;" horiz-adv-x="549" 
d="M472 5q-13 -5 -36 -5q-25 0 -36 5v367q0 104 -108 104q-92 0 -140 -91v-380q-12 -5 -36 -5q-25 0 -36 5v740q11 5 36 5q24 0 36 -5v-287q62 78 166 78q73 0 114 -41q40 -40 40 -109v-381z" />
    <glyph glyph-name="uni04D8" unicode="&#x4d8;" horiz-adv-x="628" 
d="M113 335q8 -283 197 -283t197 283h-394zM35 351q-1 7 -1 15q0 20 6 31h467q-12 269 -219 269q-85 0 -147 -24q-23 20 -23 55q64 33 179 33q289 0 289 -370v-25h-1q-9 -345 -275 -345q-272 0 -275 361z" />
    <glyph glyph-name="afii10846" unicode="&#x4d9;" horiz-adv-x="512" 
d="M384 286q-5 100 -44 144q-36 42 -111 42q-76 0 -122 -33q-24 19 -26 53q55 44 162 44q216 0 216 -276q0 -137 -60 -206q-55 -64 -155 -64q-90 0 -139 51t-49 142q0 62 11 103h317zM244 49q132 0 140 183h-254q-3 -21 -3 -57q0 -126 117 -126z" />
    <glyph glyph-name="uni04E2" unicode="&#x4e2;" horiz-adv-x="688" 
d="M506 714q13 6 43 6t43 -6v-708q-12 -6 -37 -6q-27 0 -37 6v415q0 142 6 197h-3q-15 -44 -73 -153l-264 -459q3 0 -12 -3t-33 -3q-31 0 -43 6v708q12 6 37 6t37 -6v-419q0 -118 -6 -199h3q14 48 78 164zM493 837q11 -23 0 -49h-283q-10 25 0 49h283z" />
    <glyph glyph-name="uni04E3" unicode="&#x4e3;" horiz-adv-x="577" 
d="M421 521q13 5 38 5t38 -5v-516q-13 -5 -36 -5q-22 0 -37 5v285q0 135 4 139h-3q5 -2 -67 -119l-202 -305q-14 -5 -39 -5q-24 0 -37 5v516q13 5 36 5q24 0 36 -5v-289q0 -131 -4 -135h2q17 37 45 80zM428 694q9 -22 0 -47h-269q-8 26 0 47h269z" />
    <glyph glyph-name="uni04E8" unicode="&#x4e8;" 
d="M536 388q-9 280 -197 280t-197 -280h394zM142 331q10 -279 197 -279t197 279h-394zM339 730q275 0 275 -370t-275 -370t-275 370t275 370z" />
    <glyph glyph-name="uni04E9" unicode="&#x4e9;" horiz-adv-x="542" 
d="M411 287q-4 100 -38 147q-33 45 -102 45t-102 -45q-34 -47 -38 -147h280zM132 226q5 -90 37 -134q33 -45 102 -45t102 45q32 44 37 134h-278zM271 536q214 0 214 -273t-214 -273t-214 273t214 273z" />
    <glyph glyph-name="uni04EE" unicode="&#x4ee;" horiz-adv-x="609" 
d="M512 714q12 6 37 6q22 0 37 -6l-202 -521q-45 -116 -100 -160q-42 -33 -105 -33q-34 0 -57 8q-5 15 -5 31q0 21 4 29q24 -3 44 -3q43 0 69 17q35 23 64 89h-17l-260 543q13 6 41 6q29 0 41 -6l195 -407q19 -41 27 -70h3l9 25q8 26 17 48zM462 837q11 -23 0 -49h-283
q-10 25 0 49h283z" />
    <glyph glyph-name="uni04EF" unicode="&#x4ef;" horiz-adv-x="523" 
d="M285 -97q-27 -80 -56 -112q-36 -41 -99 -41q-30 0 -51 8q-6 12 -6 28q0 23 7 30q19 -5 43 -5q34 0 53 20q22 23 43 86l30 84q-11 0 -24 5l-200 515q13 5 38 5t38 -5l135 -343q24 -62 36 -107h3q11 44 32 107l118 343q11 5 36 5q23 0 36 -5zM403 694q9 -22 0 -47h-269
q-8 26 0 47h269z" />
    <glyph glyph-name="Wgrave" unicode="&#x1e80;" horiz-adv-x="957" 
d="M364 893q21 33 64 29l99 -139q-12 -21 -43 -24zM505 512q-20 79 -22 121h-3q-3 -42 -22 -121l-140 -506q-18 -6 -44 -6q-25 0 -41 6l-205 708q12 6 37 6q26 0 38 -6l149 -511q17 -61 26 -116h3q6 54 22 115l143 512q11 6 37 6q27 0 38 -6l142 -511q16 -64 21 -116h3
q6 50 25 115l145 512q12 6 34 6t35 -6l-200 -708q-15 -6 -40 -6q-24 0 -42 6z" />
    <glyph glyph-name="wgrave" unicode="&#x1e81;" horiz-adv-x="794" 
d="M269 746q21 33 64 29l104 -144q-13 -21 -43 -24zM430 312q-28 93 -30 133h-3q-5 -49 -33 -133l-97 -307q-22 -5 -38 -5q-15 0 -40 5l-160 516q12 5 36 5q25 0 33 -5l110 -350q12 -42 20 -91h3q7 45 22 91l110 350q16 5 38 5q24 0 36 -5l108 -348q11 -36 20 -93h3
q5 34 23 92l109 349q12 5 33 5q23 0 32 -5l-160 -516q-27 -5 -39 -5q-11 0 -39 5z" />
    <glyph glyph-name="Wacute" unicode="&#x1e82;" horiz-adv-x="957" 
d="M450 760q-31 5 -43 24l100 140q45 4 64 -29zM505 512q-20 79 -22 121h-3q-3 -42 -22 -121l-140 -506q-18 -6 -44 -6q-25 0 -41 6l-205 708q12 6 37 6q26 0 38 -6l149 -511q17 -61 26 -116h3q6 54 22 115l143 512q11 6 37 6q27 0 38 -6l142 -511q16 -64 21 -116h3
q6 50 25 115l145 512q12 6 34 6t35 -6l-200 -708q-15 -6 -40 -6q-24 0 -42 6z" />
    <glyph glyph-name="wacute" unicode="&#x1e83;" horiz-adv-x="794" 
d="M357 607q-31 3 -43 24l104 144q45 4 64 -29zM430 312q-28 93 -30 133h-3q-5 -49 -33 -133l-97 -307q-22 -5 -38 -5q-15 0 -40 5l-160 516q12 5 36 5q25 0 33 -5l110 -350q12 -42 20 -91h3q7 45 22 91l110 350q16 5 38 5q24 0 36 -5l108 -348q11 -36 20 -93h3q5 34 23 92
l109 349q12 5 33 5q23 0 32 -5l-160 -516q-27 -5 -39 -5q-11 0 -39 5z" />
    <glyph glyph-name="Wdieresis" unicode="&#x1e84;" horiz-adv-x="957" 
d="M440 786q-12 -4 -36 -4q-25 0 -37 4v66q12 4 37 4q24 0 36 -4v-66zM598 786q-12 -4 -36 -4q-25 0 -37 4v66q12 4 37 4q24 0 36 -4v-66zM505 512q-20 79 -22 121h-3q-3 -42 -22 -121l-140 -506q-18 -6 -44 -6q-25 0 -41 6l-205 708q12 6 37 6q26 0 38 -6l149 -511
q17 -61 26 -116h3q6 54 22 115l143 512q11 6 37 6q27 0 38 -6l142 -511q16 -64 21 -116h3q6 50 25 115l145 512q12 6 34 6t35 -6l-200 -708q-15 -6 -40 -6q-24 0 -42 6z" />
    <glyph glyph-name="wdieresis" unicode="&#x1e85;" horiz-adv-x="794" 
d="M359 635q-13 -4 -37 -4q-25 0 -37 4v66q12 5 37 5q24 0 37 -5v-66zM517 635q-13 -4 -37 -4q-25 0 -37 4v66q12 5 37 5q24 0 37 -5v-66zM430 312q-28 93 -30 133h-3q-5 -49 -33 -133l-97 -307q-22 -5 -38 -5q-15 0 -40 5l-160 516q12 5 36 5q25 0 33 -5l110 -350
q12 -42 20 -91h3q7 45 22 91l110 350q16 5 38 5q24 0 36 -5l108 -348q11 -36 20 -93h3q5 34 23 92l109 349q12 5 33 5q23 0 32 -5l-160 -516q-27 -5 -39 -5q-11 0 -39 5z" />
    <glyph glyph-name="uni1EA0" unicode="&#x1ea0;" horiz-adv-x="648" 
d="M283 714q16 6 41 6q26 0 41 -6l265 -708q-13 -6 -41 -6q-24 0 -36 6l-72 191h-319l-73 -191q-12 -6 -36 -6t-35 6zM320 634q-6 -30 -20 -69l-116 -306h275l-116 306q-14 40 -20 69h-3zM362 -136q-14 -5 -38 -5q-27 0 -39 5v68q12 4 39 4q24 0 38 -4v-68z" />
    <glyph glyph-name="uni1EA1" unicode="&#x1ea1;" horiz-adv-x="515" 
d="M257 536q103 0 144 -51q37 -46 37 -151v-329q-9 -5 -29 -5q-18 0 -29 5l-11 75q-43 -90 -168 -90q-71 0 -112 41q-43 42 -43 119q0 156 189 156q64 0 131 -8v56q0 120 -118 120q-75 0 -140 -25q-10 5 -17 22q-5 13 -5 31q76 34 171 34zM366 246q-92 8 -121 8
q-124 0 -124 -104q0 -102 103 -102q65 0 104 45q38 44 38 113v40zM277 -136q-14 -5 -38 -5q-27 0 -39 5v68q12 4 39 4q24 0 38 -4v-68z" />
    <glyph glyph-name="uni1EA2" unicode="&#x1ea2;" horiz-adv-x="648" 
d="M283 714q16 6 41 6q26 0 41 -6l265 -708q-13 -6 -41 -6q-24 0 -36 6l-72 191h-319l-73 -191q-12 -6 -36 -6t-35 6zM320 634q-6 -30 -20 -69l-116 -306h275l-116 306q-14 40 -20 69h-3zM304 750l-18 98l10 12h35q62 0 62 52q0 58 -69 58q-38 0 -70 -16q-17 12 -17 35
q35 23 90 23q117 0 117 -99q0 -92 -108 -92l11 -62z" />
    <glyph glyph-name="uni1EA3" unicode="&#x1ea3;" horiz-adv-x="515" 
d="M257 536q103 0 144 -51q37 -46 37 -151v-329q-9 -5 -29 -5q-18 0 -29 5l-11 75q-43 -90 -168 -90q-71 0 -112 41q-43 42 -43 119q0 156 189 156q64 0 131 -8v54q0 122 -118 122q-75 0 -140 -25q-10 5 -17 22q-5 13 -5 31q76 34 171 34zM366 246q-92 8 -121 8
q-124 0 -124 -104q0 -102 103 -102q65 0 104 45q38 44 38 113v40zM226 564l-18 98l10 12h35q62 0 62 52q0 58 -69 58q-38 0 -70 -16q-17 12 -17 35q35 23 90 23q117 0 117 -99q0 -92 -108 -92l11 -62z" />
    <glyph glyph-name="uni1EA4" unicode="&#x1ea4;" horiz-adv-x="647" 
d="M466 798q-12 -28 -34 -35l-112 79l-110 -79q-25 9 -34 35l132 108h26zM282 714q16 6 41 6q26 0 41 -6l265 -708q-13 -6 -41 -6q-24 0 -36 6l-72 191h-319l-73 -191q-12 -6 -36 -6t-34 6zM319 634q-6 -30 -20 -69l-116 -306h275l-116 306q-14 40 -20 69h-3zM358 1083
q45 4 64 -29l-125 -139q-31 3 -43 24z" />
    <glyph glyph-name="uni1EA5" unicode="&#x1ea5;" horiz-adv-x="515" 
d="M400 636q-13 -28 -34 -33l-108 76l-109 -77q-22 8 -33 34l129 106h25zM257 536q103 0 144 -51q37 -46 37 -151v-329q-9 -5 -29 -5q-18 0 -29 5l-11 75q-43 -90 -168 -90q-71 0 -112 41q-43 42 -43 119q0 156 189 156q64 0 131 -8v58q0 118 -118 118q-75 0 -140 -25
q-10 5 -17 22q-5 13 -5 31q76 34 171 34zM366 246q-92 8 -121 8q-124 0 -124 -104q0 -102 103 -102q65 0 104 45q38 44 38 113v40zM277 911q45 4 64 -29l-125 -139q-31 3 -43 24z" />
    <glyph glyph-name="uni1EA6" unicode="&#x1ea6;" horiz-adv-x="647" 
d="M466 798q-12 -28 -34 -35l-112 79l-110 -79q-25 9 -34 35l132 108h26zM282 714q16 6 41 6q26 0 41 -6l265 -708q-13 -6 -41 -6q-24 0 -36 6l-72 191h-319l-73 -191q-12 -6 -36 -6t-34 6zM319 634q-6 -30 -20 -69l-116 -306h275l-116 306q-14 40 -20 69h-3zM381 945
q-13 -21 -43 -24l-125 139q21 33 64 29z" />
    <glyph glyph-name="uni1EA7" unicode="&#x1ea7;" horiz-adv-x="515" 
d="M400 636q-13 -28 -34 -33l-108 76l-109 -77q-22 8 -33 34l129 106h25zM257 536q103 0 144 -51q37 -46 37 -151v-329q-9 -5 -29 -5q-18 0 -29 5l-11 75q-43 -90 -168 -90q-71 0 -112 41q-43 42 -43 119q0 156 189 156q64 0 131 -8v58q0 118 -118 118q-75 0 -140 -25
q-10 5 -17 22q-5 13 -5 31q76 34 171 34zM366 246q-92 8 -121 8q-124 0 -124 -104q0 -102 103 -102q65 0 104 45q38 44 38 113v40zM334 773q-13 -21 -43 -24l-125 139q21 33 64 29z" />
    <glyph glyph-name="uni1EA8" unicode="&#x1ea8;" horiz-adv-x="647" 
d="M466 798q-12 -28 -34 -35l-112 79l-110 -79q-25 9 -34 35l132 108h26zM282 714q16 6 41 6q26 0 41 -6l265 -708q-13 -6 -41 -6q-24 0 -36 6l-72 191h-319l-73 -191q-12 -6 -36 -6t-34 6zM319 634q-6 -30 -20 -69l-116 -306h275l-116 306q-14 40 -20 69h-3zM417 853
l-15 84l8 10h30q53 0 53 44q0 49 -59 49q-32 0 -60 -13q-14 10 -14 29q30 20 77 20q99 0 99 -84q0 -78 -92 -78l10 -53z" />
    <glyph glyph-name="uni1EA9" unicode="&#x1ea9;" horiz-adv-x="515" 
d="M400 636q-13 -28 -34 -33l-108 76l-109 -77q-22 8 -33 34l129 106h25zM257 536q103 0 144 -51q37 -46 37 -151v-329q-9 -5 -29 -5q-18 0 -29 5l-11 75q-43 -90 -168 -90q-71 0 -112 41q-43 42 -43 119q0 156 189 156q64 0 131 -8v58q0 118 -118 118q-75 0 -140 -25
q-10 5 -17 22q-5 13 -5 31q76 34 171 34zM366 246q-92 8 -121 8q-124 0 -124 -104q0 -102 103 -102q65 0 104 45q38 44 38 113v40zM371 683l-15 84l8 10h30q53 0 53 44q0 49 -59 49q-32 0 -60 -13q-14 10 -14 29q30 20 77 20q99 0 99 -84q0 -78 -92 -78l10 -53z" />
    <glyph glyph-name="uni1EAA" unicode="&#x1eaa;" horiz-adv-x="647" 
d="M466 798q-12 -28 -34 -35l-112 79l-110 -79q-25 9 -34 35l132 108h26zM282 714q16 6 41 6q26 0 41 -6l265 -708q-13 -6 -41 -6q-24 0 -36 6l-72 191h-319l-73 -191q-12 -6 -36 -6t-34 6zM319 634q-6 -30 -20 -69l-116 -306h275l-116 306q-14 40 -20 69h-3zM267 1010
q27 1 57 -15q29 -17 46 -16q25 0 36 25q24 -4 35 -23q-23 -45 -73 -46q-26 -1 -55 15q-30 16 -46 16q-27 -1 -37 -26q-27 3 -33 22q20 46 70 48z" />
    <glyph glyph-name="uni1EAB" unicode="&#x1eab;" horiz-adv-x="515" 
d="M400 636q-13 -28 -34 -33l-108 76l-109 -77q-22 8 -33 34l129 106h25zM257 536q103 0 144 -51q37 -46 37 -151v-329q-9 -5 -29 -5q-18 0 -29 5l-11 75q-43 -90 -168 -90q-71 0 -112 41q-43 42 -43 119q0 156 189 156q64 0 131 -8v58q0 118 -118 118q-75 0 -140 -25
q-10 5 -17 22q-5 13 -5 31q76 34 171 34zM366 246q-92 8 -121 8q-124 0 -124 -104q0 -102 103 -102q65 0 104 45q38 44 38 113v40zM211 835q27 1 57 -15q29 -17 46 -16q25 0 36 25q24 -4 35 -23q-23 -45 -73 -46q-26 -1 -55 15q-30 16 -46 16q-27 -1 -37 -26q-27 3 -33 22
q20 46 70 48z" />
    <glyph glyph-name="uni1EAC" unicode="&#x1eac;" horiz-adv-x="647" 
d="M466 798q-12 -28 -34 -35l-112 79l-110 -79q-25 9 -34 35l132 108h26zM282 714q16 6 41 6q26 0 41 -6l265 -708q-13 -6 -41 -6q-24 0 -36 6l-72 191h-319l-73 -191q-12 -6 -36 -6t-34 6zM319 634q-6 -30 -20 -69l-116 -306h275l-116 306q-14 40 -20 69h-3zM362 -136
q-14 -5 -38 -5q-27 0 -39 5v68q12 4 39 4q24 0 38 -4v-68z" />
    <glyph glyph-name="uni1EAD" unicode="&#x1ead;" horiz-adv-x="515" 
d="M400 636q-13 -28 -34 -33l-108 76l-109 -77q-22 8 -33 34l129 106h25zM257 536q103 0 144 -51q37 -46 37 -151v-329q-9 -5 -29 -5q-18 0 -29 5l-11 75q-43 -90 -168 -90q-71 0 -112 41q-43 42 -43 119q0 156 189 156q64 0 131 -8v58q0 118 -118 118q-75 0 -140 -25
q-10 5 -17 22q-5 13 -5 31q76 34 171 34zM366 246q-92 8 -121 8q-124 0 -124 -104q0 -102 103 -102q65 0 104 45q38 44 38 113v40zM292 -136q-14 -5 -38 -5q-27 0 -39 5v68q12 4 39 4q24 0 38 -4v-68z" />
    <glyph glyph-name="uni1EAE" unicode="&#x1eae;" horiz-adv-x="648" 
d="M432 872q26 -7 34 -35q-49 -56 -146 -56q-98 0 -146 56q8 26 33 35q44 -36 113 -36t112 36zM283 714q16 6 41 6q26 0 41 -6l265 -708q-13 -6 -41 -6q-24 0 -36 6l-72 191h-319l-73 -191q-12 -6 -36 -6t-35 6zM320 634q-6 -30 -20 -69l-116 -306h275l-116 306
q-14 40 -20 69h-3zM377 1048q45 4 64 -29l-125 -139q-31 3 -43 24z" />
    <glyph glyph-name="uni1EAF" unicode="&#x1eaf;" horiz-adv-x="515" 
d="M365 716q25 -9 33 -36q-47 -60 -142 -60q-94 0 -142 60q9 27 33 36q42 -37 109 -37t109 37zM257 536q103 0 144 -51q37 -46 37 -151v-329q-9 -5 -29 -5q-18 0 -29 5l-11 75q-43 -90 -168 -90q-71 0 -112 41q-43 42 -43 119q0 156 189 156q64 0 131 -8v59q0 117 -118 117
q-75 0 -140 -25q-10 5 -17 22q-5 13 -5 31q76 34 171 34zM366 246q-92 8 -121 8q-124 0 -124 -104q0 -102 103 -102q65 0 104 45q38 44 38 113v40zM296 911q45 4 64 -29l-125 -139q-31 3 -43 24z" />
    <glyph glyph-name="uni1EB0" unicode="&#x1eb0;" horiz-adv-x="648" 
d="M432 872q26 -7 34 -35q-49 -56 -146 -56q-98 0 -146 56q8 26 33 35q44 -36 113 -36t112 36zM283 714q16 6 41 6q26 0 41 -6l265 -708q-13 -6 -41 -6q-24 0 -36 6l-72 191h-319l-73 -191q-12 -6 -36 -6t-35 6zM320 634q-6 -30 -20 -69l-116 -306h275l-116 306
q-14 40 -20 69h-3zM381 920q-13 -21 -43 -24l-125 139q21 33 64 29z" />
    <glyph glyph-name="uni1EB1" unicode="&#x1eb1;" horiz-adv-x="515" 
d="M365 716q25 -9 33 -36q-47 -60 -142 -60q-94 0 -142 60q9 27 33 36q42 -37 109 -37t109 37zM257 536q103 0 144 -51q37 -46 37 -151v-329q-9 -5 -29 -5q-18 0 -29 5l-11 75q-43 -90 -168 -90q-71 0 -112 41q-43 42 -43 119q0 156 189 156q64 0 131 -8v59q0 117 -118 117
q-75 0 -140 -25q-10 5 -17 22q-5 13 -5 31q76 34 171 34zM366 246q-92 8 -121 8q-124 0 -124 -104q0 -102 103 -102q65 0 104 45q38 44 38 113v40zM302 773q-13 -21 -43 -24l-125 139q21 33 64 29z" />
    <glyph glyph-name="uni1EB2" unicode="&#x1eb2;" horiz-adv-x="648" 
d="M432 872q26 -7 34 -35q-49 -56 -146 -56q-98 0 -146 56q8 26 33 35q44 -36 113 -36t112 36zM283 714q16 6 41 6q26 0 41 -6l265 -708q-13 -6 -41 -6q-24 0 -36 6l-72 191h-319l-73 -191q-12 -6 -36 -6t-35 6zM320 634q-6 -30 -20 -69l-116 -306h275l-116 306
q-14 40 -20 69h-3zM304 853l-15 84l8 10h30q53 0 53 44q0 49 -59 49q-32 0 -60 -13q-14 10 -14 29q30 20 77 20q99 0 99 -84q0 -78 -92 -78l10 -53z" />
    <glyph glyph-name="uni1EB3" unicode="&#x1eb3;" horiz-adv-x="515" 
d="M365 716q25 -9 33 -36q-47 -60 -142 -60q-94 0 -142 60q9 27 33 36q42 -37 109 -37t109 37zM257 536q103 0 144 -51q37 -46 37 -151v-329q-9 -5 -29 -5q-18 0 -29 5l-11 75q-43 -90 -168 -90q-71 0 -112 41q-43 42 -43 119q0 156 189 156q64 0 131 -8v59q0 117 -118 117
q-75 0 -140 -25q-10 5 -17 22q-5 13 -5 31q76 34 171 34zM366 246q-92 8 -121 8q-124 0 -124 -104q0 -102 103 -102q65 0 104 45q38 44 38 113v40zM234 719l-15 84l8 10h30q53 0 53 44q0 49 -59 49q-32 0 -60 -13q-14 10 -14 29q30 20 77 20q99 0 99 -84q0 -78 -92 -78
l10 -53z" />
    <glyph glyph-name="uni1EB4" unicode="&#x1eb4;" horiz-adv-x="648" 
d="M432 872q26 -7 34 -35q-49 -56 -146 -56q-98 0 -146 56q8 26 33 35q44 -36 113 -36t112 36zM283 714q16 6 41 6q26 0 41 -6l265 -708q-13 -6 -41 -6q-24 0 -36 6l-72 191h-319l-73 -191q-12 -6 -36 -6t-35 6zM320 634q-6 -30 -20 -69l-116 -306h275l-116 306
q-14 40 -20 69h-3zM266 967q29 1 62 -17t51 -17q28 0 40 27q27 -4 39 -25q-25 -50 -81 -51q-29 -1 -61 17q-33 17 -50 17q-30 -1 -41 -28q-30 3 -37 24q22 51 78 53z" />
    <glyph glyph-name="uni1EB5" unicode="&#x1eb5;" horiz-adv-x="515" 
d="M365 716q25 -9 33 -36q-47 -60 -142 -60q-94 0 -142 60q9 27 33 36q42 -37 109 -37t109 37zM257 536q103 0 144 -51q37 -46 37 -151v-329q-9 -5 -29 -5q-18 0 -29 5l-11 75q-43 -90 -168 -90q-71 0 -112 41q-43 42 -43 119q0 156 189 156q64 0 131 -8v59q0 117 -118 117
q-75 0 -140 -25q-10 5 -17 22q-5 13 -5 31q76 34 171 34zM366 246q-92 8 -121 8q-124 0 -124 -104q0 -102 103 -102q65 0 104 45q38 44 38 113v40zM211 835q27 1 57 -15q29 -17 46 -16q25 0 36 25q24 -4 35 -23q-23 -45 -73 -46q-26 -1 -55 15q-30 16 -46 16q-27 -1 -37 -26
q-27 3 -33 22q20 46 70 48z" />
    <glyph glyph-name="uni1EB6" unicode="&#x1eb6;" horiz-adv-x="648" 
d="M432 872q26 -7 34 -35q-49 -56 -146 -56q-98 0 -146 56q8 26 33 35q44 -36 113 -36t112 36zM283 714q16 6 41 6q26 0 41 -6l265 -708q-13 -6 -41 -6q-24 0 -36 6l-72 191h-319l-73 -191q-12 -6 -36 -6t-35 6zM320 634q-6 -30 -20 -69l-116 -306h275l-116 306
q-14 40 -20 69h-3zM362 -136q-14 -5 -38 -5q-27 0 -39 5v68q12 4 39 4q24 0 38 -4v-68z" />
    <glyph glyph-name="uni1EB7" unicode="&#x1eb7;" horiz-adv-x="515" 
d="M365 716q25 -9 33 -36q-47 -60 -142 -60q-94 0 -142 60q9 27 33 36q42 -37 109 -37t109 37zM257 536q103 0 144 -51q37 -46 37 -151v-329q-9 -5 -29 -5q-18 0 -29 5l-11 75q-43 -90 -168 -90q-71 0 -112 41q-43 42 -43 119q0 156 189 156q64 0 131 -8v59q0 117 -118 117
q-75 0 -140 -25q-10 5 -17 22q-5 13 -5 31q76 34 171 34zM366 246q-92 8 -121 8q-124 0 -124 -104q0 -102 103 -102q65 0 104 45q38 44 38 113v40zM286 -136q-14 -5 -38 -5q-27 0 -39 5v68q12 4 39 4q24 0 38 -4v-68z" />
    <glyph glyph-name="uni1EB8" unicode="&#x1eb8;" horiz-adv-x="555" 
d="M493 720q6 -13 6 -30q0 -18 -6 -32h-323v-263h273q6 -13 6 -29q0 -17 -6 -32h-273v-272h333q6 -13 6 -30t-6 -32h-407v720h397zM346 -136q-14 -5 -38 -5q-27 0 -39 5v68q12 4 39 4q24 0 38 -4v-68z" />
    <glyph glyph-name="uni1EB9" unicode="&#x1eb9;" horiz-adv-x="512" 
d="M131 240q5 -100 44 -144q36 -42 111 -42q76 0 122 33q24 -19 26 -53q-55 -44 -162 -44q-216 0 -216 276q0 137 60 206q55 64 155 64q90 0 139 -51t49 -142q0 -62 -11 -103h-317zM271 477q-132 0 -140 -183h254q3 21 3 57q0 126 -117 126zM300 -136q-14 -5 -38 -5
q-27 0 -39 5v68q12 4 39 4q24 0 38 -4v-68z" />
    <glyph glyph-name="uni1EBA" unicode="&#x1eba;" horiz-adv-x="555" 
d="M493 720q6 -13 6 -30q0 -18 -6 -32h-323v-263h273q6 -13 6 -29q0 -17 -6 -32h-273v-272h333q6 -13 6 -30t-6 -32h-407v720h397zM273 742l-18 98l10 12h35q62 0 62 52q0 58 -69 58q-38 0 -70 -16q-17 12 -17 35q35 23 90 23q117 0 117 -99q0 -92 -108 -92l11 -62z" />
    <glyph glyph-name="uni1EBB" unicode="&#x1ebb;" horiz-adv-x="512" 
d="M131 240q5 -100 44 -144q36 -42 111 -42q76 0 122 33q24 -19 26 -53q-55 -44 -162 -44q-216 0 -216 276q0 137 60 206q55 64 155 64q90 0 139 -51t49 -142q0 -62 -11 -103h-317zM271 477q-132 0 -140 -183h254q3 21 3 57q0 126 -117 126zM253 566l-18 98l10 12h35
q62 0 62 52q0 58 -69 58q-38 0 -70 -16q-17 12 -17 35q35 23 90 23q117 0 117 -99q0 -92 -108 -92l11 -62z" />
    <glyph glyph-name="uni1EBC" unicode="&#x1ebc;" horiz-adv-x="555" 
d="M493 720q6 -13 6 -30q0 -18 -6 -32h-323v-262h273q6 -13 6 -30q0 -16 -6 -31h-273v-273h333q6 -13 6 -30t-6 -32h-407v720h397zM250 841q29 1 62 -17t51 -17q28 0 40 27q27 -4 39 -25q-25 -50 -81 -51q-29 -1 -61 17q-33 17 -50 17q-30 -1 -41 -28q-30 3 -37 24
q22 51 78 53z" />
    <glyph glyph-name="uni1EBD" unicode="&#x1ebd;" horiz-adv-x="512" 
d="M131 240q5 -100 44 -144q36 -42 111 -42q76 0 122 33q24 -19 26 -53q-55 -44 -162 -44q-216 0 -216 276q0 137 60 206q55 64 155 64q90 0 139 -51t49 -142q0 -62 -11 -103h-317zM271 477q-132 0 -140 -183h254q3 21 3 57q0 126 -117 126zM213 653q29 1 62 -17t51 -17
q28 0 40 27q27 -4 39 -25q-25 -50 -81 -51q-29 -1 -61 17q-33 17 -50 17q-30 -1 -41 -28q-30 3 -37 24q22 51 78 53z" />
    <glyph glyph-name="uni1EBE" unicode="&#x1ebe;" horiz-adv-x="555" 
d="M437 798q-10 -28 -34 -35l-111 79l-110 -79q-24 9 -35 35l132 108h26zM493 720q6 -13 6 -30q0 -18 -6 -32h-323v-263h273q6 -13 6 -29q0 -17 -6 -32h-273v-272h333q6 -13 6 -30t-6 -32h-407v720h397zM327 1081q45 4 64 -29l-125 -139q-31 3 -43 24z" />
    <glyph glyph-name="uni1EBF" unicode="&#x1ebf;" horiz-adv-x="512" 
d="M411 636q-13 -28 -34 -33l-108 76l-108 -77q-23 8 -34 34l129 106h25zM131 240q5 -100 44 -144q36 -42 111 -42q76 0 122 33q24 -19 26 -53q-55 -44 -162 -44q-216 0 -216 276q0 137 60 206q55 64 155 64q90 0 140 -52q50 -51 50 -142q0 -62 -11 -102h-319zM271 477
q-132 0 -140 -183h253q4 20 4 57q0 126 -117 126zM277 911q45 4 64 -29l-125 -139q-31 3 -43 24z" />
    <glyph glyph-name="uni1EC0" unicode="&#x1ec0;" horiz-adv-x="555" 
d="M437 798q-10 -28 -34 -35l-111 79l-110 -79q-24 9 -35 35l132 108h26zM493 720q6 -13 6 -30q0 -18 -6 -32h-323v-263h273q6 -13 6 -29q0 -17 -6 -32h-273v-272h333q6 -13 6 -30t-6 -32h-407v720h397zM370 945q-13 -21 -43 -24l-125 139q21 33 64 29z" />
    <glyph glyph-name="uni1EC1" unicode="&#x1ec1;" horiz-adv-x="512" 
d="M411 636q-13 -28 -34 -33l-108 76l-108 -77q-23 8 -34 34l129 106h25zM131 240q5 -100 44 -144q36 -42 111 -42q76 0 122 33q24 -19 26 -53q-55 -44 -162 -44q-216 0 -216 276q0 137 60 206q55 64 155 64q90 0 140 -52q50 -51 50 -142q0 -62 -11 -102h-319zM271 477
q-132 0 -140 -183h253q4 20 4 57q0 126 -117 126zM334 773q-13 -21 -43 -24l-125 139q21 33 64 29z" />
    <glyph glyph-name="uni1EC2" unicode="&#x1ec2;" horiz-adv-x="555" 
d="M437 798q-10 -28 -34 -35l-111 79l-110 -79q-24 9 -35 35l132 108h26zM493 720q6 -13 6 -30q0 -18 -6 -32h-323v-263h273q6 -13 6 -29q0 -17 -6 -32h-273v-272h333q6 -13 6 -30t-6 -32h-407v720h397zM417 843l-15 84l8 10h30q53 0 53 44q0 49 -59 49q-32 0 -60 -13
q-14 10 -14 29q30 20 77 20q99 0 99 -84q0 -78 -92 -78l10 -53z" />
    <glyph glyph-name="uni1EC3" unicode="&#x1ec3;" horiz-adv-x="512" 
d="M411 636q-13 -28 -34 -33l-108 76l-108 -77q-23 8 -34 34l129 106h25zM131 240q5 -100 44 -144q36 -42 111 -42q76 0 122 33q24 -19 26 -53q-55 -44 -162 -44q-216 0 -216 276q0 137 60 206q55 64 155 64q90 0 140 -52q50 -51 50 -142q0 -62 -11 -102h-319zM271 477
q-132 0 -140 -183h253q4 20 4 57q0 126 -117 126zM359 691l-15 84l8 10h30q53 0 53 44q0 49 -59 49q-32 0 -60 -13q-14 10 -14 29q30 20 77 20q99 0 99 -84q0 -78 -92 -78l10 -53z" />
    <glyph glyph-name="uni1EC4" unicode="&#x1ec4;" horiz-adv-x="555" 
d="M437 798q-10 -28 -34 -35l-111 79l-110 -79q-24 9 -35 35l132 108h26zM493 720q6 -13 6 -30q0 -18 -6 -32h-323v-263h273q6 -13 6 -29q0 -17 -6 -32h-273v-272h333q6 -13 6 -30t-6 -32h-407v720h397zM242 1010q27 1 57 -15q29 -17 46 -16q25 0 36 25q24 -4 35 -23
q-23 -45 -73 -46q-26 -1 -55 15q-30 16 -46 16q-27 -1 -37 -26q-27 3 -33 22q20 46 70 48z" />
    <glyph glyph-name="uni1EC5" unicode="&#x1ec5;" horiz-adv-x="512" 
d="M411 636q-13 -28 -34 -33l-108 76l-108 -77q-23 8 -34 34l129 106h25zM131 240q5 -100 44 -144q36 -42 111 -42q76 0 122 33q24 -19 26 -53q-55 -44 -162 -44q-216 0 -216 276q0 137 60 206q55 64 155 64q90 0 140 -52q50 -51 50 -142q0 -62 -11 -102h-319zM271 477
q-132 0 -140 -183h253q4 20 4 57q0 126 -117 126zM211 835q27 1 57 -15q29 -17 46 -16q25 0 36 25q24 -4 35 -23q-23 -45 -73 -46q-26 -1 -55 15q-30 16 -46 16q-27 -1 -37 -26q-27 3 -33 22q20 46 70 48z" />
    <glyph glyph-name="uni1EC6" unicode="&#x1ec6;" horiz-adv-x="555" 
d="M437 798q-10 -28 -34 -35l-111 79l-110 -79q-24 9 -35 35l132 108h26zM493 720q6 -13 6 -30q0 -18 -6 -32h-323v-263h273q6 -13 6 -29q0 -17 -6 -32h-273v-272h333q6 -13 6 -30t-6 -32h-407v720h397zM338 -136q-14 -5 -38 -5q-27 0 -39 5v68q12 4 39 4q24 0 38 -4v-68z
" />
    <glyph glyph-name="uni1EC7" unicode="&#x1ec7;" horiz-adv-x="512" 
d="M411 636q-13 -28 -34 -33l-108 76l-108 -77q-23 8 -34 34l129 106h25zM131 240q5 -100 44 -144q36 -42 111 -42q76 0 122 33q24 -19 26 -53q-55 -44 -162 -44q-216 0 -216 276q0 137 60 206q55 64 155 64q90 0 140 -52q50 -51 50 -142q0 -62 -11 -102h-319zM271 477
q-132 0 -140 -183h253q4 20 4 57q0 126 -117 126zM303 -136q-14 -5 -38 -5q-27 0 -39 5v68q12 4 39 4q24 0 38 -4v-68z" />
    <glyph glyph-name="uni1EC8" unicode="&#x1ec8;" horiz-adv-x="266" 
d="M96 714q12 6 37 6t37 -6v-708q-13 -6 -37 -6q-26 0 -37 6v708zM114 742l-18 98l10 12h35q62 0 62 52q0 58 -69 58q-38 0 -70 -16q-17 12 -17 35q35 23 90 23q117 0 117 -99q0 -92 -108 -92l11 -62z" />
    <glyph glyph-name="uni1EC9" unicode="&#x1ec9;" horiz-adv-x="238" 
d="M155 5q-12 -5 -36 -5q-26 0 -36 5v516q10 5 36 5q24 0 36 -5v-516zM100 566l-18 98l10 12h35q62 0 62 52q0 58 -69 58q-38 0 -70 -16q-17 12 -17 35q35 23 90 23q117 0 117 -99q0 -92 -108 -92l11 -62z" />
    <glyph glyph-name="uni1ECA" unicode="&#x1eca;" horiz-adv-x="266" 
d="M96 714q12 6 37 6t37 -6v-708q-13 -6 -37 -6q-26 0 -37 6v708zM174 -136q-14 -5 -38 -5q-27 0 -39 5v68q12 4 39 4q24 0 38 -4v-68z" />
    <glyph glyph-name="uni1ECB" unicode="&#x1ecb;" horiz-adv-x="238" 
d="M160 640q-14 -5 -41 -5q-28 0 -41 5v73q13 5 41 5q27 0 41 -5v-73zM155 5q-12 -5 -36 -5q-26 0 -36 5v516q10 5 36 5q24 0 36 -5v-516zM158 -136q-14 -5 -38 -5q-27 0 -39 5v68q12 4 39 4q24 0 38 -4v-68z" />
    <glyph glyph-name="uni1ECC" unicode="&#x1ecc;" 
d="M339 730q275 0 275 -370t-275 -370t-275 370t275 370zM339 668q-197 0 -197 -308t197 -308t197 308t-197 308zM373 -136q-14 -5 -38 -5q-27 0 -39 5v68q12 4 39 4q24 0 38 -4v-68z" />
    <glyph glyph-name="uni1ECD" unicode="&#x1ecd;" horiz-adv-x="542" 
d="M271 536q214 0 214 -273t-214 -273t-214 273t214 273zM373 434q-33 45 -102 45t-102 -45q-38 -52 -38 -171t38 -171q33 -45 102 -45t102 45q38 52 38 171t-38 171zM311 -136q-14 -5 -38 -5q-27 0 -39 5v68q12 4 39 4q24 0 38 -4v-68z" />
    <glyph glyph-name="uni1ECE" unicode="&#x1ece;" 
d="M339 730q275 0 275 -370t-275 -370t-275 370t275 370zM339 668q-197 0 -197 -308t197 -308t197 308t-197 308zM313 742l-18 98l10 12h35q62 0 62 52q0 58 -69 58q-38 0 -70 -16q-17 12 -17 35q35 23 90 23q117 0 117 -99q0 -92 -108 -92l11 -62z" />
    <glyph glyph-name="uni1ECF" unicode="&#x1ecf;" horiz-adv-x="542" 
d="M271 536q214 0 214 -273t-214 -273t-214 273t214 273zM373 434q-33 45 -102 45t-102 -45q-38 -52 -38 -171t38 -171q33 -45 102 -45t102 45q38 52 38 171t-38 171zM255 566l-18 98l10 12h35q62 0 62 52q0 58 -69 58q-38 0 -70 -16q-17 12 -17 35q35 23 90 23
q117 0 117 -99q0 -92 -108 -92l11 -62z" />
    <glyph glyph-name="uni1ED0" unicode="&#x1ed0;" 
d="M486 798q-12 -28 -34 -35l-112 79l-110 -79q-25 9 -34 35l132 108h26zM339 730q275 0 275 -370t-275 -370t-275 370t275 370zM339 668q-197 0 -197 -308t197 -308t197 308t-197 308zM358 1083q45 4 64 -29l-125 -139q-31 3 -43 24z" />
    <glyph glyph-name="uni1ED1" unicode="&#x1ed1;" horiz-adv-x="542" 
d="M410 636q-13 -28 -33 -33l-109 76l-108 -77q-23 8 -34 34l129 106h25zM271 536q214 0 214 -273t-214 -273t-214 273t214 273zM373 434q-33 45 -102 45t-102 -45q-38 -52 -38 -171t38 -171q33 -45 102 -45t102 45q38 52 38 171t-38 171zM277 911q45 4 64 -29l-125 -139
q-31 3 -43 24z" />
    <glyph glyph-name="uni1ED2" unicode="&#x1ed2;" 
d="M486 798q-12 -28 -34 -35l-112 79l-110 -79q-25 9 -34 35l132 108h26zM339 730q275 0 275 -370t-275 -370t-275 370t275 370zM339 668q-197 0 -197 -308t197 -308t197 308t-197 308zM400 945q-13 -21 -43 -24l-125 139q21 33 64 29z" />
    <glyph glyph-name="uni1ED3" unicode="&#x1ed3;" horiz-adv-x="542" 
d="M410 636q-13 -28 -33 -33l-109 76l-108 -77q-23 8 -34 34l129 106h25zM271 536q214 0 214 -273t-214 -273t-214 273t214 273zM373 434q-33 45 -102 45t-102 -45q-38 -52 -38 -171t38 -171q33 -45 102 -45t102 45q38 52 38 171t-38 171zM343 773q-13 -21 -43 -24l-125 139
q21 33 64 29z" />
    <glyph glyph-name="uni1ED4" unicode="&#x1ed4;" 
d="M486 798q-12 -28 -34 -35l-112 79l-110 -79q-25 9 -34 35l132 108h26zM339 730q275 0 275 -370t-275 -370t-275 370t275 370zM339 668q-197 0 -197 -308t197 -308t197 308t-197 308zM442 853l-15 84l8 10h30q53 0 53 44q0 49 -59 49q-32 0 -60 -13q-14 10 -14 29
q30 20 77 20q99 0 99 -84q0 -78 -92 -78l10 -53z" />
    <glyph glyph-name="uni1ED5" unicode="&#x1ed5;" horiz-adv-x="542" 
d="M410 636q-13 -28 -33 -33l-109 76l-108 -77q-23 8 -34 34l129 106h25zM271 536q214 0 214 -273t-214 -273t-214 273t214 273zM373 434q-33 45 -102 45t-102 -45q-38 -52 -38 -171t38 -171q33 -45 102 -45t102 45q38 52 38 171t-38 171zM360 683l-15 84l8 10h30
q53 0 53 44q0 49 -59 49q-32 0 -60 -13q-14 10 -14 29q30 20 77 20q99 0 99 -84q0 -78 -92 -78l10 -53z" />
    <glyph glyph-name="uni1ED6" unicode="&#x1ed6;" 
d="M486 798q-12 -28 -34 -35l-112 79l-110 -79q-25 9 -34 35l132 108h26zM339 730q275 0 275 -370t-275 -370t-275 370t275 370zM339 668q-197 0 -197 -308t197 -308t197 308t-197 308zM293 1010q27 1 57 -15q29 -17 46 -16q25 0 36 25q24 -4 35 -23q-23 -45 -73 -46
q-26 -1 -55 15q-30 16 -46 16q-27 -1 -37 -26q-27 3 -33 22q20 46 70 48z" />
    <glyph glyph-name="uni1ED7" unicode="&#x1ed7;" horiz-adv-x="542" 
d="M410 636q-13 -28 -33 -33l-109 76l-108 -77q-23 8 -34 34l129 106h25zM271 536q214 0 214 -273t-214 -273t-214 273t214 273zM373 434q-33 45 -102 45t-102 -45q-38 -52 -38 -171t38 -171q33 -45 102 -45t102 45q38 52 38 171t-38 171zM211 835q27 1 57 -15
q29 -17 46 -16q25 0 36 25q24 -4 35 -23q-23 -45 -73 -46q-26 -1 -55 15q-30 16 -46 16q-27 -1 -37 -26q-27 3 -33 22q20 46 70 48z" />
    <glyph glyph-name="uni1ED8" unicode="&#x1ed8;" 
d="M486 798q-12 -28 -34 -35l-112 79l-110 -79q-25 9 -34 35l132 108h26zM339 730q275 0 275 -370t-275 -370t-275 370t275 370zM339 668q-197 0 -197 -308t197 -308t197 308t-197 308zM374 -136q-14 -5 -38 -5q-27 0 -39 5v68q12 4 39 4q24 0 38 -4v-68z" />
    <glyph glyph-name="uni1ED9" unicode="&#x1ed9;" horiz-adv-x="542" 
d="M410 636q-13 -28 -33 -33l-109 76l-108 -77q-23 8 -34 34l129 106h25zM271 536q214 0 214 -273t-214 -273t-214 273t214 273zM373 434q-33 45 -102 45t-102 -45q-38 -52 -38 -171t38 -171q33 -45 102 -45t102 45q38 52 38 171t-38 171zM306 -136q-14 -5 -38 -5
q-27 0 -39 5v68q12 4 39 4q24 0 38 -4v-68z" />
    <glyph glyph-name="uni1EDA" unicode="&#x1eda;" 
d="M339 730q275 0 275 -370t-275 -370t-275 370t275 370zM339 668q-197 0 -197 -308t197 -308t197 308t-197 308zM531 626q56 59 49 147q40 9 64 -7q-4 -113 -79 -159q-24 3 -34 19zM363 955q49 4 69 -31l-135 -150q-33 3 -46 26z" />
    <glyph glyph-name="uni1EDB" unicode="&#x1edb;" horiz-adv-x="542" 
d="M271 536q214 0 214 -273t-214 -273t-214 273t214 273zM373 434q-33 45 -102 45t-102 -45q-38 -52 -38 -171t38 -171q33 -45 102 -45t102 45q38 52 38 171t-38 171zM430 427q56 59 49 147q40 9 64 -7q-4 -113 -79 -159q-24 3 -34 19zM334 762q49 4 69 -31l-135 -150
q-33 3 -46 26z" />
    <glyph glyph-name="uni1EDC" unicode="&#x1edc;" 
d="M339 730q275 0 275 -370t-275 -370t-275 370t275 370zM339 668q-197 0 -197 -308t197 -308t197 308t-197 308zM531 626q56 59 49 147q40 9 64 -7q-4 -113 -79 -159q-24 3 -34 19zM373 796q-14 -23 -47 -26l-136 151q23 36 70 32z" />
    <glyph glyph-name="uni1EDD" unicode="&#x1edd;" horiz-adv-x="542" 
d="M271 536q214 0 214 -273t-214 -273t-214 273t214 273zM373 434q-33 45 -102 45t-102 -45q-38 -52 -38 -171t38 -171q33 -45 102 -45t102 45q38 52 38 171t-38 171zM430 427q56 59 49 147q40 9 64 -7q-4 -113 -79 -159q-24 3 -34 19zM299 598q-14 -23 -47 -26l-136 151
q23 36 70 32z" />
    <glyph glyph-name="uni1EDE" unicode="&#x1ede;" 
d="M339 730q275 0 275 -370t-275 -370t-275 370t275 370zM339 668q-197 0 -197 -308t197 -308t197 308t-197 308zM531 626q56 59 49 147q40 9 64 -7q-4 -113 -79 -159q-24 3 -34 19zM304 750l-18 98l10 12h35q62 0 62 52q0 58 -69 58q-38 0 -70 -16q-17 12 -17 35
q35 23 90 23q117 0 117 -99q0 -92 -108 -92l11 -62z" />
    <glyph glyph-name="uni1EDF" unicode="&#x1edf;" horiz-adv-x="542" 
d="M271 536q214 0 214 -273t-214 -273t-214 273t214 273zM373 434q-33 45 -102 45t-102 -45q-38 -52 -38 -171t38 -171q33 -45 102 -45t102 45q38 52 38 171t-38 171zM430 427q56 59 49 147q40 9 64 -7q-4 -113 -79 -159q-24 3 -34 19zM256 566l-18 98l10 12h35q62 0 62 52
q0 58 -69 58q-38 0 -70 -16q-17 12 -17 35q35 23 90 23q117 0 117 -99q0 -92 -108 -92l11 -62z" />
    <glyph glyph-name="uni1EE0" unicode="&#x1ee0;" 
d="M339 730q275 0 275 -370t-275 -370t-275 370t275 370zM339 668q-197 0 -197 -308t197 -308t197 308t-197 308zM531 626q56 59 49 147q40 9 64 -7q-4 -113 -79 -159q-24 3 -34 19zM278 841q29 1 62 -17t51 -17q28 0 40 27q27 -4 39 -25q-25 -50 -81 -51q-29 -1 -61 17
q-33 17 -50 17q-30 -1 -41 -28q-30 3 -37 24q22 51 78 53z" />
    <glyph glyph-name="uni1EE1" unicode="&#x1ee1;" horiz-adv-x="542" 
d="M271 536q214 0 214 -273t-214 -273t-214 273t214 273zM373 434q-33 45 -102 45t-102 -45q-38 -52 -38 -171t38 -171q33 -45 102 -45t102 45q38 52 38 171t-38 171zM430 427q56 59 49 147q40 9 64 -7q-4 -113 -79 -159q-24 3 -34 19zM213 653q29 1 62 -17t51 -17
q28 0 40 27q27 -4 39 -25q-25 -50 -81 -51q-29 -1 -61 17q-33 17 -50 17q-30 -1 -41 -28q-30 3 -37 24q22 51 78 53z" />
    <glyph glyph-name="uni1EE2" unicode="&#x1ee2;" 
d="M339 730q275 0 275 -370t-275 -370t-275 370t275 370zM339 668q-197 0 -197 -308t197 -308t197 308t-197 308zM531 626q56 59 49 147q40 9 64 -7q-4 -113 -79 -159q-24 3 -34 19zM379 -136q-14 -5 -38 -5q-27 0 -39 5v68q12 4 39 4q24 0 38 -4v-68z" />
    <glyph glyph-name="uni1EE3" unicode="&#x1ee3;" horiz-adv-x="542" 
d="M271 536q214 0 214 -273t-214 -273t-214 273t214 273zM373 434q-33 45 -102 45t-102 -45q-38 -52 -38 -171t38 -171q33 -45 102 -45t102 45q38 52 38 171t-38 171zM430 427q56 59 49 147q40 9 64 -7q-4 -113 -79 -159q-24 3 -34 19zM312 -136q-14 -5 -38 -5q-27 0 -39 5
v68q12 4 39 4q24 0 38 -4v-68z" />
    <glyph glyph-name="uni1EE4" unicode="&#x1ee4;" horiz-adv-x="668" 
d="M578 235q0 -116 -67 -181q-66 -64 -177 -64t-177 64q-66 66 -66 181v479q13 6 37 6q25 0 37 -6v-490q0 -81 45 -126t126 -45q80 0 125 45q44 45 44 126v490q12 6 36 6t37 -6v-479zM362 -136q-14 -5 -38 -5q-27 0 -39 5v68q12 4 39 4q24 0 38 -4v-68z" />
    <glyph glyph-name="uni1EE5" unicode="&#x1ee5;" horiz-adv-x="548" 
d="M76 521q13 5 36 5q25 0 36 -5v-367q0 -104 109 -104q90 0 139 91v380q12 5 36 5q25 0 36 -5v-516q-11 -5 -36 -5q-24 0 -36 5v63q-62 -78 -166 -78q-72 0 -114 41q-40 41 -40 109v381zM303 -136q-14 -5 -38 -5q-27 0 -39 5v68q12 4 39 4q24 0 38 -4v-68z" />
    <glyph glyph-name="uni1EE6" unicode="&#x1ee6;" horiz-adv-x="668" 
d="M578 235q0 -116 -67 -181q-66 -64 -177 -64t-177 64q-66 66 -66 181v479q13 6 37 6q25 0 37 -6v-490q0 -81 45 -126t126 -45q80 0 125 45q44 45 44 126v490q12 6 36 6t37 -6v-479zM295 742l-18 98l10 12h35q62 0 62 52q0 58 -69 58q-38 0 -70 -16q-17 12 -17 35
q35 23 90 23q117 0 117 -99q0 -92 -108 -92l11 -62z" />
    <glyph glyph-name="uni1EE7" unicode="&#x1ee7;" horiz-adv-x="548" 
d="M76 521q13 5 36 5q25 0 36 -5v-367q0 -104 109 -104q90 0 139 91v380q12 5 36 5q25 0 36 -5v-516q-11 -5 -36 -5q-24 0 -36 5v63q-62 -78 -166 -78q-72 0 -114 41q-40 41 -40 109v381zM246 566l-18 98l10 12h35q62 0 62 52q0 58 -69 58q-38 0 -70 -16q-17 12 -17 35
q35 23 90 23q117 0 117 -99q0 -92 -108 -92l11 -62z" />
    <glyph glyph-name="uni1EE8" unicode="&#x1ee8;" horiz-adv-x="668" 
d="M578 235q0 -116 -67 -181q-66 -64 -177 -64t-177 64q-66 66 -66 181v479q13 6 37 6q25 0 37 -6v-490q0 -81 45 -126t126 -45q80 0 125 45q44 45 44 126v490q12 6 36 6t37 -6v-479zM577 625q72 46 49 147q40 9 64 -7q17 -141 -117 -188q-8 23 4 48zM363 955q49 4 69 -31
l-135 -150q-33 3 -46 26z" />
    <glyph glyph-name="uni1EE9" unicode="&#x1ee9;" horiz-adv-x="548" 
d="M76 521q13 5 36 5q25 0 36 -5v-367q0 -104 109 -104q90 0 139 91v380q12 5 36 5q25 0 36 -5v-516q-11 -5 -36 -5q-24 0 -36 5v63q-62 -78 -166 -78q-72 0 -114 41q-40 41 -40 109v381zM467 428q72 46 49 147q40 9 64 -7q17 -141 -117 -188q-8 23 4 48zM334 762
q49 4 69 -31l-135 -150q-33 3 -46 26z" />
    <glyph glyph-name="uni1EEA" unicode="&#x1eea;" horiz-adv-x="668" 
d="M578 235q0 -116 -67 -181q-66 -64 -177 -64t-177 64q-66 66 -66 181v479q13 6 37 6q25 0 37 -6v-490q0 -81 45 -126t126 -45q80 0 125 45q44 45 44 126v490q12 6 36 6t37 -6v-479zM577 625q72 46 49 147q40 9 64 -7q17 -141 -117 -188q-8 23 4 48zM373 796
q-14 -23 -47 -26l-136 151q23 36 70 32z" />
    <glyph glyph-name="uni1EEB" unicode="&#x1eeb;" horiz-adv-x="548" 
d="M76 521q13 5 36 5q25 0 36 -5v-367q0 -104 109 -104q90 0 139 91v380q12 5 36 5q25 0 36 -5v-516q-11 -5 -36 -5q-24 0 -36 5v63q-62 -78 -166 -78q-72 0 -114 41q-40 41 -40 109v381zM467 428q72 46 49 147q40 9 64 -7q17 -141 -117 -188q-8 23 4 48zM299 598
q-14 -23 -47 -26l-136 151q23 36 70 32z" />
    <glyph glyph-name="uni1EEC" unicode="&#x1eec;" horiz-adv-x="668" 
d="M578 235q0 -116 -67 -181q-66 -64 -177 -64t-177 64q-66 66 -66 181v479q13 6 37 6q25 0 37 -6v-490q0 -81 45 -126t126 -45q80 0 125 45q44 45 44 126v490q12 6 36 6t37 -6v-479zM577 625q72 46 49 147q40 9 64 -7q17 -141 -117 -188q-8 23 4 48zM295 742l-18 98l10 12
h35q62 0 62 52q0 58 -69 58q-38 0 -70 -16q-17 12 -17 35q35 23 90 23q117 0 117 -99q0 -92 -108 -92l11 -62z" />
    <glyph glyph-name="uni1EED" unicode="&#x1eed;" horiz-adv-x="548" 
d="M76 521q13 5 36 5q25 0 36 -5v-367q0 -104 109 -104q90 0 139 91v380q12 5 36 5q25 0 36 -5v-516q-11 -5 -36 -5q-24 0 -36 5v63q-62 -78 -166 -78q-72 0 -114 41q-40 41 -40 109v381zM467 428q72 46 49 147q40 9 64 -7q17 -141 -117 -188q-8 23 4 48zM248 566l-18 98
l10 12h35q62 0 62 52q0 58 -69 58q-38 0 -70 -16q-17 12 -17 35q35 23 90 23q117 0 117 -99q0 -92 -108 -92l11 -62z" />
    <glyph glyph-name="uni1EEE" unicode="&#x1eee;" horiz-adv-x="668" 
d="M578 235q0 -116 -67 -181q-66 -64 -177 -64t-177 64q-66 66 -66 181v479q13 6 37 6q25 0 37 -6v-490q0 -81 45 -126t126 -45q80 0 125 45q44 45 44 126v490q12 6 36 6t37 -6v-479zM577 625q72 46 49 147q40 9 64 -7q17 -141 -117 -188q-8 23 4 48zM278 841q29 1 62 -17
t51 -17q28 0 40 27q27 -4 39 -25q-25 -50 -81 -51q-29 -1 -61 17q-33 17 -50 17q-30 -1 -41 -28q-30 3 -37 24q22 51 78 53z" />
    <glyph glyph-name="uni1EEF" unicode="&#x1eef;" horiz-adv-x="548" 
d="M76 521q13 5 36 5q25 0 36 -5v-367q0 -104 109 -104q90 0 139 91v380q12 5 36 5q25 0 36 -5v-516q-11 -5 -36 -5q-24 0 -36 5v63q-62 -78 -166 -78q-72 0 -114 41q-40 41 -40 109v381zM467 428q72 46 49 147q40 9 64 -7q17 -141 -117 -188q-8 23 4 48zM213 653
q29 1 62 -17t51 -17q28 0 40 27q27 -4 39 -25q-25 -50 -81 -51q-29 -1 -61 17q-33 17 -50 17q-30 -1 -41 -28q-30 3 -37 24q22 51 78 53z" />
    <glyph glyph-name="uni1EF0" unicode="&#x1ef0;" horiz-adv-x="668" 
d="M578 235q0 -116 -67 -181q-66 -64 -177 -64t-177 64q-66 66 -66 181v479q13 6 37 6q25 0 37 -6v-490q0 -81 45 -126t126 -45q80 0 125 45q44 45 44 126v490q12 6 36 6t37 -6v-479zM577 625q72 46 49 147q40 9 64 -7q17 -141 -117 -188q-8 23 4 48zM372 -136
q-14 -5 -38 -5q-27 0 -39 5v68q12 4 39 4q24 0 38 -4v-68z" />
    <glyph glyph-name="uni1EF1" unicode="&#x1ef1;" horiz-adv-x="548" 
d="M76 521q13 5 36 5q25 0 36 -5v-367q0 -104 109 -104q90 0 139 91v380q12 5 36 5q25 0 36 -5v-516q-11 -5 -36 -5q-24 0 -36 5v63q-62 -78 -166 -78q-72 0 -114 41q-40 41 -40 109v381zM467 428q72 46 49 147q40 9 64 -7q17 -141 -117 -188q-8 23 4 48zM301 -136
q-14 -5 -38 -5q-27 0 -39 5v68q12 4 39 4q24 0 38 -4v-68z" />
    <glyph glyph-name="Ygrave" unicode="&#x1ef2;" horiz-adv-x="628" 
d="M366 778q-13 -21 -43 -24l-125 139q21 33 64 29zM528 714q12 6 39 6q26 0 42 -6l-259 -411v-297q-12 -6 -36 -6q-26 0 -38 6v295l-252 413q15 6 45 6q28 0 42 -6l206 -335z" />
    <glyph glyph-name="ygrave" unicode="&#x1ef3;" horiz-adv-x="523" 
d="M127 746q21 33 64 29l104 -144q-13 -21 -43 -24zM285 -97q-27 -80 -56 -112q-36 -41 -99 -41q-30 0 -51 8q-6 12 -6 28q0 23 7 30q19 -5 43 -5q34 0 53 20q22 23 43 86l30 84q-11 0 -24 5l-200 515q13 5 38 5t38 -5l135 -343q24 -62 36 -107h3q11 44 32 107l118 343
q11 5 36 5q23 0 36 -5z" />
    <glyph glyph-name="uni1EF4" unicode="&#x1ef4;" horiz-adv-x="628" 
d="M528 714q12 6 39 6q26 0 42 -6l-259 -411v-297q-12 -6 -36 -6q-26 0 -38 6v295l-252 413q15 6 45 6q28 0 42 -6l206 -335zM353 -136q-14 -5 -38 -5q-27 0 -39 5v68q12 4 39 4q24 0 38 -4v-68z" />
    <glyph glyph-name="uni1EF5" unicode="&#x1ef5;" horiz-adv-x="523" 
d="M285 -97q-27 -80 -56 -112q-36 -41 -99 -41q-30 0 -51 8q-6 12 -6 28q0 23 7 30q19 -5 43 -5q34 0 53 20q22 23 43 86l30 84q-11 0 -24 5l-200 515q13 5 38 5t38 -5l135 -343q24 -62 36 -107h3q11 44 32 107l118 343q11 5 36 5q23 0 36 -5zM418 -136q-14 -5 -38 -5
q-27 0 -39 5v68q12 4 39 4q24 0 38 -4v-68z" />
    <glyph glyph-name="uni1EF6" unicode="&#x1ef6;" horiz-adv-x="628" 
d="M528 714q12 6 39 6q26 0 42 -6l-259 -411v-297q-12 -6 -36 -6q-26 0 -38 6v295l-252 413q15 6 45 6q28 0 42 -6l206 -335zM295 742l-18 98l10 12h35q62 0 62 52q0 58 -69 58q-38 0 -70 -16q-17 12 -17 35q35 23 90 23q117 0 117 -99q0 -92 -108 -92l11 -62z" />
    <glyph glyph-name="uni1EF7" unicode="&#x1ef7;" horiz-adv-x="523" 
d="M285 -97q-27 -80 -56 -112q-36 -41 -99 -41q-30 0 -51 8q-6 12 -6 28q0 23 7 30q19 -5 43 -5q34 0 53 20q22 23 43 86l30 84q-11 0 -24 5l-200 515q13 5 38 5t38 -5l135 -343q24 -62 36 -107h3q11 44 32 107l118 343q11 5 36 5q23 0 36 -5zM246 566l-18 98l10 12h35
q62 0 62 52q0 58 -69 58q-38 0 -70 -16q-17 12 -17 35q35 23 90 23q117 0 117 -99q0 -92 -108 -92l11 -62z" />
    <glyph glyph-name="uni1EF8" unicode="&#x1ef8;" horiz-adv-x="628" 
d="M528 714q12 6 39 6q26 0 42 -6l-259 -411v-297q-12 -6 -36 -6q-26 0 -38 6v295l-252 413q15 6 45 6q28 0 42 -6l206 -335zM278 841q29 1 62 -17t51 -17q28 0 40 27q27 -4 39 -25q-25 -50 -81 -51q-29 -1 -61 17q-33 17 -50 17q-30 -1 -41 -28q-30 3 -37 24q22 51 78 53z
" />
    <glyph glyph-name="uni1EF9" unicode="&#x1ef9;" horiz-adv-x="523" 
d="M285 -97q-27 -80 -56 -112q-36 -41 -99 -41q-30 0 -51 8q-6 12 -6 28q0 23 7 30q19 -5 43 -5q34 0 53 20q22 23 43 86l30 84q-11 0 -24 5l-200 515q13 5 38 5t38 -5l135 -343q24 -62 36 -107h3q11 44 32 107l118 343q11 5 36 5q23 0 36 -5zM213 653q29 1 62 -17t51 -17
q28 0 40 27q27 -4 39 -25q-25 -50 -81 -51q-29 -1 -61 17q-33 17 -50 17q-30 -1 -41 -28q-30 3 -37 24q22 51 78 53z" />
    <glyph glyph-name="endash" unicode="&#x2013;" horiz-adv-x="584" 
d="M93 262q-5 10 -5 28t5 28h397q4 -10 4 -28t-4 -28h-397z" />
    <glyph glyph-name="emdash" unicode="&#x2014;" horiz-adv-x="834" 
d="M93 262q-5 10 -5 28t5 28h647q4 -10 4 -28t-4 -28h-647z" />
    <glyph glyph-name="quoteleft" unicode="&#x2018;" horiz-adv-x="218" 
d="M155 700q-31 -32 -36 -93q19 -1 28 -4v-73q-13 -6 -41 -6q-26 0 -40 6v50q0 92 61 140z" />
    <glyph glyph-name="quoteright" unicode="&#x2019;" horiz-adv-x="209" 
d="M62 544q30 32 35 93q-19 1 -27 5v73q13 5 40 5t41 -5v-50q0 -93 -61 -141z" />
    <glyph glyph-name="quotesinglbase" unicode="&#x201a;" horiz-adv-x="225" 
d="M63 -93q31 33 35 93q-18 1 -26 5v73q12 5 40 5q27 0 41 -5v-50q0 -93 -62 -140z" />
    <glyph glyph-name="quotedblleft" unicode="&#x201c;" horiz-adv-x="327" 
d="M277 700q-31 -32 -36 -93q19 -1 27 -5v-73q-12 -5 -40 -5q-27 0 -41 5v50q0 93 62 141zM151 700q-30 -32 -35 -93q18 -1 27 -5v-73q-13 -5 -41 -5q-26 0 -40 5v50q0 93 61 141z" />
    <glyph glyph-name="quotedblright" unicode="&#x201d;" horiz-adv-x="336" 
d="M63 544q31 32 36 93q-19 1 -27 5v73q12 5 40 5q27 0 41 -5v-50q0 -93 -62 -141zM189 544q30 32 35 93q-18 1 -27 5v73q13 5 41 5q26 0 40 -5v-50q0 -93 -61 -141z" />
    <glyph glyph-name="quotedblbase" unicode="&#x201e;" horiz-adv-x="352" 
d="M64 -93q30 33 35 93q-18 1 -27 5v73q13 5 41 5q26 0 40 -5v-50q0 -93 -61 -140zM191 -93q31 33 35 93q-18 1 -27 5v73q13 5 41 5q26 0 40 -5v-50q0 -93 -61 -140z" />
    <glyph glyph-name="dagger" unicode="&#x2020;" horiz-adv-x="570" 
d="M256 -107l7 537l-229 -7q-4 12 -4 30q0 19 4 29l229 -6l-7 221q13 4 32 4t31 -4l-7 -221l225 6q4 -11 4 -29t-4 -30l-225 7l7 -537l-31 -20z" />
    <glyph glyph-name="daggerdbl" unicode="&#x2021;" horiz-adv-x="627" 
d="M567 156q4 -11 4 -30q0 -20 -4 -29l-229 7l7 -222q-12 -4 -32 -4t-31 4l7 222l-228 -7q-4 11 -4 29q0 19 4 30l228 -7l-7 140l7 141l-229 -7q-4 11 -4 30q0 20 4 29l229 -6l-7 221q12 4 32 4t31 -4l-7 -221l228 6q4 -11 4 -29q0 -19 -4 -30l-228 7l7 -141l-7 -140z" />
    <glyph glyph-name="bullet" unicode="&#x2022;" horiz-adv-x="318" 
d="M204 238q-18 -17 -45 -17t-44 17q-18 17 -18 44q0 28 18 45q17 17 44 17q62 0 62 -62q0 -27 -17 -44z" />
    <glyph glyph-name="ellipsis" unicode="&#x2026;" horiz-adv-x="588" 
d="M154 5q-14 -5 -41 -5q-28 0 -41 5v73q13 5 41 5q27 0 41 -5v-73zM335 5q-14 -5 -40 -5q-28 0 -41 5v73q13 5 41 5q26 0 40 -5v-73zM516 5q-14 -5 -41 -5q-28 0 -40 5v73q12 5 40 5q27 0 41 -5v-73z" />
    <glyph glyph-name="perthousand" unicode="&#x2030;" horiz-adv-x="1076" 
d="M217 -5q-11 -5 -32 -5q-20 0 -31 5l388 702q9 5 31 5q21 0 31 -5zM47 518q0 173 133 173t133 -173t-133 -173t-133 173zM105 518q0 -70 20 -100q17 -25 55 -25q74 0 74 125q0 126 -74 126q-75 0 -75 -126zM441 163q0 173 133 173t133 -173t-133 -173t-133 173zM766 163
q0 173 132 173q134 0 134 -173t-134 -173q-132 0 -132 173zM499 163q0 -125 75 -125q74 0 74 125q0 126 -74 126q-75 0 -75 -126zM824 163q0 -125 74 -125t74 125q0 126 -74 126t-74 -126z" />
    <glyph glyph-name="guilsinglleft" unicode="&#x2039;" horiz-adv-x="340" 
d="M259 509q20 -14 25 -45l-172 -194l172 -195q-5 -31 -25 -45l-204 208q-6 11 -6 30q0 20 6 32z" />
    <glyph glyph-name="guilsinglright" unicode="&#x203a;" horiz-adv-x="340" 
d="M285 300q6 -12 6 -32q0 -19 -6 -30l-204 -208q-20 14 -25 45l172 195l-172 194q5 31 25 45z" />
    <glyph glyph-name="fraction" unicode="&#x2044;" horiz-adv-x="131" 
d="M228 697q10 5 30 5t30 -5l-388 -702q-11 -5 -30 -5q-18 0 -29 5z" />
    <glyph glyph-name="uni2080" unicode="&#x2080;" horiz-adv-x="343" 
d="M40 76q0 176 131 176q132 0 132 -176q0 -177 -132 -177q-131 0 -131 177zM110 180q-19 -31 -19 -104q0 -74 19 -104q18 -30 61 -30q42 0 61 30q19 31 19 104q0 72 -19 104q-19 30 -61 30t-61 -30z" />
    <glyph glyph-name="uni2081" unicode="&#x2081;" horiz-adv-x="243" 
d="M137 244q11 3 25 3t23 -3v-337q-9 -3 -23 -3q-17 0 -27 3v236q0 29 1 41q-41 -34 -96 -46q-15 15 -12 40q66 17 109 66z" />
    <glyph glyph-name="uni2082" unicode="&#x2082;" horiz-adv-x="299" 
d="M122 67q50 27 61 36q28 21 28 51q0 56 -76 56q-44 0 -69 -10q-15 18 -12 38q37 14 90 14q117 0 117 -95q0 -63 -85 -109q-89 -48 -94 -100h171q5 -12 5 -22t-5 -22h-217q-4 18 -4 41q0 74 90 122z" />
    <glyph glyph-name="uni2083" unicode="&#x2083;" horiz-adv-x="299" 
d="M124 -101q-55 0 -91 17q0 24 14 35q33 -10 75 -10q87 0 87 61t-72 61h-45q-8 21 0 41h45q61 0 61 52q0 54 -69 54q-42 0 -75 -9q-14 14 -12 36q36 15 90 15q117 0 117 -90q0 -54 -45 -77q56 -23 56 -87q0 -99 -136 -99z" />
    <glyph glyph-name="uni2084" unicode="&#x2084;" horiz-adv-x="324" 
d="M289 32q4 -10 4 -20q0 -11 -4 -19h-40v-86q-18 -3 -22 -3q-7 0 -22 3v86h-176q-3 12 -3 16t3 16l172 218q10 4 24 4t24 -4v-211h40zM85 32h120v152z" />
    <glyph glyph-name="uni2085" unicode="&#x2085;" horiz-adv-x="295" 
d="M107 115q155 0 155 -109q0 -107 -136 -107q-56 0 -91 17q-2 23 13 36q33 -11 73 -11q90 0 90 64q0 38 -27 53q-24 14 -83 14h-42v175h184q9 -21 0 -44h-136v-88z" />
    <glyph glyph-name="uni2086" unicode="&#x2086;" horiz-adv-x="309" 
d="M238 250q10 -18 0 -40q-123 -15 -142 -115q37 17 71 17q50 0 79 -27q31 -28 31 -78q0 -52 -34 -81q-32 -27 -83 -27q-121 0 -121 145q0 188 199 206zM161 71q-38 0 -71 -20q0 -112 70 -112q66 0 66 68q0 64 -65 64z" />
    <glyph glyph-name="uni2087" unicode="&#x2087;" horiz-adv-x="276" 
d="M36 202q-10 23 0 45h215q3 -13 3 -29q0 -62 -68 -143q-67 -80 -65 -168q-25 -6 -50 0q1 98 58 171q65 83 73 124h-166z" />
    <glyph glyph-name="uni2088" unicode="&#x2088;" horiz-adv-x="322" 
d="M161 252q110 0 110 -85q0 -54 -51 -86q63 -32 63 -87q0 -95 -122 -95t-122 93q0 59 61 94q-51 30 -51 80q0 86 112 86zM160 214q-62 0 -62 -46q0 -36 85 -70q41 27 41 66q0 50 -64 50zM201 40q-1 0 -64 29q-50 -29 -50 -74q0 -56 76 -56q71 0 71 52q0 29 -33 49z" />
    <glyph glyph-name="uni2089" unicode="&#x2089;" horiz-adv-x="308" 
d="M66 225q31 27 82 27q121 0 121 -145q0 -188 -197 -206q-13 18 -2 40q123 15 143 115q-32 -16 -72 -16q-50 0 -79 27q-30 27 -30 77q0 52 34 81zM148 212q-65 0 -65 -68q0 -64 65 -64q34 0 71 20q-2 112 -71 112z" />
    <glyph glyph-name="dong" unicode="&#x20ab;" horiz-adv-x="555" 
d="M545 680q3 -7 3 -21q0 -22 -3 -28h-70v-519q-12 -4 -30 -4q-19 0 -32 4l-7 57q-48 -70 -157 -70q-192 0 -192 234t192 234q106 0 154 -67v131h-135q-4 6 -4 28q0 14 4 21h135v66q11 4 36 4t36 -4v-66h70zM403 389q-1 50 -34 86q-36 39 -96 39q-74 0 -107 -40
q-34 -42 -34 -141q0 -100 34 -141q33 -41 107 -41q60 0 97 41q33 35 33 87v110zM66 1q-5 7 -5 26q0 18 5 25h417q4 -7 4 -25q0 -19 -4 -26h-417z" />
    <glyph glyph-name="Euro" unicode="&#x20ac;" horiz-adv-x="588" 
d="M139 440q34 240 243 240q100 0 148 -31q-2 -34 -22 -51q-48 22 -117 22q-152 0 -178 -180h258q5 -27 -9 -49h-256q-1 -18 -1 -57q0 -37 1 -53h224q5 -27 -9 -49h-209q26 -181 179 -181q76 0 127 22q20 -16 22 -51q-53 -32 -158 -32q-210 0 -243 242h-84q-4 27 9 49h70
q-2 34 -2 54q0 37 2 56h-79q-4 28 9 49h75z" />
    <glyph glyph-name="uni20AE" unicode="&#x20ae;" horiz-adv-x="539" 
d="M235 427v228h-200q-6 13 -6 33q0 19 6 32h469q6 -12 6 -32q0 -19 -6 -33h-195v-194l155 71q6 -27 0 -63l-155 -71v-69l155 71q6 -27 0 -63l-155 -71v-260q-13 -6 -37 -6q-26 0 -37 6v226l-160 -73q-6 32 0 63l160 73v69l-160 -73q-6 32 0 63z" />
    <glyph glyph-name="uni20B4" unicode="&#x20b4;" horiz-adv-x="564" 
d="M426 482q13 23 13 53q0 131 -173 131q-87 0 -159 -21q-20 23 -20 58q74 27 189 27t177 -54q60 -53 60 -145q0 -26 -6 -49h43q5 -7 5 -25q0 -19 -5 -26h-66q-17 -25 -46 -44q-31 -20 -129 -52h241q5 -7 5 -25q0 -19 -5 -26h-369l-1 -1q-44 -33 -44 -92q0 -133 173 -133
q94 0 185 31q19 -25 19 -59q-82 -40 -209 -40q-117 0 -181 53q-63 53 -63 149q0 53 21 92h-68q-7 7 -7 26q0 18 7 25h110q41 32 132 60q72 21 107 36h-350q-6 7 -6 26q0 18 6 25h414z" />
    <glyph glyph-name="uni20B8" unicode="&#x20b8;" horiz-adv-x="539" 
d="M504 560q6 -12 6 -32q0 -19 -6 -33h-195v-489q-13 -6 -37 -6q-26 0 -37 6v489h-200q-6 13 -6 33q0 19 6 32h469zM32 641q-6 8 -6 30q0 20 6 28h471q5 -8 5 -28q0 -22 -5 -30h-471z" />
    <glyph glyph-name="uni20B9" unicode="&#x20b9;" horiz-adv-x="621" 
d="M238 657q14 35 41 65h336q-12 -31 -41 -65h-79q28 -32 40 -76h80q-12 -31 -41 -65h-31v-1q0 -76 -38 -128q-38 -53 -106 -69l173 -312q-15 -6 -43 -6t-43 6l-168 304l-36 63h47q64 0 100 37q36 38 36 105v1h-227q14 35 41 65h175q-9 22 -25 38q-36 38 -100 38h-91z" />
    <glyph glyph-name="uni20BA" unicode="&#x20ba;" horiz-adv-x="614" 
d="M96 462v252q11 6 38 6q24 0 36 -6v-229l192 60q3 -6 3 -27t-3 -30l-192 -60v-65l191 60q4 -7 4 -27q0 -21 -4 -30l-191 -60v-243h179q67 0 105 39l6 8l1 -89q-44 -21 -102 -21h-263v282l-95 -30q-4 7 -4 28t4 30l95 30v65l-95 -30q-4 6 -4 28q0 20 4 29z" />
    <glyph glyph-name="uni20BC" unicode="&#x20bc;" 
d="M335 499q282 -22 282 -498v-1h-88v1q0 388 -194 413v-324q-12 -9 -36 -17q-26 -9 -36 -7v346q-179 -39 -179 -411v-1h-88v1q0 462 267 496v85q10 8 36 17q24 8 36 7v-107z" />
    <glyph glyph-name="uni20BD" unicode="&#x20bd;" horiz-adv-x="602" 
d="M279 356q65 0 101 40q35 39 35 109q0 72 -35 112q-36 40 -101 40h-172v-301h172zM107 194v-188q-12 -6 -36 -6q-27 0 -38 6v188h-54q-6 34 0 63h54v36h-54q-6 34 0 63h54v364h253q95 0 152 -59q55 -58 55 -155q0 -96 -55 -155q-57 -59 -152 -59h-179v-35h261q6 -30 0 -63
h-261z" />
    <glyph glyph-name="afii61289" unicode="&#x2113;" horiz-adv-x="461" 
d="M120 530q0 111 33 162q37 58 125 58q144 0 144 -149q0 -182 -230 -345v-112q0 -92 75 -92q64 0 118 55q31 -7 35 -36q-62 -81 -172 -81q-67 0 -97 41q-31 43 -31 142v39q-22 -13 -68 -36q-22 18 -21 50q37 16 89 51v253zM280 697q-44 0 -65 -28q-23 -33 -23 -110v-227
q161 140 161 268q0 97 -73 97z" />
    <glyph glyph-name="afii61352" unicode="&#x2116;" horiz-adv-x="1000" 
d="M217 515q-36 60 -54 110h-3q5 -54 5 -152v-467q-11 -6 -35 -6q-23 0 -34 6v708q16 6 44 6q30 0 44 -6l293 -503q34 -58 57 -116h3q-6 64 -6 149v470q11 6 36 6q24 0 33 -6v-708q-13 -6 -42 -6q-30 0 -45 6zM669 546q0 176 131 176q133 0 133 -176q0 -177 -133 -177
q-131 0 -131 177zM739 650q-19 -31 -19 -104t19 -104q18 -30 61 -30q42 0 61 30q19 31 19 104q0 72 -19 104q-19 30 -61 30t-61 -30zM679 279q-8 30 0 56h248q8 -27 0 -56h-248z" />
    <glyph glyph-name="uni2117" unicode="&#x2117;" horiz-adv-x="804" 
d="M161 581q99 100 241 100t241 -100q100 -99 100 -241t-100 -241q-99 -100 -241 -100t-241 100q-100 99 -100 241t100 241zM607 545q-84 85 -205 85q-120 0 -205 -85q-86 -85 -86 -205t86 -205q85 -86 205 -86t205 86q85 85 85 205t-85 205zM439 523q59 0 95 -35
q35 -36 35 -93q0 -59 -35 -94q-36 -35 -95 -35h-90v-122q-27 -14 -53 0v379h143zM349 313h85q80 0 80 82t-80 82h-85v-164z" />
    <glyph glyph-name="trademark" unicode="&#x2122;" horiz-adv-x="627" 
d="M246 720q3 -6 3 -14q0 -7 -3 -15h-84v-256q-5 -3 -17 -3t-16 3v256h-86q-3 12 -3 14q0 8 3 15h203zM296 717q6 3 20 3l19 -3l50 -98q20 -40 34 -75q8 22 34 71l51 102q10 3 21 3q13 0 21 -3v-282q-6 -3 -16 -3q-11 0 -17 3v124q0 79 1 114l-30 -62l-51 -99q-5 -3 -15 -3
t-15 3l-49 98l-30 63q2 -30 2 -114v-124q-6 -3 -15 -3q-10 0 -15 3v282z" />
    <glyph glyph-name="uni2126" unicode="&#x2126;" horiz-adv-x="720" 
d="M155 647q72 83 205 83q283 0 283 -350q0 -160 -135 -315h148q7 -19 7 -32q0 -15 -7 -33h-235q-16 34 0 67q144 121 144 313q0 288 -205 288t-205 -288q0 -192 144 -313q14 -32 0 -67h-235q-7 18 -7 32q0 19 7 33h147q-134 154 -134 315q0 178 78 267z" />
    <glyph glyph-name="estimated" unicode="&#x212e;" horiz-adv-x="808" 
d="M666 95q-99 -105 -254 -105q-145 0 -249 103q-103 104 -103 249q0 146 103 249q104 103 249 103q146 0 249 -103t103 -249v-24h-544v-218q90 -67 192 -67q99 0 187 62h67zM604 583q-85 68 -192 68q-104 0 -192 -67v-222h384v221z" />
    <glyph glyph-name="onethird" unicode="&#x2153;" horiz-adv-x="715" 
d="M502 697q8 5 27 5t27 -5l-387 -703q-10 -4 -28 -4q-16 0 -27 4zM172 689q9 0 23 -4v-336q-11 -3 -23 -3q-18 0 -27 3v236q0 28 1 40q-41 -34 -96 -46q-16 14 -12 41q66 17 109 65q9 4 25 4zM544 348q116 0 116 -90q0 -54 -45 -77q56 -23 56 -87q0 -99 -135 -99
q-56 0 -91 17q-2 23 13 35q34 -10 76 -10q87 0 87 61t-72 61h-46q-8 21 0 41h46q61 0 61 52q0 54 -69 54q-42 0 -76 -9q-14 14 -12 36q37 15 91 15z" />
    <glyph glyph-name="twothirds" unicode="&#x2154;" horiz-adv-x="778" 
d="M562 697q8 5 27 5t27 -5l-387 -703q-10 -4 -28 -4q-16 0 -27 4zM137 509q50 27 61 36q28 21 28 51q0 55 -74 56q-41 0 -71 -10q-14 17 -12 38q38 14 91 14q117 0 117 -95q0 -63 -86 -109q-89 -48 -94 -100h172q4 -9 4 -22t-4 -22h-218q-4 18 -4 41q0 74 90 122zM596 -5
q-56 0 -91 17q-2 23 13 35q34 -10 76 -10q87 0 87 61t-72 61h-46q-8 21 0 41h46q61 0 61 52q0 54 -69 54q-42 0 -76 -9q-14 14 -12 36q37 15 91 15q116 0 116 -90q0 -54 -45 -77q56 -23 56 -87q0 -99 -135 -99z" />
    <glyph glyph-name="oneeighth" unicode="&#x215b;" horiz-adv-x="714" 
d="M502 697q8 5 27 5t27 -5l-387 -703q-10 -4 -28 -4q-16 0 -27 4zM172 689q9 0 23 -4v-336q-11 -3 -23 -3q-18 0 -27 3v236q0 28 1 40q-41 -34 -96 -46q-16 14 -12 41q66 17 109 65q9 4 25 4zM549 348q110 0 110 -85q0 -54 -51 -86q63 -32 63 -87q0 -95 -122 -95t-122 93
q0 59 61 94q-51 30 -51 80q0 86 112 86zM548 310q-62 0 -62 -46q0 -36 85 -70q41 27 41 66q0 50 -64 50zM589 136q-1 0 -64 29q-50 -29 -50 -74q0 -56 76 -56q71 0 71 52q0 29 -33 49z" />
    <glyph glyph-name="threeeighths" unicode="&#x215c;" horiz-adv-x="760" 
d="M547 697q8 5 27 5t27 -5l-387 -703q-10 -4 -28 -4q-16 0 -27 4zM152 694q116 0 116 -90q0 -54 -45 -77q56 -23 56 -87q0 -99 -135 -99q-56 0 -91 17q-2 23 13 35q34 -10 76 -10q87 0 87 61t-72 61h-46q-8 21 0 41h46q61 0 61 52q0 54 -69 54q-42 0 -76 -9q-14 14 -12 36
q37 15 91 15zM594 348q110 0 110 -85q0 -54 -51 -86q63 -32 63 -87q0 -95 -122 -95t-122 93q0 59 61 94q-51 30 -51 80q0 86 112 86zM593 310q-62 0 -62 -46q0 -36 85 -70q41 27 41 66q0 50 -64 50zM634 136q-1 0 -64 29q-50 -29 -50 -74q0 -56 76 -56q71 0 71 52
q0 29 -33 49z" />
    <glyph glyph-name="fiveeighths" unicode="&#x215d;" horiz-adv-x="756" 
d="M543 697q8 5 27 5t27 -5l-387 -703q-10 -4 -28 -4q-16 0 -27 4zM259 689q8 -23 0 -44h-137v-88q156 0 156 -109q0 -107 -136 -107q-56 0 -91 17q-2 22 12 36q34 -11 73 -11q90 0 90 64q0 38 -27 53q-24 14 -82 14h-43v175h185zM590 348q110 0 110 -85q0 -54 -51 -86
q63 -32 63 -87q0 -95 -122 -95t-122 93q0 59 61 94q-51 30 -51 80q0 86 112 86zM589 310q-62 0 -62 -46q0 -36 85 -70q41 27 41 66q0 50 -64 50zM630 136q-1 0 -64 29q-50 -29 -50 -74q0 -56 76 -56q71 0 71 52q0 29 -33 49z" />
    <glyph glyph-name="seveneighths" unicode="&#x215e;" horiz-adv-x="673" 
d="M462 697q8 5 27 5t27 -5l-387 -703q-10 -4 -28 -4q-16 0 -27 4zM272 689q3 -13 3 -28q0 -63 -65 -144q-65 -80 -65 -168q-24 -6 -49 0q1 97 56 170q62 84 70 125h-166q-8 23 0 45h216zM509 348q110 0 110 -85q0 -54 -51 -86q63 -32 63 -87q0 -95 -122 -95t-122 93
q0 59 61 94q-51 30 -51 80q0 86 112 86zM508 310q-62 0 -62 -46q0 -36 85 -70q41 27 41 66q0 50 -64 50zM549 136q-1 0 -64 29q-50 -29 -50 -74q0 -56 76 -56q71 0 71 52q0 29 -33 49z" />
    <glyph glyph-name="arrowleft" unicode="&#x2190;" horiz-adv-x="622" 
d="M256 565q24 -9 33 -33l-156 -156h437q4 -10 4 -26t-4 -26h-437l156 -156q-10 -26 -33 -33l-215 215z" />
    <glyph glyph-name="arrowup" unicode="&#x2191;" horiz-adv-x="497" 
d="M463 402q-6 -24 -32 -34l-156 156v-436q-10 -5 -27 -5q-11 0 -26 5v436l-155 -156q-26 9 -33 34l214 214z" />
    <glyph glyph-name="arrowright" unicode="&#x2192;" horiz-adv-x="622" 
d="M367 135q-24 6 -34 33l156 156h-436q-5 13 -5 26q0 18 5 26h436l-156 156q9 25 34 33l214 -215z" />
    <glyph glyph-name="arrowdown" unicode="&#x2193;" horiz-adv-x="497" 
d="M222 612q12 4 26 4q15 0 27 -4v-437l156 156q25 -10 32 -33l-215 -215l-214 215q7 24 33 33l155 -156v437z" />
    <glyph glyph-name="uni2196" unicode="&#x2196;" horiz-adv-x="513" 
d="M378 538q5 -12 5 -23t-5 -24h-220l309 -308q-9 -25 -38 -38l-309 310l1 -221q-9 -4 -23 -4q-15 0 -24 4v304h304z" />
    <glyph glyph-name="uni2197" unicode="&#x2197;" horiz-adv-x="513" 
d="M439 234q-9 -4 -24 -4q-14 0 -23 4v220l-308 -309q-29 12 -38 38l309 308h-220q-5 13 -5 24t5 23h304v-304z" />
    <glyph glyph-name="uni2198" unicode="&#x2198;" horiz-adv-x="509" 
d="M385 442q9 4 23 4q15 0 24 -4v-304h-304q-5 12 -5 23t5 24h220l-309 308q9 26 38 38l308 -309v220z" />
    <glyph glyph-name="uni2199" unicode="&#x2199;" horiz-adv-x="509" 
d="M432 531q29 -12 38 -38l-309 -308h220q5 -12 5 -23q0 -13 -5 -23h-304v303q9 5 24 5q14 0 23 -5v-220z" />
    </font>
</defs>
</svg>
