<svg width="23" height="23" viewBox="0 0 23 23" fill="none" xmlns="http://www.w3.org/2000/svg">
<path fill-rule="evenodd" clip-rule="evenodd" d="M22.5576 22.5568C21.9699 23.1457 21.0186 23.1474 20.433 22.5607L0.559198 2.65086C-0.0264431 2.06415 -0.0247176 1.11119 0.563053 0.522351C1.15082 -0.066486 2.10206 -0.0682146 2.68771 0.518489L22.5615 20.4283C23.1471 21.015 23.1454 21.968 22.5576 22.5568Z" fill="white"/>
<path fill-rule="evenodd" clip-rule="evenodd" d="M22.4365 0.442762C23.0243 1.0316 23.026 1.98456 22.4404 2.57127L2.56661 22.4811C1.98097 23.0678 1.02973 23.0661 0.44196 22.4772C-0.145811 21.8884 -0.147537 20.9354 0.438105 20.3487L20.3119 0.4389C20.8975 -0.147805 21.8488 -0.146076 22.4365 0.442762Z" fill="white"/>
</svg>
