<svg width="22" height="22" viewBox="0 0 22 22" fill="none" xmlns="http://www.w3.org/2000/svg">
<circle cx="11" cy="11" r="10" stroke="white" stroke-width="2"/>
<path d="M9.42871 4.84531C9.79255 4.75801 10.3132 4.71436 10.9907 4.71436C11.6431 4.71436 12.1701 4.75801 12.5716 4.84531L12.1764 12.9316C11.8878 13.0298 11.4989 13.0789 11.0095 13.0789C10.5202 13.0789 10.125 13.0298 9.82392 12.9316L9.42871 4.84531ZM12.5 16.5C12.1487 16.5873 11.6657 16.631 11.0509 16.631C10.3985 16.631 9.91546 16.5873 9.6018 16.5V14.1592C9.90291 14.0719 10.3859 14.0283 11.0509 14.0283C11.6657 14.0283 12.1487 14.0719 12.5 14.1592V16.5Z" fill="white"/>
</svg>
